G75*
%MOIN*%
%OFA0B0*%
%FSLAX24Y24*%
%IPPOS*%
%LPD*%
%AMOC8*
5,1,8,0,0,1.08239X$1,22.5*
%
%ADD10C,0.1310*%
%ADD11R,0.0640X0.0640*%
%ADD12OC8,0.0640*%
%ADD13C,0.0100*%
D10*
X004221Y001541D03*
X004221Y006711D03*
D11*
X008658Y000626D03*
D12*
X007658Y000626D03*
X007658Y001626D03*
X008658Y001626D03*
X008658Y002626D03*
X007658Y002626D03*
X007658Y003626D03*
X008658Y003626D03*
X008658Y004626D03*
X007658Y004626D03*
X007658Y005626D03*
X008658Y005626D03*
X008658Y006626D03*
X007658Y006626D03*
X007658Y007626D03*
X008658Y007626D03*
D13*
X000828Y006545D02*
X000828Y001639D01*
X002641Y001639D01*
X002698Y001643D01*
X002702Y001639D01*
X002708Y001639D01*
X002749Y001598D01*
X004198Y000339D01*
X007280Y000339D01*
X007188Y000432D01*
X007188Y000821D01*
X007463Y001096D01*
X007853Y001096D01*
X008128Y000821D01*
X008128Y000432D01*
X008036Y000339D01*
X008188Y000339D01*
X008188Y001009D01*
X008276Y001096D01*
X009040Y001096D01*
X009128Y001009D01*
X009128Y000339D01*
X009189Y000339D01*
X009189Y007953D01*
X008996Y007953D01*
X009128Y007821D01*
X009128Y007432D01*
X008853Y007156D01*
X008463Y007156D01*
X008188Y007432D01*
X008188Y007821D01*
X008320Y007953D01*
X007996Y007953D01*
X008128Y007821D01*
X008128Y007432D01*
X007853Y007156D01*
X007463Y007156D01*
X007188Y007432D01*
X007188Y007821D01*
X007320Y007953D01*
X004276Y007953D01*
X003072Y006929D01*
X002804Y006646D01*
X002740Y006646D01*
X002708Y006614D01*
X002701Y006614D01*
X002696Y006610D01*
X002640Y006614D01*
X000897Y006614D01*
X000828Y006545D01*
X000828Y006493D02*
X003440Y006493D01*
X003416Y006551D02*
X003539Y006255D01*
X003765Y006029D01*
X004061Y005906D01*
X004381Y005906D01*
X004677Y006029D01*
X004904Y006255D01*
X005026Y006551D01*
X005026Y006872D01*
X004904Y007167D01*
X004677Y007394D01*
X004381Y007516D01*
X004061Y007516D01*
X003765Y007394D01*
X003539Y007167D01*
X003416Y006872D01*
X003416Y006551D01*
X003416Y006593D02*
X000876Y006593D01*
X000878Y006595D02*
X000878Y001639D01*
X000828Y001693D02*
X003416Y001693D01*
X003416Y001702D02*
X003416Y001381D01*
X003539Y001085D01*
X003765Y000859D01*
X004061Y000736D01*
X004381Y000736D01*
X004677Y000859D01*
X004904Y001085D01*
X005026Y001381D01*
X005026Y001702D01*
X004904Y001997D01*
X004677Y002224D01*
X004381Y002346D01*
X004061Y002346D01*
X003765Y002224D01*
X003539Y001997D01*
X003416Y001702D01*
X003454Y001793D02*
X000828Y001793D01*
X000828Y001893D02*
X003495Y001893D01*
X003478Y001850D02*
X003478Y006402D01*
X003482Y006393D02*
X000828Y006393D01*
X000828Y006293D02*
X003523Y006293D01*
X003578Y006216D02*
X003578Y002037D01*
X003537Y001993D02*
X000828Y001993D01*
X000828Y002093D02*
X003634Y002093D01*
X003678Y002137D02*
X003678Y006116D01*
X003702Y006093D02*
X000828Y006093D01*
X000828Y006193D02*
X003602Y006193D01*
X003778Y006024D02*
X003778Y002229D01*
X003734Y002193D02*
X000828Y002193D01*
X000828Y002293D02*
X003931Y002293D01*
X003978Y002312D02*
X003978Y005941D01*
X004078Y005906D02*
X004078Y002346D01*
X004178Y002346D02*
X004178Y005906D01*
X004278Y005906D02*
X004278Y002346D01*
X004378Y002346D02*
X004378Y005906D01*
X004478Y005946D02*
X004478Y002306D01*
X004511Y002293D02*
X007327Y002293D01*
X007278Y002342D02*
X007278Y001868D01*
X007302Y001893D02*
X004947Y001893D01*
X004978Y001818D02*
X004978Y006435D01*
X004960Y006393D02*
X007227Y006393D01*
X007188Y006432D02*
X007463Y006156D01*
X007853Y006156D01*
X008128Y006432D01*
X008128Y006821D01*
X007853Y007096D01*
X007463Y007096D01*
X007188Y006821D01*
X007188Y006432D01*
X007188Y006493D02*
X005002Y006493D01*
X005026Y006593D02*
X007188Y006593D01*
X007188Y006693D02*
X005026Y006693D01*
X005026Y006793D02*
X007188Y006793D01*
X007260Y006893D02*
X005017Y006893D01*
X004978Y006988D02*
X004978Y007953D01*
X005078Y007953D02*
X005078Y000339D01*
X005178Y000339D02*
X005178Y007953D01*
X005278Y007953D02*
X005278Y000339D01*
X005378Y000339D02*
X005378Y007953D01*
X005478Y007953D02*
X005478Y000339D01*
X005578Y000339D02*
X005578Y007953D01*
X005678Y007953D02*
X005678Y000339D01*
X005778Y000339D02*
X005778Y007953D01*
X005878Y007953D02*
X005878Y000339D01*
X005978Y000339D02*
X005978Y007953D01*
X006078Y007953D02*
X006078Y000339D01*
X006178Y000339D02*
X006178Y007953D01*
X006278Y007953D02*
X006278Y000339D01*
X006378Y000339D02*
X006378Y007953D01*
X006478Y007953D02*
X006478Y000339D01*
X006578Y000339D02*
X006578Y007953D01*
X006678Y007953D02*
X006678Y000339D01*
X006778Y000339D02*
X006778Y007953D01*
X006878Y007953D02*
X006878Y000339D01*
X006978Y000339D02*
X006978Y007953D01*
X007078Y007953D02*
X007078Y000339D01*
X007178Y000339D02*
X007178Y007953D01*
X007278Y007953D02*
X007278Y007911D01*
X007260Y007893D02*
X004205Y007893D01*
X004178Y007869D02*
X004178Y007516D01*
X004278Y007516D02*
X004278Y007953D01*
X004378Y007953D02*
X004378Y007516D01*
X004439Y007493D02*
X007188Y007493D01*
X007188Y007593D02*
X003852Y007593D01*
X003878Y007614D02*
X003878Y007441D01*
X003978Y007482D02*
X003978Y007699D01*
X003970Y007693D02*
X007188Y007693D01*
X007188Y007793D02*
X004088Y007793D01*
X004078Y007784D02*
X004078Y007516D01*
X004003Y007493D02*
X003735Y007493D01*
X003778Y007529D02*
X003778Y007399D01*
X003764Y007393D02*
X003617Y007393D01*
X003578Y007359D02*
X003578Y007207D01*
X003564Y007193D02*
X003382Y007193D01*
X003378Y007189D02*
X003378Y001052D01*
X003331Y001093D02*
X003536Y001093D01*
X003578Y001046D02*
X003578Y000878D01*
X003561Y000893D02*
X003732Y000893D01*
X003778Y000854D02*
X003778Y000705D01*
X003792Y000693D02*
X007188Y000693D01*
X007188Y000793D02*
X004517Y000793D01*
X004478Y000776D02*
X004478Y000339D01*
X004578Y000339D02*
X004578Y000818D01*
X004678Y000860D02*
X004678Y000339D01*
X004778Y000339D02*
X004778Y000960D01*
X004811Y000993D02*
X007360Y000993D01*
X007378Y001011D02*
X007378Y001284D01*
X007370Y001293D02*
X004989Y001293D01*
X004978Y001265D02*
X004978Y000339D01*
X004878Y000339D02*
X004878Y001060D01*
X004907Y001093D02*
X007460Y001093D01*
X007478Y001096D02*
X007478Y001186D01*
X007476Y001186D02*
X007218Y001444D01*
X007218Y001576D01*
X007608Y001576D01*
X007708Y001576D01*
X007708Y001186D01*
X007840Y001186D01*
X008098Y001444D01*
X008098Y001576D01*
X007708Y001576D01*
X007708Y001676D01*
X008098Y001676D01*
X008098Y001809D01*
X007840Y002066D01*
X007708Y002066D01*
X007708Y001676D01*
X007608Y001676D01*
X007608Y001576D01*
X007608Y001186D01*
X007476Y001186D01*
X007470Y001193D02*
X004948Y001193D01*
X005026Y001393D02*
X007270Y001393D01*
X007278Y001384D02*
X007278Y000911D01*
X007260Y000893D02*
X004711Y000893D01*
X004378Y000736D02*
X004378Y000339D01*
X004278Y000339D02*
X004278Y000736D01*
X004178Y000736D02*
X004178Y000357D01*
X004137Y000393D02*
X007227Y000393D01*
X007278Y000342D02*
X007278Y000339D01*
X007188Y000493D02*
X004022Y000493D01*
X003978Y000531D02*
X003978Y000771D01*
X003925Y000793D02*
X003677Y000793D01*
X003678Y000791D02*
X003678Y000946D01*
X003632Y000993D02*
X003446Y000993D01*
X003478Y000965D02*
X003478Y001232D01*
X003494Y001193D02*
X003216Y001193D01*
X003178Y001226D02*
X003178Y007019D01*
X003147Y006993D02*
X003466Y006993D01*
X003478Y007020D02*
X003478Y007274D01*
X003499Y007293D02*
X003664Y007293D01*
X003678Y007307D02*
X003678Y007444D01*
X003508Y007093D02*
X003264Y007093D01*
X003278Y007104D02*
X003278Y001139D01*
X003453Y001293D02*
X003101Y001293D01*
X003078Y001313D02*
X003078Y006934D01*
X003037Y006893D02*
X003425Y006893D01*
X003416Y006793D02*
X002943Y006793D01*
X002978Y006830D02*
X002978Y001399D01*
X002986Y001393D02*
X003416Y001393D01*
X003416Y001493D02*
X002871Y001493D01*
X002878Y001486D02*
X002878Y006724D01*
X002848Y006693D02*
X003416Y006693D01*
X002778Y006646D02*
X002778Y001573D01*
X002755Y001593D02*
X003416Y001593D01*
X002678Y001641D02*
X002678Y006611D01*
X002578Y006614D02*
X002578Y001639D01*
X002478Y001639D02*
X002478Y006614D01*
X002378Y006614D02*
X002378Y001639D01*
X002278Y001639D02*
X002278Y006614D01*
X002178Y006614D02*
X002178Y001639D01*
X002078Y001639D02*
X002078Y006614D01*
X001978Y006614D02*
X001978Y001639D01*
X001878Y001639D02*
X001878Y006614D01*
X001778Y006614D02*
X001778Y001639D01*
X001678Y001639D02*
X001678Y006614D01*
X001578Y006614D02*
X001578Y001639D01*
X001478Y001639D02*
X001478Y006614D01*
X001378Y006614D02*
X001378Y001639D01*
X001278Y001639D02*
X001278Y006614D01*
X001178Y006614D02*
X001178Y001639D01*
X001078Y001639D02*
X001078Y006614D01*
X000978Y006614D02*
X000978Y001639D01*
X000828Y002393D02*
X007227Y002393D01*
X007188Y002432D02*
X007463Y002156D01*
X007853Y002156D01*
X008128Y002432D01*
X008128Y002821D01*
X007853Y003096D01*
X007463Y003096D01*
X007188Y002821D01*
X007188Y002432D01*
X007188Y002493D02*
X000828Y002493D01*
X000828Y002593D02*
X007188Y002593D01*
X007188Y002693D02*
X000828Y002693D01*
X000828Y002793D02*
X007188Y002793D01*
X007260Y002893D02*
X000828Y002893D01*
X000828Y002993D02*
X007360Y002993D01*
X007378Y003011D02*
X007378Y003242D01*
X007427Y003193D02*
X000828Y003193D01*
X000828Y003293D02*
X007327Y003293D01*
X007278Y003342D02*
X007278Y002911D01*
X007460Y003093D02*
X000828Y003093D01*
X000828Y003393D02*
X007227Y003393D01*
X007188Y003432D02*
X007463Y003156D01*
X007853Y003156D01*
X008128Y003432D01*
X008128Y003821D01*
X007853Y004096D01*
X007463Y004096D01*
X007188Y003821D01*
X007188Y003432D01*
X007188Y003493D02*
X000828Y003493D01*
X000828Y003593D02*
X007188Y003593D01*
X007188Y003693D02*
X000828Y003693D01*
X000828Y003793D02*
X007188Y003793D01*
X007260Y003893D02*
X000828Y003893D01*
X000828Y003993D02*
X007360Y003993D01*
X007378Y004011D02*
X007378Y004242D01*
X007427Y004193D02*
X000828Y004193D01*
X000828Y004293D02*
X007327Y004293D01*
X007278Y004342D02*
X007278Y003911D01*
X007460Y004093D02*
X000828Y004093D01*
X000828Y004393D02*
X007227Y004393D01*
X007188Y004432D02*
X007463Y004156D01*
X007853Y004156D01*
X008128Y004432D01*
X008128Y004821D01*
X007853Y005096D01*
X007463Y005096D01*
X007188Y004821D01*
X007188Y004432D01*
X007188Y004493D02*
X000828Y004493D01*
X000828Y004593D02*
X007188Y004593D01*
X007188Y004693D02*
X000828Y004693D01*
X000828Y004793D02*
X007188Y004793D01*
X007260Y004893D02*
X000828Y004893D01*
X000828Y004993D02*
X007360Y004993D01*
X007378Y005011D02*
X007378Y005242D01*
X007427Y005193D02*
X000828Y005193D01*
X000828Y005293D02*
X007327Y005293D01*
X007278Y005342D02*
X007278Y004911D01*
X007460Y005093D02*
X000828Y005093D01*
X000828Y005393D02*
X007227Y005393D01*
X007188Y005432D02*
X007463Y005156D01*
X007853Y005156D01*
X008128Y005432D01*
X008128Y005821D01*
X007853Y006096D01*
X007463Y006096D01*
X007188Y005821D01*
X007188Y005432D01*
X007188Y005493D02*
X000828Y005493D01*
X000828Y005593D02*
X007188Y005593D01*
X007188Y005693D02*
X000828Y005693D01*
X000828Y005793D02*
X007188Y005793D01*
X007260Y005893D02*
X000828Y005893D01*
X000828Y005993D02*
X003853Y005993D01*
X003878Y005982D02*
X003878Y002271D01*
X004578Y002265D02*
X004578Y005988D01*
X004589Y005993D02*
X007360Y005993D01*
X007378Y006011D02*
X007378Y006242D01*
X007427Y006193D02*
X004841Y006193D01*
X004878Y006230D02*
X004878Y002023D01*
X004906Y001993D02*
X007402Y001993D01*
X007378Y001968D02*
X007378Y002242D01*
X007427Y002193D02*
X004708Y002193D01*
X004678Y002223D02*
X004678Y006030D01*
X004741Y006093D02*
X007460Y006093D01*
X007478Y006096D02*
X007478Y006156D01*
X007578Y006156D02*
X007578Y006096D01*
X007678Y006096D02*
X007678Y006156D01*
X007778Y006156D02*
X007778Y006096D01*
X007857Y006093D02*
X008460Y006093D01*
X008463Y006096D02*
X008188Y005821D01*
X008188Y005432D01*
X008463Y005156D01*
X008853Y005156D01*
X009128Y005432D01*
X009128Y005821D01*
X008853Y006096D01*
X008463Y006096D01*
X008478Y006096D02*
X008478Y006156D01*
X008463Y006156D02*
X008853Y006156D01*
X009128Y006432D01*
X009128Y006821D01*
X008853Y007096D01*
X008463Y007096D01*
X008188Y006821D01*
X008188Y006432D01*
X008463Y006156D01*
X008427Y006193D02*
X007889Y006193D01*
X007878Y006181D02*
X007878Y006071D01*
X007957Y005993D02*
X008360Y005993D01*
X008378Y006011D02*
X008378Y006242D01*
X008327Y006293D02*
X007989Y006293D01*
X007978Y006281D02*
X007978Y005971D01*
X008057Y005893D02*
X008260Y005893D01*
X008278Y005911D02*
X008278Y006342D01*
X008227Y006393D02*
X008089Y006393D01*
X008078Y006381D02*
X008078Y005871D01*
X008128Y005793D02*
X008188Y005793D01*
X008188Y005693D02*
X008128Y005693D01*
X008128Y005593D02*
X008188Y005593D01*
X008188Y005493D02*
X008128Y005493D01*
X008089Y005393D02*
X008227Y005393D01*
X008278Y005342D02*
X008278Y004911D01*
X008260Y004893D02*
X008057Y004893D01*
X008078Y004871D02*
X008078Y005381D01*
X007989Y005293D02*
X008327Y005293D01*
X008378Y005242D02*
X008378Y005011D01*
X008360Y004993D02*
X007957Y004993D01*
X007978Y004971D02*
X007978Y005281D01*
X007889Y005193D02*
X008427Y005193D01*
X008478Y005156D02*
X008478Y005096D01*
X008463Y005096D02*
X008188Y004821D01*
X008188Y004432D01*
X008463Y004156D01*
X008853Y004156D01*
X009128Y004432D01*
X009128Y004821D01*
X008853Y005096D01*
X008463Y005096D01*
X008460Y005093D02*
X007857Y005093D01*
X007878Y005071D02*
X007878Y005181D01*
X007778Y005156D02*
X007778Y005096D01*
X007678Y005096D02*
X007678Y005156D01*
X007578Y005156D02*
X007578Y005096D01*
X007478Y005096D02*
X007478Y005156D01*
X008128Y004793D02*
X008188Y004793D01*
X008188Y004693D02*
X008128Y004693D01*
X008128Y004593D02*
X008188Y004593D01*
X008188Y004493D02*
X008128Y004493D01*
X008089Y004393D02*
X008227Y004393D01*
X008278Y004342D02*
X008278Y003911D01*
X008260Y003893D02*
X008057Y003893D01*
X008078Y003871D02*
X008078Y004381D01*
X007989Y004293D02*
X008327Y004293D01*
X008378Y004242D02*
X008378Y004011D01*
X008360Y003993D02*
X007957Y003993D01*
X007978Y003971D02*
X007978Y004281D01*
X007889Y004193D02*
X008427Y004193D01*
X008478Y004156D02*
X008478Y004096D01*
X008463Y004096D02*
X008188Y003821D01*
X008188Y003432D01*
X008463Y003156D01*
X008853Y003156D01*
X009128Y003432D01*
X009128Y003821D01*
X008853Y004096D01*
X008463Y004096D01*
X008460Y004093D02*
X007857Y004093D01*
X007878Y004071D02*
X007878Y004181D01*
X007778Y004156D02*
X007778Y004096D01*
X007678Y004096D02*
X007678Y004156D01*
X007578Y004156D02*
X007578Y004096D01*
X007478Y004096D02*
X007478Y004156D01*
X008128Y003793D02*
X008188Y003793D01*
X008188Y003693D02*
X008128Y003693D01*
X008128Y003593D02*
X008188Y003593D01*
X008188Y003493D02*
X008128Y003493D01*
X008089Y003393D02*
X008227Y003393D01*
X008278Y003342D02*
X008278Y002911D01*
X008260Y002893D02*
X008057Y002893D01*
X008078Y002871D02*
X008078Y003381D01*
X007989Y003293D02*
X008327Y003293D01*
X008378Y003242D02*
X008378Y003011D01*
X008360Y002993D02*
X007957Y002993D01*
X007978Y002971D02*
X007978Y003281D01*
X007889Y003193D02*
X008427Y003193D01*
X008478Y003156D02*
X008478Y003096D01*
X008463Y003096D02*
X008188Y002821D01*
X008188Y002432D01*
X008463Y002156D01*
X008853Y002156D01*
X009128Y002432D01*
X009128Y002821D01*
X008853Y003096D01*
X008463Y003096D01*
X008460Y003093D02*
X007857Y003093D01*
X007878Y003071D02*
X007878Y003181D01*
X007778Y003156D02*
X007778Y003096D01*
X007678Y003096D02*
X007678Y003156D01*
X007578Y003156D02*
X007578Y003096D01*
X007478Y003096D02*
X007478Y003156D01*
X008128Y002793D02*
X008188Y002793D01*
X008188Y002693D02*
X008128Y002693D01*
X008128Y002593D02*
X008188Y002593D01*
X008188Y002493D02*
X008128Y002493D01*
X008089Y002393D02*
X008227Y002393D01*
X008278Y002342D02*
X008278Y001868D01*
X008302Y001893D02*
X008014Y001893D01*
X007978Y001929D02*
X007978Y002281D01*
X007989Y002293D02*
X008327Y002293D01*
X008378Y002242D02*
X008378Y001968D01*
X008402Y001993D02*
X007914Y001993D01*
X007878Y002029D02*
X007878Y002181D01*
X007889Y002193D02*
X008427Y002193D01*
X008478Y002156D02*
X008478Y002066D01*
X008476Y002066D02*
X008218Y001809D01*
X008218Y001676D01*
X008608Y001676D01*
X008608Y001576D01*
X008708Y001576D01*
X008708Y001186D01*
X008840Y001186D01*
X009098Y001444D01*
X009098Y001576D01*
X008708Y001576D01*
X008708Y001676D01*
X009098Y001676D01*
X009098Y001809D01*
X008840Y002066D01*
X008708Y002066D01*
X008708Y001676D01*
X008608Y001676D01*
X008608Y002066D01*
X008476Y002066D01*
X008578Y002066D02*
X008578Y002156D01*
X008678Y002156D02*
X008678Y001676D01*
X008708Y001693D02*
X008608Y001693D01*
X008578Y001676D02*
X008578Y001576D01*
X008608Y001576D02*
X008218Y001576D01*
X008218Y001444D01*
X008476Y001186D01*
X008608Y001186D01*
X008608Y001576D01*
X008608Y001593D02*
X007708Y001593D01*
X007678Y001576D02*
X007678Y001096D01*
X007778Y001096D02*
X007778Y001186D01*
X007847Y001193D02*
X008470Y001193D01*
X008478Y001186D02*
X008478Y001096D01*
X008578Y001096D02*
X008578Y001186D01*
X008608Y001193D02*
X008708Y001193D01*
X008778Y001186D02*
X008778Y001096D01*
X008878Y001096D02*
X008878Y001224D01*
X008847Y001193D02*
X009189Y001193D01*
X009189Y001293D02*
X008947Y001293D01*
X008978Y001324D02*
X008978Y001096D01*
X009044Y001093D02*
X009189Y001093D01*
X009078Y001059D02*
X009078Y001424D01*
X009047Y001393D02*
X009189Y001393D01*
X009189Y001493D02*
X009098Y001493D01*
X009078Y001576D02*
X009078Y001676D01*
X009098Y001693D02*
X009189Y001693D01*
X009189Y001793D02*
X009098Y001793D01*
X009078Y001829D02*
X009078Y002381D01*
X009089Y002393D02*
X009189Y002393D01*
X009189Y002293D02*
X008989Y002293D01*
X008978Y002281D02*
X008978Y001929D01*
X009014Y001893D02*
X009189Y001893D01*
X009189Y001993D02*
X008914Y001993D01*
X008878Y002029D02*
X008878Y002181D01*
X008889Y002193D02*
X009189Y002193D01*
X009189Y002093D02*
X004808Y002093D01*
X004778Y002123D02*
X004778Y006130D01*
X004919Y006293D02*
X007327Y006293D01*
X007278Y006342D02*
X007278Y005911D01*
X008128Y006493D02*
X008188Y006493D01*
X008188Y006593D02*
X008128Y006593D01*
X008128Y006693D02*
X008188Y006693D01*
X008188Y006793D02*
X008128Y006793D01*
X008078Y006871D02*
X008078Y007381D01*
X008089Y007393D02*
X008227Y007393D01*
X008278Y007342D02*
X008278Y006911D01*
X008260Y006893D02*
X008057Y006893D01*
X007978Y006971D02*
X007978Y007281D01*
X007989Y007293D02*
X008327Y007293D01*
X008378Y007242D02*
X008378Y007011D01*
X008360Y006993D02*
X007957Y006993D01*
X007878Y007071D02*
X007878Y007181D01*
X007889Y007193D02*
X008427Y007193D01*
X008478Y007156D02*
X008478Y007096D01*
X008460Y007093D02*
X007857Y007093D01*
X007778Y007096D02*
X007778Y007156D01*
X007678Y007156D02*
X007678Y007096D01*
X007578Y007096D02*
X007578Y007156D01*
X007478Y007156D02*
X007478Y007096D01*
X007460Y007093D02*
X004935Y007093D01*
X004976Y006993D02*
X007360Y006993D01*
X007378Y007011D02*
X007378Y007242D01*
X007427Y007193D02*
X004878Y007193D01*
X004878Y007953D01*
X004778Y007953D02*
X004778Y007293D01*
X007327Y007293D01*
X007278Y007342D02*
X007278Y006911D01*
X007227Y007393D02*
X004678Y007393D01*
X004678Y007953D01*
X004578Y007953D02*
X004578Y007435D01*
X004478Y007476D02*
X004478Y007953D01*
X008057Y007893D02*
X008260Y007893D01*
X008278Y007911D02*
X008278Y007953D01*
X008178Y007953D02*
X008178Y000339D01*
X008188Y000393D02*
X008089Y000393D01*
X008078Y000381D02*
X008078Y000339D01*
X008128Y000493D02*
X008188Y000493D01*
X008188Y000593D02*
X008128Y000593D01*
X008128Y000693D02*
X008188Y000693D01*
X008188Y000793D02*
X008128Y000793D01*
X008078Y000871D02*
X008078Y001424D01*
X008047Y001393D02*
X008270Y001393D01*
X008278Y001384D02*
X008278Y001096D01*
X008272Y001093D02*
X007857Y001093D01*
X007878Y001071D02*
X007878Y001224D01*
X007947Y001293D02*
X008370Y001293D01*
X008378Y001284D02*
X008378Y001096D01*
X008188Y000993D02*
X007957Y000993D01*
X007978Y000971D02*
X007978Y001324D01*
X008098Y001493D02*
X008218Y001493D01*
X008278Y001576D02*
X008278Y001676D01*
X008218Y001693D02*
X008098Y001693D01*
X008078Y001676D02*
X008078Y001576D01*
X007978Y001576D02*
X007978Y001676D01*
X007878Y001676D02*
X007878Y001576D01*
X007778Y001576D02*
X007778Y001676D01*
X007708Y001693D02*
X007608Y001693D01*
X007608Y001676D02*
X007608Y002066D01*
X007476Y002066D01*
X007218Y001809D01*
X007218Y001676D01*
X007608Y001676D01*
X007578Y001676D02*
X007578Y001576D01*
X007608Y001593D02*
X005026Y001593D01*
X005026Y001693D02*
X007218Y001693D01*
X007278Y001676D02*
X007278Y001576D01*
X007378Y001576D02*
X007378Y001676D01*
X007478Y001676D02*
X007478Y001576D01*
X007608Y001493D02*
X007708Y001493D01*
X007708Y001393D02*
X007608Y001393D01*
X007608Y001293D02*
X007708Y001293D01*
X007708Y001193D02*
X007608Y001193D01*
X007578Y001186D02*
X007578Y001096D01*
X007218Y001493D02*
X005026Y001493D01*
X004988Y001793D02*
X007218Y001793D01*
X007478Y002066D02*
X007478Y002156D01*
X007578Y002156D02*
X007578Y002066D01*
X007608Y001993D02*
X007708Y001993D01*
X007778Y002066D02*
X007778Y002156D01*
X007678Y002156D02*
X007678Y001676D01*
X007708Y001793D02*
X007608Y001793D01*
X007608Y001893D02*
X007708Y001893D01*
X008078Y001829D02*
X008078Y002381D01*
X008608Y001993D02*
X008708Y001993D01*
X008778Y002066D02*
X008778Y002156D01*
X008708Y001893D02*
X008608Y001893D01*
X008608Y001793D02*
X008708Y001793D01*
X008778Y001676D02*
X008778Y001576D01*
X008708Y001593D02*
X009189Y001593D01*
X008978Y001576D02*
X008978Y001676D01*
X008878Y001676D02*
X008878Y001576D01*
X008708Y001493D02*
X008608Y001493D01*
X008678Y001576D02*
X008678Y001096D01*
X008708Y001293D02*
X008608Y001293D01*
X008608Y001393D02*
X008708Y001393D01*
X008478Y001576D02*
X008478Y001676D01*
X008378Y001676D02*
X008378Y001576D01*
X008218Y001793D02*
X008098Y001793D01*
X008057Y000893D02*
X008188Y000893D01*
X009128Y000893D02*
X009189Y000893D01*
X009189Y000993D02*
X009128Y000993D01*
X009128Y000793D02*
X009189Y000793D01*
X009189Y000693D02*
X009128Y000693D01*
X009128Y000593D02*
X009189Y000593D01*
X009189Y000493D02*
X009128Y000493D01*
X009128Y000393D02*
X009189Y000393D01*
X009178Y000339D02*
X009178Y007953D01*
X009189Y007893D02*
X009057Y007893D01*
X009078Y007871D02*
X009078Y007953D01*
X009128Y007793D02*
X009189Y007793D01*
X009189Y007693D02*
X009128Y007693D01*
X009128Y007593D02*
X009189Y007593D01*
X009189Y007493D02*
X009128Y007493D01*
X009089Y007393D02*
X009189Y007393D01*
X009078Y007381D02*
X009078Y006871D01*
X009057Y006893D02*
X009189Y006893D01*
X009189Y006993D02*
X008957Y006993D01*
X008978Y006971D02*
X008978Y007281D01*
X008989Y007293D02*
X009189Y007293D01*
X009189Y007193D02*
X008889Y007193D01*
X008878Y007181D02*
X008878Y007071D01*
X008857Y007093D02*
X009189Y007093D01*
X009189Y006793D02*
X009128Y006793D01*
X009128Y006693D02*
X009189Y006693D01*
X009189Y006593D02*
X009128Y006593D01*
X009128Y006493D02*
X009189Y006493D01*
X009189Y006393D02*
X009089Y006393D01*
X009078Y006381D02*
X009078Y005871D01*
X009057Y005893D02*
X009189Y005893D01*
X009189Y005993D02*
X008957Y005993D01*
X008978Y005971D02*
X008978Y006281D01*
X008989Y006293D02*
X009189Y006293D01*
X009189Y006193D02*
X008889Y006193D01*
X008878Y006181D02*
X008878Y006071D01*
X008857Y006093D02*
X009189Y006093D01*
X009189Y005793D02*
X009128Y005793D01*
X009128Y005693D02*
X009189Y005693D01*
X009189Y005593D02*
X009128Y005593D01*
X009128Y005493D02*
X009189Y005493D01*
X009189Y005393D02*
X009089Y005393D01*
X009078Y005381D02*
X009078Y004871D01*
X009057Y004893D02*
X009189Y004893D01*
X009189Y004993D02*
X008957Y004993D01*
X008978Y004971D02*
X008978Y005281D01*
X008989Y005293D02*
X009189Y005293D01*
X009189Y005193D02*
X008889Y005193D01*
X008878Y005181D02*
X008878Y005071D01*
X008857Y005093D02*
X009189Y005093D01*
X009189Y004793D02*
X009128Y004793D01*
X009128Y004693D02*
X009189Y004693D01*
X009189Y004593D02*
X009128Y004593D01*
X009128Y004493D02*
X009189Y004493D01*
X009189Y004393D02*
X009089Y004393D01*
X009078Y004381D02*
X009078Y003871D01*
X009057Y003893D02*
X009189Y003893D01*
X009189Y003793D02*
X009128Y003793D01*
X009128Y003693D02*
X009189Y003693D01*
X009189Y003593D02*
X009128Y003593D01*
X009128Y003493D02*
X009189Y003493D01*
X009189Y003393D02*
X009089Y003393D01*
X009078Y003381D02*
X009078Y002871D01*
X009057Y002893D02*
X009189Y002893D01*
X009189Y002793D02*
X009128Y002793D01*
X009128Y002693D02*
X009189Y002693D01*
X009189Y002593D02*
X009128Y002593D01*
X009128Y002493D02*
X009189Y002493D01*
X008978Y002971D02*
X008978Y003281D01*
X008989Y003293D02*
X009189Y003293D01*
X009189Y003193D02*
X008889Y003193D01*
X008878Y003181D02*
X008878Y003071D01*
X008857Y003093D02*
X009189Y003093D01*
X009189Y002993D02*
X008957Y002993D01*
X008778Y003096D02*
X008778Y003156D01*
X008678Y003156D02*
X008678Y003096D01*
X008578Y003096D02*
X008578Y003156D01*
X008978Y003971D02*
X008978Y004281D01*
X008989Y004293D02*
X009189Y004293D01*
X009189Y004193D02*
X008889Y004193D01*
X008878Y004181D02*
X008878Y004071D01*
X008857Y004093D02*
X009189Y004093D01*
X009189Y003993D02*
X008957Y003993D01*
X008778Y004096D02*
X008778Y004156D01*
X008678Y004156D02*
X008678Y004096D01*
X008578Y004096D02*
X008578Y004156D01*
X008578Y005096D02*
X008578Y005156D01*
X008678Y005156D02*
X008678Y005096D01*
X008778Y005096D02*
X008778Y005156D01*
X008778Y006096D02*
X008778Y006156D01*
X008678Y006156D02*
X008678Y006096D01*
X008578Y006096D02*
X008578Y006156D01*
X008578Y007096D02*
X008578Y007156D01*
X008678Y007156D02*
X008678Y007096D01*
X008778Y007096D02*
X008778Y007156D01*
X008188Y007493D02*
X008128Y007493D01*
X008128Y007593D02*
X008188Y007593D01*
X008188Y007693D02*
X008128Y007693D01*
X008128Y007793D02*
X008188Y007793D01*
X008078Y007871D02*
X008078Y007953D01*
X003878Y000812D02*
X003878Y000618D01*
X003907Y000593D02*
X007188Y000593D01*
X004078Y000444D02*
X004078Y000736D01*
M02*
