G75*
%MOIN*%
%OFA0B0*%
%FSLAX24Y24*%
%IPPOS*%
%LPD*%
%AMOC8*
5,1,8,0,0,1.08239X$1,22.5*
%
%ADD10R,0.0394X0.0433*%
%ADD11C,0.0118*%
D10*
X006185Y005592D03*
X006185Y006261D03*
X007662Y006285D03*
X007662Y005615D03*
X004651Y005665D03*
X004651Y006334D03*
X012312Y005535D03*
X012312Y004865D03*
X027312Y004815D03*
X027312Y005485D03*
X027062Y020215D03*
X027062Y020885D03*
X012412Y020935D03*
X012412Y020265D03*
X012062Y035265D03*
X012062Y035935D03*
X027262Y035985D03*
X027262Y035315D03*
D11*
X004800Y004293D02*
X004524Y004293D01*
X004800Y004293D02*
X004800Y004017D01*
X004524Y004017D01*
X004524Y004293D01*
X004524Y004134D02*
X004800Y004134D01*
X004800Y004251D02*
X004524Y004251D01*
X004524Y004983D02*
X004800Y004983D01*
X004800Y004707D01*
X004524Y004707D01*
X004524Y004983D01*
X004524Y004824D02*
X004800Y004824D01*
X004800Y004941D02*
X004524Y004941D01*
X006024Y004983D02*
X006300Y004983D01*
X006300Y004707D01*
X006024Y004707D01*
X006024Y004983D01*
X006024Y004824D02*
X006300Y004824D01*
X006300Y004941D02*
X006024Y004941D01*
X006024Y004293D02*
X006300Y004293D01*
X006300Y004017D01*
X006024Y004017D01*
X006024Y004293D01*
X006024Y004134D02*
X006300Y004134D01*
X006300Y004251D02*
X006024Y004251D01*
X007524Y004293D02*
X007800Y004293D01*
X007800Y004017D01*
X007524Y004017D01*
X007524Y004293D01*
X007524Y004134D02*
X007800Y004134D01*
X007800Y004251D02*
X007524Y004251D01*
X007524Y004983D02*
X007800Y004983D01*
X007800Y004707D01*
X007524Y004707D01*
X007524Y004983D01*
X007524Y004824D02*
X007800Y004824D01*
X007800Y004941D02*
X007524Y004941D01*
M02*
