G75*
%MOIN*%
%OFA0B0*%
%FSLAX24Y24*%
%IPPOS*%
%LPD*%
%AMOC8*
5,1,8,0,0,1.08239X$1,22.5*
%
%ADD10C,0.1340*%
%ADD11R,0.0880X0.0880*%
%ADD12C,0.0880*%
%ADD13R,0.0635X0.0635*%
%ADD14C,0.0635*%
%ADD15R,0.0474X0.0513*%
%ADD16R,0.0720X0.0720*%
%ADD17OC8,0.0720*%
%ADD18C,0.0142*%
D10*
X002162Y005150D03*
X010112Y005150D03*
X002212Y020650D03*
X002162Y035600D03*
X010262Y035600D03*
X029162Y035600D03*
X037162Y035600D03*
X037162Y020600D03*
X037162Y005050D03*
X029162Y005100D03*
D11*
X020780Y005200D03*
X016536Y005200D03*
X016636Y035661D03*
X020840Y035661D03*
D12*
X022808Y035661D03*
X018605Y035661D03*
X018505Y005200D03*
X022748Y005200D03*
D13*
X025662Y004756D03*
X014036Y004730D03*
X014138Y020192D03*
X025139Y020180D03*
X025619Y035216D03*
X013689Y035280D03*
D14*
X013689Y036067D03*
X025619Y036003D03*
X025139Y020967D03*
X014138Y020979D03*
X014036Y005517D03*
X025662Y005544D03*
D15*
X027312Y005485D03*
X027312Y004815D03*
X012312Y004865D03*
X012312Y005535D03*
X007662Y005615D03*
X007662Y006285D03*
X006185Y006261D03*
X006185Y005592D03*
X004651Y005665D03*
X004651Y006334D03*
X012412Y020265D03*
X012412Y020935D03*
X027062Y020885D03*
X027062Y020215D03*
X027262Y035315D03*
X027262Y035985D03*
X012062Y035935D03*
X012062Y035265D03*
D16*
X010762Y024600D03*
X014762Y024600D03*
X006662Y024600D03*
X002662Y024600D03*
X002662Y009600D03*
X006662Y009600D03*
X010662Y009600D03*
X014662Y009600D03*
X025662Y009600D03*
X029662Y009600D03*
X033662Y009600D03*
X037662Y009600D03*
X037662Y024600D03*
X033662Y024600D03*
X029562Y024600D03*
X025562Y024600D03*
D17*
X024562Y024600D03*
X024562Y025600D03*
X025562Y025600D03*
X025562Y026600D03*
X025562Y027600D03*
X024562Y027600D03*
X024562Y026600D03*
X024562Y028600D03*
X025562Y028600D03*
X025562Y029600D03*
X025562Y030600D03*
X024562Y030600D03*
X024562Y029600D03*
X024562Y031600D03*
X025562Y031600D03*
X028562Y031600D03*
X029562Y031600D03*
X029562Y030600D03*
X029562Y029600D03*
X028562Y029600D03*
X028562Y030600D03*
X028562Y028600D03*
X029562Y028600D03*
X029562Y027600D03*
X029562Y026600D03*
X028562Y026600D03*
X028562Y027600D03*
X028562Y025600D03*
X029562Y025600D03*
X028562Y024600D03*
X032662Y024600D03*
X032662Y025600D03*
X033662Y025600D03*
X033662Y026600D03*
X033662Y027600D03*
X032662Y027600D03*
X032662Y026600D03*
X032662Y028600D03*
X033662Y028600D03*
X033662Y029600D03*
X033662Y030600D03*
X032662Y030600D03*
X032662Y029600D03*
X032662Y031600D03*
X033662Y031600D03*
X036662Y031600D03*
X037662Y031600D03*
X037662Y030600D03*
X037662Y029600D03*
X036662Y029600D03*
X036662Y030600D03*
X036662Y028600D03*
X037662Y028600D03*
X037662Y027600D03*
X037662Y026600D03*
X036662Y026600D03*
X036662Y027600D03*
X036662Y025600D03*
X037662Y025600D03*
X036662Y024600D03*
X036662Y016600D03*
X037662Y016600D03*
X037662Y015600D03*
X037662Y014600D03*
X036662Y014600D03*
X036662Y015600D03*
X036662Y013600D03*
X037662Y013600D03*
X037662Y012600D03*
X036662Y012600D03*
X036662Y011600D03*
X037662Y011600D03*
X037662Y010600D03*
X036662Y010600D03*
X036662Y009600D03*
X033662Y010600D03*
X033662Y011600D03*
X032662Y011600D03*
X032662Y010600D03*
X032662Y009600D03*
X029662Y010600D03*
X029662Y011600D03*
X029662Y012600D03*
X029662Y013600D03*
X029662Y014600D03*
X029662Y015600D03*
X029662Y016600D03*
X028662Y016600D03*
X028662Y015600D03*
X028662Y014600D03*
X028662Y013600D03*
X028662Y012600D03*
X028662Y011600D03*
X028662Y010600D03*
X028662Y009600D03*
X025662Y010600D03*
X025662Y011600D03*
X024662Y011600D03*
X024662Y010600D03*
X024662Y009600D03*
X024662Y012600D03*
X025662Y012600D03*
X025662Y013600D03*
X024662Y013600D03*
X024662Y014600D03*
X025662Y014600D03*
X025662Y015600D03*
X024662Y015600D03*
X024662Y016600D03*
X025662Y016600D03*
X032662Y016600D03*
X033662Y016600D03*
X033662Y015600D03*
X033662Y014600D03*
X032662Y014600D03*
X032662Y015600D03*
X032662Y013600D03*
X033662Y013600D03*
X033662Y012600D03*
X032662Y012600D03*
X014662Y012600D03*
X013662Y012600D03*
X013662Y011600D03*
X014662Y011600D03*
X014662Y010600D03*
X013662Y010600D03*
X013662Y009600D03*
X010662Y010600D03*
X010662Y011600D03*
X009662Y011600D03*
X009662Y010600D03*
X009662Y009600D03*
X006662Y010600D03*
X006662Y011600D03*
X005662Y011600D03*
X005662Y010600D03*
X005662Y009600D03*
X002662Y010600D03*
X002662Y011600D03*
X002662Y012600D03*
X002662Y013600D03*
X002662Y014600D03*
X002662Y015600D03*
X002662Y016600D03*
X001662Y016600D03*
X001662Y015600D03*
X001662Y014600D03*
X001662Y013600D03*
X001662Y012600D03*
X001662Y011600D03*
X001662Y010600D03*
X001662Y009600D03*
X005662Y012600D03*
X006662Y012600D03*
X006662Y013600D03*
X005662Y013600D03*
X005662Y014600D03*
X006662Y014600D03*
X006662Y015600D03*
X005662Y015600D03*
X005662Y016600D03*
X006662Y016600D03*
X009662Y016600D03*
X010662Y016600D03*
X010662Y015600D03*
X010662Y014600D03*
X009662Y014600D03*
X009662Y015600D03*
X009662Y013600D03*
X010662Y013600D03*
X010662Y012600D03*
X009662Y012600D03*
X013662Y013600D03*
X014662Y013600D03*
X014662Y014600D03*
X014662Y015600D03*
X013662Y015600D03*
X013662Y014600D03*
X013662Y016600D03*
X014662Y016600D03*
X013762Y024600D03*
X013762Y025600D03*
X014762Y025600D03*
X014762Y026600D03*
X014762Y027600D03*
X013762Y027600D03*
X013762Y026600D03*
X013762Y028600D03*
X014762Y028600D03*
X014762Y029600D03*
X014762Y030600D03*
X013762Y030600D03*
X013762Y029600D03*
X013762Y031600D03*
X014762Y031600D03*
X010762Y031600D03*
X009762Y031600D03*
X009762Y030600D03*
X010762Y030600D03*
X010762Y029600D03*
X009762Y029600D03*
X009762Y028600D03*
X010762Y028600D03*
X010762Y027600D03*
X010762Y026600D03*
X009762Y026600D03*
X009762Y027600D03*
X009762Y025600D03*
X010762Y025600D03*
X009762Y024600D03*
X006662Y025600D03*
X005662Y025600D03*
X005662Y024600D03*
X005662Y026600D03*
X006662Y026600D03*
X006662Y027600D03*
X005662Y027600D03*
X005662Y028600D03*
X006662Y028600D03*
X006662Y029600D03*
X006662Y030600D03*
X005662Y030600D03*
X005662Y029600D03*
X005662Y031600D03*
X006662Y031600D03*
X002662Y031600D03*
X002662Y030600D03*
X002662Y029600D03*
X002662Y028600D03*
X002662Y027600D03*
X002662Y026600D03*
X002662Y025600D03*
X001662Y025600D03*
X001662Y024600D03*
X001662Y026600D03*
X001662Y027600D03*
X001662Y028600D03*
X001662Y029600D03*
X001662Y030600D03*
X001662Y031600D03*
D18*
X004496Y004321D02*
X004828Y004321D01*
X004828Y003989D01*
X004496Y003989D01*
X004496Y004321D01*
X004496Y004130D02*
X004828Y004130D01*
X004828Y004271D02*
X004496Y004271D01*
X004496Y005011D02*
X004828Y005011D01*
X004828Y004679D01*
X004496Y004679D01*
X004496Y005011D01*
X004496Y004820D02*
X004828Y004820D01*
X004828Y004961D02*
X004496Y004961D01*
X005996Y005011D02*
X006328Y005011D01*
X006328Y004679D01*
X005996Y004679D01*
X005996Y005011D01*
X005996Y004820D02*
X006328Y004820D01*
X006328Y004961D02*
X005996Y004961D01*
X005996Y004321D02*
X006328Y004321D01*
X006328Y003989D01*
X005996Y003989D01*
X005996Y004321D01*
X005996Y004130D02*
X006328Y004130D01*
X006328Y004271D02*
X005996Y004271D01*
X007496Y004321D02*
X007828Y004321D01*
X007828Y003989D01*
X007496Y003989D01*
X007496Y004321D01*
X007496Y004130D02*
X007828Y004130D01*
X007828Y004271D02*
X007496Y004271D01*
X007496Y005011D02*
X007828Y005011D01*
X007828Y004679D01*
X007496Y004679D01*
X007496Y005011D01*
X007496Y004820D02*
X007828Y004820D01*
X007828Y004961D02*
X007496Y004961D01*
M02*
