%
M48
M72
T01C0.0140
T02C0.0315
T03C0.0400
T04C0.0460
T05C0.1260
%
T01
X6762Y4150
X8562Y4050
X16212Y13600
X16862Y13600
X18262Y14600
X18962Y14600
X19762Y11600
X20762Y11600
X21612Y11600
X21612Y10600
X20762Y10600
X19762Y10550
X22412Y9600
X23112Y9600
X24512Y17650
X28562Y17650
X32612Y17650
X36662Y17650
X23062Y24600
X22412Y24600
X21162Y25600
X20512Y25600
X19862Y25600
X19862Y26600
X20512Y26600
X21162Y26600
X18962Y29600
X18262Y29600
X16862Y28600
X16212Y28600
X13612Y32850
X9562Y32850
X5512Y32850
X18862Y20200
X20840Y21100
X13762Y17650
X9712Y17650
X5662Y17650
X24212Y32850
X28262Y32850
X32462Y32850
X36612Y32850
T02
X25619Y35216
X25619Y36003
X13689Y36067
X13689Y35280
X14138Y20979
X14138Y20192
X25139Y20180
X25139Y20967
X25662Y5544
X25662Y4756
X14036Y4730
X14036Y5517
T03
X13662Y9600
X14662Y9600
X14662Y10600
X14662Y11600
X13662Y11600
X13662Y10600
X13662Y12600
X14662Y12600
X14662Y13600
X13662Y13600
X13662Y14600
X14662Y14600
X14662Y15600
X13662Y15600
X13662Y16600
X14662Y16600
X10662Y16600
X9662Y16600
X9662Y15600
X10662Y15600
X10662Y14600
X9662Y14600
X9662Y13600
X10662Y13600
X10662Y12600
X9662Y12600
X9662Y11600
X10662Y11600
X10662Y10600
X9662Y10600
X9662Y9600
X10662Y9600
X6662Y9600
X5662Y9600
X5662Y10600
X6662Y10600
X6662Y11600
X5662Y11600
X5662Y12600
X6662Y12600
X6662Y13600
X5662Y13600
X5662Y14600
X6662Y14600
X6662Y15600
X5662Y15600
X5662Y16600
X6662Y16600
X2662Y16600
X2662Y15600
X2662Y14600
X2662Y13600
X2662Y12600
X2662Y11600
X2662Y10600
X2662Y9600
X1662Y9600
X1662Y10600
X1662Y11600
X1662Y12600
X1662Y13600
X1662Y14600
X1662Y15600
X1662Y16600
X1662Y24600
X2662Y24600
X2662Y25600
X2662Y26600
X2662Y27600
X2662Y28600
X2662Y29600
X2662Y30600
X2662Y31600
X1662Y31600
X1662Y30600
X1662Y29600
X1662Y28600
X1662Y27600
X1662Y26600
X1662Y25600
X5662Y25600
X6662Y25600
X6662Y24600
X5662Y24600
X5662Y26600
X6662Y26600
X6662Y27600
X5662Y27600
X5662Y28600
X6662Y28600
X6662Y29600
X6662Y30600
X5662Y30600
X5662Y29600
X5662Y31600
X6662Y31600
X9762Y31600
X10762Y31600
X10762Y30600
X10762Y29600
X9762Y29600
X9762Y30600
X9762Y28600
X10762Y28600
X10762Y27600
X10762Y26600
X9762Y26600
X9762Y27600
X9762Y25600
X10762Y25600
X10762Y24600
X9762Y24600
X13762Y24600
X14762Y24600
X14762Y25600
X13762Y25600
X13762Y26600
X14762Y26600
X14762Y27600
X13762Y27600
X13762Y28600
X14762Y28600
X14762Y29600
X14762Y30600
X13762Y30600
X13762Y29600
X13762Y31600
X14762Y31600
X24562Y31600
X25562Y31600
X25562Y30600
X25562Y29600
X24562Y29600
X24562Y30600
X24562Y28600
X25562Y28600
X25562Y27600
X25562Y26600
X24562Y26600
X24562Y27600
X24562Y25600
X25562Y25600
X25562Y24600
X24562Y24600
X28562Y24600
X29562Y24600
X29562Y25600
X28562Y25600
X28562Y26600
X29562Y26600
X29562Y27600
X28562Y27600
X28562Y28600
X29562Y28600
X29562Y29600
X29562Y30600
X28562Y30600
X28562Y29600
X28562Y31600
X29562Y31600
X32662Y31600
X33662Y31600
X33662Y30600
X33662Y29600
X32662Y29600
X32662Y30600
X32662Y28600
X33662Y28600
X33662Y27600
X33662Y26600
X32662Y26600
X32662Y27600
X32662Y25600
X33662Y25600
X33662Y24600
X32662Y24600
X36662Y24600
X37662Y24600
X37662Y25600
X36662Y25600
X36662Y26600
X37662Y26600
X37662Y27600
X36662Y27600
X36662Y28600
X37662Y28600
X37662Y29600
X37662Y30600
X36662Y30600
X36662Y29600
X36662Y31600
X37662Y31600
X37662Y16600
X36662Y16600
X36662Y15600
X37662Y15600
X37662Y14600
X36662Y14600
X36662Y13600
X37662Y13600
X37662Y12600
X36662Y12600
X36662Y11600
X37662Y11600
X37662Y10600
X36662Y10600
X36662Y9600
X37662Y9600
X33662Y9600
X32662Y9600
X32662Y10600
X33662Y10600
X33662Y11600
X32662Y11600
X32662Y12600
X33662Y12600
X33662Y13600
X32662Y13600
X32662Y14600
X33662Y14600
X33662Y15600
X32662Y15600
X32662Y16600
X33662Y16600
X29662Y16600
X29662Y15600
X29662Y14600
X29662Y13600
X29662Y12600
X29662Y11600
X29662Y10600
X29662Y9600
X28662Y9600
X28662Y10600
X28662Y11600
X28662Y12600
X28662Y13600
X28662Y14600
X28662Y15600
X28662Y16600
X25662Y16600
X24662Y16600
X24662Y15600
X25662Y15600
X25662Y14600
X24662Y14600
X24662Y13600
X25662Y13600
X25662Y12600
X24662Y12600
X24662Y11600
X25662Y11600
X25662Y10600
X24662Y10600
X24662Y9600
X25662Y9600
T04
X22748Y5200
X20780Y5200
X18505Y5200
X16536Y5200
X16636Y35661
X18605Y35661
X20840Y35661
X22808Y35661
T05
X2162Y5150
X10112Y5150
X2212Y20650
X2162Y35600
X10262Y35600
X29162Y35600
X37162Y35600
X37162Y20600
X37162Y5050
X29162Y5100
M30
