%
M48
M72
T01C0.0276
T02C0.0354
T03C0.0400
T04C0.0866
%
T01
X18266Y2213
X22203Y2213
X23778Y2213
X27715Y2213
X29283Y2213
X33220Y2213
X34801Y2213
X38738Y2213
T02
X37754Y3197
X36770Y3197
X35785Y3197
X32236Y3197
X31252Y3197
X30267Y3197
X26730Y3197
X25746Y3197
X24762Y3197
X21219Y3197
X20234Y3197
X19250Y3197
X18234Y4181
X22234Y4181
X23746Y4181
X27746Y4181
X29258Y4181
X33258Y4181
X34770Y4181
X38770Y4181
X37754Y1228
X36770Y1228
X35785Y1228
X32236Y1228
X31252Y1228
X30267Y1228
X26730Y1228
X25746Y1228
X24762Y1228
X21219Y1228
X20234Y1228
X19250Y1228
T03
X1949Y2213
X4949Y2213
X5949Y2213
X7461Y2213
X10461Y2213
X11461Y2213
X12972Y2213
X15972Y2213
X16972Y2213
X9639Y5538
X8639Y5538
X7639Y5538
X6639Y5538
X5639Y5538
X4639Y5538
X3639Y5538
X2639Y5538
X2639Y6538
X3639Y6538
X4639Y6538
X5639Y6538
X6639Y6538
X7639Y6538
X8639Y6538
X9639Y6538
X12972Y6150
X15972Y6150
X16972Y6150
X18484Y6150
X21484Y6150
X22484Y6150
X23996Y6150
X26996Y6150
X27996Y6150
X29508Y6150
X32508Y6150
X33508Y6150
X35020Y6150
X38020Y6150
X39020Y6150
T04
X36770Y6150
X31258Y6150
X25746Y6150
X20234Y6150
X14722Y6150
X14722Y2213
X9211Y2213
X3699Y2213
M30
