G75*
%MOIN*%
%OFA0B0*%
%FSLAX24Y24*%
%IPPOS*%
%LPD*%
%AMOC8*
5,1,8,0,0,1.08239X$1,22.5*
%
%ADD10C,0.0000*%
%ADD11C,0.0130*%
%ADD12C,0.0080*%
%ADD13C,0.0060*%
%ADD14C,0.0160*%
%ADD15C,0.0040*%
%ADD16C,0.0030*%
%ADD17C,0.0100*%
D10*
X000660Y000323D02*
X039021Y000323D01*
X039065Y000325D01*
X039109Y000331D01*
X039151Y000340D01*
X039193Y000353D01*
X039234Y000370D01*
X039273Y000391D01*
X039310Y000414D01*
X039345Y000441D01*
X039377Y000471D01*
X039407Y000503D01*
X039434Y000538D01*
X039457Y000575D01*
X039478Y000614D01*
X039495Y000655D01*
X039508Y000697D01*
X039517Y000739D01*
X039523Y000783D01*
X039525Y000827D01*
X039526Y000827D02*
X039526Y007535D01*
X039525Y007535D02*
X039523Y007579D01*
X039517Y007623D01*
X039508Y007665D01*
X039495Y007707D01*
X039478Y007748D01*
X039457Y007787D01*
X039434Y007824D01*
X039407Y007859D01*
X039377Y007891D01*
X039345Y007921D01*
X039310Y007948D01*
X039273Y007971D01*
X039234Y007992D01*
X039193Y008009D01*
X039151Y008022D01*
X039109Y008031D01*
X039065Y008037D01*
X039021Y008039D01*
X000660Y008039D01*
X000616Y008037D01*
X000572Y008031D01*
X000530Y008022D01*
X000488Y008009D01*
X000447Y007992D01*
X000408Y007971D01*
X000371Y007948D01*
X000336Y007921D01*
X000304Y007891D01*
X000274Y007859D01*
X000247Y007824D01*
X000224Y007787D01*
X000203Y007748D01*
X000186Y007707D01*
X000173Y007665D01*
X000164Y007623D01*
X000158Y007579D01*
X000156Y007535D01*
X000156Y000827D01*
X000158Y000783D01*
X000164Y000739D01*
X000173Y000697D01*
X000186Y000655D01*
X000203Y000614D01*
X000224Y000575D01*
X000247Y000538D01*
X000274Y000503D01*
X000304Y000471D01*
X000336Y000441D01*
X000371Y000414D01*
X000408Y000391D01*
X000447Y000370D01*
X000488Y000353D01*
X000530Y000340D01*
X000572Y000331D01*
X000616Y000325D01*
X000660Y000323D01*
X003266Y002213D02*
X003268Y002254D01*
X003274Y002295D01*
X003284Y002335D01*
X003297Y002374D01*
X003314Y002411D01*
X003335Y002447D01*
X003359Y002481D01*
X003386Y002512D01*
X003415Y002540D01*
X003448Y002566D01*
X003482Y002588D01*
X003519Y002607D01*
X003557Y002622D01*
X003597Y002634D01*
X003637Y002642D01*
X003678Y002646D01*
X003720Y002646D01*
X003761Y002642D01*
X003801Y002634D01*
X003841Y002622D01*
X003879Y002607D01*
X003915Y002588D01*
X003950Y002566D01*
X003983Y002540D01*
X004012Y002512D01*
X004039Y002481D01*
X004063Y002447D01*
X004084Y002411D01*
X004101Y002374D01*
X004114Y002335D01*
X004124Y002295D01*
X004130Y002254D01*
X004132Y002213D01*
X004130Y002172D01*
X004124Y002131D01*
X004114Y002091D01*
X004101Y002052D01*
X004084Y002015D01*
X004063Y001979D01*
X004039Y001945D01*
X004012Y001914D01*
X003983Y001886D01*
X003950Y001860D01*
X003916Y001838D01*
X003879Y001819D01*
X003841Y001804D01*
X003801Y001792D01*
X003761Y001784D01*
X003720Y001780D01*
X003678Y001780D01*
X003637Y001784D01*
X003597Y001792D01*
X003557Y001804D01*
X003519Y001819D01*
X003483Y001838D01*
X003448Y001860D01*
X003415Y001886D01*
X003386Y001914D01*
X003359Y001945D01*
X003335Y001979D01*
X003314Y002015D01*
X003297Y002052D01*
X003284Y002091D01*
X003274Y002131D01*
X003268Y002172D01*
X003266Y002213D01*
X008778Y002213D02*
X008780Y002254D01*
X008786Y002295D01*
X008796Y002335D01*
X008809Y002374D01*
X008826Y002411D01*
X008847Y002447D01*
X008871Y002481D01*
X008898Y002512D01*
X008927Y002540D01*
X008960Y002566D01*
X008994Y002588D01*
X009031Y002607D01*
X009069Y002622D01*
X009109Y002634D01*
X009149Y002642D01*
X009190Y002646D01*
X009232Y002646D01*
X009273Y002642D01*
X009313Y002634D01*
X009353Y002622D01*
X009391Y002607D01*
X009427Y002588D01*
X009462Y002566D01*
X009495Y002540D01*
X009524Y002512D01*
X009551Y002481D01*
X009575Y002447D01*
X009596Y002411D01*
X009613Y002374D01*
X009626Y002335D01*
X009636Y002295D01*
X009642Y002254D01*
X009644Y002213D01*
X009642Y002172D01*
X009636Y002131D01*
X009626Y002091D01*
X009613Y002052D01*
X009596Y002015D01*
X009575Y001979D01*
X009551Y001945D01*
X009524Y001914D01*
X009495Y001886D01*
X009462Y001860D01*
X009428Y001838D01*
X009391Y001819D01*
X009353Y001804D01*
X009313Y001792D01*
X009273Y001784D01*
X009232Y001780D01*
X009190Y001780D01*
X009149Y001784D01*
X009109Y001792D01*
X009069Y001804D01*
X009031Y001819D01*
X008995Y001838D01*
X008960Y001860D01*
X008927Y001886D01*
X008898Y001914D01*
X008871Y001945D01*
X008847Y001979D01*
X008826Y002015D01*
X008809Y002052D01*
X008796Y002091D01*
X008786Y002131D01*
X008780Y002172D01*
X008778Y002213D01*
X014289Y002213D02*
X014291Y002254D01*
X014297Y002295D01*
X014307Y002335D01*
X014320Y002374D01*
X014337Y002411D01*
X014358Y002447D01*
X014382Y002481D01*
X014409Y002512D01*
X014438Y002540D01*
X014471Y002566D01*
X014505Y002588D01*
X014542Y002607D01*
X014580Y002622D01*
X014620Y002634D01*
X014660Y002642D01*
X014701Y002646D01*
X014743Y002646D01*
X014784Y002642D01*
X014824Y002634D01*
X014864Y002622D01*
X014902Y002607D01*
X014938Y002588D01*
X014973Y002566D01*
X015006Y002540D01*
X015035Y002512D01*
X015062Y002481D01*
X015086Y002447D01*
X015107Y002411D01*
X015124Y002374D01*
X015137Y002335D01*
X015147Y002295D01*
X015153Y002254D01*
X015155Y002213D01*
X015153Y002172D01*
X015147Y002131D01*
X015137Y002091D01*
X015124Y002052D01*
X015107Y002015D01*
X015086Y001979D01*
X015062Y001945D01*
X015035Y001914D01*
X015006Y001886D01*
X014973Y001860D01*
X014939Y001838D01*
X014902Y001819D01*
X014864Y001804D01*
X014824Y001792D01*
X014784Y001784D01*
X014743Y001780D01*
X014701Y001780D01*
X014660Y001784D01*
X014620Y001792D01*
X014580Y001804D01*
X014542Y001819D01*
X014506Y001838D01*
X014471Y001860D01*
X014438Y001886D01*
X014409Y001914D01*
X014382Y001945D01*
X014358Y001979D01*
X014337Y002015D01*
X014320Y002052D01*
X014307Y002091D01*
X014297Y002131D01*
X014291Y002172D01*
X014289Y002213D01*
X014289Y006150D02*
X014291Y006191D01*
X014297Y006232D01*
X014307Y006272D01*
X014320Y006311D01*
X014337Y006348D01*
X014358Y006384D01*
X014382Y006418D01*
X014409Y006449D01*
X014438Y006477D01*
X014471Y006503D01*
X014505Y006525D01*
X014542Y006544D01*
X014580Y006559D01*
X014620Y006571D01*
X014660Y006579D01*
X014701Y006583D01*
X014743Y006583D01*
X014784Y006579D01*
X014824Y006571D01*
X014864Y006559D01*
X014902Y006544D01*
X014938Y006525D01*
X014973Y006503D01*
X015006Y006477D01*
X015035Y006449D01*
X015062Y006418D01*
X015086Y006384D01*
X015107Y006348D01*
X015124Y006311D01*
X015137Y006272D01*
X015147Y006232D01*
X015153Y006191D01*
X015155Y006150D01*
X015153Y006109D01*
X015147Y006068D01*
X015137Y006028D01*
X015124Y005989D01*
X015107Y005952D01*
X015086Y005916D01*
X015062Y005882D01*
X015035Y005851D01*
X015006Y005823D01*
X014973Y005797D01*
X014939Y005775D01*
X014902Y005756D01*
X014864Y005741D01*
X014824Y005729D01*
X014784Y005721D01*
X014743Y005717D01*
X014701Y005717D01*
X014660Y005721D01*
X014620Y005729D01*
X014580Y005741D01*
X014542Y005756D01*
X014506Y005775D01*
X014471Y005797D01*
X014438Y005823D01*
X014409Y005851D01*
X014382Y005882D01*
X014358Y005916D01*
X014337Y005952D01*
X014320Y005989D01*
X014307Y006028D01*
X014297Y006068D01*
X014291Y006109D01*
X014289Y006150D01*
X019801Y006150D02*
X019803Y006191D01*
X019809Y006232D01*
X019819Y006272D01*
X019832Y006311D01*
X019849Y006348D01*
X019870Y006384D01*
X019894Y006418D01*
X019921Y006449D01*
X019950Y006477D01*
X019983Y006503D01*
X020017Y006525D01*
X020054Y006544D01*
X020092Y006559D01*
X020132Y006571D01*
X020172Y006579D01*
X020213Y006583D01*
X020255Y006583D01*
X020296Y006579D01*
X020336Y006571D01*
X020376Y006559D01*
X020414Y006544D01*
X020450Y006525D01*
X020485Y006503D01*
X020518Y006477D01*
X020547Y006449D01*
X020574Y006418D01*
X020598Y006384D01*
X020619Y006348D01*
X020636Y006311D01*
X020649Y006272D01*
X020659Y006232D01*
X020665Y006191D01*
X020667Y006150D01*
X020665Y006109D01*
X020659Y006068D01*
X020649Y006028D01*
X020636Y005989D01*
X020619Y005952D01*
X020598Y005916D01*
X020574Y005882D01*
X020547Y005851D01*
X020518Y005823D01*
X020485Y005797D01*
X020451Y005775D01*
X020414Y005756D01*
X020376Y005741D01*
X020336Y005729D01*
X020296Y005721D01*
X020255Y005717D01*
X020213Y005717D01*
X020172Y005721D01*
X020132Y005729D01*
X020092Y005741D01*
X020054Y005756D01*
X020018Y005775D01*
X019983Y005797D01*
X019950Y005823D01*
X019921Y005851D01*
X019894Y005882D01*
X019870Y005916D01*
X019849Y005952D01*
X019832Y005989D01*
X019819Y006028D01*
X019809Y006068D01*
X019803Y006109D01*
X019801Y006150D01*
X025313Y006150D02*
X025315Y006191D01*
X025321Y006232D01*
X025331Y006272D01*
X025344Y006311D01*
X025361Y006348D01*
X025382Y006384D01*
X025406Y006418D01*
X025433Y006449D01*
X025462Y006477D01*
X025495Y006503D01*
X025529Y006525D01*
X025566Y006544D01*
X025604Y006559D01*
X025644Y006571D01*
X025684Y006579D01*
X025725Y006583D01*
X025767Y006583D01*
X025808Y006579D01*
X025848Y006571D01*
X025888Y006559D01*
X025926Y006544D01*
X025962Y006525D01*
X025997Y006503D01*
X026030Y006477D01*
X026059Y006449D01*
X026086Y006418D01*
X026110Y006384D01*
X026131Y006348D01*
X026148Y006311D01*
X026161Y006272D01*
X026171Y006232D01*
X026177Y006191D01*
X026179Y006150D01*
X026177Y006109D01*
X026171Y006068D01*
X026161Y006028D01*
X026148Y005989D01*
X026131Y005952D01*
X026110Y005916D01*
X026086Y005882D01*
X026059Y005851D01*
X026030Y005823D01*
X025997Y005797D01*
X025963Y005775D01*
X025926Y005756D01*
X025888Y005741D01*
X025848Y005729D01*
X025808Y005721D01*
X025767Y005717D01*
X025725Y005717D01*
X025684Y005721D01*
X025644Y005729D01*
X025604Y005741D01*
X025566Y005756D01*
X025530Y005775D01*
X025495Y005797D01*
X025462Y005823D01*
X025433Y005851D01*
X025406Y005882D01*
X025382Y005916D01*
X025361Y005952D01*
X025344Y005989D01*
X025331Y006028D01*
X025321Y006068D01*
X025315Y006109D01*
X025313Y006150D01*
X030825Y006150D02*
X030827Y006191D01*
X030833Y006232D01*
X030843Y006272D01*
X030856Y006311D01*
X030873Y006348D01*
X030894Y006384D01*
X030918Y006418D01*
X030945Y006449D01*
X030974Y006477D01*
X031007Y006503D01*
X031041Y006525D01*
X031078Y006544D01*
X031116Y006559D01*
X031156Y006571D01*
X031196Y006579D01*
X031237Y006583D01*
X031279Y006583D01*
X031320Y006579D01*
X031360Y006571D01*
X031400Y006559D01*
X031438Y006544D01*
X031474Y006525D01*
X031509Y006503D01*
X031542Y006477D01*
X031571Y006449D01*
X031598Y006418D01*
X031622Y006384D01*
X031643Y006348D01*
X031660Y006311D01*
X031673Y006272D01*
X031683Y006232D01*
X031689Y006191D01*
X031691Y006150D01*
X031689Y006109D01*
X031683Y006068D01*
X031673Y006028D01*
X031660Y005989D01*
X031643Y005952D01*
X031622Y005916D01*
X031598Y005882D01*
X031571Y005851D01*
X031542Y005823D01*
X031509Y005797D01*
X031475Y005775D01*
X031438Y005756D01*
X031400Y005741D01*
X031360Y005729D01*
X031320Y005721D01*
X031279Y005717D01*
X031237Y005717D01*
X031196Y005721D01*
X031156Y005729D01*
X031116Y005741D01*
X031078Y005756D01*
X031042Y005775D01*
X031007Y005797D01*
X030974Y005823D01*
X030945Y005851D01*
X030918Y005882D01*
X030894Y005916D01*
X030873Y005952D01*
X030856Y005989D01*
X030843Y006028D01*
X030833Y006068D01*
X030827Y006109D01*
X030825Y006150D01*
X036337Y006150D02*
X036339Y006191D01*
X036345Y006232D01*
X036355Y006272D01*
X036368Y006311D01*
X036385Y006348D01*
X036406Y006384D01*
X036430Y006418D01*
X036457Y006449D01*
X036486Y006477D01*
X036519Y006503D01*
X036553Y006525D01*
X036590Y006544D01*
X036628Y006559D01*
X036668Y006571D01*
X036708Y006579D01*
X036749Y006583D01*
X036791Y006583D01*
X036832Y006579D01*
X036872Y006571D01*
X036912Y006559D01*
X036950Y006544D01*
X036986Y006525D01*
X037021Y006503D01*
X037054Y006477D01*
X037083Y006449D01*
X037110Y006418D01*
X037134Y006384D01*
X037155Y006348D01*
X037172Y006311D01*
X037185Y006272D01*
X037195Y006232D01*
X037201Y006191D01*
X037203Y006150D01*
X037201Y006109D01*
X037195Y006068D01*
X037185Y006028D01*
X037172Y005989D01*
X037155Y005952D01*
X037134Y005916D01*
X037110Y005882D01*
X037083Y005851D01*
X037054Y005823D01*
X037021Y005797D01*
X036987Y005775D01*
X036950Y005756D01*
X036912Y005741D01*
X036872Y005729D01*
X036832Y005721D01*
X036791Y005717D01*
X036749Y005717D01*
X036708Y005721D01*
X036668Y005729D01*
X036628Y005741D01*
X036590Y005756D01*
X036554Y005775D01*
X036519Y005797D01*
X036486Y005823D01*
X036457Y005851D01*
X036430Y005882D01*
X036406Y005916D01*
X036385Y005952D01*
X036368Y005989D01*
X036355Y006028D01*
X036345Y006068D01*
X036339Y006109D01*
X036337Y006150D01*
D11*
X010777Y000979D02*
X010600Y000802D01*
X010688Y000802D02*
X010423Y000802D01*
X010688Y000802D02*
X010777Y000714D01*
X010777Y000537D01*
X010688Y000449D01*
X010423Y000449D01*
X010423Y000979D01*
X010169Y000979D02*
X010169Y000625D01*
X009992Y000449D01*
X009815Y000625D01*
X009815Y000979D01*
X009561Y000979D02*
X009208Y000979D01*
X009208Y000449D01*
X008954Y000449D02*
X008954Y000891D01*
X008865Y000979D01*
X008688Y000979D01*
X008600Y000891D01*
X008600Y000449D01*
X008346Y000537D02*
X008257Y000449D01*
X007992Y000449D01*
X007992Y000979D01*
X008257Y000979D01*
X008346Y000891D01*
X008346Y000537D01*
X007738Y000537D02*
X007650Y000449D01*
X007473Y000449D01*
X007384Y000537D01*
X007384Y000891D01*
X007473Y000979D01*
X007650Y000979D01*
X007738Y000891D01*
X007738Y000537D01*
X007130Y000449D02*
X007130Y000979D01*
X006777Y000979D02*
X006777Y000449D01*
X006954Y000625D01*
X007130Y000449D01*
X005915Y000449D02*
X005915Y000979D01*
X005561Y000449D01*
X005561Y000979D01*
X005307Y000891D02*
X005307Y000537D01*
X005219Y000449D01*
X005042Y000449D01*
X004954Y000537D01*
X004954Y000891D01*
X005042Y000979D01*
X005219Y000979D01*
X005307Y000891D01*
X004700Y000537D02*
X004523Y000714D01*
X004523Y000979D01*
X004092Y000891D02*
X004003Y000979D01*
X003827Y000979D01*
X003738Y000891D01*
X003738Y000537D01*
X003827Y000449D01*
X004003Y000449D01*
X004092Y000537D01*
X004346Y000537D02*
X004523Y000714D01*
X004700Y000537D02*
X004700Y000449D01*
X004346Y000449D02*
X004346Y000537D01*
X003130Y000449D02*
X003130Y000979D01*
X003484Y000979D01*
X002876Y000979D02*
X002876Y000625D01*
X002700Y000449D01*
X002523Y000625D01*
X002523Y000979D01*
X002269Y000979D02*
X002269Y000449D01*
X001915Y000449D02*
X001915Y000979D01*
X001915Y000714D02*
X002269Y000714D01*
X002523Y000714D02*
X002876Y000714D01*
X009815Y000714D02*
X010169Y000714D01*
X009743Y003649D02*
X009390Y003649D01*
X009566Y003649D02*
X009566Y004179D01*
X009136Y004179D02*
X008782Y004179D01*
X008782Y003649D01*
X008528Y003649D02*
X008528Y004091D01*
X008439Y004179D01*
X008263Y004179D01*
X008174Y004091D01*
X008174Y003649D01*
X007920Y003649D02*
X007920Y004179D01*
X007566Y004179D02*
X007566Y003649D01*
X007743Y003825D01*
X007920Y003649D01*
X006705Y003649D02*
X006705Y004179D01*
X006959Y004267D02*
X007312Y004267D01*
X006351Y004179D02*
X006351Y003649D01*
X006097Y003737D02*
X006009Y003649D01*
X005832Y003649D01*
X005743Y003737D01*
X005743Y004091D01*
X005832Y004179D01*
X006009Y004179D01*
X006097Y004091D01*
X006351Y003914D02*
X006705Y003914D01*
X005489Y003649D02*
X005136Y003649D01*
X005312Y003649D02*
X005312Y004179D01*
X004907Y004179D02*
X004730Y004179D01*
X004819Y004179D02*
X004819Y003649D01*
X004907Y003649D02*
X004730Y003649D01*
X004476Y003649D02*
X004476Y004179D01*
X004300Y004002D01*
X004123Y004179D01*
X004123Y003649D01*
X003869Y003737D02*
X003780Y003649D01*
X003603Y003649D01*
X003515Y003737D01*
X003515Y003825D01*
X003603Y003914D01*
X003780Y003914D01*
X003869Y004002D01*
X003869Y004091D01*
X003780Y004179D01*
X003603Y004179D01*
X003515Y004091D01*
D12*
X018994Y003709D02*
X021474Y003709D01*
X021474Y004653D01*
X018994Y004653D01*
X018994Y003709D01*
X024506Y003709D02*
X026986Y003709D01*
X026986Y004653D01*
X024506Y004653D01*
X024506Y003709D01*
X030018Y003709D02*
X032498Y003709D01*
X032498Y004653D01*
X030018Y004653D01*
X030018Y003709D01*
X035530Y003709D02*
X038010Y003709D01*
X038010Y004653D01*
X035530Y004653D01*
X035530Y003709D01*
D13*
X035961Y004084D02*
X036004Y004041D01*
X036091Y004041D01*
X036134Y004084D01*
X035961Y004258D01*
X035961Y004084D01*
X036134Y004084D02*
X036134Y004258D01*
X036091Y004301D01*
X036004Y004301D01*
X035961Y004258D01*
X036256Y004301D02*
X036342Y004258D01*
X036429Y004171D01*
X036299Y004171D01*
X036256Y004128D01*
X036256Y004084D01*
X036299Y004041D01*
X036386Y004041D01*
X036429Y004084D01*
X036429Y004171D01*
X036550Y004171D02*
X036550Y004084D01*
X036594Y004041D01*
X036680Y004041D01*
X036724Y004084D01*
X036724Y004171D02*
X036637Y004214D01*
X036594Y004214D01*
X036550Y004171D01*
X036724Y004171D02*
X036724Y004301D01*
X036550Y004301D01*
X038972Y003589D02*
X038972Y003328D01*
X038886Y003328D02*
X039059Y003328D01*
X039180Y003328D02*
X039267Y003415D01*
X039224Y003415D02*
X039354Y003415D01*
X039354Y003328D02*
X039354Y003589D01*
X039224Y003589D01*
X039180Y003545D01*
X039180Y003459D01*
X039224Y003415D01*
X039059Y003502D02*
X038972Y003589D01*
X033842Y003589D02*
X033842Y003328D01*
X033842Y003415D02*
X033712Y003415D01*
X033669Y003459D01*
X033669Y003545D01*
X033712Y003589D01*
X033842Y003589D01*
X033547Y003545D02*
X033504Y003589D01*
X033417Y003589D01*
X033374Y003545D01*
X033374Y003502D01*
X033547Y003328D01*
X033374Y003328D01*
X033669Y003328D02*
X033755Y003415D01*
X031212Y004084D02*
X031168Y004041D01*
X031082Y004041D01*
X031038Y004084D01*
X031038Y004171D01*
X031082Y004214D01*
X031125Y004214D01*
X031212Y004171D01*
X031212Y004301D01*
X031038Y004301D01*
X030917Y004171D02*
X030830Y004258D01*
X030744Y004301D01*
X030623Y004258D02*
X030579Y004301D01*
X030492Y004301D01*
X030449Y004258D01*
X030623Y004084D01*
X030579Y004041D01*
X030492Y004041D01*
X030449Y004084D01*
X030449Y004258D01*
X030623Y004258D02*
X030623Y004084D01*
X030744Y004084D02*
X030744Y004128D01*
X030787Y004171D01*
X030917Y004171D01*
X030917Y004084D01*
X030874Y004041D01*
X030787Y004041D01*
X030744Y004084D01*
X028430Y003589D02*
X028300Y003589D01*
X028257Y003545D01*
X028257Y003459D01*
X028300Y003415D01*
X028430Y003415D01*
X028343Y003415D02*
X028257Y003328D01*
X028136Y003372D02*
X028092Y003328D01*
X028005Y003328D01*
X027962Y003372D01*
X027962Y003415D01*
X028005Y003459D01*
X028049Y003459D01*
X028005Y003459D02*
X027962Y003502D01*
X027962Y003545D01*
X028005Y003589D01*
X028092Y003589D01*
X028136Y003545D01*
X028430Y003589D02*
X028430Y003328D01*
X025700Y004084D02*
X025657Y004041D01*
X025570Y004041D01*
X025527Y004084D01*
X025527Y004171D01*
X025570Y004214D01*
X025613Y004214D01*
X025700Y004171D01*
X025700Y004301D01*
X025527Y004301D01*
X025405Y004171D02*
X025319Y004258D01*
X025232Y004301D01*
X025111Y004258D02*
X025067Y004301D01*
X024981Y004301D01*
X024937Y004258D01*
X025111Y004084D01*
X025067Y004041D01*
X024981Y004041D01*
X024937Y004084D01*
X024937Y004258D01*
X025111Y004258D02*
X025111Y004084D01*
X025232Y004084D02*
X025232Y004128D01*
X025275Y004171D01*
X025405Y004171D01*
X025405Y004084D01*
X025362Y004041D01*
X025275Y004041D01*
X025232Y004084D01*
X022818Y003589D02*
X022688Y003589D01*
X022645Y003545D01*
X022645Y003459D01*
X022688Y003415D01*
X022818Y003415D01*
X022732Y003415D02*
X022645Y003328D01*
X022818Y003328D02*
X022818Y003589D01*
X022524Y003459D02*
X022350Y003459D01*
X022394Y003589D02*
X022524Y003459D01*
X022394Y003589D02*
X022394Y003328D01*
X020188Y004084D02*
X020145Y004041D01*
X020058Y004041D01*
X020015Y004084D01*
X020015Y004171D01*
X020058Y004214D01*
X020101Y004214D01*
X020188Y004171D01*
X020188Y004301D01*
X020015Y004301D01*
X019894Y004171D02*
X019807Y004258D01*
X019720Y004301D01*
X019599Y004258D02*
X019556Y004301D01*
X019469Y004301D01*
X019425Y004258D01*
X019599Y004084D01*
X019556Y004041D01*
X019469Y004041D01*
X019425Y004084D01*
X019425Y004258D01*
X019599Y004258D02*
X019599Y004084D01*
X019720Y004084D02*
X019720Y004128D01*
X019763Y004171D01*
X019894Y004171D01*
X019894Y004084D01*
X019850Y004041D01*
X019763Y004041D01*
X019720Y004084D01*
X011576Y004365D02*
X011576Y007712D01*
X007125Y007712D01*
X007125Y007046D01*
X005153Y007046D01*
X005153Y007712D01*
X000702Y007712D01*
X000702Y004365D01*
X011576Y004365D01*
D14*
X000439Y004338D02*
X000439Y007738D01*
D15*
X000691Y004288D02*
X000691Y004088D01*
X000791Y004088D01*
X000824Y004122D01*
X000824Y004188D01*
X000791Y004222D01*
X000691Y004222D01*
X000758Y004222D02*
X000824Y004288D01*
X000912Y004288D02*
X001045Y004288D01*
X001133Y004288D02*
X001233Y004288D01*
X001266Y004255D01*
X001266Y004122D01*
X001233Y004088D01*
X001133Y004088D01*
X001133Y004288D01*
X000912Y004288D02*
X000912Y004088D01*
X001045Y004088D01*
X000979Y004188D02*
X000912Y004188D01*
X001575Y004155D02*
X001608Y004188D01*
X001675Y004188D01*
X001708Y004222D01*
X001708Y004255D01*
X001675Y004288D01*
X001608Y004288D01*
X001575Y004255D01*
X001575Y004155D02*
X001575Y004122D01*
X001608Y004088D01*
X001675Y004088D01*
X001708Y004122D01*
X001796Y004088D02*
X001929Y004088D01*
X001863Y004088D02*
X001863Y004288D01*
X002017Y004288D02*
X002017Y004088D01*
X002117Y004088D01*
X002150Y004122D01*
X002150Y004188D01*
X002117Y004222D01*
X002017Y004222D01*
X002084Y004222D02*
X002150Y004288D01*
X002238Y004288D02*
X002305Y004288D01*
X002271Y004288D02*
X002271Y004088D01*
X002238Y004088D02*
X002305Y004088D01*
X002385Y004088D02*
X002485Y004088D01*
X002519Y004122D01*
X002519Y004188D01*
X002485Y004222D01*
X002385Y004222D01*
X002385Y004288D02*
X002385Y004088D01*
X002606Y004088D02*
X002606Y004288D01*
X002740Y004288D01*
X002673Y004188D02*
X002606Y004188D01*
X002606Y004088D02*
X002740Y004088D01*
D16*
X002702Y004693D02*
X002654Y004742D01*
X002702Y004693D02*
X002799Y004693D01*
X002847Y004742D01*
X002847Y004790D01*
X002654Y004983D01*
X002847Y004983D01*
X002949Y004887D02*
X003045Y004983D01*
X003142Y004887D01*
X003142Y004693D01*
X002949Y004693D02*
X002949Y004887D01*
X002553Y004983D02*
X002359Y004983D01*
X002456Y004983D02*
X002456Y004693D01*
X002359Y004790D01*
X002258Y004838D02*
X002065Y004838D01*
X003359Y004742D02*
X003408Y004693D01*
X003504Y004693D01*
X003553Y004742D01*
X003359Y004935D01*
X003408Y004983D01*
X003504Y004983D01*
X003553Y004935D01*
X003553Y004742D01*
X003654Y004693D02*
X003654Y004887D01*
X003751Y004983D01*
X003847Y004887D01*
X003847Y004693D01*
X003359Y004742D02*
X003359Y004935D01*
X004359Y004935D02*
X004553Y004742D01*
X004553Y004935D01*
X004504Y004983D01*
X004408Y004983D01*
X004359Y004935D01*
X004359Y004742D01*
X004408Y004693D01*
X004504Y004693D01*
X004553Y004742D01*
X004654Y004693D02*
X004654Y004887D01*
X004751Y004983D01*
X004847Y004887D01*
X004847Y004693D01*
X005212Y004742D02*
X005212Y004790D01*
X005260Y004838D01*
X005357Y004838D01*
X005405Y004887D01*
X005405Y004935D01*
X005357Y004983D01*
X005260Y004983D01*
X005212Y004935D01*
X005507Y004935D02*
X005555Y004983D01*
X005652Y004983D01*
X005700Y004935D01*
X005801Y004983D02*
X005995Y004983D01*
X006161Y004935D02*
X006161Y004742D01*
X006065Y004838D02*
X006258Y004838D01*
X006359Y004790D02*
X006456Y004693D01*
X006456Y004983D01*
X006359Y004983D02*
X006553Y004983D01*
X006654Y004983D02*
X006847Y004790D01*
X006847Y004742D01*
X006799Y004693D01*
X006702Y004693D01*
X006654Y004742D01*
X006949Y004693D02*
X006949Y004887D01*
X007045Y004983D01*
X007142Y004887D01*
X007142Y004693D01*
X007209Y004742D02*
X007209Y004935D01*
X007407Y004935D02*
X007455Y004983D01*
X007552Y004983D01*
X007600Y004935D01*
X007600Y004838D01*
X007552Y004790D01*
X007503Y004790D01*
X007407Y004838D01*
X007407Y004693D01*
X007600Y004693D01*
X007701Y004693D02*
X007701Y004887D01*
X007798Y004983D01*
X007895Y004887D01*
X007895Y004693D01*
X008261Y004742D02*
X008261Y004935D01*
X008309Y004983D01*
X008406Y004983D01*
X008455Y004935D01*
X008556Y004887D02*
X008653Y004983D01*
X008749Y004887D01*
X008749Y004693D01*
X008850Y004693D02*
X008947Y004693D01*
X008899Y004693D02*
X008899Y004983D01*
X008947Y004983D02*
X008850Y004983D01*
X008556Y004887D02*
X008556Y004693D01*
X008455Y004742D02*
X008406Y004693D01*
X008309Y004693D01*
X008261Y004742D01*
X007305Y004838D02*
X007112Y004838D01*
X006847Y004983D02*
X006654Y004983D01*
X005801Y004983D02*
X005801Y004693D01*
X005700Y004742D02*
X005652Y004693D01*
X005555Y004693D01*
X005507Y004742D01*
X005507Y004935D01*
X005405Y004742D02*
X005357Y004693D01*
X005260Y004693D01*
X005212Y004742D01*
X009361Y004742D02*
X009361Y004935D01*
X009409Y004983D01*
X009506Y004983D01*
X009555Y004935D01*
X009555Y004838D01*
X009458Y004838D01*
X009555Y004742D02*
X009506Y004693D01*
X009409Y004693D01*
X009361Y004742D01*
X009656Y004693D02*
X009849Y004693D01*
X009753Y004693D02*
X009753Y004983D01*
X009950Y004983D02*
X010047Y004983D01*
X009999Y004983D02*
X009999Y004693D01*
X010047Y004693D02*
X009950Y004693D01*
X009946Y007093D02*
X009850Y007093D01*
X009801Y007142D01*
X009801Y007335D01*
X009850Y007383D01*
X009946Y007383D01*
X009995Y007335D01*
X009995Y007142D01*
X009946Y007093D01*
X009700Y007093D02*
X009507Y007093D01*
X009603Y007093D02*
X009603Y007383D01*
X009405Y007335D02*
X009405Y007238D01*
X009309Y007238D01*
X009212Y007142D02*
X009212Y007335D01*
X009260Y007383D01*
X009357Y007383D01*
X009405Y007335D01*
X008995Y007335D02*
X008995Y007142D01*
X008946Y007093D01*
X008850Y007093D01*
X008801Y007142D01*
X008801Y007335D01*
X008850Y007383D01*
X008946Y007383D01*
X008995Y007335D01*
X008700Y007287D02*
X008700Y007093D01*
X008507Y007093D02*
X008507Y007287D01*
X008603Y007383D01*
X008700Y007287D01*
X008405Y007335D02*
X008357Y007383D01*
X008260Y007383D01*
X008212Y007335D01*
X008212Y007142D01*
X008260Y007093D01*
X008357Y007093D01*
X008405Y007142D01*
X007895Y007093D02*
X007895Y007287D01*
X007798Y007383D01*
X007701Y007287D01*
X007701Y007093D01*
X007600Y007093D02*
X007407Y007093D01*
X007407Y007238D01*
X007503Y007190D01*
X007552Y007190D01*
X007600Y007238D01*
X007600Y007335D01*
X007552Y007383D01*
X007455Y007383D01*
X007407Y007335D01*
X007305Y007238D02*
X007112Y007238D01*
X007042Y007287D02*
X007042Y007093D01*
X007209Y007142D02*
X007209Y007335D01*
X007042Y007287D02*
X006945Y007383D01*
X006849Y007287D01*
X006849Y007093D01*
X006747Y007142D02*
X006747Y007190D01*
X006554Y007383D01*
X006747Y007383D01*
X006453Y007383D02*
X006259Y007383D01*
X006356Y007383D02*
X006356Y007093D01*
X006259Y007190D01*
X006158Y007238D02*
X005965Y007238D01*
X005995Y007238D02*
X005801Y007238D01*
X005801Y007190D02*
X005898Y007093D01*
X005995Y007190D01*
X005995Y007383D01*
X006061Y007335D02*
X006061Y007142D01*
X005801Y007190D02*
X005801Y007383D01*
X005700Y007335D02*
X005700Y007142D01*
X005652Y007093D01*
X005507Y007093D01*
X005507Y007383D01*
X005652Y007383D01*
X005700Y007335D01*
X005405Y007335D02*
X005405Y007287D01*
X005357Y007238D01*
X005260Y007238D01*
X005212Y007190D01*
X005212Y007142D01*
X005260Y007093D01*
X005357Y007093D01*
X005405Y007142D01*
X004847Y007093D02*
X004847Y007287D01*
X004751Y007383D01*
X004654Y007287D01*
X004654Y007093D01*
X004553Y007142D02*
X004359Y007335D01*
X004408Y007383D01*
X004504Y007383D01*
X004553Y007335D01*
X004553Y007142D01*
X004504Y007093D01*
X004408Y007093D01*
X004359Y007142D01*
X004359Y007335D01*
X003847Y007287D02*
X003847Y007093D01*
X003654Y007093D02*
X003654Y007287D01*
X003751Y007383D01*
X003847Y007287D01*
X003553Y007335D02*
X003504Y007383D01*
X003408Y007383D01*
X003359Y007335D01*
X003553Y007142D01*
X003553Y007335D01*
X003359Y007335D02*
X003359Y007142D01*
X003408Y007093D01*
X003504Y007093D01*
X003553Y007142D01*
X003042Y007093D02*
X003042Y007287D01*
X002945Y007383D01*
X002849Y007287D01*
X002849Y007093D01*
X002747Y007142D02*
X002747Y007190D01*
X002554Y007383D01*
X002747Y007383D01*
X002453Y007383D02*
X002259Y007383D01*
X002356Y007383D02*
X002356Y007093D01*
X002259Y007190D01*
X002158Y007238D02*
X001965Y007238D01*
X002554Y007142D02*
X002602Y007093D01*
X002699Y007093D01*
X002747Y007142D01*
X005212Y007335D02*
X005260Y007383D01*
X005357Y007383D01*
X005405Y007335D01*
X006554Y007142D02*
X006602Y007093D01*
X006699Y007093D01*
X006747Y007142D01*
X009212Y007142D02*
X009260Y007093D01*
X009357Y007093D01*
X009405Y007142D01*
D17*
X001458Y005445D02*
X001057Y005445D01*
X001057Y005312D02*
X001057Y005579D01*
X001324Y005312D02*
X001458Y005445D01*
X001458Y005118D02*
X001458Y004985D01*
X001458Y005052D02*
X001124Y005052D01*
X001057Y004985D01*
X001057Y004918D01*
X001124Y004851D01*
M02*
