G75*
%MOIN*%
%OFA0B0*%
%FSLAX24Y24*%
%IPPOS*%
%LPD*%
%AMOC8*
5,1,8,0,0,1.08239X$1,22.5*
%
%ADD10C,0.0674*%
%ADD11OC8,0.0596*%
%ADD12OC8,0.0780*%
%ADD13C,0.0946*%
%ADD14C,0.0820*%
%ADD15R,0.0720X0.0720*%
%ADD16OC8,0.0720*%
D10*
X019250Y001228D03*
X020234Y001228D03*
X021219Y001228D03*
X024762Y001228D03*
X025746Y001228D03*
X026730Y001228D03*
X030267Y001228D03*
X031252Y001228D03*
X032236Y001228D03*
X035785Y001228D03*
X036770Y001228D03*
X037754Y001228D03*
X037754Y003197D03*
X036770Y003197D03*
X035785Y003197D03*
X032236Y003197D03*
X031252Y003197D03*
X030267Y003197D03*
X026730Y003197D03*
X025746Y003197D03*
X024762Y003197D03*
X021219Y003197D03*
X020234Y003197D03*
X019250Y003197D03*
D11*
X018266Y002213D03*
X022203Y002213D03*
X023778Y002213D03*
X027715Y002213D03*
X029283Y002213D03*
X033220Y002213D03*
X034801Y002213D03*
X038738Y002213D03*
D12*
X001949Y002213D03*
X004949Y002213D03*
X005949Y002213D03*
X007461Y002213D03*
X010461Y002213D03*
X011461Y002213D03*
X012972Y002213D03*
X015972Y002213D03*
X016972Y002213D03*
X016972Y006150D03*
X015972Y006150D03*
X018484Y006150D03*
X021484Y006150D03*
X022484Y006150D03*
X023996Y006150D03*
X026996Y006150D03*
X027996Y006150D03*
X029508Y006150D03*
X032508Y006150D03*
X033508Y006150D03*
X035020Y006150D03*
X038020Y006150D03*
X039020Y006150D03*
X012972Y006150D03*
D13*
X014722Y006150D03*
X020234Y006150D03*
X025746Y006150D03*
X031258Y006150D03*
X036770Y006150D03*
X014722Y002213D03*
X009211Y002213D03*
X003699Y002213D03*
D14*
X018234Y004181D03*
X022234Y004181D03*
X023746Y004181D03*
X027746Y004181D03*
X029258Y004181D03*
X033258Y004181D03*
X034770Y004181D03*
X038770Y004181D03*
D15*
X002639Y006538D03*
D16*
X003639Y006538D03*
X004639Y006538D03*
X005639Y006538D03*
X006639Y006538D03*
X007639Y006538D03*
X008639Y006538D03*
X009639Y006538D03*
X009639Y005538D03*
X008639Y005538D03*
X007639Y005538D03*
X006639Y005538D03*
X005639Y005538D03*
X004639Y005538D03*
X003639Y005538D03*
X002639Y005538D03*
M02*
