%
M48
M72
T01C0.0276
T02C0.0354
T03C0.0400
T04C0.0866
%
T01
X18266Y2073
X22203Y2073
X23778Y2073
X27715Y2073
X29283Y2073
X33220Y2073
X34801Y2073
X38738Y2073
T02
X37754Y1089
X36770Y1089
X35785Y1089
X32236Y1089
X31252Y1089
X30267Y1089
X26730Y1089
X25746Y1089
X24762Y1089
X21219Y1089
X20234Y1089
X19250Y1089
X19250Y3058
X20234Y3058
X21219Y3058
X24762Y3058
X25746Y3058
X26730Y3058
X30267Y3058
X31252Y3058
X32236Y3058
X35785Y3058
X36770Y3058
X37754Y3058
X38770Y4042
X34770Y4042
X33258Y4042
X29258Y4042
X27746Y4042
X23746Y4042
X22234Y4042
X18234Y4042
T03
X1949Y2073
X4949Y2073
X5949Y2073
X7461Y2073
X10461Y2073
X11461Y2073
X12972Y2073
X15972Y2073
X16972Y2073
X9639Y5399
X8639Y5399
X7639Y5399
X6639Y5399
X5639Y5399
X4639Y5399
X3639Y5399
X2639Y5399
X2639Y6399
X3639Y6399
X4639Y6399
X5639Y6399
X6639Y6399
X7639Y6399
X8639Y6399
X9639Y6399
X12972Y6010
X15972Y6010
X16972Y6010
X18484Y6010
X21484Y6010
X22484Y6010
X23996Y6010
X26996Y6010
X27996Y6010
X29508Y6010
X32508Y6010
X33508Y6010
X35020Y6010
X38020Y6010
X39020Y6010
T04
X36770Y6010
X31258Y6010
X25746Y6010
X20234Y6010
X14722Y6010
X14722Y2073
X9211Y2073
X3699Y2073
M30
