G75*
%MOIN*%
%OFA0B0*%
%FSLAX24Y24*%
%IPPOS*%
%LPD*%
%AMOC8*
5,1,8,0,0,1.08239X$1,22.5*
%
%ADD10C,0.0594*%
%ADD11OC8,0.0516*%
%ADD12OC8,0.0700*%
%ADD13C,0.0740*%
%ADD14R,0.0640X0.0640*%
%ADD15OC8,0.0640*%
%ADD16C,0.0100*%
%ADD17C,0.0160*%
D10*
X019250Y001089D03*
X020234Y001089D03*
X021219Y001089D03*
X024762Y001089D03*
X025746Y001089D03*
X026730Y001089D03*
X030267Y001089D03*
X031252Y001089D03*
X032236Y001089D03*
X035785Y001089D03*
X036770Y001089D03*
X037754Y001089D03*
X037754Y003058D03*
X036770Y003058D03*
X035785Y003058D03*
X032236Y003058D03*
X031252Y003058D03*
X030267Y003058D03*
X026730Y003058D03*
X025746Y003058D03*
X024762Y003058D03*
X021219Y003058D03*
X020234Y003058D03*
X019250Y003058D03*
D11*
X018266Y002073D03*
X022203Y002073D03*
X023778Y002073D03*
X027715Y002073D03*
X029283Y002073D03*
X033220Y002073D03*
X034801Y002073D03*
X038738Y002073D03*
D12*
X039020Y006010D03*
X038020Y006010D03*
X035020Y006010D03*
X033508Y006010D03*
X032508Y006010D03*
X029508Y006010D03*
X027996Y006010D03*
X026996Y006010D03*
X023996Y006010D03*
X022484Y006010D03*
X021484Y006010D03*
X018484Y006010D03*
X016972Y006010D03*
X015972Y006010D03*
X012972Y006010D03*
X012972Y002073D03*
X011461Y002073D03*
X010461Y002073D03*
X007461Y002073D03*
X005949Y002073D03*
X004949Y002073D03*
X001949Y002073D03*
X015972Y002073D03*
X016972Y002073D03*
D13*
X018234Y004042D03*
X022234Y004042D03*
X023746Y004042D03*
X027746Y004042D03*
X029258Y004042D03*
X033258Y004042D03*
X034770Y004042D03*
X038770Y004042D03*
D14*
X002639Y006399D03*
D15*
X003639Y006399D03*
X004639Y006399D03*
X005639Y006399D03*
X006639Y006399D03*
X007639Y006399D03*
X008639Y006399D03*
X009639Y006399D03*
X009639Y005399D03*
X008639Y005399D03*
X007639Y005399D03*
X006639Y005399D03*
X005639Y005399D03*
X004639Y005399D03*
X003639Y005399D03*
X002639Y005399D03*
D16*
X000217Y000205D02*
X000150Y000205D01*
X000150Y000272D01*
X000217Y000205D01*
X000156Y000205D02*
X000156Y000267D01*
X000365Y000491D02*
X000463Y000393D01*
X000591Y000340D01*
X000660Y000334D01*
X039021Y000334D01*
X039091Y000340D01*
X039218Y000393D01*
X039316Y000491D01*
X039369Y000619D01*
X039376Y000688D01*
X039376Y005702D01*
X039214Y005540D01*
X039070Y005540D01*
X039070Y005960D01*
X038970Y005960D01*
X038970Y005540D01*
X038825Y005540D01*
X038550Y005816D01*
X038550Y005960D01*
X038970Y005960D01*
X038970Y006060D01*
X038550Y006060D01*
X038550Y006205D01*
X038825Y006480D01*
X038970Y006480D01*
X038970Y006060D01*
X039070Y006060D01*
X039070Y006480D01*
X039214Y006480D01*
X039376Y006319D01*
X039376Y007396D01*
X039369Y007465D01*
X039316Y007593D01*
X039218Y007691D01*
X039091Y007743D01*
X039021Y007750D01*
X000660Y007750D01*
X000591Y007743D01*
X000463Y007691D01*
X000365Y007593D01*
X000312Y007465D01*
X000306Y007396D01*
X000306Y000688D01*
X000312Y000619D01*
X000365Y000491D01*
X000373Y000484D02*
X039308Y000484D01*
X039256Y000431D02*
X039256Y003856D01*
X039267Y003884D02*
X039376Y003884D01*
X039376Y003984D02*
X039290Y003984D01*
X039290Y003939D02*
X039211Y003747D01*
X039064Y003601D01*
X038873Y003522D01*
X038666Y003522D01*
X038475Y003601D01*
X038329Y003747D01*
X038250Y003939D01*
X038250Y004145D01*
X038329Y004336D01*
X038475Y004483D01*
X038666Y004562D01*
X038873Y004562D01*
X039064Y004483D01*
X039211Y004336D01*
X039290Y004145D01*
X039290Y003939D01*
X039290Y004084D02*
X039376Y004084D01*
X039376Y004184D02*
X039274Y004184D01*
X039256Y004228D02*
X039256Y005582D01*
X039258Y005584D02*
X039376Y005584D01*
X039376Y005684D02*
X039358Y005684D01*
X039356Y005682D02*
X039356Y000587D01*
X039354Y000584D02*
X000327Y000584D01*
X000356Y000514D02*
X000356Y007569D01*
X000361Y007584D02*
X008203Y007584D01*
X008156Y007536D02*
X008156Y007750D01*
X008256Y007750D02*
X008256Y007636D01*
X008303Y007684D02*
X000456Y007684D01*
X000456Y007683D02*
X000456Y000401D01*
X000486Y000384D02*
X039195Y000384D01*
X039156Y000367D02*
X039156Y003692D01*
X039147Y003684D02*
X039376Y003684D01*
X039376Y003784D02*
X039226Y003784D01*
X039376Y003584D02*
X039022Y003584D01*
X039056Y003597D02*
X039056Y002333D01*
X039105Y002284D02*
X039376Y002284D01*
X039376Y002384D02*
X039005Y002384D01*
X038956Y002433D02*
X038956Y003556D01*
X038856Y003522D02*
X038856Y002481D01*
X038907Y002481D02*
X038569Y002481D01*
X038330Y002242D01*
X038330Y001905D01*
X038569Y001666D01*
X038907Y001666D01*
X039146Y001905D01*
X039146Y002242D01*
X038907Y002481D01*
X038756Y002481D02*
X038756Y003522D01*
X038656Y003526D02*
X038656Y002481D01*
X038556Y002467D02*
X038556Y003568D01*
X038517Y003584D02*
X038023Y003584D01*
X038023Y003625D02*
X037889Y003760D01*
X037613Y004036D01*
X035841Y004036D01*
X035780Y004097D01*
X035780Y006000D01*
X035645Y006135D01*
X035540Y006240D01*
X035497Y006240D01*
X035227Y006510D01*
X034813Y006510D01*
X034520Y006218D01*
X034520Y005803D01*
X034813Y005510D01*
X035227Y005510D01*
X035320Y005604D01*
X035320Y003907D01*
X035516Y003710D01*
X035651Y003576D01*
X037422Y003576D01*
X037544Y003455D01*
X037501Y003437D01*
X037375Y003311D01*
X037307Y003147D01*
X037307Y002969D01*
X037375Y002804D01*
X037501Y002679D01*
X037665Y002611D01*
X037843Y002611D01*
X038007Y002679D01*
X038133Y002804D01*
X038201Y002969D01*
X038201Y003147D01*
X038133Y003311D01*
X038023Y003421D01*
X038023Y003625D01*
X037965Y003684D02*
X038393Y003684D01*
X038356Y003721D02*
X038356Y002267D01*
X038372Y002284D02*
X037080Y002284D01*
X037080Y002384D02*
X038472Y002384D01*
X038456Y002367D02*
X038456Y003621D01*
X038023Y003484D02*
X039376Y003484D01*
X039376Y003384D02*
X038060Y003384D01*
X038056Y003388D02*
X038056Y005510D01*
X038156Y005510D02*
X038156Y003257D01*
X038144Y003284D02*
X039376Y003284D01*
X039376Y003184D02*
X038186Y003184D01*
X038201Y003084D02*
X039376Y003084D01*
X039376Y002984D02*
X038201Y002984D01*
X038166Y002884D02*
X039376Y002884D01*
X039376Y002784D02*
X038112Y002784D01*
X038056Y002727D02*
X038056Y001378D01*
X038049Y001384D02*
X039376Y001384D01*
X039376Y001484D02*
X037890Y001484D01*
X037914Y001476D02*
X037852Y001496D01*
X037793Y001505D01*
X037793Y001128D01*
X038170Y001128D01*
X038161Y001187D01*
X038141Y001249D01*
X038111Y001308D01*
X038072Y001361D01*
X038026Y001407D01*
X037973Y001446D01*
X037914Y001476D01*
X037956Y001455D02*
X037956Y002657D01*
X038012Y002684D02*
X039376Y002684D01*
X039376Y002584D02*
X037080Y002584D01*
X037080Y002484D02*
X039376Y002484D01*
X039376Y002184D02*
X039146Y002184D01*
X039146Y002084D02*
X039376Y002084D01*
X039376Y001984D02*
X039146Y001984D01*
X039125Y001884D02*
X039376Y001884D01*
X039376Y001784D02*
X039025Y001784D01*
X039056Y001814D02*
X039056Y000337D01*
X038956Y000334D02*
X038956Y001714D01*
X038925Y001684D02*
X039376Y001684D01*
X039376Y001584D02*
X036754Y001584D01*
X036756Y001585D02*
X036756Y001536D01*
X036707Y001536D02*
X036945Y001775D01*
X037080Y001910D01*
X037080Y002736D01*
X037149Y002804D01*
X037217Y002969D01*
X037217Y003147D01*
X037149Y003311D01*
X037023Y003437D01*
X036859Y003505D01*
X036681Y003505D01*
X036516Y003437D01*
X036391Y003311D01*
X036323Y003147D01*
X036323Y002969D01*
X036391Y002804D01*
X036516Y002679D01*
X036620Y002636D01*
X036620Y002100D01*
X036355Y001835D01*
X035139Y001835D01*
X035209Y001905D01*
X035209Y002242D01*
X035000Y002452D01*
X035000Y003574D01*
X035064Y003601D01*
X035211Y003747D01*
X035290Y003939D01*
X035290Y004145D01*
X035211Y004336D01*
X035064Y004483D01*
X034873Y004562D01*
X034666Y004562D01*
X034475Y004483D01*
X034329Y004336D01*
X034250Y004145D01*
X034250Y003939D01*
X034329Y003747D01*
X034475Y003601D01*
X034540Y003574D01*
X034540Y002389D01*
X034393Y002242D01*
X034393Y001905D01*
X034463Y001835D01*
X033558Y001835D01*
X033628Y001905D01*
X033628Y002242D01*
X033389Y002481D01*
X033051Y002481D01*
X032812Y002242D01*
X032812Y001905D01*
X032882Y001835D01*
X031482Y001835D01*
X031482Y002669D01*
X031505Y002679D01*
X031631Y002804D01*
X031699Y002969D01*
X031699Y003147D01*
X031631Y003311D01*
X031505Y003437D01*
X031455Y003458D01*
X032029Y003458D01*
X032030Y003456D01*
X031983Y003437D01*
X031857Y003311D01*
X031789Y003147D01*
X031789Y002969D01*
X031857Y002804D01*
X031983Y002679D01*
X032147Y002611D01*
X032325Y002611D01*
X032489Y002679D01*
X032615Y002804D01*
X032683Y002969D01*
X032683Y003147D01*
X032615Y003311D01*
X032511Y003414D01*
X032511Y003625D01*
X032377Y003760D01*
X032219Y003918D01*
X030448Y003918D01*
X030280Y004085D01*
X030280Y005900D01*
X030145Y006035D01*
X030008Y006172D01*
X030008Y006218D01*
X029715Y006510D01*
X029301Y006510D01*
X029008Y006218D01*
X029008Y005803D01*
X029301Y005510D01*
X029715Y005510D01*
X029820Y005615D01*
X029820Y003895D01*
X030122Y003592D01*
X030210Y003505D01*
X030178Y003505D01*
X030014Y003437D01*
X029888Y003311D01*
X029820Y003147D01*
X029820Y002969D01*
X029888Y002804D01*
X030014Y002679D01*
X030178Y002611D01*
X030356Y002611D01*
X030521Y002679D01*
X030646Y002804D01*
X030714Y002969D01*
X030714Y003147D01*
X030646Y003311D01*
X030521Y003437D01*
X030470Y003458D01*
X031049Y003458D01*
X030998Y003437D01*
X030872Y003311D01*
X030804Y003147D01*
X030804Y002969D01*
X030872Y002804D01*
X030998Y002679D01*
X031022Y002669D01*
X031022Y001902D01*
X030955Y001835D01*
X029621Y001835D01*
X029691Y001905D01*
X029691Y002242D01*
X029488Y002445D01*
X029488Y003574D01*
X029552Y003601D01*
X029699Y003747D01*
X029778Y003939D01*
X029778Y004145D01*
X029699Y004336D01*
X029552Y004483D01*
X029361Y004562D01*
X029154Y004562D01*
X028963Y004483D01*
X028817Y004336D01*
X028738Y004145D01*
X028738Y003939D01*
X028817Y003747D01*
X028963Y003601D01*
X029028Y003574D01*
X029028Y002395D01*
X028875Y002242D01*
X028875Y001905D01*
X028945Y001835D01*
X028053Y001835D01*
X028122Y001905D01*
X028122Y002242D01*
X027883Y002481D01*
X027546Y002481D01*
X027307Y002242D01*
X027307Y001905D01*
X027376Y001835D01*
X025976Y001835D01*
X025976Y002669D01*
X025999Y002679D01*
X026125Y002804D01*
X026193Y002969D01*
X026193Y003147D01*
X026125Y003311D01*
X026018Y003418D01*
X026458Y003418D01*
X026351Y003311D01*
X026283Y003147D01*
X026283Y002969D01*
X026351Y002804D01*
X026477Y002679D01*
X026641Y002611D01*
X026819Y002611D01*
X026984Y002679D01*
X027109Y002804D01*
X027177Y002969D01*
X027177Y003147D01*
X027109Y003311D01*
X026984Y003437D01*
X026960Y003446D01*
X026960Y003625D01*
X026826Y003760D01*
X026707Y003878D01*
X024818Y003878D01*
X024780Y003916D01*
X024780Y005900D01*
X024645Y006035D01*
X024496Y006184D01*
X024496Y006218D01*
X024203Y006510D01*
X023789Y006510D01*
X023496Y006218D01*
X023496Y005803D01*
X023789Y005510D01*
X024203Y005510D01*
X024320Y005627D01*
X024320Y003725D01*
X024492Y003553D01*
X024579Y003466D01*
X024509Y003437D01*
X024383Y003311D01*
X024315Y003147D01*
X024315Y002969D01*
X024383Y002804D01*
X024509Y002679D01*
X024673Y002611D01*
X024851Y002611D01*
X025015Y002679D01*
X025141Y002804D01*
X025209Y002969D01*
X025209Y003147D01*
X025141Y003311D01*
X025034Y003418D01*
X025474Y003418D01*
X025367Y003311D01*
X025299Y003147D01*
X025299Y002969D01*
X025367Y002804D01*
X025493Y002679D01*
X025516Y002669D01*
X025516Y001835D01*
X024116Y001835D01*
X024185Y001905D01*
X024185Y002242D01*
X023976Y002452D01*
X023976Y003574D01*
X024041Y003601D01*
X024187Y003747D01*
X024266Y003939D01*
X024266Y004145D01*
X024187Y004336D01*
X024041Y004483D01*
X023849Y004562D01*
X023643Y004562D01*
X023452Y004483D01*
X023305Y004336D01*
X023226Y004145D01*
X023226Y003939D01*
X023305Y003747D01*
X023452Y003601D01*
X023516Y003574D01*
X023516Y002389D01*
X023370Y002242D01*
X023370Y001905D01*
X023439Y001835D01*
X022541Y001835D01*
X022611Y001905D01*
X022611Y002242D01*
X022372Y002481D01*
X022034Y002481D01*
X021795Y002242D01*
X021795Y001905D01*
X021865Y001835D01*
X020464Y001835D01*
X020464Y002669D01*
X020488Y002679D01*
X020613Y002804D01*
X020681Y002969D01*
X020681Y003147D01*
X020613Y003311D01*
X020488Y003437D01*
X020323Y003505D01*
X020145Y003505D01*
X019981Y003437D01*
X019855Y003311D01*
X019787Y003147D01*
X019787Y002969D01*
X019855Y002804D01*
X019981Y002679D01*
X020004Y002669D01*
X020004Y001984D01*
X019855Y001835D01*
X019855Y001835D01*
X019833Y001814D01*
X018760Y001814D01*
X018626Y001679D01*
X018582Y001635D01*
X017199Y001635D01*
X017442Y001879D01*
X017442Y002023D01*
X017022Y002023D01*
X017022Y002123D01*
X016922Y002123D01*
X016922Y002023D01*
X016502Y002023D01*
X016502Y001879D01*
X016746Y001635D01*
X016241Y001635D01*
X016472Y001866D01*
X016472Y002281D01*
X016180Y002573D01*
X015765Y002573D01*
X015472Y002281D01*
X015472Y001866D01*
X015704Y001635D01*
X015109Y001635D01*
X015217Y001743D01*
X015306Y001957D01*
X015306Y002189D01*
X015217Y002404D01*
X015053Y002568D01*
X014838Y002657D01*
X014606Y002657D01*
X014392Y002568D01*
X014228Y002404D01*
X014139Y002189D01*
X014139Y001957D01*
X014228Y001743D01*
X014336Y001635D01*
X013241Y001635D01*
X013472Y001866D01*
X013472Y002281D01*
X013186Y002567D01*
X013186Y003854D01*
X015951Y003854D01*
X016086Y003988D01*
X016202Y004105D01*
X016202Y005533D01*
X016472Y005803D01*
X016472Y006218D01*
X016180Y006510D01*
X015765Y006510D01*
X015472Y006218D01*
X015472Y005803D01*
X015742Y005533D01*
X015742Y004314D01*
X012960Y004314D01*
X012860Y004214D01*
X012726Y004079D01*
X012726Y002534D01*
X012472Y002281D01*
X012472Y001866D01*
X012704Y001635D01*
X011687Y001635D01*
X011931Y001879D01*
X011931Y002023D01*
X011511Y002023D01*
X011511Y002123D01*
X011931Y002123D01*
X011931Y002268D01*
X011655Y002543D01*
X011511Y002543D01*
X011511Y002123D01*
X011411Y002123D01*
X011411Y002023D01*
X010991Y002023D01*
X010991Y001879D01*
X011234Y001635D01*
X010729Y001635D01*
X010961Y001866D01*
X010961Y002281D01*
X010668Y002573D01*
X010254Y002573D01*
X009961Y002281D01*
X009961Y001866D01*
X010192Y001635D01*
X009597Y001635D01*
X009705Y001743D01*
X009794Y001957D01*
X009794Y002189D01*
X009705Y002404D01*
X009541Y002568D01*
X009327Y002657D01*
X009095Y002657D01*
X008880Y002568D01*
X008716Y002404D01*
X008628Y002189D01*
X008628Y001957D01*
X008716Y001743D01*
X008825Y001635D01*
X007729Y001635D01*
X007961Y001866D01*
X007961Y002281D01*
X007668Y002573D01*
X007254Y002573D01*
X006961Y002281D01*
X006961Y001866D01*
X007192Y001635D01*
X006175Y001635D01*
X006419Y001879D01*
X006419Y002023D01*
X005999Y002023D01*
X005999Y002123D01*
X006419Y002123D01*
X006419Y002268D01*
X006143Y002543D01*
X005999Y002543D01*
X005999Y002123D01*
X005899Y002123D01*
X005899Y002023D01*
X005479Y002023D01*
X005479Y001879D01*
X005723Y001635D01*
X005217Y001635D01*
X005449Y001866D01*
X005449Y002281D01*
X005156Y002573D01*
X004742Y002573D01*
X004449Y002281D01*
X004449Y001866D01*
X004680Y001635D01*
X004085Y001635D01*
X004193Y001743D01*
X004282Y001957D01*
X004282Y002189D01*
X004193Y002404D01*
X004029Y002568D01*
X003815Y002657D01*
X003583Y002657D01*
X003369Y002568D01*
X003205Y002404D01*
X003116Y002189D01*
X003116Y001957D01*
X003205Y001743D01*
X003313Y001635D01*
X002245Y001635D01*
X002231Y001649D01*
X002449Y001866D01*
X002449Y002281D01*
X002156Y002573D01*
X001742Y002573D01*
X001449Y002281D01*
X001449Y001866D01*
X001719Y001596D01*
X001719Y001511D01*
X001920Y001310D01*
X002055Y001175D01*
X018772Y001175D01*
X018822Y001225D01*
X018803Y001178D01*
X018803Y001000D01*
X018871Y000836D01*
X018997Y000710D01*
X019161Y000642D01*
X019339Y000642D01*
X019503Y000710D01*
X019629Y000836D01*
X019697Y001000D01*
X019697Y001178D01*
X019629Y001342D01*
X019618Y001354D01*
X019866Y001354D01*
X019855Y001342D01*
X019787Y001178D01*
X019787Y001000D01*
X019855Y000836D01*
X019981Y000710D01*
X020145Y000642D01*
X020323Y000642D01*
X020488Y000710D01*
X020613Y000836D01*
X020681Y001000D01*
X020681Y001178D01*
X020613Y001342D01*
X020581Y001375D01*
X020914Y001375D01*
X020900Y001361D01*
X020862Y001308D01*
X020832Y001249D01*
X020812Y001187D01*
X020802Y001128D01*
X021180Y001128D01*
X021180Y001051D01*
X020802Y001051D01*
X020812Y000991D01*
X020832Y000929D01*
X020862Y000871D01*
X020900Y000817D01*
X020947Y000771D01*
X021000Y000732D01*
X021058Y000703D01*
X021121Y000682D01*
X021180Y000673D01*
X021180Y001051D01*
X021257Y001051D01*
X021257Y001128D01*
X021635Y001128D01*
X021625Y001187D01*
X021605Y001249D01*
X021575Y001308D01*
X021537Y001361D01*
X021523Y001375D01*
X024415Y001375D01*
X024383Y001342D01*
X024315Y001178D01*
X024315Y001000D01*
X024383Y000836D01*
X024509Y000710D01*
X024673Y000642D01*
X024851Y000642D01*
X025015Y000710D01*
X025141Y000836D01*
X025209Y001000D01*
X025209Y001178D01*
X025141Y001342D01*
X025108Y001375D01*
X025399Y001375D01*
X025367Y001342D01*
X025299Y001178D01*
X025299Y001000D01*
X025367Y000836D01*
X025493Y000710D01*
X025657Y000642D01*
X025835Y000642D01*
X025999Y000710D01*
X026125Y000836D01*
X026193Y001000D01*
X026193Y001178D01*
X026125Y001342D01*
X026093Y001375D01*
X026426Y001375D01*
X026412Y001361D01*
X026374Y001308D01*
X026344Y001249D01*
X026323Y001187D01*
X026314Y001128D01*
X026692Y001128D01*
X026692Y001051D01*
X026314Y001051D01*
X026323Y000991D01*
X026344Y000929D01*
X026374Y000871D01*
X026412Y000817D01*
X026459Y000771D01*
X026512Y000732D01*
X026570Y000703D01*
X026633Y000682D01*
X026692Y000673D01*
X026692Y001051D01*
X026769Y001051D01*
X026769Y001128D01*
X027147Y001128D01*
X027137Y001187D01*
X027117Y001249D01*
X027087Y001308D01*
X027049Y001361D01*
X027035Y001375D01*
X029921Y001375D01*
X029888Y001342D01*
X029820Y001178D01*
X029820Y001000D01*
X029888Y000836D01*
X030014Y000710D01*
X030178Y000642D01*
X030356Y000642D01*
X030521Y000710D01*
X030646Y000836D01*
X030714Y001000D01*
X030714Y001178D01*
X030646Y001342D01*
X030614Y001375D01*
X030905Y001375D01*
X030872Y001342D01*
X030804Y001178D01*
X030804Y001000D01*
X030872Y000836D01*
X030998Y000710D01*
X031163Y000642D01*
X031341Y000642D01*
X031505Y000710D01*
X031631Y000836D01*
X031699Y001000D01*
X031699Y001178D01*
X031631Y001342D01*
X031598Y001375D01*
X031932Y001375D01*
X031918Y001361D01*
X031879Y001308D01*
X031849Y001249D01*
X031829Y001187D01*
X031820Y001128D01*
X032197Y001128D01*
X032197Y001051D01*
X031820Y001051D01*
X031829Y000991D01*
X031849Y000929D01*
X031879Y000871D01*
X031918Y000817D01*
X031964Y000771D01*
X032017Y000732D01*
X032076Y000703D01*
X032138Y000682D01*
X032197Y000673D01*
X032197Y001051D01*
X032274Y001051D01*
X032274Y000673D01*
X032334Y000682D01*
X032396Y000703D01*
X032454Y000732D01*
X032508Y000771D01*
X032554Y000817D01*
X032593Y000871D01*
X032622Y000929D01*
X032643Y000991D01*
X032652Y001051D01*
X032274Y001051D01*
X032274Y001128D01*
X032652Y001128D01*
X032643Y001187D01*
X032622Y001249D01*
X032593Y001308D01*
X032554Y001361D01*
X032540Y001375D01*
X035439Y001375D01*
X035406Y001342D01*
X035338Y001178D01*
X035338Y001000D01*
X035406Y000836D01*
X035532Y000710D01*
X035696Y000642D01*
X035874Y000642D01*
X036039Y000710D01*
X036165Y000836D01*
X036233Y001000D01*
X036233Y001178D01*
X036165Y001342D01*
X036132Y001375D01*
X036423Y001375D01*
X036391Y001342D01*
X036323Y001178D01*
X036323Y001000D01*
X036391Y000836D01*
X036516Y000710D01*
X036681Y000642D01*
X036859Y000642D01*
X037023Y000710D01*
X037149Y000836D01*
X037217Y001000D01*
X037217Y001178D01*
X037149Y001342D01*
X037023Y001468D01*
X036859Y001536D01*
X036707Y001536D01*
X036856Y001536D02*
X036856Y001685D01*
X036854Y001684D02*
X038551Y001684D01*
X038556Y001679D02*
X038556Y000334D01*
X038656Y000334D02*
X038656Y001666D01*
X038756Y001666D02*
X038756Y000334D01*
X038856Y000334D02*
X038856Y001666D01*
X038456Y001779D02*
X038456Y000334D01*
X038356Y000334D02*
X038356Y001879D01*
X038351Y001884D02*
X037054Y001884D01*
X037056Y001885D02*
X037056Y001436D01*
X037108Y001384D02*
X037458Y001384D01*
X037456Y001381D02*
X037456Y002724D01*
X037496Y002684D02*
X037080Y002684D01*
X037128Y002784D02*
X037396Y002784D01*
X037356Y002851D02*
X037356Y001213D01*
X037347Y001187D02*
X037367Y001249D01*
X037397Y001308D01*
X037436Y001361D01*
X037482Y001407D01*
X037535Y001446D01*
X037594Y001476D01*
X037656Y001496D01*
X037715Y001505D01*
X037715Y001128D01*
X037715Y001051D01*
X037338Y001051D01*
X037347Y000991D01*
X037367Y000929D01*
X037397Y000871D01*
X037436Y000817D01*
X037482Y000771D01*
X037535Y000732D01*
X037594Y000703D01*
X037656Y000682D01*
X037715Y000673D01*
X037715Y001051D01*
X037793Y001051D01*
X037793Y001128D01*
X037715Y001128D01*
X037338Y001128D01*
X037347Y001187D01*
X037347Y001184D02*
X037215Y001184D01*
X037217Y001084D02*
X037715Y001084D01*
X037756Y001051D02*
X037756Y000334D01*
X037856Y000334D02*
X037856Y000684D01*
X039375Y000684D01*
X039376Y000784D02*
X038038Y000784D01*
X038026Y000771D02*
X038072Y000817D01*
X038111Y000871D01*
X038141Y000929D01*
X038161Y000991D01*
X038170Y001051D01*
X037793Y001051D01*
X037793Y000673D01*
X037852Y000682D01*
X037914Y000703D01*
X037973Y000732D01*
X038026Y000771D01*
X038056Y000801D02*
X038056Y000334D01*
X038156Y000334D02*
X038156Y000975D01*
X038158Y000984D02*
X039376Y000984D01*
X039376Y001084D02*
X037793Y001084D01*
X037756Y001128D02*
X037756Y002611D01*
X037856Y002616D02*
X037856Y001495D01*
X037793Y001484D02*
X037715Y001484D01*
X037656Y001496D02*
X037656Y002614D01*
X037556Y002656D02*
X037556Y001456D01*
X037618Y001484D02*
X036986Y001484D01*
X036956Y001496D02*
X036956Y001785D01*
X036954Y001784D02*
X038451Y001784D01*
X038330Y001984D02*
X037080Y001984D01*
X037080Y002084D02*
X038330Y002084D01*
X038330Y002184D02*
X037080Y002184D01*
X036620Y002184D02*
X035209Y002184D01*
X035168Y002284D02*
X036620Y002284D01*
X036620Y002384D02*
X035068Y002384D01*
X035056Y002396D02*
X035056Y003597D01*
X035022Y003584D02*
X035643Y003584D01*
X035656Y003576D02*
X035656Y003488D01*
X035645Y003484D02*
X035000Y003484D01*
X035406Y003311D02*
X035532Y003437D01*
X035696Y003505D01*
X035874Y003505D01*
X036039Y003437D01*
X036165Y003311D01*
X036233Y003147D01*
X036233Y002969D01*
X036165Y002804D01*
X036039Y002679D01*
X035874Y002611D01*
X035696Y002611D01*
X035532Y002679D01*
X035406Y002804D01*
X035338Y002969D01*
X035338Y003147D01*
X035406Y003311D01*
X035395Y003284D02*
X035000Y003284D01*
X035000Y003384D02*
X035479Y003384D01*
X035456Y003360D02*
X035456Y003771D01*
X035443Y003784D02*
X035226Y003784D01*
X035256Y003856D02*
X035256Y001835D01*
X035188Y001884D02*
X036403Y001884D01*
X036356Y001836D02*
X036356Y002889D01*
X036358Y002884D02*
X036197Y002884D01*
X036156Y002795D02*
X036156Y001835D01*
X036256Y001835D02*
X036256Y003576D01*
X036356Y003576D02*
X036356Y003226D01*
X036338Y003184D02*
X036217Y003184D01*
X036233Y003084D02*
X036323Y003084D01*
X036323Y002984D02*
X036233Y002984D01*
X036144Y002784D02*
X036411Y002784D01*
X036456Y002739D02*
X036456Y001936D01*
X036503Y001984D02*
X035209Y001984D01*
X035209Y002084D02*
X036603Y002084D01*
X036556Y002036D02*
X036556Y002662D01*
X036511Y002684D02*
X036044Y002684D01*
X036056Y002695D02*
X036056Y001835D01*
X035956Y001835D02*
X035956Y002644D01*
X035856Y002611D02*
X035856Y001835D01*
X035756Y001835D02*
X035756Y002611D01*
X035656Y002627D02*
X035656Y001835D01*
X035556Y001835D02*
X035556Y002669D01*
X035527Y002684D02*
X035000Y002684D01*
X035000Y002784D02*
X035427Y002784D01*
X035456Y002755D02*
X035456Y001835D01*
X035356Y001835D02*
X035356Y002927D01*
X035374Y002884D02*
X035000Y002884D01*
X035000Y002984D02*
X035338Y002984D01*
X035338Y003084D02*
X035000Y003084D01*
X035000Y003184D02*
X035354Y003184D01*
X035356Y003188D02*
X035356Y003871D01*
X035343Y003884D02*
X035267Y003884D01*
X035290Y003984D02*
X035320Y003984D01*
X035320Y004084D02*
X035290Y004084D01*
X035274Y004184D02*
X035320Y004184D01*
X035256Y004228D02*
X035256Y005539D01*
X035300Y005584D02*
X035320Y005584D01*
X035156Y005510D02*
X035156Y004392D01*
X035163Y004384D02*
X035320Y004384D01*
X035320Y004484D02*
X035062Y004484D01*
X035056Y004486D02*
X035056Y005510D01*
X034956Y005510D02*
X034956Y004528D01*
X034856Y004562D02*
X034856Y005510D01*
X034756Y005568D02*
X034756Y004562D01*
X034656Y004557D02*
X034656Y005668D01*
X034639Y005684D02*
X033846Y005684D01*
X033856Y005693D02*
X033856Y001835D01*
X033956Y001835D02*
X033956Y005793D01*
X033946Y005784D02*
X034539Y005784D01*
X034556Y005768D02*
X034556Y004516D01*
X034477Y004484D02*
X033550Y004484D01*
X033552Y004483D02*
X033361Y004562D01*
X033154Y004562D01*
X032963Y004483D01*
X032817Y004336D01*
X032738Y004145D01*
X032738Y003939D01*
X032817Y003747D01*
X032963Y003601D01*
X033154Y003522D01*
X033361Y003522D01*
X033552Y003601D01*
X033699Y003747D01*
X033778Y003939D01*
X033778Y004145D01*
X033699Y004336D01*
X033552Y004483D01*
X033556Y004480D02*
X033556Y005960D01*
X033558Y005960D02*
X033558Y005540D01*
X033703Y005540D01*
X033978Y005816D01*
X033978Y005960D01*
X033558Y005960D01*
X033458Y005960D01*
X033458Y005540D01*
X033313Y005540D01*
X033038Y005816D01*
X033038Y005960D01*
X033458Y005960D01*
X033458Y006060D01*
X033038Y006060D01*
X033038Y006205D01*
X033313Y006480D01*
X033458Y006480D01*
X033458Y006060D01*
X033558Y006060D01*
X033978Y006060D01*
X033978Y006205D01*
X033703Y006480D01*
X033558Y006480D01*
X033558Y006060D01*
X033558Y005960D01*
X033558Y005984D02*
X034520Y005984D01*
X034520Y006084D02*
X033978Y006084D01*
X033956Y006060D02*
X033956Y005960D01*
X033978Y005884D02*
X034520Y005884D01*
X033856Y005960D02*
X033856Y006060D01*
X033756Y006060D02*
X033756Y005960D01*
X033656Y005960D02*
X033656Y006060D01*
X033556Y006060D02*
X033556Y007275D01*
X033656Y007275D02*
X033656Y006480D01*
X033756Y006427D02*
X033756Y007275D01*
X033856Y007275D02*
X033856Y006327D01*
X033899Y006284D02*
X034586Y006284D01*
X034556Y006253D02*
X034556Y007275D01*
X034656Y007275D02*
X034656Y006353D01*
X034686Y006384D02*
X033799Y006384D01*
X033956Y006227D02*
X033956Y007275D01*
X034056Y007275D02*
X034056Y001835D01*
X034156Y001835D02*
X034156Y007275D01*
X034256Y007275D02*
X034256Y004159D01*
X034266Y004184D02*
X033762Y004184D01*
X033756Y004199D02*
X033756Y005593D01*
X033746Y005584D02*
X034739Y005584D01*
X035320Y005484D02*
X031510Y005484D01*
X031556Y005503D02*
X031556Y003918D01*
X031656Y003918D02*
X031656Y005583D01*
X031656Y005584D02*
X032228Y005584D01*
X032256Y005556D02*
X032256Y003881D01*
X032253Y003884D02*
X032761Y003884D01*
X032756Y003896D02*
X032756Y001835D01*
X032833Y001884D02*
X031482Y001884D01*
X031556Y001835D02*
X031556Y002729D01*
X031510Y002684D02*
X031977Y002684D01*
X031956Y002706D02*
X031956Y001835D01*
X032056Y001835D02*
X032056Y002648D01*
X032156Y002611D02*
X032156Y001835D01*
X032256Y001835D02*
X032256Y002611D01*
X032356Y002623D02*
X032356Y001835D01*
X032456Y001835D02*
X032456Y002665D01*
X032494Y002684D02*
X034540Y002684D01*
X034540Y002784D02*
X032594Y002784D01*
X032556Y002745D02*
X032556Y001835D01*
X032656Y001835D02*
X032656Y002902D01*
X032648Y002884D02*
X034540Y002884D01*
X034540Y002984D02*
X032683Y002984D01*
X032683Y003084D02*
X034540Y003084D01*
X034540Y003184D02*
X032668Y003184D01*
X032656Y003213D02*
X032656Y005510D01*
X032715Y005510D02*
X033008Y005803D01*
X033008Y006218D01*
X032738Y006488D01*
X032738Y007142D01*
X032605Y007275D01*
X037790Y007275D01*
X037790Y006488D01*
X037520Y006218D01*
X037520Y005803D01*
X037813Y005510D01*
X038227Y005510D01*
X038520Y005803D01*
X038520Y006218D01*
X038250Y006488D01*
X038250Y007531D01*
X038180Y007600D01*
X038045Y007735D01*
X008355Y007735D01*
X008055Y007435D01*
X007920Y007300D01*
X007920Y006783D01*
X007834Y006869D01*
X007444Y006869D01*
X007169Y006594D01*
X007169Y006205D01*
X007444Y005929D01*
X007834Y005929D01*
X007920Y006016D01*
X007920Y005783D01*
X007834Y005869D01*
X007444Y005869D01*
X007169Y005594D01*
X007169Y005205D01*
X007444Y004929D01*
X007834Y004929D01*
X007920Y005016D01*
X007920Y004310D01*
X008120Y004110D01*
X008255Y003975D01*
X009445Y003975D01*
X009745Y004275D01*
X009880Y004410D01*
X009880Y004976D01*
X010109Y005205D01*
X010109Y005594D01*
X009834Y005869D01*
X009444Y005869D01*
X009169Y005594D01*
X009169Y005205D01*
X009420Y004954D01*
X009420Y004600D01*
X009255Y004435D01*
X008445Y004435D01*
X008380Y004500D01*
X008380Y004994D01*
X008444Y004929D01*
X008834Y004929D01*
X009109Y005205D01*
X009109Y005544D01*
X009380Y005815D01*
X009380Y005994D01*
X009444Y005929D01*
X009834Y005929D01*
X010109Y006205D01*
X010109Y006594D01*
X009834Y006869D01*
X009444Y006869D01*
X009380Y006805D01*
X009380Y006810D01*
X009545Y006975D01*
X032255Y006975D01*
X032278Y006952D01*
X032278Y006488D01*
X032008Y006218D01*
X032008Y005803D01*
X032301Y005510D01*
X032715Y005510D01*
X032756Y005551D02*
X032756Y004188D01*
X032754Y004184D02*
X030280Y004184D01*
X030282Y004084D02*
X032738Y004084D01*
X032738Y003984D02*
X030382Y003984D01*
X030356Y004010D02*
X030356Y006975D01*
X030456Y006975D02*
X030456Y003918D01*
X030556Y003918D02*
X030556Y006975D01*
X030656Y006975D02*
X030656Y003918D01*
X030756Y003918D02*
X030756Y005700D01*
X030762Y005684D02*
X030280Y005684D01*
X030280Y005784D02*
X030721Y005784D01*
X030679Y005884D02*
X030280Y005884D01*
X030256Y005925D02*
X030256Y006975D01*
X030156Y006975D02*
X030156Y006025D01*
X030197Y005984D02*
X030675Y005984D01*
X030675Y005894D02*
X030675Y006126D01*
X030764Y006341D01*
X030928Y006505D01*
X031142Y006594D01*
X031374Y006594D01*
X031588Y006505D01*
X031752Y006341D01*
X031841Y006126D01*
X031841Y005894D01*
X031752Y005680D01*
X031588Y005516D01*
X031374Y005427D01*
X031142Y005427D01*
X030928Y005516D01*
X030764Y005680D01*
X030675Y005894D01*
X031754Y005684D02*
X032128Y005684D01*
X032156Y005656D02*
X032156Y003918D01*
X032056Y003918D02*
X032056Y005756D01*
X032028Y005784D02*
X031795Y005784D01*
X031756Y005688D02*
X031756Y003918D01*
X031856Y003918D02*
X031856Y006975D01*
X031956Y006975D02*
X031956Y003918D01*
X031456Y003918D02*
X031456Y005461D01*
X031356Y005427D02*
X031356Y003918D01*
X031256Y003918D02*
X031256Y005427D01*
X031156Y005427D02*
X031156Y003918D01*
X031056Y003918D02*
X031056Y005463D01*
X031006Y005484D02*
X030280Y005484D01*
X030280Y005384D02*
X035320Y005384D01*
X035320Y005284D02*
X030280Y005284D01*
X030280Y005184D02*
X035320Y005184D01*
X035320Y005084D02*
X030280Y005084D01*
X030280Y004984D02*
X035320Y004984D01*
X035320Y004884D02*
X030280Y004884D01*
X030280Y004784D02*
X035320Y004784D01*
X035320Y004684D02*
X030280Y004684D01*
X030280Y004584D02*
X035320Y004584D01*
X035780Y004584D02*
X039376Y004584D01*
X039376Y004684D02*
X035780Y004684D01*
X035780Y004784D02*
X039376Y004784D01*
X039376Y004884D02*
X035780Y004884D01*
X035780Y004984D02*
X039376Y004984D01*
X039376Y005084D02*
X035780Y005084D01*
X035780Y005184D02*
X039376Y005184D01*
X039376Y005284D02*
X035780Y005284D01*
X035780Y005384D02*
X039376Y005384D01*
X039376Y005484D02*
X037022Y005484D01*
X037056Y005498D02*
X037056Y004036D01*
X037156Y004036D02*
X037156Y005572D01*
X037168Y005584D02*
X037739Y005584D01*
X037756Y005568D02*
X037756Y003893D01*
X037765Y003884D02*
X038272Y003884D01*
X038256Y003924D02*
X038256Y000334D01*
X037956Y000334D02*
X037956Y000724D01*
X037793Y000684D02*
X037715Y000684D01*
X037656Y000683D02*
X037656Y000334D01*
X037556Y000334D02*
X037556Y000722D01*
X037652Y000684D02*
X036959Y000684D01*
X036956Y000682D02*
X036956Y000334D01*
X037056Y000334D02*
X037056Y000743D01*
X037097Y000784D02*
X037469Y000784D01*
X037456Y000798D02*
X037456Y000334D01*
X037356Y000334D02*
X037356Y000965D01*
X037350Y000984D02*
X037210Y000984D01*
X037356Y001051D02*
X037356Y001128D01*
X037456Y001128D02*
X037456Y001051D01*
X037556Y001051D02*
X037556Y001128D01*
X037656Y001128D02*
X037656Y001051D01*
X037715Y000984D02*
X037793Y000984D01*
X037856Y001051D02*
X037856Y001128D01*
X037793Y001184D02*
X037715Y001184D01*
X037715Y001284D02*
X037793Y001284D01*
X038123Y001284D02*
X039376Y001284D01*
X039376Y001184D02*
X038161Y001184D01*
X038156Y001203D02*
X038156Y002859D01*
X037342Y002884D02*
X037182Y002884D01*
X037156Y002821D02*
X037156Y001326D01*
X037173Y001284D02*
X037385Y001284D01*
X037715Y001384D02*
X037793Y001384D01*
X037956Y001128D02*
X037956Y001051D01*
X038056Y001051D02*
X038056Y001128D01*
X038156Y001128D02*
X038156Y001051D01*
X038117Y000884D02*
X039376Y000884D01*
X037793Y000884D02*
X037715Y000884D01*
X037715Y000784D02*
X037793Y000784D01*
X037390Y000884D02*
X037169Y000884D01*
X037156Y000852D02*
X037156Y000334D01*
X037256Y000334D02*
X037256Y003576D01*
X037356Y003576D02*
X037356Y003264D01*
X037364Y003284D02*
X037160Y003284D01*
X037156Y003295D02*
X037156Y003576D01*
X037056Y003576D02*
X037056Y003404D01*
X037076Y003384D02*
X037448Y003384D01*
X037456Y003392D02*
X037456Y003543D01*
X037514Y003484D02*
X036910Y003484D01*
X036956Y003465D02*
X036956Y003576D01*
X036856Y003576D02*
X036856Y003505D01*
X036756Y003505D02*
X036756Y003576D01*
X036656Y003576D02*
X036656Y003494D01*
X036630Y003484D02*
X035926Y003484D01*
X035956Y003471D02*
X035956Y003576D01*
X036056Y003576D02*
X036056Y003420D01*
X036092Y003384D02*
X036463Y003384D01*
X036456Y003376D02*
X036456Y003576D01*
X036556Y003576D02*
X036556Y003453D01*
X036156Y003576D02*
X036156Y003320D01*
X036176Y003284D02*
X036379Y003284D01*
X037202Y003184D02*
X037322Y003184D01*
X037307Y003084D02*
X037217Y003084D01*
X037217Y002984D02*
X037307Y002984D01*
X036620Y002584D02*
X035000Y002584D01*
X035000Y002484D02*
X036620Y002484D01*
X035156Y002296D02*
X035156Y003692D01*
X035147Y003684D02*
X035543Y003684D01*
X035556Y003671D02*
X035556Y003446D01*
X035756Y003505D02*
X035756Y003576D01*
X035856Y003576D02*
X035856Y003505D01*
X034540Y003484D02*
X032511Y003484D01*
X032511Y003584D02*
X033005Y003584D01*
X033056Y003563D02*
X033056Y002481D01*
X033156Y002481D02*
X033156Y003522D01*
X033256Y003522D02*
X033256Y002481D01*
X033356Y002481D02*
X033356Y003522D01*
X033456Y003561D02*
X033456Y002415D01*
X033487Y002384D02*
X034535Y002384D01*
X034540Y002484D02*
X031482Y002484D01*
X031482Y002584D02*
X034540Y002584D01*
X034456Y002304D02*
X034456Y003621D01*
X034517Y003584D02*
X033510Y003584D01*
X033556Y003604D02*
X033556Y002315D01*
X033587Y002284D02*
X034435Y002284D01*
X034393Y002184D02*
X033628Y002184D01*
X033628Y002084D02*
X034393Y002084D01*
X034393Y001984D02*
X033628Y001984D01*
X033607Y001884D02*
X034414Y001884D01*
X034456Y001842D02*
X034456Y001835D01*
X034356Y001835D02*
X034356Y003721D01*
X034393Y003684D02*
X033635Y003684D01*
X033656Y003704D02*
X033656Y001835D01*
X033756Y001835D02*
X033756Y003885D01*
X033755Y003884D02*
X034272Y003884D01*
X034256Y003924D02*
X034256Y001835D01*
X035156Y001835D02*
X035156Y001851D01*
X035156Y001375D02*
X035156Y000334D01*
X035256Y000334D02*
X035256Y001375D01*
X035356Y001375D02*
X035356Y001220D01*
X035341Y001184D02*
X032643Y001184D01*
X032556Y001128D02*
X032556Y001051D01*
X032456Y001051D02*
X032456Y001128D01*
X032356Y001128D02*
X032356Y001051D01*
X032274Y001084D02*
X035338Y001084D01*
X035345Y000984D02*
X032640Y000984D01*
X032274Y000984D02*
X032197Y000984D01*
X032156Y001051D02*
X032156Y001128D01*
X032197Y001084D02*
X031699Y001084D01*
X031696Y001184D02*
X031828Y001184D01*
X031856Y001128D02*
X031856Y001051D01*
X031831Y000984D02*
X031692Y000984D01*
X031656Y000896D02*
X031656Y000334D01*
X031756Y000334D02*
X031756Y001375D01*
X031856Y001375D02*
X031856Y001262D01*
X031867Y001284D02*
X031655Y001284D01*
X031656Y001282D02*
X031656Y001375D01*
X030856Y001375D02*
X030856Y001302D01*
X030848Y001284D02*
X030671Y001284D01*
X030656Y001321D02*
X030656Y001375D01*
X030756Y001375D02*
X030756Y000334D01*
X030856Y000334D02*
X030856Y000877D01*
X030853Y000884D02*
X030666Y000884D01*
X030656Y000858D02*
X030656Y000334D01*
X030556Y000334D02*
X030556Y000745D01*
X030594Y000784D02*
X030925Y000784D01*
X030956Y000753D02*
X030956Y000334D01*
X031056Y000334D02*
X031056Y000686D01*
X031062Y000684D02*
X030457Y000684D01*
X030456Y000683D02*
X030456Y000334D01*
X030356Y000334D02*
X030356Y000642D01*
X030256Y000642D02*
X030256Y000334D01*
X030156Y000334D02*
X030156Y000651D01*
X030078Y000684D02*
X026832Y000684D01*
X026828Y000682D02*
X026890Y000703D01*
X026949Y000732D01*
X027002Y000771D01*
X027049Y000817D01*
X027087Y000871D01*
X027117Y000929D01*
X027137Y000991D01*
X027147Y001051D01*
X026769Y001051D01*
X026769Y000673D01*
X026828Y000682D01*
X026856Y000691D02*
X026856Y000334D01*
X026956Y000334D02*
X026956Y000737D01*
X027015Y000784D02*
X029940Y000784D01*
X029956Y000769D02*
X029956Y000334D01*
X030056Y000334D02*
X030056Y000693D01*
X029868Y000884D02*
X027094Y000884D01*
X027056Y000827D02*
X027056Y000334D01*
X027156Y000334D02*
X027156Y001375D01*
X027256Y001375D02*
X027256Y000334D01*
X027356Y000334D02*
X027356Y001375D01*
X027456Y001375D02*
X027456Y000334D01*
X027556Y000334D02*
X027556Y001375D01*
X027656Y001375D02*
X027656Y000334D01*
X027756Y000334D02*
X027756Y001375D01*
X027856Y001375D02*
X027856Y000334D01*
X027956Y000334D02*
X027956Y001375D01*
X028056Y001375D02*
X028056Y000334D01*
X028156Y000334D02*
X028156Y001375D01*
X028256Y001375D02*
X028256Y000334D01*
X028356Y000334D02*
X028356Y001375D01*
X028456Y001375D02*
X028456Y000334D01*
X028556Y000334D02*
X028556Y001375D01*
X028656Y001375D02*
X028656Y000334D01*
X028756Y000334D02*
X028756Y001375D01*
X028856Y001375D02*
X028856Y000334D01*
X028956Y000334D02*
X028956Y001375D01*
X029056Y001375D02*
X029056Y000334D01*
X029156Y000334D02*
X029156Y001375D01*
X029256Y001375D02*
X029256Y000334D01*
X029356Y000334D02*
X029356Y001375D01*
X029456Y001375D02*
X029456Y000334D01*
X029556Y000334D02*
X029556Y001375D01*
X029656Y001375D02*
X029656Y000334D01*
X029756Y000334D02*
X029756Y001375D01*
X029856Y001375D02*
X029856Y001263D01*
X029864Y001284D02*
X027099Y001284D01*
X027056Y001351D02*
X027056Y001375D01*
X026356Y001375D02*
X026356Y001272D01*
X026361Y001284D02*
X026150Y001284D01*
X026156Y001269D02*
X026156Y001375D01*
X026256Y001375D02*
X026256Y000334D01*
X026356Y000334D02*
X026356Y000906D01*
X026367Y000884D02*
X026145Y000884D01*
X026156Y000909D02*
X026156Y000334D01*
X026056Y000334D02*
X026056Y000766D01*
X026073Y000784D02*
X026446Y000784D01*
X026456Y000774D02*
X026456Y000334D01*
X026556Y000334D02*
X026556Y000710D01*
X026628Y000684D02*
X025936Y000684D01*
X025956Y000692D02*
X025956Y000334D01*
X025856Y000334D02*
X025856Y000651D01*
X025756Y000642D02*
X025756Y000334D01*
X025656Y000334D02*
X025656Y000643D01*
X025557Y000684D02*
X024951Y000684D01*
X024956Y000685D02*
X024956Y000334D01*
X025056Y000334D02*
X025056Y000750D01*
X025089Y000784D02*
X025419Y000784D01*
X025456Y000747D02*
X025456Y000334D01*
X025556Y000334D02*
X025556Y000684D01*
X025356Y000864D02*
X025356Y000334D01*
X025256Y000334D02*
X025256Y001375D01*
X025356Y001375D02*
X025356Y001315D01*
X025343Y001284D02*
X025165Y001284D01*
X025156Y001307D02*
X025156Y001375D01*
X024356Y001375D02*
X024356Y001277D01*
X024358Y001284D02*
X021588Y001284D01*
X021556Y001335D02*
X021556Y001375D01*
X021656Y001375D02*
X021656Y000334D01*
X021756Y000334D02*
X021756Y001375D01*
X021856Y001375D02*
X021856Y000334D01*
X021956Y000334D02*
X021956Y001375D01*
X022056Y001375D02*
X022056Y000334D01*
X022156Y000334D02*
X022156Y001375D01*
X022256Y001375D02*
X022256Y000334D01*
X022356Y000334D02*
X022356Y001375D01*
X022456Y001375D02*
X022456Y000334D01*
X022556Y000334D02*
X022556Y001375D01*
X022656Y001375D02*
X022656Y000334D01*
X022756Y000334D02*
X022756Y001375D01*
X022856Y001375D02*
X022856Y000334D01*
X022956Y000334D02*
X022956Y001375D01*
X023056Y001375D02*
X023056Y000334D01*
X023156Y000334D02*
X023156Y001375D01*
X023256Y001375D02*
X023256Y000334D01*
X023356Y000334D02*
X023356Y001375D01*
X023456Y001375D02*
X023456Y000334D01*
X023556Y000334D02*
X023556Y001375D01*
X023656Y001375D02*
X023656Y000334D01*
X023756Y000334D02*
X023756Y001375D01*
X023856Y001375D02*
X023856Y000334D01*
X023956Y000334D02*
X023956Y001375D01*
X024056Y001375D02*
X024056Y000334D01*
X024156Y000334D02*
X024156Y001375D01*
X024256Y001375D02*
X024256Y000334D01*
X024356Y000334D02*
X024356Y000902D01*
X024363Y000884D02*
X021582Y000884D01*
X021575Y000871D02*
X021605Y000929D01*
X021625Y000991D01*
X021635Y001051D01*
X021257Y001051D01*
X021257Y000673D01*
X021316Y000682D01*
X021379Y000703D01*
X021437Y000732D01*
X021490Y000771D01*
X021537Y000817D01*
X021575Y000871D01*
X021556Y000843D02*
X021556Y000334D01*
X021456Y000334D02*
X021456Y000746D01*
X021503Y000784D02*
X024435Y000784D01*
X024456Y000763D02*
X024456Y000334D01*
X024556Y000334D02*
X024556Y000691D01*
X024572Y000684D02*
X021320Y000684D01*
X021356Y000695D02*
X021356Y000334D01*
X021256Y000334D02*
X021256Y001051D01*
X021257Y001084D02*
X024315Y001084D01*
X024317Y001184D02*
X021626Y001184D01*
X021556Y001128D02*
X021556Y001051D01*
X021623Y000984D02*
X024322Y000984D01*
X025156Y000871D02*
X025156Y000334D01*
X024856Y000334D02*
X024856Y000644D01*
X024756Y000642D02*
X024756Y000334D01*
X024656Y000334D02*
X024656Y000649D01*
X025161Y000884D02*
X025347Y000884D01*
X025306Y000984D02*
X025202Y000984D01*
X025209Y001084D02*
X025299Y001084D01*
X025301Y001184D02*
X025207Y001184D01*
X026191Y001184D02*
X026323Y001184D01*
X026356Y001128D02*
X026356Y001051D01*
X026326Y000984D02*
X026186Y000984D01*
X026193Y001084D02*
X026692Y001084D01*
X026656Y001051D02*
X026656Y001128D01*
X026556Y001128D02*
X026556Y001051D01*
X026456Y001051D02*
X026456Y001128D01*
X026692Y000984D02*
X026769Y000984D01*
X026756Y001051D02*
X026756Y000334D01*
X026656Y000334D02*
X026656Y000679D01*
X026692Y000684D02*
X026769Y000684D01*
X026769Y000784D02*
X026692Y000784D01*
X026692Y000884D02*
X026769Y000884D01*
X026856Y001051D02*
X026856Y001128D01*
X026769Y001084D02*
X029820Y001084D01*
X029822Y001184D02*
X027138Y001184D01*
X027056Y001128D02*
X027056Y001051D01*
X026956Y001051D02*
X026956Y001128D01*
X027135Y000984D02*
X029827Y000984D01*
X029856Y000915D02*
X029856Y000334D01*
X031156Y000334D02*
X031156Y000645D01*
X031256Y000642D02*
X031256Y000334D01*
X031356Y000334D02*
X031356Y000648D01*
X031441Y000684D02*
X032134Y000684D01*
X032156Y000680D02*
X032156Y000334D01*
X032256Y000334D02*
X032256Y001051D01*
X032056Y001051D02*
X032056Y001128D01*
X031956Y001128D02*
X031956Y001051D01*
X031856Y000917D02*
X031856Y000334D01*
X031956Y000334D02*
X031956Y000780D01*
X031951Y000784D02*
X031578Y000784D01*
X031556Y000761D02*
X031556Y000334D01*
X031456Y000334D02*
X031456Y000690D01*
X032056Y000713D02*
X032056Y000334D01*
X032356Y000334D02*
X032356Y000689D01*
X032338Y000684D02*
X035596Y000684D01*
X035556Y000700D02*
X035556Y000334D01*
X035656Y000334D02*
X035656Y000659D01*
X035756Y000642D02*
X035756Y000334D01*
X035856Y000334D02*
X035856Y000642D01*
X035956Y000676D02*
X035956Y000334D01*
X036056Y000334D02*
X036056Y000727D01*
X036112Y000784D02*
X036443Y000784D01*
X036456Y000771D02*
X036456Y000334D01*
X036556Y000334D02*
X036556Y000694D01*
X036580Y000684D02*
X035975Y000684D01*
X035459Y000784D02*
X032520Y000784D01*
X032556Y000819D02*
X032556Y000334D01*
X032656Y000334D02*
X032656Y001375D01*
X032756Y001375D02*
X032756Y000334D01*
X032856Y000334D02*
X032856Y001375D01*
X032956Y001375D02*
X032956Y000334D01*
X033056Y000334D02*
X033056Y001375D01*
X033156Y001375D02*
X033156Y000334D01*
X033256Y000334D02*
X033256Y001375D01*
X033356Y001375D02*
X033356Y000334D01*
X033456Y000334D02*
X033456Y001375D01*
X033556Y001375D02*
X033556Y000334D01*
X033656Y000334D02*
X033656Y001375D01*
X033756Y001375D02*
X033756Y000334D01*
X033856Y000334D02*
X033856Y001375D01*
X033956Y001375D02*
X033956Y000334D01*
X034056Y000334D02*
X034056Y001375D01*
X034156Y001375D02*
X034156Y000334D01*
X034256Y000334D02*
X034256Y001375D01*
X034356Y001375D02*
X034356Y000334D01*
X034456Y000334D02*
X034456Y001375D01*
X034556Y001375D02*
X034556Y000334D01*
X034656Y000334D02*
X034656Y001375D01*
X034756Y001375D02*
X034756Y000334D01*
X034856Y000334D02*
X034856Y001375D01*
X034956Y001375D02*
X034956Y000334D01*
X035056Y000334D02*
X035056Y001375D01*
X035382Y001284D02*
X032605Y001284D01*
X032556Y001359D02*
X032556Y001375D01*
X032856Y001835D02*
X032856Y001861D01*
X032812Y001984D02*
X031482Y001984D01*
X031482Y002084D02*
X032812Y002084D01*
X032812Y002184D02*
X031482Y002184D01*
X031482Y002284D02*
X032854Y002284D01*
X032856Y002286D02*
X032856Y003709D01*
X032881Y003684D02*
X032453Y003684D01*
X032456Y003681D02*
X032456Y005510D01*
X032556Y005510D02*
X032556Y003370D01*
X032542Y003384D02*
X034540Y003384D01*
X034540Y003284D02*
X032626Y003284D01*
X031956Y003410D02*
X031956Y003458D01*
X031929Y003384D02*
X031558Y003384D01*
X031556Y003386D02*
X031556Y003458D01*
X031656Y003458D02*
X031656Y003251D01*
X031642Y003284D02*
X031845Y003284D01*
X031856Y003308D02*
X031856Y003458D01*
X031756Y003458D02*
X031756Y001835D01*
X031856Y001835D02*
X031856Y002807D01*
X031877Y002784D02*
X031610Y002784D01*
X031656Y002864D02*
X031656Y001835D01*
X031003Y001884D02*
X029670Y001884D01*
X029656Y001869D02*
X029656Y001835D01*
X029756Y001835D02*
X029756Y003885D01*
X029755Y003884D02*
X029831Y003884D01*
X029856Y003859D02*
X029856Y003232D01*
X029835Y003184D02*
X029488Y003184D01*
X029488Y003284D02*
X029877Y003284D01*
X029956Y003378D02*
X029956Y003759D01*
X029931Y003784D02*
X029714Y003784D01*
X029656Y003704D02*
X029656Y002278D01*
X029650Y002284D02*
X031022Y002284D01*
X031022Y002384D02*
X029550Y002384D01*
X029556Y002378D02*
X029556Y003604D01*
X029510Y003584D02*
X030131Y003584D01*
X030156Y003559D02*
X030156Y003495D01*
X030127Y003484D02*
X029488Y003484D01*
X029028Y003484D02*
X026960Y003484D01*
X026960Y003584D02*
X027494Y003584D01*
X027456Y003599D02*
X027456Y002391D01*
X027448Y002384D02*
X025976Y002384D01*
X025976Y002484D02*
X029028Y002484D01*
X029028Y002584D02*
X025976Y002584D01*
X025516Y002584D02*
X023976Y002584D01*
X023976Y002484D02*
X025516Y002484D01*
X025516Y002384D02*
X024044Y002384D01*
X024056Y002372D02*
X024056Y003616D01*
X023999Y003584D02*
X024462Y003584D01*
X024456Y003590D02*
X024456Y003384D01*
X024455Y003384D02*
X023976Y003384D01*
X023976Y003284D02*
X024371Y003284D01*
X024356Y003245D02*
X024356Y003690D01*
X024362Y003684D02*
X024123Y003684D01*
X024156Y003716D02*
X024156Y002272D01*
X024144Y002284D02*
X025516Y002284D01*
X025516Y002184D02*
X024185Y002184D01*
X023456Y002328D02*
X023456Y003599D01*
X023494Y003584D02*
X022487Y003584D01*
X022456Y003571D02*
X022456Y002397D01*
X022469Y002384D02*
X023511Y002384D01*
X023516Y002484D02*
X020464Y002484D01*
X020464Y002584D02*
X023516Y002584D01*
X023516Y002684D02*
X021477Y002684D01*
X021472Y002679D02*
X021598Y002804D01*
X021666Y002969D01*
X021666Y003147D01*
X021598Y003311D01*
X021488Y003421D01*
X021488Y003665D01*
X021353Y003799D01*
X021156Y003996D01*
X019385Y003996D01*
X019380Y004001D01*
X019380Y006000D01*
X019245Y006135D01*
X019140Y006240D01*
X018961Y006240D01*
X018691Y006510D01*
X018277Y006510D01*
X017984Y006218D01*
X017984Y005803D01*
X018277Y005510D01*
X018691Y005510D01*
X018920Y005739D01*
X018920Y003810D01*
X019059Y003671D01*
X019194Y003536D01*
X020966Y003536D01*
X021028Y003474D01*
X021028Y003463D01*
X020965Y003437D01*
X020839Y003311D01*
X020771Y003147D01*
X020771Y002969D01*
X020839Y002804D01*
X020965Y002679D01*
X021130Y002611D01*
X021307Y002611D01*
X021472Y002679D01*
X021456Y002672D02*
X021456Y001835D01*
X021556Y001835D02*
X021556Y002762D01*
X021577Y002784D02*
X023516Y002784D01*
X023516Y002884D02*
X021630Y002884D01*
X021656Y002944D02*
X021656Y001835D01*
X021756Y001835D02*
X021756Y003839D01*
X021737Y003884D02*
X021269Y003884D01*
X021256Y003897D02*
X021256Y005532D01*
X021277Y005510D02*
X021691Y005510D01*
X021984Y005803D01*
X021984Y006218D01*
X021691Y006510D01*
X021277Y006510D01*
X020984Y006218D01*
X020984Y005803D01*
X021277Y005510D01*
X021356Y005510D02*
X021356Y003797D01*
X021369Y003784D02*
X021778Y003784D01*
X021793Y003747D02*
X021940Y003601D01*
X022131Y003522D01*
X022338Y003522D01*
X022529Y003601D01*
X022675Y003747D01*
X022754Y003939D01*
X022754Y004145D01*
X022675Y004336D01*
X022529Y004483D01*
X022338Y004562D01*
X022131Y004562D01*
X021940Y004483D01*
X021793Y004336D01*
X021714Y004145D01*
X021714Y003939D01*
X021793Y003747D01*
X021856Y003685D02*
X021856Y002303D01*
X021836Y002284D02*
X020464Y002284D01*
X020464Y002384D02*
X021936Y002384D01*
X021956Y002403D02*
X021956Y003595D01*
X021982Y003584D02*
X021488Y003584D01*
X021488Y003484D02*
X023516Y003484D01*
X023976Y003484D02*
X024562Y003484D01*
X024556Y003490D02*
X024556Y003456D01*
X025056Y003418D02*
X025056Y003396D01*
X025068Y003384D02*
X025440Y003384D01*
X025456Y003400D02*
X025456Y003418D01*
X025356Y003418D02*
X025356Y003283D01*
X025356Y003284D02*
X025152Y003284D01*
X025156Y003276D02*
X025156Y003418D01*
X025256Y003418D02*
X025256Y001835D01*
X025356Y001835D02*
X025356Y002832D01*
X025334Y002884D02*
X025174Y002884D01*
X025156Y002840D02*
X025156Y001835D01*
X025056Y001835D02*
X025056Y002719D01*
X025020Y002684D02*
X025488Y002684D01*
X025456Y002716D02*
X025456Y001835D01*
X025516Y001884D02*
X024165Y001884D01*
X024156Y001875D02*
X024156Y001835D01*
X024256Y001835D02*
X024256Y003913D01*
X024243Y003884D02*
X024320Y003884D01*
X024320Y003984D02*
X024266Y003984D01*
X024266Y004084D02*
X024320Y004084D01*
X024320Y004184D02*
X024250Y004184D01*
X024256Y004171D02*
X024256Y005563D01*
X024276Y005584D02*
X024320Y005584D01*
X024156Y005510D02*
X024156Y004368D01*
X024140Y004384D02*
X024320Y004384D01*
X024320Y004484D02*
X024038Y004484D01*
X024056Y004468D02*
X024056Y005510D01*
X023956Y005510D02*
X023956Y004518D01*
X023856Y004559D02*
X023856Y005510D01*
X023756Y005544D02*
X023756Y004562D01*
X023656Y004562D02*
X023656Y005644D01*
X023616Y005684D02*
X022822Y005684D01*
X022856Y005717D02*
X022856Y001835D01*
X022956Y001835D02*
X022956Y006975D01*
X023056Y006975D02*
X023056Y001835D01*
X023156Y001835D02*
X023156Y006975D01*
X023256Y006975D02*
X023256Y004216D01*
X023242Y004184D02*
X022738Y004184D01*
X022754Y004084D02*
X023226Y004084D01*
X023226Y003984D02*
X022754Y003984D01*
X022732Y003884D02*
X023249Y003884D01*
X023256Y003867D02*
X023256Y001835D01*
X023356Y001835D02*
X023356Y003697D01*
X023369Y003684D02*
X022611Y003684D01*
X022656Y003728D02*
X022656Y001835D01*
X022590Y001884D02*
X023391Y001884D01*
X023370Y001984D02*
X022611Y001984D01*
X022611Y002084D02*
X023370Y002084D01*
X023370Y002184D02*
X022611Y002184D01*
X022569Y002284D02*
X023411Y002284D01*
X022556Y002297D02*
X022556Y003628D01*
X022356Y003529D02*
X022356Y002481D01*
X022256Y002481D02*
X022256Y003522D01*
X022156Y003522D02*
X022156Y002481D01*
X022056Y002481D02*
X022056Y003553D01*
X021857Y003684D02*
X021469Y003684D01*
X021456Y003697D02*
X021456Y005510D01*
X021556Y005510D02*
X021556Y003353D01*
X021525Y003384D02*
X023516Y003384D01*
X023516Y003284D02*
X021609Y003284D01*
X021650Y003184D02*
X023516Y003184D01*
X023516Y003084D02*
X021666Y003084D01*
X021656Y003171D02*
X021656Y005510D01*
X021756Y005575D02*
X021756Y004245D01*
X021772Y004284D02*
X019380Y004284D01*
X019380Y004384D02*
X021841Y004384D01*
X021856Y004399D02*
X021856Y005675D01*
X021865Y005684D02*
X022146Y005684D01*
X022156Y005675D02*
X022156Y004562D01*
X022256Y004562D02*
X022256Y005575D01*
X022246Y005584D02*
X021765Y005584D01*
X021204Y005584D02*
X020632Y005584D01*
X020656Y005607D02*
X020656Y003996D01*
X020756Y003996D02*
X020756Y005745D01*
X020771Y005784D02*
X021004Y005784D01*
X021056Y005732D02*
X021056Y003996D01*
X021156Y003996D02*
X021156Y005632D01*
X021104Y005684D02*
X020730Y005684D01*
X020729Y005680D02*
X020817Y005894D01*
X020817Y006126D01*
X020729Y006341D01*
X020565Y006505D01*
X020350Y006594D01*
X020118Y006594D01*
X019904Y006505D01*
X019740Y006341D01*
X019651Y006126D01*
X019651Y005894D01*
X019740Y005680D01*
X019904Y005516D01*
X020118Y005427D01*
X020350Y005427D01*
X020565Y005516D01*
X020729Y005680D01*
X020813Y005884D02*
X020984Y005884D01*
X020984Y005984D02*
X020817Y005984D01*
X020817Y006084D02*
X020984Y006084D01*
X020984Y006184D02*
X020794Y006184D01*
X020756Y006276D02*
X020756Y006975D01*
X020856Y006975D02*
X020856Y003996D01*
X020956Y003996D02*
X020956Y006975D01*
X021056Y006975D02*
X021056Y006289D01*
X021050Y006284D02*
X020752Y006284D01*
X020686Y006384D02*
X021150Y006384D01*
X021156Y006389D02*
X021156Y006975D01*
X021256Y006975D02*
X021256Y006489D01*
X021250Y006484D02*
X020586Y006484D01*
X020556Y006508D02*
X020556Y006975D01*
X020656Y006975D02*
X020656Y006414D01*
X021356Y006510D02*
X021356Y006975D01*
X021456Y006975D02*
X021456Y006510D01*
X021556Y006510D02*
X021556Y006975D01*
X021656Y006975D02*
X021656Y006510D01*
X021718Y006484D02*
X023762Y006484D01*
X023756Y006477D02*
X023756Y006975D01*
X023856Y006975D02*
X023856Y006510D01*
X023956Y006510D02*
X023956Y006975D01*
X024056Y006975D02*
X024056Y006510D01*
X024156Y006510D02*
X024156Y006975D01*
X024256Y006975D02*
X024256Y006458D01*
X024230Y006484D02*
X025395Y006484D01*
X025416Y006505D02*
X025630Y006594D01*
X025862Y006594D01*
X026076Y006505D01*
X026240Y006341D01*
X026329Y006126D01*
X026329Y005894D01*
X026240Y005680D01*
X026076Y005516D01*
X025862Y005427D01*
X025630Y005427D01*
X025416Y005516D01*
X025252Y005680D01*
X025163Y005894D01*
X025163Y006126D01*
X025252Y006341D01*
X025416Y006505D01*
X025456Y006521D02*
X025456Y006975D01*
X025556Y006975D02*
X025556Y006563D01*
X025606Y006584D02*
X020374Y006584D01*
X020356Y006591D02*
X020356Y006975D01*
X020456Y006975D02*
X020456Y006550D01*
X020256Y006594D02*
X020256Y006975D01*
X020156Y006975D02*
X020156Y006594D01*
X020095Y006584D02*
X014862Y006584D01*
X014856Y006586D02*
X014856Y006975D01*
X014956Y006975D02*
X014956Y006545D01*
X015053Y006505D02*
X014838Y006594D01*
X014606Y006594D01*
X014392Y006505D01*
X014228Y006341D01*
X014139Y006126D01*
X014139Y005894D01*
X014228Y005680D01*
X014392Y005516D01*
X014606Y005427D01*
X014838Y005427D01*
X015053Y005516D01*
X015217Y005680D01*
X015306Y005894D01*
X015306Y006126D01*
X015217Y006341D01*
X015053Y006505D01*
X015056Y006502D02*
X015056Y006975D01*
X015156Y006975D02*
X015156Y006402D01*
X015174Y006384D02*
X015639Y006384D01*
X015656Y006401D02*
X015656Y006975D01*
X015756Y006975D02*
X015756Y006501D01*
X015739Y006484D02*
X015074Y006484D01*
X014756Y006594D02*
X014756Y006975D01*
X014656Y006975D02*
X014656Y006594D01*
X014583Y006584D02*
X010109Y006584D01*
X010056Y006648D02*
X010056Y006975D01*
X010156Y006975D02*
X010156Y002475D01*
X010164Y002484D02*
X009625Y002484D01*
X009656Y002453D02*
X009656Y004185D01*
X009654Y004184D02*
X012830Y004184D01*
X012856Y004209D02*
X012856Y005510D01*
X012765Y005510D02*
X013180Y005510D01*
X013472Y005803D01*
X013472Y006218D01*
X013180Y006510D01*
X012765Y006510D01*
X012472Y006218D01*
X012472Y005803D01*
X012765Y005510D01*
X012756Y005520D02*
X012756Y004109D01*
X012730Y004084D02*
X009554Y004084D01*
X009556Y004085D02*
X009556Y002553D01*
X009502Y002584D02*
X012726Y002584D01*
X012676Y002484D02*
X011715Y002484D01*
X011756Y002443D02*
X011756Y006975D01*
X011856Y006975D02*
X011856Y002343D01*
X011815Y002384D02*
X012576Y002384D01*
X012556Y002364D02*
X012556Y005720D01*
X012592Y005684D02*
X010019Y005684D01*
X010056Y005648D02*
X010056Y006151D01*
X010088Y006184D02*
X012472Y006184D01*
X012472Y006084D02*
X009988Y006084D01*
X009956Y006051D02*
X009956Y005748D01*
X009919Y005784D02*
X012492Y005784D01*
X012472Y005884D02*
X009380Y005884D01*
X009456Y005869D02*
X009456Y005929D01*
X009390Y005984D02*
X009380Y005984D01*
X009556Y005929D02*
X009556Y005869D01*
X009656Y005869D02*
X009656Y005929D01*
X009756Y005929D02*
X009756Y005869D01*
X009856Y005848D02*
X009856Y005951D01*
X009888Y005984D02*
X012472Y005984D01*
X013472Y005984D02*
X014139Y005984D01*
X014139Y006084D02*
X013472Y006084D01*
X013472Y006184D02*
X014163Y006184D01*
X014156Y006165D02*
X014156Y006975D01*
X014256Y006975D02*
X014256Y006368D01*
X014271Y006384D02*
X013306Y006384D01*
X013356Y006334D02*
X013356Y006975D01*
X013456Y006975D02*
X013456Y006234D01*
X013406Y006284D02*
X014205Y006284D01*
X013256Y006434D02*
X013256Y006975D01*
X013156Y006975D02*
X013156Y006510D01*
X013206Y006484D02*
X014371Y006484D01*
X014356Y006468D02*
X014356Y006975D01*
X014456Y006975D02*
X014456Y006531D01*
X014556Y006572D02*
X014556Y006975D01*
X014056Y006975D02*
X014056Y004314D01*
X014156Y004314D02*
X014156Y005855D01*
X014144Y005884D02*
X013472Y005884D01*
X013456Y005786D02*
X013456Y004314D01*
X013556Y004314D02*
X013556Y006975D01*
X013656Y006975D02*
X013656Y004314D01*
X013756Y004314D02*
X013756Y006975D01*
X013856Y006975D02*
X013856Y004314D01*
X013956Y004314D02*
X013956Y006975D01*
X013056Y006975D02*
X013056Y006510D01*
X012956Y006510D02*
X012956Y006975D01*
X012856Y006975D02*
X012856Y006510D01*
X012756Y006501D02*
X012756Y006975D01*
X012656Y006975D02*
X012656Y006401D01*
X012639Y006384D02*
X010109Y006384D01*
X010109Y006284D02*
X012539Y006284D01*
X012556Y006301D02*
X012556Y006975D01*
X012456Y006975D02*
X012456Y001635D01*
X012556Y001635D02*
X012556Y001783D01*
X012555Y001784D02*
X011836Y001784D01*
X011856Y001804D02*
X011856Y001635D01*
X011956Y001635D02*
X011956Y006975D01*
X012056Y006975D02*
X012056Y001635D01*
X012156Y001635D02*
X012156Y006975D01*
X012256Y006975D02*
X012256Y001635D01*
X012356Y001635D02*
X012356Y006975D01*
X011656Y006975D02*
X011656Y002543D01*
X011556Y002543D02*
X011556Y006975D01*
X011456Y006975D02*
X011456Y002123D01*
X011411Y002123D02*
X011411Y002543D01*
X011266Y002543D01*
X010991Y002268D01*
X010991Y002123D01*
X011411Y002123D01*
X011411Y002084D02*
X010961Y002084D01*
X010961Y001984D02*
X010991Y001984D01*
X011056Y002023D02*
X011056Y002123D01*
X010991Y002184D02*
X010961Y002184D01*
X010957Y002284D02*
X011006Y002284D01*
X010956Y002286D02*
X010956Y006975D01*
X011056Y006975D02*
X011056Y002333D01*
X011106Y002384D02*
X010857Y002384D01*
X010856Y002386D02*
X010856Y006975D01*
X010756Y006975D02*
X010756Y002486D01*
X010757Y002484D02*
X011206Y002484D01*
X011256Y002533D02*
X011256Y006975D01*
X011356Y006975D02*
X011356Y002543D01*
X011411Y002484D02*
X011511Y002484D01*
X011511Y002384D02*
X011411Y002384D01*
X011411Y002284D02*
X011511Y002284D01*
X011511Y002184D02*
X011411Y002184D01*
X011356Y002123D02*
X011356Y002023D01*
X011256Y002023D02*
X011256Y002123D01*
X011156Y002123D02*
X011156Y002023D01*
X011511Y002084D02*
X012472Y002084D01*
X012472Y001984D02*
X011931Y001984D01*
X011856Y002023D02*
X011856Y002123D01*
X011931Y002184D02*
X012472Y002184D01*
X012476Y002284D02*
X011915Y002284D01*
X011756Y002123D02*
X011756Y002023D01*
X011656Y002023D02*
X011656Y002123D01*
X011556Y002123D02*
X011556Y002023D01*
X011931Y001884D02*
X012472Y001884D01*
X011756Y001704D02*
X011756Y001635D01*
X011736Y001684D02*
X012655Y001684D01*
X012656Y001683D02*
X012656Y001635D01*
X013256Y001635D02*
X013256Y001649D01*
X013290Y001684D02*
X014288Y001684D01*
X014256Y001716D02*
X014256Y001635D01*
X014156Y001635D02*
X014156Y001918D01*
X014170Y001884D02*
X013472Y001884D01*
X013456Y001849D02*
X013456Y001635D01*
X013556Y001635D02*
X013556Y003854D01*
X013656Y003854D02*
X013656Y001635D01*
X013756Y001635D02*
X013756Y003854D01*
X013856Y003854D02*
X013856Y001635D01*
X013956Y001635D02*
X013956Y003854D01*
X014056Y003854D02*
X014056Y001635D01*
X014211Y001784D02*
X013390Y001784D01*
X013356Y001749D02*
X013356Y001635D01*
X013472Y001984D02*
X014139Y001984D01*
X014139Y002084D02*
X013472Y002084D01*
X013472Y002184D02*
X014139Y002184D01*
X014156Y002228D02*
X014156Y003854D01*
X014256Y003854D02*
X014256Y002431D01*
X014220Y002384D02*
X013369Y002384D01*
X013356Y002397D02*
X013356Y003854D01*
X013456Y003854D02*
X013456Y002297D01*
X013469Y002284D02*
X014178Y002284D01*
X014308Y002484D02*
X013269Y002484D01*
X013256Y002497D02*
X013256Y003854D01*
X013186Y003784D02*
X017778Y003784D01*
X017793Y003747D02*
X017940Y003601D01*
X018004Y003574D01*
X018004Y002389D01*
X017858Y002242D01*
X017858Y001905D01*
X018097Y001666D01*
X018435Y001666D01*
X018674Y001905D01*
X018674Y002242D01*
X018464Y002452D01*
X018464Y003574D01*
X018529Y003601D01*
X018675Y003747D01*
X018754Y003939D01*
X018754Y004145D01*
X018675Y004336D01*
X018529Y004483D01*
X018338Y004562D01*
X018131Y004562D01*
X017940Y004483D01*
X017793Y004336D01*
X017714Y004145D01*
X017714Y003939D01*
X017793Y003747D01*
X017856Y003685D02*
X017856Y001635D01*
X017956Y001635D02*
X017956Y001807D01*
X017979Y001784D02*
X017347Y001784D01*
X017356Y001792D02*
X017356Y001635D01*
X017456Y001635D02*
X017456Y006975D01*
X017556Y006975D02*
X017556Y001635D01*
X017656Y001635D02*
X017656Y006975D01*
X017756Y006975D02*
X017756Y004245D01*
X017772Y004284D02*
X016202Y004284D01*
X016202Y004384D02*
X017841Y004384D01*
X017856Y004399D02*
X017856Y006975D01*
X017956Y006975D02*
X017956Y004489D01*
X017942Y004484D02*
X016202Y004484D01*
X016202Y004584D02*
X018920Y004584D01*
X018920Y004684D02*
X016202Y004684D01*
X015742Y004684D02*
X009880Y004684D01*
X009880Y004584D02*
X015742Y004584D01*
X015742Y004484D02*
X009880Y004484D01*
X009856Y004385D02*
X009856Y001635D01*
X009956Y001635D02*
X009956Y005051D01*
X009988Y005084D02*
X015742Y005084D01*
X015742Y004984D02*
X009888Y004984D01*
X009880Y004884D02*
X015742Y004884D01*
X015742Y004784D02*
X009880Y004784D01*
X009420Y004784D02*
X008380Y004784D01*
X008380Y004884D02*
X009420Y004884D01*
X009390Y004984D02*
X008888Y004984D01*
X008856Y004951D02*
X008856Y004435D01*
X008956Y004435D02*
X008956Y005051D01*
X008988Y005084D02*
X009290Y005084D01*
X009256Y005118D02*
X009256Y004436D01*
X009303Y004484D02*
X008397Y004484D01*
X008456Y004435D02*
X008456Y004929D01*
X008390Y004984D02*
X008380Y004984D01*
X008556Y004929D02*
X008556Y004435D01*
X008656Y004435D02*
X008656Y004929D01*
X008756Y004929D02*
X008756Y004435D01*
X009056Y004435D02*
X009056Y005151D01*
X009088Y005184D02*
X009190Y005184D01*
X009169Y005284D02*
X009109Y005284D01*
X009109Y005384D02*
X009169Y005384D01*
X009169Y005484D02*
X009109Y005484D01*
X009148Y005584D02*
X009169Y005584D01*
X009156Y005591D02*
X009156Y004435D01*
X009754Y004284D02*
X012930Y004284D01*
X012956Y004309D02*
X012956Y005510D01*
X013056Y005510D02*
X013056Y004314D01*
X013156Y004314D02*
X013156Y005510D01*
X013253Y005584D02*
X014325Y005584D01*
X014356Y005553D02*
X014356Y004314D01*
X014456Y004314D02*
X014456Y005490D01*
X014471Y005484D02*
X010109Y005484D01*
X010109Y005384D02*
X015742Y005384D01*
X015742Y005484D02*
X014974Y005484D01*
X014956Y005476D02*
X014956Y004314D01*
X015056Y004314D02*
X015056Y005519D01*
X015120Y005584D02*
X015692Y005584D01*
X015656Y005620D02*
X015656Y004314D01*
X015556Y004314D02*
X015556Y005720D01*
X015592Y005684D02*
X015218Y005684D01*
X015156Y005619D02*
X015156Y004314D01*
X015256Y004314D02*
X015256Y005774D01*
X015260Y005784D02*
X015492Y005784D01*
X015472Y005884D02*
X015301Y005884D01*
X015306Y005984D02*
X015472Y005984D01*
X015472Y006084D02*
X015306Y006084D01*
X015282Y006184D02*
X015472Y006184D01*
X015539Y006284D02*
X015240Y006284D01*
X015256Y006247D02*
X015256Y006975D01*
X015356Y006975D02*
X015356Y004314D01*
X015456Y004314D02*
X015456Y006975D01*
X015556Y006975D02*
X015556Y006301D01*
X016256Y006434D02*
X016256Y006975D01*
X016356Y006975D02*
X016356Y006334D01*
X016306Y006384D02*
X016681Y006384D01*
X016656Y006358D02*
X016656Y006975D01*
X016756Y006975D02*
X016756Y006458D01*
X016778Y006480D02*
X016502Y006205D01*
X016502Y006060D01*
X016922Y006060D01*
X016922Y005960D01*
X016502Y005960D01*
X016502Y005816D01*
X016778Y005540D01*
X016922Y005540D01*
X016922Y005960D01*
X017022Y005960D01*
X017022Y005540D01*
X017167Y005540D01*
X017442Y005816D01*
X017442Y005960D01*
X017022Y005960D01*
X017022Y006060D01*
X016922Y006060D01*
X016922Y006480D01*
X016778Y006480D01*
X016856Y006480D02*
X016856Y006975D01*
X016956Y006975D02*
X016956Y006060D01*
X016922Y006084D02*
X017022Y006084D01*
X017022Y006060D02*
X017022Y006480D01*
X017167Y006480D01*
X017442Y006205D01*
X017442Y006060D01*
X017022Y006060D01*
X017056Y006060D02*
X017056Y005960D01*
X017022Y005984D02*
X017984Y005984D01*
X017984Y006084D02*
X017442Y006084D01*
X017356Y006060D02*
X017356Y005960D01*
X017256Y005960D02*
X017256Y006060D01*
X017156Y006060D02*
X017156Y005960D01*
X017022Y005884D02*
X016922Y005884D01*
X016956Y005960D02*
X016956Y002123D01*
X016922Y002123D02*
X016922Y002543D01*
X016778Y002543D01*
X016502Y002268D01*
X016502Y002123D01*
X016922Y002123D01*
X016922Y002084D02*
X016472Y002084D01*
X016556Y002123D02*
X016556Y002023D01*
X016502Y001984D02*
X016472Y001984D01*
X016472Y001884D02*
X016502Y001884D01*
X016456Y001849D02*
X016456Y001635D01*
X016556Y001635D02*
X016556Y001826D01*
X016598Y001784D02*
X016390Y001784D01*
X016356Y001749D02*
X016356Y001635D01*
X016290Y001684D02*
X016698Y001684D01*
X016656Y001726D02*
X016656Y001635D01*
X016256Y001635D02*
X016256Y001649D01*
X015656Y001635D02*
X015656Y001683D01*
X015655Y001684D02*
X015157Y001684D01*
X015156Y001682D02*
X015156Y001635D01*
X015256Y001635D02*
X015256Y001837D01*
X015275Y001884D02*
X015472Y001884D01*
X015472Y001984D02*
X015306Y001984D01*
X015306Y002084D02*
X015472Y002084D01*
X015472Y002184D02*
X015306Y002184D01*
X015266Y002284D02*
X015476Y002284D01*
X015556Y002364D02*
X015556Y003854D01*
X015656Y003854D02*
X015656Y002464D01*
X015676Y002484D02*
X015137Y002484D01*
X015156Y002465D02*
X015156Y003854D01*
X015256Y003854D02*
X015256Y002310D01*
X015225Y002384D02*
X015576Y002384D01*
X016256Y002497D02*
X016256Y005586D01*
X016253Y005584D02*
X016735Y005584D01*
X016756Y005563D02*
X016756Y002521D01*
X016718Y002484D02*
X016269Y002484D01*
X016356Y002397D02*
X016356Y005686D01*
X016353Y005684D02*
X016635Y005684D01*
X016656Y005663D02*
X016656Y002421D01*
X016618Y002384D02*
X016369Y002384D01*
X016456Y002297D02*
X016456Y005786D01*
X016453Y005784D02*
X016535Y005784D01*
X016556Y005763D02*
X016556Y002321D01*
X016518Y002284D02*
X016469Y002284D01*
X016472Y002184D02*
X016502Y002184D01*
X016656Y002123D02*
X016656Y002023D01*
X016756Y002023D02*
X016756Y002123D01*
X016856Y002123D02*
X016856Y002023D01*
X017022Y002084D02*
X017858Y002084D01*
X017858Y001984D02*
X017442Y001984D01*
X017356Y002023D02*
X017356Y002123D01*
X017442Y002123D02*
X017442Y002268D01*
X017167Y002543D01*
X017022Y002543D01*
X017022Y002123D01*
X017442Y002123D01*
X017442Y002184D02*
X017858Y002184D01*
X017899Y002284D02*
X017427Y002284D01*
X017356Y002355D02*
X017356Y005729D01*
X017310Y005684D02*
X018104Y005684D01*
X018056Y005732D02*
X018056Y004531D01*
X018156Y004562D02*
X018156Y005632D01*
X018204Y005584D02*
X017210Y005584D01*
X017256Y005629D02*
X017256Y002455D01*
X017227Y002484D02*
X018004Y002484D01*
X018004Y002584D02*
X015014Y002584D01*
X015056Y002565D02*
X015056Y003854D01*
X014956Y003854D02*
X014956Y002608D01*
X014856Y002649D02*
X014856Y003854D01*
X014756Y003854D02*
X014756Y002657D01*
X014656Y002657D02*
X014656Y003854D01*
X014556Y003854D02*
X014556Y002635D01*
X014456Y002594D02*
X014456Y003854D01*
X014356Y003854D02*
X014356Y002531D01*
X014431Y002584D02*
X013186Y002584D01*
X013186Y002684D02*
X018004Y002684D01*
X018004Y002784D02*
X013186Y002784D01*
X013186Y002884D02*
X018004Y002884D01*
X018004Y002984D02*
X013186Y002984D01*
X012726Y002984D02*
X000306Y002984D01*
X000306Y002884D02*
X012726Y002884D01*
X012726Y002784D02*
X000306Y002784D01*
X000306Y002684D02*
X012726Y002684D01*
X012656Y002464D02*
X012656Y005620D01*
X012692Y005584D02*
X010109Y005584D01*
X009359Y005784D02*
X009348Y005784D01*
X009356Y005781D02*
X009356Y005791D01*
X009256Y005691D02*
X009256Y005681D01*
X009259Y005684D02*
X009248Y005684D01*
X008920Y006006D02*
X008784Y005869D01*
X008444Y005869D01*
X008380Y005805D01*
X008380Y005994D01*
X008444Y005929D01*
X008834Y005929D01*
X008920Y006016D01*
X008920Y006006D01*
X008898Y005984D02*
X008888Y005984D01*
X008856Y005951D02*
X008856Y005941D01*
X008798Y005884D02*
X008380Y005884D01*
X008456Y005869D02*
X008456Y005929D01*
X008390Y005984D02*
X008380Y005984D01*
X008556Y005929D02*
X008556Y005869D01*
X008656Y005869D02*
X008656Y005929D01*
X008756Y005929D02*
X008756Y005869D01*
X007920Y005884D02*
X000306Y005884D01*
X000306Y005784D02*
X002359Y005784D01*
X002356Y005781D02*
X002356Y005929D01*
X002257Y005929D02*
X003021Y005929D01*
X003109Y006017D01*
X003109Y006782D01*
X003021Y006869D01*
X002257Y006869D01*
X002169Y006782D01*
X002169Y006017D01*
X002257Y005929D01*
X002256Y005931D02*
X002256Y005681D01*
X002259Y005684D02*
X000306Y005684D01*
X000306Y005584D02*
X002169Y005584D01*
X002169Y005594D02*
X002169Y005205D01*
X002444Y004929D01*
X002834Y004929D01*
X003109Y005205D01*
X003109Y005594D01*
X002834Y005869D01*
X002444Y005869D01*
X002169Y005594D01*
X002169Y005484D02*
X000306Y005484D01*
X000306Y005384D02*
X002169Y005384D01*
X002169Y005284D02*
X000306Y005284D01*
X000306Y005184D02*
X002190Y005184D01*
X002256Y005118D02*
X002256Y002474D01*
X002246Y002484D02*
X003284Y002484D01*
X003256Y002455D02*
X003256Y005161D01*
X003232Y005184D02*
X003088Y005184D01*
X003056Y005151D02*
X003056Y001635D01*
X003156Y001635D02*
X003156Y001861D01*
X003146Y001884D02*
X002449Y001884D01*
X002449Y001984D02*
X003116Y001984D01*
X003116Y002084D02*
X002449Y002084D01*
X002449Y002184D02*
X003116Y002184D01*
X003155Y002284D02*
X002446Y002284D01*
X002356Y002374D02*
X002356Y005018D01*
X002390Y004984D02*
X000306Y004984D01*
X000306Y005084D02*
X002290Y005084D01*
X002456Y004929D02*
X002456Y001635D01*
X002556Y001635D02*
X002556Y004929D01*
X002656Y004929D02*
X002656Y001635D01*
X002756Y001635D02*
X002756Y004929D01*
X002856Y004951D02*
X002856Y001635D01*
X002956Y001635D02*
X002956Y005051D01*
X002988Y005084D02*
X003332Y005084D01*
X003356Y005061D02*
X003356Y002555D01*
X003407Y002584D02*
X000306Y002584D01*
X000306Y002484D02*
X001652Y002484D01*
X001656Y002487D02*
X001656Y007750D01*
X001756Y007750D02*
X001756Y002573D01*
X001856Y002573D02*
X001856Y007750D01*
X001956Y007750D02*
X001956Y002573D01*
X002056Y002573D02*
X002056Y007750D01*
X002156Y007750D02*
X002156Y002573D01*
X002346Y002384D02*
X003196Y002384D01*
X003156Y002285D02*
X003156Y007750D01*
X003256Y007750D02*
X003256Y006638D01*
X003301Y006684D02*
X003109Y006684D01*
X003107Y006784D02*
X003401Y006784D01*
X003356Y006738D02*
X003356Y007750D01*
X003456Y007750D02*
X003456Y006838D01*
X003457Y006839D02*
X003199Y006582D01*
X003199Y006449D01*
X003589Y006449D01*
X003589Y006349D01*
X003689Y006349D01*
X003689Y005959D01*
X003821Y005959D01*
X004079Y006217D01*
X004079Y006349D01*
X003689Y006349D01*
X003689Y006449D01*
X004079Y006449D01*
X004079Y006582D01*
X003821Y006839D01*
X003689Y006839D01*
X003689Y006449D01*
X003589Y006449D01*
X003589Y006839D01*
X003457Y006839D01*
X003556Y006839D02*
X003556Y007750D01*
X003656Y007750D02*
X003656Y006449D01*
X003689Y006484D02*
X003589Y006484D01*
X003556Y006449D02*
X003556Y006349D01*
X003589Y006349D02*
X003199Y006349D01*
X003199Y006217D01*
X003457Y005959D01*
X003589Y005959D01*
X003589Y006349D01*
X003589Y006384D02*
X003109Y006384D01*
X003109Y006284D02*
X003199Y006284D01*
X003256Y006349D02*
X003256Y006449D01*
X003199Y006484D02*
X003109Y006484D01*
X003109Y006584D02*
X003201Y006584D01*
X003589Y006584D02*
X003689Y006584D01*
X003689Y006684D02*
X003589Y006684D01*
X003589Y006784D02*
X003689Y006784D01*
X003756Y006839D02*
X003756Y007750D01*
X003856Y007750D02*
X003856Y006805D01*
X003877Y006784D02*
X004401Y006784D01*
X004356Y006738D02*
X004356Y007750D01*
X004456Y007750D02*
X004456Y006838D01*
X004457Y006839D02*
X004199Y006582D01*
X004199Y006449D01*
X004589Y006449D01*
X004589Y006349D01*
X004689Y006349D01*
X004689Y005959D01*
X004821Y005959D01*
X005079Y006217D01*
X005079Y006349D01*
X004689Y006349D01*
X004689Y006449D01*
X005079Y006449D01*
X005079Y006582D01*
X004821Y006839D01*
X004689Y006839D01*
X004689Y006449D01*
X004589Y006449D01*
X004589Y006839D01*
X004457Y006839D01*
X004556Y006839D02*
X004556Y007750D01*
X004656Y007750D02*
X004656Y006449D01*
X004689Y006484D02*
X004589Y006484D01*
X004556Y006449D02*
X004556Y006349D01*
X004589Y006349D02*
X004199Y006349D01*
X004199Y006217D01*
X004457Y005959D01*
X004589Y005959D01*
X004589Y006349D01*
X004589Y006384D02*
X003689Y006384D01*
X003656Y006349D02*
X003656Y005449D01*
X003689Y005449D02*
X003589Y005449D01*
X003589Y005349D01*
X003689Y005349D01*
X003689Y004959D01*
X003821Y004959D01*
X004079Y005217D01*
X004079Y005349D01*
X003689Y005349D01*
X003689Y005449D01*
X004079Y005449D01*
X004079Y005582D01*
X003821Y005839D01*
X003689Y005839D01*
X003689Y005449D01*
X003689Y005484D02*
X003589Y005484D01*
X003589Y005449D02*
X003589Y005839D01*
X003457Y005839D01*
X003199Y005582D01*
X003199Y005449D01*
X003589Y005449D01*
X003556Y005449D02*
X003556Y005349D01*
X003589Y005349D02*
X003199Y005349D01*
X003199Y005217D01*
X003457Y004959D01*
X003589Y004959D01*
X003589Y005349D01*
X003589Y005384D02*
X003109Y005384D01*
X003109Y005484D02*
X003199Y005484D01*
X003256Y005449D02*
X003256Y005349D01*
X003199Y005284D02*
X003109Y005284D01*
X003356Y005349D02*
X003356Y005449D01*
X003456Y005449D02*
X003456Y005349D01*
X003589Y005284D02*
X003689Y005284D01*
X003656Y005349D02*
X003656Y002657D01*
X003756Y002657D02*
X003756Y004959D01*
X003689Y004984D02*
X003589Y004984D01*
X003556Y004959D02*
X003556Y002645D01*
X003456Y002604D02*
X003456Y004961D01*
X003432Y004984D02*
X002888Y004984D01*
X003589Y005084D02*
X003689Y005084D01*
X003845Y004984D02*
X004432Y004984D01*
X004456Y004961D02*
X004456Y002287D01*
X004452Y002284D02*
X004243Y002284D01*
X004256Y002253D02*
X004256Y005161D01*
X004232Y005184D02*
X004045Y005184D01*
X004056Y005194D02*
X004056Y002541D01*
X003991Y002584D02*
X008919Y002584D01*
X008956Y002599D02*
X008956Y003975D01*
X009056Y003975D02*
X009056Y002640D01*
X009156Y002657D02*
X009156Y003975D01*
X009256Y003975D02*
X009256Y002657D01*
X009356Y002645D02*
X009356Y003975D01*
X009454Y003984D02*
X012726Y003984D01*
X012726Y003884D02*
X000306Y003884D01*
X000306Y003984D02*
X008246Y003984D01*
X008256Y003975D02*
X008256Y001635D01*
X008356Y001635D02*
X008356Y003975D01*
X008456Y003975D02*
X008456Y001635D01*
X008556Y001635D02*
X008556Y003975D01*
X008656Y003975D02*
X008656Y002257D01*
X008667Y002284D02*
X007957Y002284D01*
X007956Y002286D02*
X007956Y004274D01*
X007946Y004284D02*
X000306Y004284D01*
X000306Y004384D02*
X007920Y004384D01*
X007920Y004484D02*
X000306Y004484D01*
X000306Y004584D02*
X007920Y004584D01*
X007920Y004684D02*
X000306Y004684D01*
X000306Y004784D02*
X007920Y004784D01*
X007920Y004884D02*
X000306Y004884D01*
X000306Y004184D02*
X008046Y004184D01*
X008056Y004174D02*
X008056Y001635D01*
X008156Y001635D02*
X008156Y004074D01*
X008146Y004084D02*
X000306Y004084D01*
X000306Y003784D02*
X012726Y003784D01*
X012726Y003684D02*
X000306Y003684D01*
X000306Y003584D02*
X012726Y003584D01*
X012726Y003484D02*
X000306Y003484D01*
X000306Y003384D02*
X012726Y003384D01*
X012726Y003284D02*
X000306Y003284D01*
X000306Y003184D02*
X012726Y003184D01*
X012726Y003084D02*
X000306Y003084D01*
X000306Y002384D02*
X001552Y002384D01*
X001556Y002387D02*
X001556Y007750D01*
X001456Y007750D02*
X001456Y002287D01*
X001452Y002284D02*
X000306Y002284D01*
X000306Y002184D02*
X001449Y002184D01*
X001449Y002084D02*
X000306Y002084D01*
X000306Y001984D02*
X001449Y001984D01*
X001449Y001884D02*
X000306Y001884D01*
X000306Y001784D02*
X001531Y001784D01*
X001556Y001760D02*
X001556Y000334D01*
X001656Y000334D02*
X001656Y001660D01*
X001631Y001684D02*
X000306Y001684D01*
X000306Y001584D02*
X001719Y001584D01*
X001746Y001484D02*
X000306Y001484D01*
X000306Y001384D02*
X001846Y001384D01*
X001856Y001374D02*
X001856Y000334D01*
X001956Y000334D02*
X001956Y001274D01*
X001946Y001284D02*
X000306Y001284D01*
X000306Y001184D02*
X002046Y001184D01*
X002056Y001175D02*
X002056Y000334D01*
X002156Y000334D02*
X002156Y001175D01*
X002256Y001175D02*
X002256Y000334D01*
X002356Y000334D02*
X002356Y001175D01*
X002456Y001175D02*
X002456Y000334D01*
X002556Y000334D02*
X002556Y001175D01*
X002656Y001175D02*
X002656Y000334D01*
X002756Y000334D02*
X002756Y001175D01*
X002856Y001175D02*
X002856Y000334D01*
X002956Y000334D02*
X002956Y001175D01*
X003056Y001175D02*
X003056Y000334D01*
X003156Y000334D02*
X003156Y001175D01*
X003256Y001175D02*
X003256Y000334D01*
X003356Y000334D02*
X003356Y001175D01*
X003456Y001175D02*
X003456Y000334D01*
X003556Y000334D02*
X003556Y001175D01*
X003656Y001175D02*
X003656Y000334D01*
X003756Y000334D02*
X003756Y001175D01*
X003856Y001175D02*
X003856Y000334D01*
X003956Y000334D02*
X003956Y001175D01*
X004056Y001175D02*
X004056Y000334D01*
X004156Y000334D02*
X004156Y001175D01*
X004256Y001175D02*
X004256Y000334D01*
X004356Y000334D02*
X004356Y001175D01*
X004456Y001175D02*
X004456Y000334D01*
X004556Y000334D02*
X004556Y001175D01*
X004656Y001175D02*
X004656Y000334D01*
X004756Y000334D02*
X004756Y001175D01*
X004856Y001175D02*
X004856Y000334D01*
X004956Y000334D02*
X004956Y001175D01*
X005056Y001175D02*
X005056Y000334D01*
X005156Y000334D02*
X005156Y001175D01*
X005256Y001175D02*
X005256Y000334D01*
X005356Y000334D02*
X005356Y001175D01*
X005456Y001175D02*
X005456Y000334D01*
X005556Y000334D02*
X005556Y001175D01*
X005656Y001175D02*
X005656Y000334D01*
X005756Y000334D02*
X005756Y001175D01*
X005856Y001175D02*
X005856Y000334D01*
X005956Y000334D02*
X005956Y001175D01*
X006056Y001175D02*
X006056Y000334D01*
X006156Y000334D02*
X006156Y001175D01*
X006256Y001175D02*
X006256Y000334D01*
X006356Y000334D02*
X006356Y001175D01*
X006456Y001175D02*
X006456Y000334D01*
X006556Y000334D02*
X006556Y001175D01*
X006656Y001175D02*
X006656Y000334D01*
X006756Y000334D02*
X006756Y001175D01*
X006856Y001175D02*
X006856Y000334D01*
X006956Y000334D02*
X006956Y001175D01*
X007056Y001175D02*
X007056Y000334D01*
X007156Y000334D02*
X007156Y001175D01*
X007256Y001175D02*
X007256Y000334D01*
X007356Y000334D02*
X007356Y001175D01*
X007456Y001175D02*
X007456Y000334D01*
X007556Y000334D02*
X007556Y001175D01*
X007656Y001175D02*
X007656Y000334D01*
X007756Y000334D02*
X007756Y001175D01*
X007856Y001175D02*
X007856Y000334D01*
X007956Y000334D02*
X007956Y001175D01*
X008056Y001175D02*
X008056Y000334D01*
X008156Y000334D02*
X008156Y001175D01*
X008256Y001175D02*
X008256Y000334D01*
X008356Y000334D02*
X008356Y001175D01*
X008456Y001175D02*
X008456Y000334D01*
X008556Y000334D02*
X008556Y001175D01*
X008656Y001175D02*
X008656Y000334D01*
X008756Y000334D02*
X008756Y001175D01*
X008856Y001175D02*
X008856Y000334D01*
X008956Y000334D02*
X008956Y001175D01*
X009056Y001175D02*
X009056Y000334D01*
X009156Y000334D02*
X009156Y001175D01*
X009256Y001175D02*
X009256Y000334D01*
X009356Y000334D02*
X009356Y001175D01*
X009456Y001175D02*
X009456Y000334D01*
X009556Y000334D02*
X009556Y001175D01*
X009656Y001175D02*
X009656Y000334D01*
X009756Y000334D02*
X009756Y001175D01*
X009856Y001175D02*
X009856Y000334D01*
X009956Y000334D02*
X009956Y001175D01*
X010056Y001175D02*
X010056Y000334D01*
X010156Y000334D02*
X010156Y001175D01*
X010256Y001175D02*
X010256Y000334D01*
X010356Y000334D02*
X010356Y001175D01*
X010456Y001175D02*
X010456Y000334D01*
X010556Y000334D02*
X010556Y001175D01*
X010656Y001175D02*
X010656Y000334D01*
X010756Y000334D02*
X010756Y001175D01*
X010856Y001175D02*
X010856Y000334D01*
X010956Y000334D02*
X010956Y001175D01*
X011056Y001175D02*
X011056Y000334D01*
X011156Y000334D02*
X011156Y001175D01*
X011256Y001175D02*
X011256Y000334D01*
X011356Y000334D02*
X011356Y001175D01*
X011456Y001175D02*
X011456Y000334D01*
X011556Y000334D02*
X011556Y001175D01*
X011656Y001175D02*
X011656Y000334D01*
X011756Y000334D02*
X011756Y001175D01*
X011856Y001175D02*
X011856Y000334D01*
X011956Y000334D02*
X011956Y001175D01*
X012056Y001175D02*
X012056Y000334D01*
X012156Y000334D02*
X012156Y001175D01*
X012256Y001175D02*
X012256Y000334D01*
X012356Y000334D02*
X012356Y001175D01*
X012456Y001175D02*
X012456Y000334D01*
X012556Y000334D02*
X012556Y001175D01*
X012656Y001175D02*
X012656Y000334D01*
X012756Y000334D02*
X012756Y001175D01*
X012856Y001175D02*
X012856Y000334D01*
X012956Y000334D02*
X012956Y001175D01*
X013056Y001175D02*
X013056Y000334D01*
X013156Y000334D02*
X013156Y001175D01*
X013256Y001175D02*
X013256Y000334D01*
X013356Y000334D02*
X013356Y001175D01*
X013456Y001175D02*
X013456Y000334D01*
X013556Y000334D02*
X013556Y001175D01*
X013656Y001175D02*
X013656Y000334D01*
X013756Y000334D02*
X013756Y001175D01*
X013856Y001175D02*
X013856Y000334D01*
X013956Y000334D02*
X013956Y001175D01*
X014056Y001175D02*
X014056Y000334D01*
X014156Y000334D02*
X014156Y001175D01*
X014256Y001175D02*
X014256Y000334D01*
X014356Y000334D02*
X014356Y001175D01*
X014456Y001175D02*
X014456Y000334D01*
X014556Y000334D02*
X014556Y001175D01*
X014656Y001175D02*
X014656Y000334D01*
X014756Y000334D02*
X014756Y001175D01*
X014856Y001175D02*
X014856Y000334D01*
X014956Y000334D02*
X014956Y001175D01*
X015056Y001175D02*
X015056Y000334D01*
X015156Y000334D02*
X015156Y001175D01*
X015256Y001175D02*
X015256Y000334D01*
X015356Y000334D02*
X015356Y001175D01*
X015456Y001175D02*
X015456Y000334D01*
X015556Y000334D02*
X015556Y001175D01*
X015656Y001175D02*
X015656Y000334D01*
X015756Y000334D02*
X015756Y001175D01*
X015856Y001175D02*
X015856Y000334D01*
X015956Y000334D02*
X015956Y001175D01*
X016056Y001175D02*
X016056Y000334D01*
X016156Y000334D02*
X016156Y001175D01*
X016256Y001175D02*
X016256Y000334D01*
X016356Y000334D02*
X016356Y001175D01*
X016456Y001175D02*
X016456Y000334D01*
X016556Y000334D02*
X016556Y001175D01*
X016656Y001175D02*
X016656Y000334D01*
X016756Y000334D02*
X016756Y001175D01*
X016856Y001175D02*
X016856Y000334D01*
X016956Y000334D02*
X016956Y001175D01*
X017056Y001175D02*
X017056Y000334D01*
X017156Y000334D02*
X017156Y001175D01*
X017256Y001175D02*
X017256Y000334D01*
X017356Y000334D02*
X017356Y001175D01*
X017456Y001175D02*
X017456Y000334D01*
X017556Y000334D02*
X017556Y001175D01*
X017656Y001175D02*
X017656Y000334D01*
X017756Y000334D02*
X017756Y001175D01*
X017856Y001175D02*
X017856Y000334D01*
X017956Y000334D02*
X017956Y001175D01*
X018056Y001175D02*
X018056Y000334D01*
X018156Y000334D02*
X018156Y001175D01*
X018256Y001175D02*
X018256Y000334D01*
X018356Y000334D02*
X018356Y001175D01*
X018456Y001175D02*
X018456Y000334D01*
X018556Y000334D02*
X018556Y001175D01*
X018656Y001175D02*
X018656Y000334D01*
X018756Y000334D02*
X018756Y001175D01*
X018781Y001184D02*
X018805Y001184D01*
X018803Y001084D02*
X000306Y001084D01*
X000306Y000984D02*
X018810Y000984D01*
X018851Y000884D02*
X000306Y000884D01*
X000306Y000784D02*
X018923Y000784D01*
X018956Y000751D02*
X018956Y000334D01*
X019056Y000334D02*
X019056Y000686D01*
X019060Y000684D02*
X000306Y000684D01*
X000556Y000355D02*
X000556Y007729D01*
X000656Y007750D02*
X000656Y000334D01*
X000756Y000334D02*
X000756Y007750D01*
X000856Y007750D02*
X000856Y000334D01*
X000956Y000334D02*
X000956Y007750D01*
X001056Y007750D02*
X001056Y000334D01*
X001156Y000334D02*
X001156Y007750D01*
X001256Y007750D02*
X001256Y000334D01*
X001356Y000334D02*
X001356Y007750D01*
X002256Y007750D02*
X002256Y006868D01*
X002356Y006869D02*
X002356Y007750D01*
X002456Y007750D02*
X002456Y006869D01*
X002556Y006869D02*
X002556Y007750D01*
X002656Y007750D02*
X002656Y006869D01*
X002756Y006869D02*
X002756Y007750D01*
X002856Y007750D02*
X002856Y006869D01*
X002956Y006869D02*
X002956Y007750D01*
X003056Y007750D02*
X003056Y006835D01*
X002171Y006784D02*
X000306Y006784D01*
X000306Y006684D02*
X002169Y006684D01*
X002169Y006584D02*
X000306Y006584D01*
X000306Y006484D02*
X002169Y006484D01*
X002169Y006384D02*
X000306Y006384D01*
X000306Y006284D02*
X002169Y006284D01*
X002169Y006184D02*
X000306Y006184D01*
X000306Y006084D02*
X002169Y006084D01*
X002203Y005984D02*
X000306Y005984D01*
X002456Y005929D02*
X002456Y005869D01*
X002556Y005869D02*
X002556Y005929D01*
X002656Y005929D02*
X002656Y005869D01*
X002756Y005869D02*
X002756Y005929D01*
X002856Y005929D02*
X002856Y005848D01*
X002919Y005784D02*
X003401Y005784D01*
X003356Y005738D02*
X003356Y006061D01*
X003332Y006084D02*
X003109Y006084D01*
X003109Y006184D02*
X003232Y006184D01*
X003256Y006161D02*
X003256Y005638D01*
X003301Y005684D02*
X003019Y005684D01*
X003056Y005648D02*
X003056Y005964D01*
X003075Y005984D02*
X003432Y005984D01*
X003456Y005961D02*
X003456Y005838D01*
X003556Y005839D02*
X003556Y005959D01*
X003589Y005984D02*
X003689Y005984D01*
X003756Y005959D02*
X003756Y005839D01*
X003689Y005784D02*
X003589Y005784D01*
X003589Y005684D02*
X003689Y005684D01*
X003689Y005584D02*
X003589Y005584D01*
X003956Y005705D02*
X003956Y006094D01*
X003945Y006084D02*
X004332Y006084D01*
X004356Y006061D02*
X004356Y005738D01*
X004401Y005784D02*
X003877Y005784D01*
X003856Y005805D02*
X003856Y005994D01*
X003845Y005984D02*
X004432Y005984D01*
X004456Y005961D02*
X004456Y005838D01*
X004457Y005839D02*
X004199Y005582D01*
X004199Y005449D01*
X004589Y005449D01*
X004589Y005349D01*
X004689Y005349D01*
X004689Y004959D01*
X004821Y004959D01*
X005079Y005217D01*
X005079Y005349D01*
X004689Y005349D01*
X004689Y005449D01*
X005079Y005449D01*
X005079Y005582D01*
X004821Y005839D01*
X004689Y005839D01*
X004689Y005449D01*
X004589Y005449D01*
X004589Y005839D01*
X004457Y005839D01*
X004556Y005839D02*
X004556Y005959D01*
X004589Y005984D02*
X004689Y005984D01*
X004756Y005959D02*
X004756Y005839D01*
X004689Y005784D02*
X004589Y005784D01*
X004589Y005684D02*
X004689Y005684D01*
X004689Y005584D02*
X004589Y005584D01*
X004301Y005684D02*
X003977Y005684D01*
X004056Y005605D02*
X004056Y006194D01*
X004045Y006184D02*
X004232Y006184D01*
X004256Y006161D02*
X004256Y005638D01*
X004201Y005584D02*
X004077Y005584D01*
X004079Y005484D02*
X004199Y005484D01*
X004256Y005449D02*
X004256Y005349D01*
X004199Y005349D02*
X004199Y005217D01*
X004457Y004959D01*
X004589Y004959D01*
X004589Y005349D01*
X004199Y005349D01*
X004199Y005284D02*
X004079Y005284D01*
X004056Y005349D02*
X004056Y005449D01*
X003956Y005449D02*
X003956Y005349D01*
X003856Y005349D02*
X003856Y005449D01*
X003756Y005449D02*
X003756Y005349D01*
X003689Y005384D02*
X004589Y005384D01*
X004556Y005349D02*
X004556Y005449D01*
X004589Y005484D02*
X004689Y005484D01*
X004656Y005449D02*
X004656Y006349D01*
X004689Y006384D02*
X005169Y006384D01*
X005169Y006284D02*
X005079Y006284D01*
X005056Y006349D02*
X005056Y006449D01*
X005079Y006484D02*
X005169Y006484D01*
X005169Y006584D02*
X005077Y006584D01*
X005056Y006605D02*
X005056Y007750D01*
X005156Y007750D02*
X005156Y002573D01*
X005056Y002573D02*
X005056Y005194D01*
X005045Y005184D02*
X005190Y005184D01*
X005169Y005205D02*
X005444Y004929D01*
X005834Y004929D01*
X006109Y005205D01*
X006109Y005594D01*
X005834Y005869D01*
X005444Y005869D01*
X005169Y005594D01*
X005169Y005205D01*
X005169Y005284D02*
X005079Y005284D01*
X005056Y005349D02*
X005056Y005449D01*
X005079Y005484D02*
X005169Y005484D01*
X005169Y005384D02*
X004689Y005384D01*
X004656Y005349D02*
X004656Y002487D01*
X004652Y002484D02*
X004113Y002484D01*
X004156Y002441D02*
X004156Y007750D01*
X004256Y007750D02*
X004256Y006638D01*
X004301Y006684D02*
X003977Y006684D01*
X003956Y006705D02*
X003956Y007750D01*
X004056Y007750D02*
X004056Y006605D01*
X004077Y006584D02*
X004201Y006584D01*
X004199Y006484D02*
X004079Y006484D01*
X004056Y006449D02*
X004056Y006349D01*
X004079Y006284D02*
X004199Y006284D01*
X004256Y006349D02*
X004256Y006449D01*
X004356Y006449D02*
X004356Y006349D01*
X004456Y006349D02*
X004456Y006449D01*
X004756Y006449D02*
X004756Y006349D01*
X004689Y006284D02*
X004589Y006284D01*
X004589Y006184D02*
X004689Y006184D01*
X004689Y006084D02*
X004589Y006084D01*
X004845Y005984D02*
X005390Y005984D01*
X005356Y006018D02*
X005356Y005781D01*
X005359Y005784D02*
X004877Y005784D01*
X004856Y005805D02*
X004856Y005994D01*
X004945Y006084D02*
X005290Y006084D01*
X005256Y006118D02*
X005256Y005681D01*
X005259Y005684D02*
X004977Y005684D01*
X004956Y005705D02*
X004956Y006094D01*
X005045Y006184D02*
X005190Y006184D01*
X005169Y006205D02*
X005444Y005929D01*
X005834Y005929D01*
X006109Y006205D01*
X006109Y006594D01*
X005834Y006869D01*
X005444Y006869D01*
X005169Y006594D01*
X005169Y006205D01*
X005056Y006194D02*
X005056Y005605D01*
X005077Y005584D02*
X005169Y005584D01*
X004956Y005449D02*
X004956Y005349D01*
X004856Y005349D02*
X004856Y005449D01*
X004756Y005449D02*
X004756Y005349D01*
X004689Y005284D02*
X004589Y005284D01*
X004589Y005184D02*
X004689Y005184D01*
X004956Y005094D02*
X004956Y002573D01*
X004856Y002573D02*
X004856Y004994D01*
X004845Y004984D02*
X005390Y004984D01*
X005356Y005018D02*
X005356Y002374D01*
X005346Y002384D02*
X005594Y002384D01*
X005556Y002345D02*
X005556Y004929D01*
X005656Y004929D02*
X005656Y002445D01*
X005694Y002484D02*
X005246Y002484D01*
X005256Y002474D02*
X005256Y005118D01*
X005290Y005084D02*
X004945Y005084D01*
X004756Y004959D02*
X004756Y002573D01*
X004556Y002387D02*
X004556Y004959D01*
X004589Y004984D02*
X004689Y004984D01*
X004689Y005084D02*
X004589Y005084D01*
X004356Y005061D02*
X004356Y001635D01*
X004456Y001635D02*
X004456Y001860D01*
X004449Y001884D02*
X004251Y001884D01*
X004256Y001894D02*
X004256Y001635D01*
X004156Y001635D02*
X004156Y001706D01*
X004134Y001684D02*
X004631Y001684D01*
X004656Y001660D02*
X004656Y001635D01*
X004556Y001635D02*
X004556Y001760D01*
X004531Y001784D02*
X004210Y001784D01*
X004282Y001984D02*
X004449Y001984D01*
X004449Y002084D02*
X004282Y002084D01*
X004282Y002184D02*
X004449Y002184D01*
X004552Y002384D02*
X004201Y002384D01*
X003956Y002598D02*
X003956Y005094D01*
X003945Y005084D02*
X004332Y005084D01*
X003856Y004994D02*
X003856Y002640D01*
X005446Y002284D02*
X005494Y002284D01*
X005479Y002268D02*
X005479Y002123D01*
X005899Y002123D01*
X005899Y002543D01*
X005754Y002543D01*
X005479Y002268D01*
X005479Y002184D02*
X005449Y002184D01*
X005556Y002123D02*
X005556Y002023D01*
X005479Y001984D02*
X005449Y001984D01*
X005449Y002084D02*
X005899Y002084D01*
X005856Y002123D02*
X005856Y002023D01*
X005756Y002023D02*
X005756Y002123D01*
X005656Y002123D02*
X005656Y002023D01*
X005956Y002123D02*
X005956Y005051D01*
X005988Y005084D02*
X006290Y005084D01*
X006256Y005118D02*
X006256Y002431D01*
X006303Y002384D02*
X007064Y002384D01*
X007056Y002375D02*
X007056Y005151D01*
X007088Y005184D02*
X007190Y005184D01*
X007109Y005205D02*
X006834Y004929D01*
X006444Y004929D01*
X006169Y005205D01*
X006169Y005594D01*
X006444Y005869D01*
X006834Y005869D01*
X007109Y005594D01*
X007109Y005205D01*
X007109Y005284D02*
X007169Y005284D01*
X007169Y005384D02*
X007109Y005384D01*
X007109Y005484D02*
X007169Y005484D01*
X007169Y005584D02*
X007109Y005584D01*
X007056Y005648D02*
X007056Y006151D01*
X007088Y006184D02*
X007190Y006184D01*
X007109Y006205D02*
X006834Y005929D01*
X006444Y005929D01*
X006169Y006205D01*
X006169Y006594D01*
X006444Y006869D01*
X006834Y006869D01*
X007109Y006594D01*
X007109Y006205D01*
X007109Y006284D02*
X007169Y006284D01*
X007169Y006384D02*
X007109Y006384D01*
X007109Y006484D02*
X007169Y006484D01*
X007169Y006584D02*
X007109Y006584D01*
X007056Y006648D02*
X007056Y007750D01*
X007156Y007750D02*
X007156Y002475D01*
X007164Y002484D02*
X006203Y002484D01*
X006156Y002531D02*
X006156Y007750D01*
X006256Y007750D02*
X006256Y006681D01*
X006259Y006684D02*
X006019Y006684D01*
X006056Y006648D02*
X006056Y007750D01*
X005956Y007750D02*
X005956Y006748D01*
X005919Y006784D02*
X006359Y006784D01*
X006356Y006781D02*
X006356Y007750D01*
X006456Y007750D02*
X006456Y006869D01*
X006556Y006869D02*
X006556Y007750D01*
X006656Y007750D02*
X006656Y006869D01*
X006756Y006869D02*
X006756Y007750D01*
X006856Y007750D02*
X006856Y006848D01*
X006919Y006784D02*
X007359Y006784D01*
X007356Y006781D02*
X007356Y007750D01*
X007456Y007750D02*
X007456Y006869D01*
X007556Y006869D02*
X007556Y007750D01*
X007656Y007750D02*
X007656Y006869D01*
X007756Y006869D02*
X007756Y007750D01*
X007856Y007750D02*
X007856Y006848D01*
X007920Y006884D02*
X000306Y006884D01*
X000306Y006984D02*
X007920Y006984D01*
X007920Y007084D02*
X000306Y007084D01*
X000306Y007184D02*
X007920Y007184D01*
X007920Y007284D02*
X000306Y007284D01*
X000306Y007384D02*
X008003Y007384D01*
X007956Y007336D02*
X007956Y007750D01*
X008056Y007750D02*
X008056Y007436D01*
X008103Y007484D02*
X000320Y007484D01*
X000150Y007811D02*
X000150Y007905D01*
X000243Y007905D01*
X000150Y007811D01*
X000156Y007817D02*
X000156Y007905D01*
X000150Y007884D02*
X000222Y007884D01*
X004756Y007750D02*
X004756Y006839D01*
X004689Y006784D02*
X004589Y006784D01*
X004589Y006684D02*
X004689Y006684D01*
X004689Y006584D02*
X004589Y006584D01*
X004956Y006705D02*
X004956Y007750D01*
X004856Y007750D02*
X004856Y006805D01*
X004877Y006784D02*
X005359Y006784D01*
X005356Y006781D02*
X005356Y007750D01*
X005456Y007750D02*
X005456Y006869D01*
X005556Y006869D02*
X005556Y007750D01*
X005656Y007750D02*
X005656Y006869D01*
X005756Y006869D02*
X005756Y007750D01*
X005856Y007750D02*
X005856Y006848D01*
X005259Y006684D02*
X004977Y006684D01*
X005256Y006681D02*
X005256Y007750D01*
X006956Y007750D02*
X006956Y006748D01*
X007019Y006684D02*
X007259Y006684D01*
X007256Y006681D02*
X007256Y007750D01*
X008356Y007735D02*
X008356Y007750D01*
X008456Y007750D02*
X008456Y007735D01*
X008556Y007735D02*
X008556Y007750D01*
X008656Y007750D02*
X008656Y007735D01*
X008756Y007735D02*
X008756Y007750D01*
X008856Y007750D02*
X008856Y007735D01*
X008956Y007735D02*
X008956Y007750D01*
X009056Y007750D02*
X009056Y007735D01*
X009156Y007735D02*
X009156Y007750D01*
X009256Y007750D02*
X009256Y007735D01*
X009356Y007735D02*
X009356Y007750D01*
X009456Y007750D02*
X009456Y007735D01*
X009556Y007735D02*
X009556Y007750D01*
X009656Y007750D02*
X009656Y007735D01*
X009756Y007735D02*
X009756Y007750D01*
X009856Y007750D02*
X009856Y007735D01*
X009956Y007735D02*
X009956Y007750D01*
X010056Y007750D02*
X010056Y007735D01*
X010156Y007735D02*
X010156Y007750D01*
X010256Y007750D02*
X010256Y007735D01*
X010356Y007735D02*
X010356Y007750D01*
X010456Y007750D02*
X010456Y007735D01*
X010556Y007735D02*
X010556Y007750D01*
X010656Y007750D02*
X010656Y007735D01*
X010756Y007735D02*
X010756Y007750D01*
X010856Y007750D02*
X010856Y007735D01*
X010956Y007735D02*
X010956Y007750D01*
X011056Y007750D02*
X011056Y007735D01*
X011156Y007735D02*
X011156Y007750D01*
X011256Y007750D02*
X011256Y007735D01*
X011356Y007735D02*
X011356Y007750D01*
X011456Y007750D02*
X011456Y007735D01*
X011556Y007735D02*
X011556Y007750D01*
X011656Y007750D02*
X011656Y007735D01*
X011756Y007735D02*
X011756Y007750D01*
X011856Y007750D02*
X011856Y007735D01*
X011956Y007735D02*
X011956Y007750D01*
X012056Y007750D02*
X012056Y007735D01*
X012156Y007735D02*
X012156Y007750D01*
X012256Y007750D02*
X012256Y007735D01*
X012356Y007735D02*
X012356Y007750D01*
X012456Y007750D02*
X012456Y007735D01*
X012556Y007735D02*
X012556Y007750D01*
X012656Y007750D02*
X012656Y007735D01*
X012756Y007735D02*
X012756Y007750D01*
X012856Y007750D02*
X012856Y007735D01*
X012956Y007735D02*
X012956Y007750D01*
X013056Y007750D02*
X013056Y007735D01*
X013156Y007735D02*
X013156Y007750D01*
X013256Y007750D02*
X013256Y007735D01*
X013356Y007735D02*
X013356Y007750D01*
X013456Y007750D02*
X013456Y007735D01*
X013556Y007735D02*
X013556Y007750D01*
X013656Y007750D02*
X013656Y007735D01*
X013756Y007735D02*
X013756Y007750D01*
X013856Y007750D02*
X013856Y007735D01*
X013956Y007735D02*
X013956Y007750D01*
X014056Y007750D02*
X014056Y007735D01*
X014156Y007735D02*
X014156Y007750D01*
X014256Y007750D02*
X014256Y007735D01*
X014356Y007735D02*
X014356Y007750D01*
X014456Y007750D02*
X014456Y007735D01*
X014556Y007735D02*
X014556Y007750D01*
X014656Y007750D02*
X014656Y007735D01*
X014756Y007735D02*
X014756Y007750D01*
X014856Y007750D02*
X014856Y007735D01*
X014956Y007735D02*
X014956Y007750D01*
X015056Y007750D02*
X015056Y007735D01*
X015156Y007735D02*
X015156Y007750D01*
X015256Y007750D02*
X015256Y007735D01*
X015356Y007735D02*
X015356Y007750D01*
X015456Y007750D02*
X015456Y007735D01*
X015556Y007735D02*
X015556Y007750D01*
X015656Y007750D02*
X015656Y007735D01*
X015756Y007735D02*
X015756Y007750D01*
X015856Y007750D02*
X015856Y007735D01*
X015956Y007735D02*
X015956Y007750D01*
X016056Y007750D02*
X016056Y007735D01*
X016156Y007735D02*
X016156Y007750D01*
X016256Y007750D02*
X016256Y007735D01*
X016356Y007735D02*
X016356Y007750D01*
X016456Y007750D02*
X016456Y007735D01*
X016556Y007735D02*
X016556Y007750D01*
X016656Y007750D02*
X016656Y007735D01*
X016756Y007735D02*
X016756Y007750D01*
X016856Y007750D02*
X016856Y007735D01*
X016956Y007735D02*
X016956Y007750D01*
X017056Y007750D02*
X017056Y007735D01*
X017156Y007735D02*
X017156Y007750D01*
X017256Y007750D02*
X017256Y007735D01*
X017356Y007735D02*
X017356Y007750D01*
X017456Y007750D02*
X017456Y007735D01*
X017556Y007735D02*
X017556Y007750D01*
X017656Y007750D02*
X017656Y007735D01*
X017756Y007735D02*
X017756Y007750D01*
X017856Y007750D02*
X017856Y007735D01*
X017956Y007735D02*
X017956Y007750D01*
X018056Y007750D02*
X018056Y007735D01*
X018156Y007735D02*
X018156Y007750D01*
X018256Y007750D02*
X018256Y007735D01*
X018356Y007735D02*
X018356Y007750D01*
X018456Y007750D02*
X018456Y007735D01*
X018556Y007735D02*
X018556Y007750D01*
X018656Y007750D02*
X018656Y007735D01*
X018756Y007735D02*
X018756Y007750D01*
X018856Y007750D02*
X018856Y007735D01*
X018956Y007735D02*
X018956Y007750D01*
X019056Y007750D02*
X019056Y007735D01*
X019156Y007735D02*
X019156Y007750D01*
X019256Y007750D02*
X019256Y007735D01*
X019356Y007735D02*
X019356Y007750D01*
X019456Y007750D02*
X019456Y007735D01*
X019556Y007735D02*
X019556Y007750D01*
X019656Y007750D02*
X019656Y007735D01*
X019756Y007735D02*
X019756Y007750D01*
X019856Y007750D02*
X019856Y007735D01*
X019956Y007735D02*
X019956Y007750D01*
X020056Y007750D02*
X020056Y007735D01*
X020156Y007735D02*
X020156Y007750D01*
X020256Y007750D02*
X020256Y007735D01*
X020356Y007735D02*
X020356Y007750D01*
X020456Y007750D02*
X020456Y007735D01*
X020556Y007735D02*
X020556Y007750D01*
X020656Y007750D02*
X020656Y007735D01*
X020756Y007735D02*
X020756Y007750D01*
X020856Y007750D02*
X020856Y007735D01*
X020956Y007735D02*
X020956Y007750D01*
X021056Y007750D02*
X021056Y007735D01*
X021156Y007735D02*
X021156Y007750D01*
X021256Y007750D02*
X021256Y007735D01*
X021356Y007735D02*
X021356Y007750D01*
X021456Y007750D02*
X021456Y007735D01*
X021556Y007735D02*
X021556Y007750D01*
X021656Y007750D02*
X021656Y007735D01*
X021756Y007735D02*
X021756Y007750D01*
X021856Y007750D02*
X021856Y007735D01*
X021956Y007735D02*
X021956Y007750D01*
X022056Y007750D02*
X022056Y007735D01*
X022156Y007735D02*
X022156Y007750D01*
X022256Y007750D02*
X022256Y007735D01*
X022356Y007735D02*
X022356Y007750D01*
X022456Y007750D02*
X022456Y007735D01*
X022556Y007735D02*
X022556Y007750D01*
X022656Y007750D02*
X022656Y007735D01*
X022756Y007735D02*
X022756Y007750D01*
X022856Y007750D02*
X022856Y007735D01*
X022956Y007735D02*
X022956Y007750D01*
X023056Y007750D02*
X023056Y007735D01*
X023156Y007735D02*
X023156Y007750D01*
X023256Y007750D02*
X023256Y007735D01*
X023356Y007735D02*
X023356Y007750D01*
X023456Y007750D02*
X023456Y007735D01*
X023556Y007735D02*
X023556Y007750D01*
X023656Y007750D02*
X023656Y007735D01*
X023756Y007735D02*
X023756Y007750D01*
X023856Y007750D02*
X023856Y007735D01*
X023956Y007735D02*
X023956Y007750D01*
X024056Y007750D02*
X024056Y007735D01*
X024156Y007735D02*
X024156Y007750D01*
X024256Y007750D02*
X024256Y007735D01*
X024356Y007735D02*
X024356Y007750D01*
X024456Y007750D02*
X024456Y007735D01*
X024556Y007735D02*
X024556Y007750D01*
X024656Y007750D02*
X024656Y007735D01*
X024756Y007735D02*
X024756Y007750D01*
X024856Y007750D02*
X024856Y007735D01*
X024956Y007735D02*
X024956Y007750D01*
X025056Y007750D02*
X025056Y007735D01*
X025156Y007735D02*
X025156Y007750D01*
X025256Y007750D02*
X025256Y007735D01*
X025356Y007735D02*
X025356Y007750D01*
X025456Y007750D02*
X025456Y007735D01*
X025556Y007735D02*
X025556Y007750D01*
X025656Y007750D02*
X025656Y007735D01*
X025756Y007735D02*
X025756Y007750D01*
X025856Y007750D02*
X025856Y007735D01*
X025956Y007735D02*
X025956Y007750D01*
X026056Y007750D02*
X026056Y007735D01*
X026156Y007735D02*
X026156Y007750D01*
X026256Y007750D02*
X026256Y007735D01*
X026356Y007735D02*
X026356Y007750D01*
X026456Y007750D02*
X026456Y007735D01*
X026556Y007735D02*
X026556Y007750D01*
X026656Y007750D02*
X026656Y007735D01*
X026756Y007735D02*
X026756Y007750D01*
X026856Y007750D02*
X026856Y007735D01*
X026956Y007735D02*
X026956Y007750D01*
X027056Y007750D02*
X027056Y007735D01*
X027156Y007735D02*
X027156Y007750D01*
X027256Y007750D02*
X027256Y007735D01*
X027356Y007735D02*
X027356Y007750D01*
X027456Y007750D02*
X027456Y007735D01*
X027556Y007735D02*
X027556Y007750D01*
X027656Y007750D02*
X027656Y007735D01*
X027756Y007735D02*
X027756Y007750D01*
X027856Y007750D02*
X027856Y007735D01*
X027956Y007735D02*
X027956Y007750D01*
X028056Y007750D02*
X028056Y007735D01*
X028156Y007735D02*
X028156Y007750D01*
X028256Y007750D02*
X028256Y007735D01*
X028356Y007735D02*
X028356Y007750D01*
X028456Y007750D02*
X028456Y007735D01*
X028556Y007735D02*
X028556Y007750D01*
X028656Y007750D02*
X028656Y007735D01*
X028756Y007735D02*
X028756Y007750D01*
X028856Y007750D02*
X028856Y007735D01*
X028956Y007735D02*
X028956Y007750D01*
X029056Y007750D02*
X029056Y007735D01*
X029156Y007735D02*
X029156Y007750D01*
X029256Y007750D02*
X029256Y007735D01*
X029356Y007735D02*
X029356Y007750D01*
X029456Y007750D02*
X029456Y007735D01*
X029556Y007735D02*
X029556Y007750D01*
X029656Y007750D02*
X029656Y007735D01*
X029756Y007735D02*
X029756Y007750D01*
X029856Y007750D02*
X029856Y007735D01*
X029956Y007735D02*
X029956Y007750D01*
X030056Y007750D02*
X030056Y007735D01*
X030156Y007735D02*
X030156Y007750D01*
X030256Y007750D02*
X030256Y007735D01*
X030356Y007735D02*
X030356Y007750D01*
X030456Y007750D02*
X030456Y007735D01*
X030556Y007735D02*
X030556Y007750D01*
X030656Y007750D02*
X030656Y007735D01*
X030756Y007735D02*
X030756Y007750D01*
X030856Y007750D02*
X030856Y007735D01*
X030956Y007735D02*
X030956Y007750D01*
X031056Y007750D02*
X031056Y007735D01*
X031156Y007735D02*
X031156Y007750D01*
X031256Y007750D02*
X031256Y007735D01*
X031356Y007735D02*
X031356Y007750D01*
X031456Y007750D02*
X031456Y007735D01*
X031556Y007735D02*
X031556Y007750D01*
X031656Y007750D02*
X031656Y007735D01*
X031756Y007735D02*
X031756Y007750D01*
X031856Y007750D02*
X031856Y007735D01*
X031956Y007735D02*
X031956Y007750D01*
X032056Y007750D02*
X032056Y007735D01*
X032156Y007735D02*
X032156Y007750D01*
X032256Y007750D02*
X032256Y007735D01*
X032356Y007735D02*
X032356Y007750D01*
X032456Y007750D02*
X032456Y007735D01*
X032556Y007735D02*
X032556Y007750D01*
X032656Y007750D02*
X032656Y007735D01*
X032756Y007735D02*
X032756Y007750D01*
X032856Y007750D02*
X032856Y007735D01*
X032956Y007735D02*
X032956Y007750D01*
X033056Y007750D02*
X033056Y007735D01*
X033156Y007735D02*
X033156Y007750D01*
X033256Y007750D02*
X033256Y007735D01*
X033356Y007735D02*
X033356Y007750D01*
X033456Y007750D02*
X033456Y007735D01*
X033556Y007735D02*
X033556Y007750D01*
X033656Y007750D02*
X033656Y007735D01*
X033756Y007735D02*
X033756Y007750D01*
X033856Y007750D02*
X033856Y007735D01*
X033956Y007735D02*
X033956Y007750D01*
X034056Y007750D02*
X034056Y007735D01*
X034156Y007735D02*
X034156Y007750D01*
X034256Y007750D02*
X034256Y007735D01*
X034356Y007735D02*
X034356Y007750D01*
X034456Y007750D02*
X034456Y007735D01*
X034556Y007735D02*
X034556Y007750D01*
X034656Y007750D02*
X034656Y007735D01*
X034756Y007735D02*
X034756Y007750D01*
X034856Y007750D02*
X034856Y007735D01*
X034956Y007735D02*
X034956Y007750D01*
X035056Y007750D02*
X035056Y007735D01*
X035156Y007735D02*
X035156Y007750D01*
X035256Y007750D02*
X035256Y007735D01*
X035356Y007735D02*
X035356Y007750D01*
X035456Y007750D02*
X035456Y007735D01*
X035556Y007735D02*
X035556Y007750D01*
X035656Y007750D02*
X035656Y007735D01*
X035756Y007735D02*
X035756Y007750D01*
X035856Y007750D02*
X035856Y007735D01*
X035956Y007735D02*
X035956Y007750D01*
X036056Y007750D02*
X036056Y007735D01*
X036156Y007735D02*
X036156Y007750D01*
X036256Y007750D02*
X036256Y007735D01*
X036356Y007735D02*
X036356Y007750D01*
X036456Y007750D02*
X036456Y007735D01*
X036556Y007735D02*
X036556Y007750D01*
X036656Y007750D02*
X036656Y007735D01*
X036756Y007735D02*
X036756Y007750D01*
X036856Y007750D02*
X036856Y007735D01*
X036956Y007735D02*
X036956Y007750D01*
X037056Y007750D02*
X037056Y007735D01*
X037156Y007735D02*
X037156Y007750D01*
X037256Y007750D02*
X037256Y007735D01*
X037356Y007735D02*
X037356Y007750D01*
X037456Y007750D02*
X037456Y007735D01*
X037556Y007735D02*
X037556Y007750D01*
X037656Y007750D02*
X037656Y007735D01*
X037756Y007735D02*
X037756Y007750D01*
X037856Y007750D02*
X037856Y007735D01*
X037956Y007735D02*
X037956Y007750D01*
X038056Y007750D02*
X038056Y007725D01*
X038097Y007684D02*
X039225Y007684D01*
X039256Y007653D02*
X039256Y006439D01*
X039311Y006384D02*
X039376Y006384D01*
X039356Y006339D02*
X039356Y007497D01*
X039361Y007484D02*
X038250Y007484D01*
X038250Y007384D02*
X039376Y007384D01*
X039376Y007284D02*
X038250Y007284D01*
X037756Y007275D02*
X037756Y006453D01*
X037786Y006484D02*
X037121Y006484D01*
X037100Y006505D02*
X036886Y006594D01*
X036654Y006594D01*
X036439Y006505D01*
X036275Y006341D01*
X036187Y006126D01*
X036187Y005894D01*
X036275Y005680D01*
X036439Y005516D01*
X036654Y005427D01*
X036886Y005427D01*
X037100Y005516D01*
X037264Y005680D01*
X037353Y005894D01*
X037353Y006126D01*
X037264Y006341D01*
X037100Y006505D01*
X037056Y006523D02*
X037056Y007275D01*
X037156Y007275D02*
X037156Y006449D01*
X037221Y006384D02*
X037686Y006384D01*
X037656Y006353D02*
X037656Y007275D01*
X037556Y007275D02*
X037556Y006253D01*
X037586Y006284D02*
X037288Y006284D01*
X037256Y006349D02*
X037256Y007275D01*
X037356Y007275D02*
X037356Y004036D01*
X037456Y004036D02*
X037456Y007275D01*
X036956Y007275D02*
X036956Y006565D01*
X036909Y006584D02*
X037790Y006584D01*
X037790Y006684D02*
X032738Y006684D01*
X032738Y006784D02*
X037790Y006784D01*
X038250Y006784D02*
X039376Y006784D01*
X039376Y006684D02*
X038250Y006684D01*
X038250Y006584D02*
X039376Y006584D01*
X039376Y006484D02*
X038254Y006484D01*
X038256Y006482D02*
X038256Y007750D01*
X038356Y007750D02*
X038356Y006382D01*
X038354Y006384D02*
X038728Y006384D01*
X038756Y006411D02*
X038756Y007750D01*
X038856Y007750D02*
X038856Y006480D01*
X038956Y006480D02*
X038956Y007750D01*
X039056Y007747D02*
X039056Y006060D01*
X039070Y006084D02*
X038970Y006084D01*
X038956Y006060D02*
X038956Y005960D01*
X038970Y005984D02*
X038520Y005984D01*
X038556Y005960D02*
X038556Y006060D01*
X038550Y006084D02*
X038520Y006084D01*
X038520Y006184D02*
X038550Y006184D01*
X038556Y006211D02*
X038556Y007750D01*
X038656Y007750D02*
X038656Y006311D01*
X038628Y006284D02*
X038454Y006284D01*
X038456Y006282D02*
X038456Y007750D01*
X038156Y007750D02*
X038156Y007625D01*
X038197Y007584D02*
X039320Y007584D01*
X039156Y007716D02*
X039156Y006480D01*
X039070Y006384D02*
X038970Y006384D01*
X038970Y006284D02*
X039070Y006284D01*
X039070Y006184D02*
X038970Y006184D01*
X038856Y006060D02*
X038856Y005960D01*
X038756Y005960D02*
X038756Y006060D01*
X038656Y006060D02*
X038656Y005960D01*
X038550Y005884D02*
X038520Y005884D01*
X038556Y005810D02*
X038556Y004516D01*
X038477Y004484D02*
X035780Y004484D01*
X035780Y004384D02*
X038376Y004384D01*
X038356Y004363D02*
X038356Y005639D01*
X038400Y005684D02*
X038682Y005684D01*
X038656Y005710D02*
X038656Y004557D01*
X038756Y004562D02*
X038756Y005610D01*
X038782Y005584D02*
X038300Y005584D01*
X038256Y005539D02*
X038256Y004159D01*
X038266Y004184D02*
X035780Y004184D01*
X035793Y004084D02*
X038250Y004084D01*
X038250Y003984D02*
X037665Y003984D01*
X037656Y003993D02*
X037656Y005668D01*
X037639Y005684D02*
X037265Y005684D01*
X037256Y005672D02*
X037256Y004036D01*
X037556Y004036D02*
X037556Y005768D01*
X037539Y005784D02*
X037307Y005784D01*
X037348Y005884D02*
X037520Y005884D01*
X037520Y005984D02*
X037353Y005984D01*
X037353Y006084D02*
X037520Y006084D01*
X037520Y006184D02*
X037329Y006184D01*
X036356Y006421D02*
X036356Y007275D01*
X036456Y007275D02*
X036456Y006511D01*
X036418Y006484D02*
X035254Y006484D01*
X035256Y006482D02*
X035256Y007275D01*
X035356Y007275D02*
X035356Y006382D01*
X035354Y006384D02*
X036318Y006384D01*
X036256Y006293D02*
X036256Y007275D01*
X036156Y007275D02*
X036156Y004036D01*
X036256Y004036D02*
X036256Y005728D01*
X036274Y005684D02*
X035780Y005684D01*
X035780Y005784D02*
X036233Y005784D01*
X036191Y005884D02*
X035780Y005884D01*
X035780Y005984D02*
X036187Y005984D01*
X036187Y006084D02*
X035697Y006084D01*
X035656Y006125D02*
X035656Y007275D01*
X035756Y007275D02*
X035756Y006025D01*
X035597Y006184D02*
X036210Y006184D01*
X036252Y006284D02*
X035454Y006284D01*
X035456Y006282D02*
X035456Y007275D01*
X035556Y007275D02*
X035556Y006225D01*
X034756Y006453D02*
X034756Y007275D01*
X034856Y007275D02*
X034856Y006510D01*
X034786Y006484D02*
X032742Y006484D01*
X032756Y006470D02*
X032756Y007275D01*
X032856Y007275D02*
X032856Y006370D01*
X032842Y006384D02*
X033216Y006384D01*
X033256Y006423D02*
X033256Y007275D01*
X033356Y007275D02*
X033356Y006480D01*
X033456Y006480D02*
X033456Y007275D01*
X033156Y007275D02*
X033156Y006323D01*
X033116Y006284D02*
X032942Y006284D01*
X032956Y006270D02*
X032956Y007275D01*
X033056Y007275D02*
X033056Y006223D01*
X033038Y006184D02*
X033008Y006184D01*
X033008Y006084D02*
X033038Y006084D01*
X033056Y006060D02*
X033056Y005960D01*
X033008Y005984D02*
X033458Y005984D01*
X033456Y005960D02*
X033456Y006060D01*
X033458Y006084D02*
X033558Y006084D01*
X033558Y006184D02*
X033458Y006184D01*
X033458Y006284D02*
X033558Y006284D01*
X033558Y006384D02*
X033458Y006384D01*
X033978Y006184D02*
X034520Y006184D01*
X033356Y006060D02*
X033356Y005960D01*
X033256Y005960D02*
X033256Y006060D01*
X033156Y006060D02*
X033156Y005960D01*
X033038Y005884D02*
X033008Y005884D01*
X033056Y005798D02*
X033056Y004521D01*
X032965Y004484D02*
X030280Y004484D01*
X030280Y004384D02*
X032864Y004384D01*
X032856Y004375D02*
X032856Y005651D01*
X032888Y005684D02*
X033170Y005684D01*
X033156Y005698D02*
X033156Y004562D01*
X033256Y004562D02*
X033256Y005598D01*
X033270Y005584D02*
X032788Y005584D01*
X032356Y005510D02*
X032356Y003781D01*
X032353Y003784D02*
X032802Y003784D01*
X032956Y003609D02*
X032956Y002386D01*
X032954Y002384D02*
X031482Y002384D01*
X031022Y002484D02*
X029488Y002484D01*
X029488Y002584D02*
X031022Y002584D01*
X030993Y002684D02*
X030526Y002684D01*
X030556Y002713D02*
X030556Y001835D01*
X030656Y001835D02*
X030656Y002826D01*
X030626Y002784D02*
X030893Y002784D01*
X030856Y002845D02*
X030856Y001835D01*
X030956Y001836D02*
X030956Y002721D01*
X030456Y002652D02*
X030456Y001835D01*
X030356Y001835D02*
X030356Y002611D01*
X030256Y002611D02*
X030256Y001835D01*
X030156Y001835D02*
X030156Y002620D01*
X030056Y002661D02*
X030056Y001835D01*
X029956Y001835D02*
X029956Y002737D01*
X029909Y002784D02*
X029488Y002784D01*
X029488Y002884D02*
X029855Y002884D01*
X029856Y002883D02*
X029856Y001835D01*
X029691Y001984D02*
X031022Y001984D01*
X031022Y002084D02*
X029691Y002084D01*
X029691Y002184D02*
X031022Y002184D01*
X030756Y001835D02*
X030756Y003458D01*
X030856Y003458D02*
X030856Y003270D01*
X030861Y003284D02*
X030658Y003284D01*
X030656Y003289D02*
X030656Y003458D01*
X030556Y003458D02*
X030556Y003402D01*
X030574Y003384D02*
X030945Y003384D01*
X030956Y003394D02*
X030956Y003458D01*
X031456Y003457D02*
X031456Y003458D01*
X031683Y003184D02*
X031804Y003184D01*
X031789Y003084D02*
X031699Y003084D01*
X031699Y002984D02*
X031789Y002984D01*
X031824Y002884D02*
X031664Y002884D01*
X030840Y002884D02*
X030679Y002884D01*
X030714Y002984D02*
X030804Y002984D01*
X030804Y003084D02*
X030714Y003084D01*
X030699Y003184D02*
X030820Y003184D01*
X029961Y003384D02*
X029488Y003384D01*
X029028Y003384D02*
X027037Y003384D01*
X027056Y003365D02*
X027056Y005510D01*
X027156Y005510D02*
X027156Y003200D01*
X027162Y003184D02*
X029028Y003184D01*
X029028Y003284D02*
X027121Y003284D01*
X027177Y003084D02*
X029028Y003084D01*
X029488Y003084D02*
X029820Y003084D01*
X029820Y002984D02*
X029488Y002984D01*
X029028Y002984D02*
X027177Y002984D01*
X027156Y002916D02*
X027156Y001835D01*
X027256Y001835D02*
X027256Y003867D01*
X027249Y003884D02*
X024812Y003884D01*
X024856Y003878D02*
X024856Y006975D01*
X024956Y006975D02*
X024956Y003878D01*
X025056Y003878D02*
X025056Y006975D01*
X025156Y006975D02*
X025156Y003878D01*
X025256Y003878D02*
X025256Y005676D01*
X025250Y005684D02*
X024780Y005684D01*
X024780Y005784D02*
X025209Y005784D01*
X025167Y005884D02*
X024780Y005884D01*
X024756Y005925D02*
X024756Y006975D01*
X024656Y006975D02*
X024656Y006025D01*
X024697Y005984D02*
X025163Y005984D01*
X025163Y006084D02*
X024597Y006084D01*
X024556Y006125D02*
X024556Y006975D01*
X024456Y006975D02*
X024456Y006258D01*
X024430Y006284D02*
X025228Y006284D01*
X025256Y006344D02*
X025256Y006975D01*
X025356Y006975D02*
X025356Y006444D01*
X025295Y006384D02*
X024330Y006384D01*
X024356Y006358D02*
X024356Y006975D01*
X023656Y006975D02*
X023656Y006377D01*
X023662Y006384D02*
X022776Y006384D01*
X022756Y006404D02*
X022756Y006975D01*
X022856Y006975D02*
X022856Y006304D01*
X022876Y006284D02*
X023562Y006284D01*
X023556Y006277D02*
X023556Y006975D01*
X023456Y006975D02*
X023456Y004484D01*
X023454Y004484D02*
X022527Y004484D01*
X022556Y004456D02*
X022556Y005540D01*
X022534Y005540D02*
X022679Y005540D01*
X022954Y005816D01*
X022954Y005960D01*
X022534Y005960D01*
X022534Y005540D01*
X022534Y005584D02*
X022434Y005584D01*
X022434Y005540D02*
X022434Y005960D01*
X022534Y005960D01*
X022534Y006060D01*
X022954Y006060D01*
X022954Y006205D01*
X022679Y006480D01*
X022534Y006480D01*
X022534Y006060D01*
X022434Y006060D01*
X022434Y005960D01*
X022014Y005960D01*
X022014Y005816D01*
X022290Y005540D01*
X022434Y005540D01*
X022356Y005540D02*
X022356Y004555D01*
X022456Y004513D02*
X022456Y005960D01*
X022434Y005984D02*
X021984Y005984D01*
X022056Y005960D02*
X022056Y006060D01*
X022014Y006060D02*
X022434Y006060D01*
X022434Y006480D01*
X022290Y006480D01*
X022014Y006205D01*
X022014Y006060D01*
X022014Y006084D02*
X021984Y006084D01*
X021984Y006184D02*
X022014Y006184D01*
X022056Y006246D02*
X022056Y006975D01*
X022156Y006975D02*
X022156Y006346D01*
X022193Y006384D02*
X021818Y006384D01*
X021856Y006346D02*
X021856Y006975D01*
X021956Y006975D02*
X021956Y006246D01*
X021918Y006284D02*
X022093Y006284D01*
X022434Y006284D02*
X022534Y006284D01*
X022534Y006384D02*
X022434Y006384D01*
X022256Y006446D02*
X022256Y006975D01*
X022356Y006975D02*
X022356Y006480D01*
X022556Y006480D02*
X022556Y006975D01*
X022656Y006975D02*
X022656Y006480D01*
X021756Y006446D02*
X021756Y006975D01*
X022456Y006975D02*
X022456Y006060D01*
X022434Y006084D02*
X022534Y006084D01*
X022556Y006060D02*
X022556Y005960D01*
X022534Y005984D02*
X023496Y005984D01*
X023496Y006084D02*
X022954Y006084D01*
X022954Y006184D02*
X023496Y006184D01*
X022856Y006060D02*
X022856Y005960D01*
X022756Y005960D02*
X022756Y006060D01*
X022656Y006060D02*
X022656Y005960D01*
X022534Y005884D02*
X022434Y005884D01*
X022434Y005784D02*
X022534Y005784D01*
X022534Y005684D02*
X022434Y005684D01*
X022722Y005584D02*
X023716Y005584D01*
X023556Y005744D02*
X023556Y004526D01*
X023356Y004387D02*
X023356Y006975D01*
X025656Y006975D02*
X025656Y006594D01*
X025756Y006594D02*
X025756Y006975D01*
X025856Y006975D02*
X025856Y006594D01*
X025886Y006584D02*
X031118Y006584D01*
X031156Y006594D02*
X031156Y006975D01*
X031256Y006975D02*
X031256Y006594D01*
X031356Y006594D02*
X031356Y006975D01*
X031456Y006975D02*
X031456Y006560D01*
X031398Y006584D02*
X032278Y006584D01*
X032278Y006684D02*
X010019Y006684D01*
X009956Y006748D02*
X009956Y006975D01*
X009856Y006975D02*
X009856Y006848D01*
X009919Y006784D02*
X032278Y006784D01*
X032278Y006884D02*
X009454Y006884D01*
X009456Y006885D02*
X009456Y006869D01*
X009556Y006869D02*
X009556Y006975D01*
X009656Y006975D02*
X009656Y006869D01*
X009756Y006869D02*
X009756Y006975D01*
X010256Y006975D02*
X010256Y002573D01*
X010356Y002573D02*
X010356Y006975D01*
X010456Y006975D02*
X010456Y002573D01*
X010556Y002573D02*
X010556Y006975D01*
X010656Y006975D02*
X010656Y002573D01*
X011156Y002433D02*
X011156Y006975D01*
X009195Y007275D02*
X009055Y007135D01*
X008920Y007000D01*
X008920Y006783D01*
X008834Y006869D01*
X008444Y006869D01*
X008380Y006805D01*
X008380Y007110D01*
X008545Y007275D01*
X009195Y007275D01*
X009156Y007275D02*
X009156Y007236D01*
X009103Y007184D02*
X008454Y007184D01*
X008456Y007185D02*
X008456Y006869D01*
X008380Y006884D02*
X008920Y006884D01*
X008856Y006848D02*
X008856Y007275D01*
X008956Y007275D02*
X008956Y007036D01*
X008920Y006984D02*
X008380Y006984D01*
X008380Y007084D02*
X009003Y007084D01*
X009056Y007136D02*
X009056Y007275D01*
X008756Y007275D02*
X008756Y006869D01*
X008656Y006869D02*
X008656Y007275D01*
X008556Y007275D02*
X008556Y006869D01*
X008919Y006784D02*
X008920Y006784D01*
X007920Y006784D02*
X007919Y006784D01*
X006169Y006584D02*
X006109Y006584D01*
X006109Y006484D02*
X006169Y006484D01*
X006169Y006384D02*
X006109Y006384D01*
X006109Y006284D02*
X006169Y006284D01*
X006190Y006184D02*
X006088Y006184D01*
X006056Y006151D02*
X006056Y005648D01*
X006019Y005684D02*
X006259Y005684D01*
X006256Y005681D02*
X006256Y006118D01*
X006290Y006084D02*
X005988Y006084D01*
X005956Y006051D02*
X005956Y005748D01*
X005919Y005784D02*
X006359Y005784D01*
X006356Y005781D02*
X006356Y006018D01*
X006390Y005984D02*
X005888Y005984D01*
X005856Y005951D02*
X005856Y005848D01*
X005756Y005869D02*
X005756Y005929D01*
X005656Y005929D02*
X005656Y005869D01*
X005556Y005869D02*
X005556Y005929D01*
X005456Y005929D02*
X005456Y005869D01*
X006109Y005584D02*
X006169Y005584D01*
X006169Y005484D02*
X006109Y005484D01*
X006109Y005384D02*
X006169Y005384D01*
X006169Y005284D02*
X006109Y005284D01*
X006088Y005184D02*
X006190Y005184D01*
X006056Y005151D02*
X006056Y002543D01*
X005999Y002484D02*
X005899Y002484D01*
X005856Y002543D02*
X005856Y004951D01*
X005888Y004984D02*
X006390Y004984D01*
X006356Y005018D02*
X006356Y002331D01*
X006403Y002284D02*
X006964Y002284D01*
X006961Y002184D02*
X006419Y002184D01*
X006356Y002123D02*
X006356Y002023D01*
X006419Y001984D02*
X006961Y001984D01*
X006961Y002084D02*
X005999Y002084D01*
X006056Y002123D02*
X006056Y002023D01*
X006156Y002023D02*
X006156Y002123D01*
X006256Y002123D02*
X006256Y002023D01*
X006419Y001884D02*
X006961Y001884D01*
X007043Y001784D02*
X006324Y001784D01*
X006356Y001815D02*
X006356Y001635D01*
X006456Y001635D02*
X006456Y004929D01*
X006556Y004929D02*
X006556Y001635D01*
X006656Y001635D02*
X006656Y004929D01*
X006756Y004929D02*
X006756Y001635D01*
X006856Y001635D02*
X006856Y004951D01*
X006888Y004984D02*
X007390Y004984D01*
X007356Y005018D02*
X007356Y002573D01*
X007456Y002573D02*
X007456Y004929D01*
X007556Y004929D02*
X007556Y002573D01*
X007656Y002573D02*
X007656Y004929D01*
X007756Y004929D02*
X007756Y002486D01*
X007757Y002484D02*
X008796Y002484D01*
X008756Y002443D02*
X008756Y003975D01*
X008856Y003975D02*
X008856Y002543D01*
X009456Y002603D02*
X009456Y003985D01*
X009756Y004285D02*
X009756Y002282D01*
X009755Y002284D02*
X009964Y002284D01*
X009961Y002184D02*
X009794Y002184D01*
X009794Y002084D02*
X009961Y002084D01*
X009961Y001984D02*
X009794Y001984D01*
X009763Y001884D02*
X009961Y001884D01*
X010043Y001784D02*
X009722Y001784D01*
X009756Y001865D02*
X009756Y001635D01*
X009656Y001635D02*
X009656Y001694D01*
X009645Y001684D02*
X010143Y001684D01*
X010156Y001671D02*
X010156Y001635D01*
X010056Y001635D02*
X010056Y001771D01*
X010756Y001661D02*
X010756Y001635D01*
X010778Y001684D02*
X011186Y001684D01*
X011156Y001714D02*
X011156Y001635D01*
X011056Y001635D02*
X011056Y001814D01*
X011086Y001784D02*
X010878Y001784D01*
X010856Y001761D02*
X010856Y001635D01*
X010956Y001635D02*
X010956Y001861D01*
X010961Y001884D02*
X010991Y001884D01*
X008776Y001684D02*
X007778Y001684D01*
X007756Y001661D02*
X007756Y001635D01*
X007856Y001635D02*
X007856Y001761D01*
X007878Y001784D02*
X008700Y001784D01*
X008756Y001704D02*
X008756Y001635D01*
X008656Y001635D02*
X008656Y001890D01*
X008658Y001884D02*
X007961Y001884D01*
X007956Y001861D02*
X007956Y001635D01*
X007156Y001635D02*
X007156Y001671D01*
X007143Y001684D02*
X006224Y001684D01*
X006256Y001715D02*
X006256Y001635D01*
X005674Y001684D02*
X005266Y001684D01*
X005256Y001673D02*
X005256Y001635D01*
X005356Y001635D02*
X005356Y001773D01*
X005366Y001784D02*
X005574Y001784D01*
X005556Y001802D02*
X005556Y001635D01*
X005656Y001635D02*
X005656Y001702D01*
X005456Y001635D02*
X005456Y004929D01*
X005756Y004929D02*
X005756Y002543D01*
X005899Y002384D02*
X005999Y002384D01*
X005999Y002284D02*
X005899Y002284D01*
X005899Y002184D02*
X005999Y002184D01*
X005479Y001884D02*
X005449Y001884D01*
X006956Y001635D02*
X006956Y005051D01*
X006988Y005084D02*
X007290Y005084D01*
X007256Y005118D02*
X007256Y002573D01*
X007856Y002386D02*
X007856Y004951D01*
X007888Y004984D02*
X007920Y004984D01*
X008380Y004684D02*
X009420Y004684D01*
X009403Y004584D02*
X008380Y004584D01*
X009356Y004536D02*
X009356Y005018D01*
X010056Y005151D02*
X010056Y002375D01*
X010064Y002384D02*
X009713Y002384D01*
X008708Y002384D02*
X007857Y002384D01*
X007961Y002184D02*
X008628Y002184D01*
X008628Y002084D02*
X007961Y002084D01*
X007961Y001984D02*
X008628Y001984D01*
X007056Y001771D02*
X007056Y001635D01*
X003264Y001684D02*
X002266Y001684D01*
X002256Y001673D02*
X002256Y001635D01*
X002356Y001635D02*
X002356Y001773D01*
X002366Y001784D02*
X003188Y001784D01*
X003256Y001692D02*
X003256Y001635D01*
X001756Y001474D02*
X001756Y000334D01*
X001456Y000334D02*
X001456Y001860D01*
X013186Y003084D02*
X018004Y003084D01*
X018004Y003184D02*
X013186Y003184D01*
X013186Y003284D02*
X018004Y003284D01*
X018004Y003384D02*
X013186Y003384D01*
X013186Y003484D02*
X018004Y003484D01*
X017982Y003584D02*
X013186Y003584D01*
X013186Y003684D02*
X017857Y003684D01*
X017956Y003595D02*
X017956Y002340D01*
X017999Y002384D02*
X017327Y002384D01*
X017022Y002384D02*
X016922Y002384D01*
X016922Y002484D02*
X017022Y002484D01*
X017056Y002543D02*
X017056Y005540D01*
X017022Y005584D02*
X016922Y005584D01*
X016856Y005540D02*
X016856Y002543D01*
X017156Y002543D02*
X017156Y005540D01*
X017022Y005684D02*
X016922Y005684D01*
X016922Y005784D02*
X017022Y005784D01*
X017410Y005784D02*
X018004Y005784D01*
X017984Y005884D02*
X017442Y005884D01*
X016856Y005960D02*
X016856Y006060D01*
X016756Y006060D02*
X016756Y005960D01*
X016656Y005960D02*
X016656Y006060D01*
X016556Y006060D02*
X016556Y005960D01*
X016472Y005984D02*
X016922Y005984D01*
X016502Y006084D02*
X016472Y006084D01*
X016472Y006184D02*
X016502Y006184D01*
X016456Y006234D02*
X016456Y006975D01*
X016556Y006975D02*
X016556Y006258D01*
X016581Y006284D02*
X016406Y006284D01*
X016922Y006284D02*
X017022Y006284D01*
X017022Y006384D02*
X016922Y006384D01*
X017256Y006392D02*
X017256Y006975D01*
X017356Y006975D02*
X017356Y006292D01*
X017364Y006284D02*
X018050Y006284D01*
X018056Y006289D02*
X018056Y006975D01*
X018156Y006975D02*
X018156Y006389D01*
X018150Y006384D02*
X017264Y006384D01*
X017156Y006480D02*
X017156Y006975D01*
X017056Y006975D02*
X017056Y006480D01*
X016206Y006484D02*
X018250Y006484D01*
X018256Y006489D02*
X018256Y006975D01*
X018356Y006975D02*
X018356Y006510D01*
X018456Y006510D02*
X018456Y006975D01*
X018556Y006975D02*
X018556Y006510D01*
X018656Y006510D02*
X018656Y006975D01*
X018756Y006975D02*
X018756Y006446D01*
X018718Y006484D02*
X019883Y006484D01*
X019856Y006456D02*
X019856Y006975D01*
X019956Y006975D02*
X019956Y006526D01*
X020056Y006568D02*
X020056Y006975D01*
X019756Y006975D02*
X019756Y006356D01*
X019783Y006384D02*
X018818Y006384D01*
X018856Y006346D02*
X018856Y006975D01*
X018956Y006975D02*
X018956Y006246D01*
X018918Y006284D02*
X019716Y006284D01*
X019675Y006184D02*
X019197Y006184D01*
X019156Y006225D02*
X019156Y006975D01*
X019256Y006975D02*
X019256Y006125D01*
X019297Y006084D02*
X019651Y006084D01*
X019656Y006137D02*
X019656Y006975D01*
X019556Y006975D02*
X019556Y003996D01*
X019656Y003996D02*
X019656Y005884D01*
X019380Y005884D01*
X019380Y005784D02*
X019697Y005784D01*
X019738Y005684D02*
X019380Y005684D01*
X019380Y005584D02*
X019836Y005584D01*
X019856Y005565D02*
X019856Y003996D01*
X019956Y003996D02*
X019956Y005495D01*
X019982Y005484D02*
X019380Y005484D01*
X019380Y005384D02*
X024320Y005384D01*
X024320Y005484D02*
X020486Y005484D01*
X020456Y005471D02*
X020456Y003996D01*
X020556Y003996D02*
X020556Y005512D01*
X020356Y005430D02*
X020356Y003996D01*
X020256Y003996D02*
X020256Y005427D01*
X020156Y005427D02*
X020156Y003996D01*
X020056Y003996D02*
X020056Y005453D01*
X019380Y005284D02*
X024320Y005284D01*
X024320Y005184D02*
X019380Y005184D01*
X018920Y005184D02*
X016202Y005184D01*
X016202Y005284D02*
X018920Y005284D01*
X018920Y005384D02*
X016202Y005384D01*
X016202Y005484D02*
X018920Y005484D01*
X018756Y005575D02*
X018756Y001809D01*
X018730Y001784D02*
X018553Y001784D01*
X018556Y001786D02*
X018556Y001635D01*
X018630Y001684D02*
X018453Y001684D01*
X018456Y001686D02*
X018456Y001635D01*
X018356Y001635D02*
X018356Y001666D01*
X018256Y001666D02*
X018256Y001635D01*
X018156Y001635D02*
X018156Y001666D01*
X018079Y001684D02*
X017247Y001684D01*
X017256Y001692D02*
X017256Y001635D01*
X017756Y001635D02*
X017756Y003839D01*
X017737Y003884D02*
X015981Y003884D01*
X015956Y003858D02*
X015956Y002573D01*
X016056Y002573D02*
X016056Y003958D01*
X016081Y003984D02*
X017714Y003984D01*
X017714Y004084D02*
X016181Y004084D01*
X016156Y004058D02*
X016156Y002573D01*
X015856Y002573D02*
X015856Y003854D01*
X015756Y003854D02*
X015756Y002564D01*
X016922Y002284D02*
X017022Y002284D01*
X017022Y002184D02*
X016922Y002184D01*
X017056Y002123D02*
X017056Y002023D01*
X017156Y002023D02*
X017156Y002123D01*
X017256Y002123D02*
X017256Y002023D01*
X017442Y001884D02*
X017879Y001884D01*
X018653Y001884D02*
X019903Y001884D01*
X019856Y001836D02*
X019856Y002804D01*
X019876Y002784D02*
X019608Y002784D01*
X019629Y002804D02*
X019697Y002969D01*
X019697Y003147D01*
X019629Y003311D01*
X019503Y003437D01*
X019339Y003505D01*
X019161Y003505D01*
X018997Y003437D01*
X018871Y003311D01*
X018803Y003147D01*
X018803Y002969D01*
X018871Y002804D01*
X018997Y002679D01*
X019161Y002611D01*
X019339Y002611D01*
X019503Y002679D01*
X019629Y002804D01*
X019656Y002868D02*
X019656Y001814D01*
X019756Y001814D02*
X019756Y003536D01*
X019856Y003536D02*
X019856Y003311D01*
X019844Y003284D02*
X019640Y003284D01*
X019656Y003247D02*
X019656Y003536D01*
X019556Y003536D02*
X019556Y003385D01*
X019556Y003384D02*
X019928Y003384D01*
X019956Y003411D02*
X019956Y003536D01*
X020056Y003536D02*
X020056Y003468D01*
X020094Y003484D02*
X019390Y003484D01*
X019356Y003498D02*
X019356Y003536D01*
X019456Y003536D02*
X019456Y003457D01*
X019256Y003505D02*
X019256Y003536D01*
X019156Y003503D02*
X019156Y003575D01*
X019147Y003584D02*
X018487Y003584D01*
X018556Y003628D02*
X018556Y002360D01*
X018532Y002384D02*
X020004Y002384D01*
X020004Y002484D02*
X018464Y002484D01*
X018464Y002584D02*
X020004Y002584D01*
X019456Y002659D02*
X019456Y001814D01*
X019556Y001814D02*
X019556Y002731D01*
X019508Y002684D02*
X019976Y002684D01*
X019956Y002704D02*
X019956Y001936D01*
X020003Y001984D02*
X018674Y001984D01*
X018656Y001886D02*
X018656Y001709D01*
X018856Y001814D02*
X018856Y002842D01*
X018838Y002884D02*
X018464Y002884D01*
X018464Y002984D02*
X018803Y002984D01*
X018803Y003084D02*
X018464Y003084D01*
X018464Y003184D02*
X018818Y003184D01*
X018856Y003274D02*
X018856Y005675D01*
X018865Y005684D02*
X018920Y005684D01*
X018920Y005584D02*
X018765Y005584D01*
X018656Y005510D02*
X018656Y004356D01*
X018628Y004384D02*
X018920Y004384D01*
X018920Y004484D02*
X018527Y004484D01*
X018556Y004456D02*
X018556Y005510D01*
X018456Y005510D02*
X018456Y004513D01*
X018356Y004555D02*
X018356Y005510D01*
X018256Y005532D02*
X018256Y004562D01*
X018697Y004284D02*
X018920Y004284D01*
X018920Y004184D02*
X018738Y004184D01*
X018754Y004084D02*
X018920Y004084D01*
X018920Y003984D02*
X018754Y003984D01*
X018732Y003884D02*
X018920Y003884D01*
X018947Y003784D02*
X018690Y003784D01*
X018656Y003728D02*
X018656Y002260D01*
X018632Y002284D02*
X020004Y002284D01*
X020004Y002184D02*
X018674Y002184D01*
X018674Y002084D02*
X020004Y002084D01*
X020464Y002084D02*
X021795Y002084D01*
X021795Y001984D02*
X020464Y001984D01*
X020464Y001884D02*
X021816Y001884D01*
X021856Y001844D02*
X021856Y001835D01*
X022556Y001835D02*
X022556Y001849D01*
X022756Y001835D02*
X022756Y005617D01*
X022656Y005540D02*
X022656Y004356D01*
X022628Y004384D02*
X023352Y004384D01*
X023283Y004284D02*
X022697Y004284D01*
X021956Y004489D02*
X021956Y005775D01*
X021965Y005784D02*
X022046Y005784D01*
X022056Y005775D02*
X022056Y004531D01*
X021942Y004484D02*
X019380Y004484D01*
X019380Y004584D02*
X024320Y004584D01*
X024320Y004684D02*
X019380Y004684D01*
X019380Y004784D02*
X024320Y004784D01*
X024320Y004884D02*
X019380Y004884D01*
X019380Y004984D02*
X024320Y004984D01*
X024320Y005084D02*
X019380Y005084D01*
X018920Y005084D02*
X016202Y005084D01*
X016202Y004984D02*
X018920Y004984D01*
X018920Y004884D02*
X016202Y004884D01*
X016202Y004784D02*
X018920Y004784D01*
X019380Y004184D02*
X021730Y004184D01*
X021714Y004084D02*
X019380Y004084D01*
X019456Y003996D02*
X019456Y006975D01*
X019356Y006975D02*
X019356Y006025D01*
X019380Y005984D02*
X019651Y005984D01*
X019056Y006240D02*
X019056Y006975D01*
X016156Y006975D02*
X016156Y006510D01*
X016056Y006510D02*
X016056Y006975D01*
X015956Y006975D02*
X015956Y006510D01*
X015856Y006510D02*
X015856Y006975D01*
X012739Y006484D02*
X010109Y006484D01*
X007920Y005984D02*
X007888Y005984D01*
X007856Y005951D02*
X007856Y005848D01*
X007919Y005784D02*
X007920Y005784D01*
X007756Y005869D02*
X007756Y005929D01*
X007656Y005929D02*
X007656Y005869D01*
X007556Y005869D02*
X007556Y005929D01*
X007456Y005929D02*
X007456Y005869D01*
X007359Y005784D02*
X006919Y005784D01*
X006956Y005748D02*
X006956Y006051D01*
X006988Y006084D02*
X007290Y006084D01*
X007256Y006118D02*
X007256Y005681D01*
X007259Y005684D02*
X007019Y005684D01*
X007356Y005781D02*
X007356Y006018D01*
X007390Y005984D02*
X006888Y005984D01*
X006856Y005951D02*
X006856Y005848D01*
X006756Y005869D02*
X006756Y005929D01*
X006656Y005929D02*
X006656Y005869D01*
X006556Y005869D02*
X006556Y005929D01*
X006456Y005929D02*
X006456Y005869D01*
X004456Y005449D02*
X004456Y005349D01*
X004356Y005349D02*
X004356Y005449D01*
X003201Y005584D02*
X003109Y005584D01*
X002956Y005748D02*
X002956Y005929D01*
X003589Y006084D02*
X003689Y006084D01*
X003689Y006184D02*
X003589Y006184D01*
X003589Y006284D02*
X003689Y006284D01*
X003756Y006349D02*
X003756Y006449D01*
X003856Y006449D02*
X003856Y006349D01*
X003956Y006349D02*
X003956Y006449D01*
X003456Y006449D02*
X003456Y006349D01*
X003356Y006349D02*
X003356Y006449D01*
X004856Y006449D02*
X004856Y006349D01*
X004956Y006349D02*
X004956Y006449D01*
X010109Y005284D02*
X015742Y005284D01*
X015742Y005184D02*
X010088Y005184D01*
X013256Y005586D02*
X013256Y004314D01*
X013356Y004314D02*
X013356Y005686D01*
X013353Y005684D02*
X014227Y005684D01*
X014256Y005653D02*
X014256Y004314D01*
X014556Y004314D02*
X014556Y005448D01*
X014656Y005427D02*
X014656Y004314D01*
X014756Y004314D02*
X014756Y005427D01*
X014856Y005434D02*
X014856Y004314D01*
X015742Y004384D02*
X009854Y004384D01*
X015356Y003854D02*
X015356Y001635D01*
X015456Y001635D02*
X015456Y003854D01*
X016202Y004184D02*
X017730Y004184D01*
X018956Y003775D02*
X018956Y003396D01*
X018944Y003384D02*
X018464Y003384D01*
X018464Y003284D02*
X018860Y003284D01*
X019056Y003461D02*
X019056Y003675D01*
X019047Y003684D02*
X018611Y003684D01*
X018464Y003484D02*
X019110Y003484D01*
X020156Y003505D02*
X020156Y003536D01*
X020256Y003536D02*
X020256Y003505D01*
X020356Y003491D02*
X020356Y003536D01*
X020374Y003484D02*
X021018Y003484D01*
X020956Y003536D02*
X020956Y003427D01*
X020912Y003384D02*
X020541Y003384D01*
X020556Y003369D02*
X020556Y003536D01*
X020656Y003536D02*
X020656Y003209D01*
X020666Y003184D02*
X020787Y003184D01*
X020771Y003084D02*
X020681Y003084D01*
X020681Y002984D02*
X020771Y002984D01*
X020807Y002884D02*
X020646Y002884D01*
X020656Y002906D02*
X020656Y001835D01*
X020756Y001835D02*
X020756Y003536D01*
X020856Y003536D02*
X020856Y003327D01*
X020828Y003284D02*
X020625Y003284D01*
X020456Y003450D02*
X020456Y003536D01*
X019802Y003184D02*
X019682Y003184D01*
X019697Y003084D02*
X019787Y003084D01*
X019787Y002984D02*
X019697Y002984D01*
X019662Y002884D02*
X019822Y002884D01*
X020493Y002684D02*
X020960Y002684D01*
X020956Y002688D02*
X020956Y001835D01*
X021056Y001835D02*
X021056Y002641D01*
X021156Y002611D02*
X021156Y001835D01*
X021256Y001835D02*
X021256Y002611D01*
X021356Y002630D02*
X021356Y001835D01*
X020856Y001835D02*
X020856Y002788D01*
X020860Y002784D02*
X020593Y002784D01*
X020556Y002747D02*
X020556Y001835D01*
X019356Y001814D02*
X019356Y002617D01*
X019256Y002611D02*
X019256Y001814D01*
X019156Y001814D02*
X019156Y002613D01*
X019056Y002654D02*
X019056Y001814D01*
X018956Y001814D02*
X018956Y002720D01*
X018992Y002684D02*
X018464Y002684D01*
X018464Y002784D02*
X018892Y002784D01*
X020464Y002184D02*
X021795Y002184D01*
X023976Y002684D02*
X024503Y002684D01*
X024556Y002659D02*
X024556Y001835D01*
X024656Y001835D02*
X024656Y002618D01*
X024756Y002611D02*
X024756Y001835D01*
X024856Y001835D02*
X024856Y002612D01*
X024956Y002654D02*
X024956Y001835D01*
X024456Y001835D02*
X024456Y002732D01*
X024403Y002784D02*
X023976Y002784D01*
X023976Y002884D02*
X024350Y002884D01*
X024356Y002870D02*
X024356Y001835D01*
X024185Y001984D02*
X025516Y001984D01*
X025516Y002084D02*
X024185Y002084D01*
X025976Y002084D02*
X027307Y002084D01*
X027307Y001984D02*
X025976Y001984D01*
X025976Y001884D02*
X027328Y001884D01*
X027356Y001856D02*
X027356Y001835D01*
X027056Y001835D02*
X027056Y002750D01*
X027089Y002784D02*
X029028Y002784D01*
X029028Y002884D02*
X027142Y002884D01*
X026989Y002684D02*
X029028Y002684D01*
X029488Y002684D02*
X030009Y002684D01*
X029017Y002384D02*
X027981Y002384D01*
X027956Y002409D02*
X027956Y003566D01*
X027999Y003584D02*
X029005Y003584D01*
X028956Y003609D02*
X028956Y002323D01*
X028917Y002284D02*
X028081Y002284D01*
X028056Y002309D02*
X028056Y003616D01*
X028041Y003601D02*
X028187Y003747D01*
X028266Y003939D01*
X028266Y004145D01*
X028187Y004336D01*
X028041Y004483D01*
X027849Y004562D01*
X027643Y004562D01*
X027452Y004483D01*
X027305Y004336D01*
X027226Y004145D01*
X027226Y003939D01*
X027305Y003747D01*
X027452Y003601D01*
X027643Y003522D01*
X027849Y003522D01*
X028041Y003601D01*
X028123Y003684D02*
X028881Y003684D01*
X028856Y003709D02*
X028856Y001835D01*
X028896Y001884D02*
X028102Y001884D01*
X028056Y001838D02*
X028056Y001835D01*
X028156Y001835D02*
X028156Y003716D01*
X028202Y003784D02*
X028802Y003784D01*
X028761Y003884D02*
X028243Y003884D01*
X028256Y003913D02*
X028256Y001835D01*
X028356Y001835D02*
X028356Y005705D01*
X028334Y005684D02*
X029128Y005684D01*
X029156Y005656D02*
X029156Y004562D01*
X029256Y004562D02*
X029256Y005556D01*
X029228Y005584D02*
X028234Y005584D01*
X028256Y005605D02*
X028256Y004171D01*
X028250Y004184D02*
X028754Y004184D01*
X028756Y004188D02*
X028756Y006975D01*
X028856Y006975D02*
X028856Y004375D01*
X028864Y004384D02*
X028140Y004384D01*
X028156Y004368D02*
X028156Y005540D01*
X028191Y005540D02*
X028046Y005540D01*
X028046Y005960D01*
X027946Y005960D01*
X027946Y005540D01*
X027801Y005540D01*
X027526Y005816D01*
X027526Y005960D01*
X027946Y005960D01*
X027946Y006060D01*
X027526Y006060D01*
X027526Y006205D01*
X027801Y006480D01*
X027946Y006480D01*
X027946Y006060D01*
X028046Y006060D01*
X028466Y006060D01*
X028466Y006205D01*
X028191Y006480D01*
X028046Y006480D01*
X028046Y006060D01*
X028046Y005960D01*
X028466Y005960D01*
X028466Y005816D01*
X028191Y005540D01*
X028056Y005540D02*
X028056Y004468D01*
X028038Y004484D02*
X028965Y004484D01*
X028956Y004475D02*
X028956Y006975D01*
X029056Y006975D02*
X029056Y006265D01*
X029074Y006284D02*
X028388Y006284D01*
X028356Y006316D02*
X028356Y006975D01*
X028456Y006975D02*
X028456Y006216D01*
X028466Y006184D02*
X029008Y006184D01*
X029008Y006084D02*
X028466Y006084D01*
X028456Y006060D02*
X028456Y005960D01*
X028466Y005884D02*
X029008Y005884D01*
X029028Y005784D02*
X028434Y005784D01*
X028456Y005805D02*
X028456Y001835D01*
X028556Y001835D02*
X028556Y006975D01*
X028656Y006975D02*
X028656Y001835D01*
X028756Y001835D02*
X028756Y003896D01*
X028738Y003984D02*
X028266Y003984D01*
X028266Y004084D02*
X028738Y004084D01*
X029756Y004199D02*
X029756Y005551D01*
X029788Y005584D02*
X029820Y005584D01*
X029656Y005510D02*
X029656Y004380D01*
X029652Y004384D02*
X029820Y004384D01*
X029820Y004484D02*
X029550Y004484D01*
X029556Y004480D02*
X029556Y005510D01*
X029456Y005510D02*
X029456Y004523D01*
X029356Y004562D02*
X029356Y005510D01*
X029820Y005484D02*
X025998Y005484D01*
X025956Y005466D02*
X025956Y003878D01*
X026056Y003878D02*
X026056Y005508D01*
X026144Y005584D02*
X026716Y005584D01*
X026756Y005544D02*
X026756Y003830D01*
X026802Y003784D02*
X027290Y003784D01*
X027356Y003697D02*
X027356Y002291D01*
X027348Y002284D02*
X025976Y002284D01*
X025976Y002184D02*
X027307Y002184D01*
X028122Y002184D02*
X028875Y002184D01*
X028875Y002084D02*
X028122Y002084D01*
X028122Y001984D02*
X028875Y001984D01*
X026956Y001835D02*
X026956Y002667D01*
X026856Y002626D02*
X026856Y001835D01*
X026756Y001835D02*
X026756Y002611D01*
X026656Y002611D02*
X026656Y001835D01*
X026556Y001835D02*
X026556Y002646D01*
X026472Y002684D02*
X026004Y002684D01*
X026056Y002735D02*
X026056Y001835D01*
X026156Y001835D02*
X026156Y002878D01*
X026158Y002884D02*
X026318Y002884D01*
X026356Y002800D02*
X026356Y001835D01*
X026456Y001835D02*
X026456Y002700D01*
X026372Y002784D02*
X026104Y002784D01*
X026193Y002984D02*
X026283Y002984D01*
X026283Y003084D02*
X026193Y003084D01*
X026178Y003184D02*
X026298Y003184D01*
X026340Y003284D02*
X026136Y003284D01*
X026156Y003238D02*
X026156Y003418D01*
X026256Y003418D02*
X026256Y001835D01*
X027556Y002481D02*
X027556Y003558D01*
X027656Y003522D02*
X027656Y002481D01*
X027756Y002481D02*
X027756Y003522D01*
X027856Y003524D02*
X027856Y002481D01*
X025388Y002784D02*
X025120Y002784D01*
X025209Y002984D02*
X025299Y002984D01*
X025299Y003084D02*
X025209Y003084D01*
X025194Y003184D02*
X025314Y003184D01*
X026052Y003384D02*
X026424Y003384D01*
X026456Y003415D02*
X026456Y003418D01*
X026356Y003418D02*
X026356Y003315D01*
X026056Y003381D02*
X026056Y003418D01*
X026956Y003630D02*
X026956Y005510D01*
X026856Y005510D02*
X026856Y003730D01*
X026902Y003684D02*
X027369Y003684D01*
X026656Y003878D02*
X026656Y005644D01*
X026616Y005684D02*
X026242Y005684D01*
X026256Y005717D02*
X026256Y003878D01*
X026356Y003878D02*
X026356Y006975D01*
X026456Y006975D02*
X026456Y003878D01*
X026556Y003878D02*
X026556Y005744D01*
X026516Y005784D02*
X026283Y005784D01*
X026325Y005884D02*
X026496Y005884D01*
X026496Y005803D02*
X026789Y005510D01*
X027203Y005510D01*
X027496Y005803D01*
X027496Y006218D01*
X027203Y006510D01*
X026789Y006510D01*
X026496Y006218D01*
X026496Y005803D01*
X026156Y005595D02*
X026156Y003878D01*
X025856Y003878D02*
X025856Y005427D01*
X025756Y005427D02*
X025756Y003878D01*
X025656Y003878D02*
X025656Y005427D01*
X025556Y005458D02*
X025556Y003878D01*
X025456Y003878D02*
X025456Y005500D01*
X025494Y005484D02*
X024780Y005484D01*
X024780Y005384D02*
X029820Y005384D01*
X029820Y005284D02*
X024780Y005284D01*
X024780Y005184D02*
X029820Y005184D01*
X029820Y005084D02*
X024780Y005084D01*
X024780Y004984D02*
X029820Y004984D01*
X029820Y004884D02*
X024780Y004884D01*
X024780Y004784D02*
X029820Y004784D01*
X029820Y004684D02*
X024780Y004684D01*
X024780Y004584D02*
X029820Y004584D01*
X029056Y004521D02*
X029056Y005756D01*
X028356Y005960D02*
X028356Y006060D01*
X028256Y006060D02*
X028256Y005960D01*
X028156Y005960D02*
X028156Y006060D01*
X028056Y006060D02*
X028056Y005960D01*
X028046Y005984D02*
X029008Y005984D01*
X030008Y006184D02*
X030699Y006184D01*
X030675Y006084D02*
X030097Y006084D01*
X030056Y006125D02*
X030056Y006975D01*
X029956Y006975D02*
X029956Y006270D01*
X029942Y006284D02*
X030740Y006284D01*
X030756Y006321D02*
X030756Y006975D01*
X030856Y006975D02*
X030856Y006433D01*
X030807Y006384D02*
X029842Y006384D01*
X029856Y006370D02*
X029856Y006975D01*
X029756Y006975D02*
X029756Y006470D01*
X029742Y006484D02*
X030907Y006484D01*
X030956Y006516D02*
X030956Y006975D01*
X031056Y006975D02*
X031056Y006558D01*
X031556Y006518D02*
X031556Y006975D01*
X031656Y006975D02*
X031656Y006437D01*
X031609Y006484D02*
X032274Y006484D01*
X032256Y006465D02*
X032256Y006974D01*
X032156Y006975D02*
X032156Y006365D01*
X032174Y006384D02*
X031709Y006384D01*
X031756Y006333D02*
X031756Y006975D01*
X032056Y006975D02*
X032056Y006265D01*
X032074Y006284D02*
X031776Y006284D01*
X031817Y006184D02*
X032008Y006184D01*
X032008Y006084D02*
X031841Y006084D01*
X031841Y005984D02*
X032008Y005984D01*
X032008Y005884D02*
X031836Y005884D01*
X030860Y005584D02*
X030280Y005584D01*
X030856Y005588D02*
X030856Y003918D01*
X030956Y003918D02*
X030956Y005505D01*
X032956Y005751D02*
X032956Y004475D01*
X033356Y004562D02*
X033356Y005540D01*
X033456Y005540D02*
X033456Y004523D01*
X033652Y004384D02*
X034376Y004384D01*
X034356Y004363D02*
X034356Y007275D01*
X034456Y007275D02*
X034456Y004463D01*
X034307Y004284D02*
X033721Y004284D01*
X033656Y004380D02*
X033656Y005540D01*
X033558Y005584D02*
X033458Y005584D01*
X033458Y005684D02*
X033558Y005684D01*
X033558Y005784D02*
X033458Y005784D01*
X033458Y005884D02*
X033558Y005884D01*
X033070Y005784D02*
X032988Y005784D01*
X035780Y005584D02*
X036372Y005584D01*
X036356Y005600D02*
X036356Y004036D01*
X036456Y004036D02*
X036456Y005509D01*
X036518Y005484D02*
X035780Y005484D01*
X036556Y005468D02*
X036556Y004036D01*
X036656Y004036D02*
X036656Y005427D01*
X036756Y005427D02*
X036756Y004036D01*
X036856Y004036D02*
X036856Y005427D01*
X036956Y005456D02*
X036956Y004036D01*
X036056Y004036D02*
X036056Y007275D01*
X035956Y007275D02*
X035956Y004036D01*
X035856Y004036D02*
X035856Y007275D01*
X036556Y007275D02*
X036556Y006553D01*
X036630Y006584D02*
X032738Y006584D01*
X032738Y006884D02*
X037790Y006884D01*
X037790Y006984D02*
X032738Y006984D01*
X032738Y007084D02*
X037790Y007084D01*
X037790Y007184D02*
X032697Y007184D01*
X032656Y007225D02*
X032656Y007275D01*
X034956Y007275D02*
X034956Y006510D01*
X035056Y006510D02*
X035056Y007275D01*
X035156Y007275D02*
X035156Y006510D01*
X036656Y006594D02*
X036656Y007275D01*
X036756Y007275D02*
X036756Y006594D01*
X036856Y006594D02*
X036856Y007275D01*
X038250Y007184D02*
X039376Y007184D01*
X039376Y007084D02*
X038250Y007084D01*
X038250Y006984D02*
X039376Y006984D01*
X039376Y006884D02*
X038250Y006884D01*
X039438Y007905D02*
X039550Y007793D01*
X039550Y007905D01*
X039438Y007905D01*
X039456Y007905D02*
X039456Y007887D01*
X039459Y007884D02*
X039550Y007884D01*
X039056Y005960D02*
X039056Y004486D01*
X039062Y004484D02*
X039376Y004484D01*
X039376Y004384D02*
X039163Y004384D01*
X039156Y004392D02*
X039156Y005540D01*
X039070Y005584D02*
X038970Y005584D01*
X038956Y005540D02*
X038956Y004528D01*
X038856Y004562D02*
X038856Y005540D01*
X038970Y005684D02*
X039070Y005684D01*
X039070Y005784D02*
X038970Y005784D01*
X038970Y005884D02*
X039070Y005884D01*
X038582Y005784D02*
X038500Y005784D01*
X038456Y005739D02*
X038456Y004463D01*
X038307Y004284D02*
X035780Y004284D01*
X035320Y004284D02*
X035232Y004284D01*
X034250Y004084D02*
X033778Y004084D01*
X033778Y003984D02*
X034250Y003984D01*
X034314Y003784D02*
X033714Y003784D01*
X032795Y004284D02*
X030280Y004284D01*
X029820Y004284D02*
X029721Y004284D01*
X029762Y004184D02*
X029820Y004184D01*
X029820Y004084D02*
X029778Y004084D01*
X029778Y003984D02*
X029820Y003984D01*
X029635Y003684D02*
X030031Y003684D01*
X030056Y003659D02*
X030056Y003454D01*
X027226Y003984D02*
X024780Y003984D01*
X024780Y004084D02*
X027226Y004084D01*
X027242Y004184D02*
X024780Y004184D01*
X024780Y004284D02*
X027283Y004284D01*
X027256Y004216D02*
X027256Y005563D01*
X027276Y005584D02*
X027758Y005584D01*
X027756Y005586D02*
X027756Y004562D01*
X027856Y004559D02*
X027856Y005540D01*
X027946Y005584D02*
X028046Y005584D01*
X028046Y005684D02*
X027946Y005684D01*
X027946Y005784D02*
X028046Y005784D01*
X028046Y005884D02*
X027946Y005884D01*
X027956Y005960D02*
X027956Y004518D01*
X027656Y004562D02*
X027656Y005686D01*
X027658Y005684D02*
X027376Y005684D01*
X027356Y005663D02*
X027356Y004387D01*
X027352Y004384D02*
X024780Y004384D01*
X024780Y004484D02*
X027454Y004484D01*
X027456Y004484D02*
X027456Y005763D01*
X027476Y005784D02*
X027558Y005784D01*
X027556Y005786D02*
X027556Y004526D01*
X028209Y004284D02*
X028795Y004284D01*
X025356Y003878D02*
X025356Y005576D01*
X025348Y005584D02*
X024780Y005584D01*
X023516Y005784D02*
X022922Y005784D01*
X022954Y005884D02*
X023496Y005884D01*
X022356Y005960D02*
X022356Y006060D01*
X022256Y006060D02*
X022256Y005960D01*
X022156Y005960D02*
X022156Y006060D01*
X022014Y005884D02*
X021984Y005884D01*
X022434Y006184D02*
X022534Y006184D01*
X024497Y006184D02*
X025187Y006184D01*
X026197Y006384D02*
X026662Y006384D01*
X026656Y006377D02*
X026656Y006975D01*
X026756Y006975D02*
X026756Y006477D01*
X026762Y006484D02*
X026097Y006484D01*
X026056Y006513D02*
X026056Y006975D01*
X026156Y006975D02*
X026156Y006426D01*
X026256Y006304D02*
X026256Y006975D01*
X026556Y006975D02*
X026556Y006277D01*
X026562Y006284D02*
X026264Y006284D01*
X026305Y006184D02*
X026496Y006184D01*
X026496Y006084D02*
X026329Y006084D01*
X026329Y005984D02*
X026496Y005984D01*
X027430Y006284D02*
X027605Y006284D01*
X027556Y006235D02*
X027556Y006975D01*
X027656Y006975D02*
X027656Y006335D01*
X027705Y006384D02*
X027330Y006384D01*
X027356Y006358D02*
X027356Y006975D01*
X027456Y006975D02*
X027456Y006258D01*
X027496Y006184D02*
X027526Y006184D01*
X027526Y006084D02*
X027496Y006084D01*
X027556Y006060D02*
X027556Y005960D01*
X027496Y005984D02*
X027946Y005984D01*
X027956Y006060D02*
X027956Y006975D01*
X028056Y006975D02*
X028056Y006480D01*
X028156Y006480D02*
X028156Y006975D01*
X028256Y006975D02*
X028256Y006416D01*
X028288Y006384D02*
X029174Y006384D01*
X029156Y006365D02*
X029156Y006975D01*
X029256Y006975D02*
X029256Y006465D01*
X029274Y006484D02*
X027230Y006484D01*
X027256Y006458D02*
X027256Y006975D01*
X027156Y006975D02*
X027156Y006510D01*
X027056Y006510D02*
X027056Y006975D01*
X026956Y006975D02*
X026956Y006510D01*
X026856Y006510D02*
X026856Y006975D01*
X027756Y006975D02*
X027756Y006435D01*
X027856Y006480D02*
X027856Y006975D01*
X029356Y006975D02*
X029356Y006510D01*
X029456Y006510D02*
X029456Y006975D01*
X029556Y006975D02*
X029556Y006510D01*
X029656Y006510D02*
X029656Y006975D01*
X028046Y006384D02*
X027946Y006384D01*
X027946Y006284D02*
X028046Y006284D01*
X028046Y006184D02*
X027946Y006184D01*
X027946Y006084D02*
X028046Y006084D01*
X027856Y006060D02*
X027856Y005960D01*
X027756Y005960D02*
X027756Y006060D01*
X027656Y006060D02*
X027656Y005960D01*
X027526Y005884D02*
X027496Y005884D01*
X025956Y006555D02*
X025956Y006975D01*
X019756Y005665D02*
X019756Y003996D01*
X021169Y003984D02*
X021714Y003984D01*
X022690Y003784D02*
X023290Y003784D01*
X024202Y003784D02*
X024320Y003784D01*
X024320Y004284D02*
X024209Y004284D01*
X024330Y003184D02*
X023976Y003184D01*
X023976Y003084D02*
X024315Y003084D01*
X024315Y002984D02*
X023976Y002984D01*
X023516Y002984D02*
X021666Y002984D01*
X018056Y001707D02*
X018056Y001635D01*
X019656Y001354D02*
X019656Y001279D01*
X019653Y001284D02*
X019831Y001284D01*
X019856Y001343D02*
X019856Y001354D01*
X019756Y001354D02*
X019756Y000334D01*
X019856Y000334D02*
X019856Y000836D01*
X019835Y000884D02*
X019649Y000884D01*
X019656Y000900D02*
X019656Y000334D01*
X019556Y000334D02*
X019556Y000762D01*
X019577Y000784D02*
X019907Y000784D01*
X019956Y000736D02*
X019956Y000334D01*
X020056Y000334D02*
X020056Y000679D01*
X020045Y000684D02*
X019440Y000684D01*
X019456Y000690D02*
X019456Y000334D01*
X019356Y000334D02*
X019356Y000649D01*
X019256Y000642D02*
X019256Y000334D01*
X019156Y000334D02*
X019156Y000644D01*
X020156Y000642D02*
X020156Y000334D01*
X020256Y000334D02*
X020256Y000642D01*
X020356Y000655D02*
X020356Y000334D01*
X020456Y000334D02*
X020456Y000697D01*
X020424Y000684D02*
X021117Y000684D01*
X021156Y000677D02*
X021156Y000334D01*
X021056Y000334D02*
X021056Y000704D01*
X020956Y000765D02*
X020956Y000334D01*
X020856Y000334D02*
X020856Y000883D01*
X020855Y000884D02*
X020633Y000884D01*
X020656Y000938D02*
X020656Y000334D01*
X020756Y000334D02*
X020756Y001375D01*
X020856Y001375D02*
X020856Y001296D01*
X020849Y001284D02*
X020638Y001284D01*
X020656Y001241D02*
X020656Y001375D01*
X020679Y001184D02*
X020811Y001184D01*
X020856Y001128D02*
X020856Y001051D01*
X020814Y000984D02*
X020675Y000984D01*
X020681Y001084D02*
X021180Y001084D01*
X021156Y001051D02*
X021156Y001128D01*
X021056Y001128D02*
X021056Y001051D01*
X020956Y001051D02*
X020956Y001128D01*
X021180Y000984D02*
X021257Y000984D01*
X021356Y001051D02*
X021356Y001128D01*
X021456Y001128D02*
X021456Y001051D01*
X021257Y000884D02*
X021180Y000884D01*
X021180Y000784D02*
X021257Y000784D01*
X021257Y000684D02*
X021180Y000684D01*
X020934Y000784D02*
X020561Y000784D01*
X020556Y000778D02*
X020556Y000334D01*
X018856Y000334D02*
X018856Y000873D01*
X019690Y000984D02*
X019794Y000984D01*
X019787Y001084D02*
X019697Y001084D01*
X019695Y001184D02*
X019789Y001184D01*
X015556Y001635D02*
X015556Y001783D01*
X015555Y001784D02*
X015234Y001784D01*
X030712Y001184D02*
X030807Y001184D01*
X030804Y001084D02*
X030714Y001084D01*
X030708Y000984D02*
X030811Y000984D01*
X031650Y000884D02*
X031872Y000884D01*
X032197Y000884D02*
X032274Y000884D01*
X032274Y000784D02*
X032197Y000784D01*
X032197Y000684D02*
X032274Y000684D01*
X032456Y000733D02*
X032456Y000334D01*
X032599Y000884D02*
X035387Y000884D01*
X035356Y000959D02*
X035356Y000334D01*
X035456Y000334D02*
X035456Y000787D01*
X036156Y000827D02*
X036156Y000334D01*
X036256Y000334D02*
X036256Y001375D01*
X036356Y001375D02*
X036356Y001258D01*
X036366Y001284D02*
X036189Y001284D01*
X036156Y001351D02*
X036156Y001375D01*
X036230Y001184D02*
X036325Y001184D01*
X036323Y001084D02*
X036233Y001084D01*
X036226Y000984D02*
X036329Y000984D01*
X036356Y000921D02*
X036356Y000334D01*
X036656Y000334D02*
X036656Y000652D01*
X036756Y000642D02*
X036756Y000334D01*
X036856Y000334D02*
X036856Y000642D01*
X036371Y000884D02*
X036184Y000884D01*
X039464Y000205D02*
X039550Y000291D01*
X039550Y000205D01*
X039464Y000205D01*
X039542Y000284D02*
X039550Y000284D01*
X037956Y003693D02*
X037956Y005510D01*
X037856Y005510D02*
X037856Y003793D01*
X037865Y003784D02*
X038314Y003784D01*
X039232Y004284D02*
X039376Y004284D01*
X017984Y006184D02*
X017442Y006184D01*
X017022Y006184D02*
X016922Y006184D01*
X016502Y005884D02*
X016472Y005884D01*
X014185Y005784D02*
X013453Y005784D01*
X003689Y005184D02*
X003589Y005184D01*
D17*
X008150Y004405D02*
X008350Y004205D01*
X009350Y004205D01*
X009650Y004505D01*
X009650Y005388D01*
X009639Y005399D01*
X009150Y005910D02*
X008639Y005399D01*
X009150Y005910D02*
X009150Y006905D01*
X009450Y007205D01*
X032350Y007205D01*
X032508Y007047D01*
X032508Y006010D01*
X030050Y005805D02*
X030050Y003990D01*
X030352Y003688D01*
X032124Y003688D01*
X032281Y003530D01*
X032281Y003103D01*
X032236Y003058D01*
X031252Y003058D02*
X031252Y001807D01*
X031050Y001605D01*
X036450Y001605D01*
X036850Y002005D01*
X036850Y002977D01*
X036770Y003058D01*
X037754Y003058D02*
X037793Y003097D01*
X037793Y003530D01*
X037518Y003806D01*
X035746Y003806D01*
X035550Y004002D01*
X035550Y005905D01*
X035444Y006010D01*
X035020Y006010D01*
X038020Y006010D02*
X038020Y007435D01*
X037950Y007505D01*
X008450Y007505D01*
X008150Y007205D01*
X008150Y004405D01*
X012956Y003984D02*
X012956Y002134D01*
X012972Y002073D01*
X013006Y001555D01*
X012856Y001405D01*
X018677Y001405D01*
X018856Y001584D01*
X020134Y001584D01*
X020156Y001605D01*
X025650Y001605D01*
X025746Y001701D01*
X025746Y003058D01*
X026730Y003058D02*
X026730Y003530D01*
X026612Y003648D01*
X024722Y003648D01*
X024550Y003821D01*
X024550Y005805D01*
X024344Y006010D01*
X023996Y006010D01*
X019150Y005905D02*
X019150Y003906D01*
X019289Y003766D01*
X021061Y003766D01*
X021258Y003569D01*
X021258Y003097D01*
X021219Y003058D01*
X020234Y003058D02*
X020234Y001889D01*
X019950Y001605D01*
X020156Y001605D01*
X018266Y002073D02*
X018234Y002105D01*
X018234Y004042D01*
X015972Y004201D02*
X015856Y004084D01*
X013056Y004084D01*
X012956Y003984D01*
X015972Y004201D02*
X015972Y006010D01*
X018484Y006010D02*
X019044Y006010D01*
X019150Y005905D01*
X023746Y004042D02*
X023746Y002105D01*
X023778Y002073D01*
X025650Y001605D02*
X031050Y001605D01*
X029283Y002073D02*
X029258Y002099D01*
X029258Y004042D01*
X034770Y004042D02*
X034770Y002105D01*
X034801Y002073D01*
X030050Y005805D02*
X029844Y006010D01*
X029508Y006010D01*
X007461Y002073D02*
X007461Y001516D01*
X007350Y001405D01*
X012856Y001405D01*
X007350Y001405D02*
X002150Y001405D01*
X001949Y001606D01*
X001949Y002073D01*
M02*
