G75*
%MOIN*%
%OFA0B0*%
%FSLAX24Y24*%
%IPPOS*%
%LPD*%
%AMOC8*
5,1,8,0,0,1.08239X$1,22.5*
%
%ADD10C,0.0000*%
D10*
X000660Y000184D02*
X039021Y000184D01*
X039065Y000186D01*
X039109Y000192D01*
X039151Y000201D01*
X039193Y000214D01*
X039234Y000231D01*
X039273Y000252D01*
X039310Y000275D01*
X039345Y000302D01*
X039377Y000332D01*
X039407Y000364D01*
X039434Y000399D01*
X039457Y000436D01*
X039478Y000475D01*
X039495Y000516D01*
X039508Y000558D01*
X039517Y000600D01*
X039523Y000644D01*
X039525Y000688D01*
X039526Y000688D02*
X039526Y007396D01*
X039525Y007396D02*
X039523Y007440D01*
X039517Y007484D01*
X039508Y007526D01*
X039495Y007568D01*
X039478Y007609D01*
X039457Y007648D01*
X039434Y007685D01*
X039407Y007720D01*
X039377Y007752D01*
X039345Y007782D01*
X039310Y007809D01*
X039273Y007832D01*
X039234Y007853D01*
X039193Y007870D01*
X039151Y007883D01*
X039109Y007892D01*
X039065Y007898D01*
X039021Y007900D01*
X000660Y007900D01*
X000616Y007898D01*
X000572Y007892D01*
X000530Y007883D01*
X000488Y007870D01*
X000447Y007853D01*
X000408Y007832D01*
X000371Y007809D01*
X000336Y007782D01*
X000304Y007752D01*
X000274Y007720D01*
X000247Y007685D01*
X000224Y007648D01*
X000203Y007609D01*
X000186Y007568D01*
X000173Y007526D01*
X000164Y007484D01*
X000158Y007440D01*
X000156Y007396D01*
X000156Y000688D01*
X000158Y000644D01*
X000164Y000600D01*
X000173Y000558D01*
X000186Y000516D01*
X000203Y000475D01*
X000224Y000436D01*
X000247Y000399D01*
X000274Y000364D01*
X000304Y000332D01*
X000336Y000302D01*
X000371Y000275D01*
X000408Y000252D01*
X000447Y000231D01*
X000488Y000214D01*
X000530Y000201D01*
X000572Y000192D01*
X000616Y000186D01*
X000660Y000184D01*
X003266Y002073D02*
X003268Y002114D01*
X003274Y002155D01*
X003284Y002195D01*
X003297Y002234D01*
X003314Y002271D01*
X003335Y002307D01*
X003359Y002341D01*
X003386Y002372D01*
X003415Y002400D01*
X003448Y002426D01*
X003482Y002448D01*
X003519Y002467D01*
X003557Y002482D01*
X003597Y002494D01*
X003637Y002502D01*
X003678Y002506D01*
X003720Y002506D01*
X003761Y002502D01*
X003801Y002494D01*
X003841Y002482D01*
X003879Y002467D01*
X003915Y002448D01*
X003950Y002426D01*
X003983Y002400D01*
X004012Y002372D01*
X004039Y002341D01*
X004063Y002307D01*
X004084Y002271D01*
X004101Y002234D01*
X004114Y002195D01*
X004124Y002155D01*
X004130Y002114D01*
X004132Y002073D01*
X004130Y002032D01*
X004124Y001991D01*
X004114Y001951D01*
X004101Y001912D01*
X004084Y001875D01*
X004063Y001839D01*
X004039Y001805D01*
X004012Y001774D01*
X003983Y001746D01*
X003950Y001720D01*
X003916Y001698D01*
X003879Y001679D01*
X003841Y001664D01*
X003801Y001652D01*
X003761Y001644D01*
X003720Y001640D01*
X003678Y001640D01*
X003637Y001644D01*
X003597Y001652D01*
X003557Y001664D01*
X003519Y001679D01*
X003483Y001698D01*
X003448Y001720D01*
X003415Y001746D01*
X003386Y001774D01*
X003359Y001805D01*
X003335Y001839D01*
X003314Y001875D01*
X003297Y001912D01*
X003284Y001951D01*
X003274Y001991D01*
X003268Y002032D01*
X003266Y002073D01*
X008778Y002073D02*
X008780Y002114D01*
X008786Y002155D01*
X008796Y002195D01*
X008809Y002234D01*
X008826Y002271D01*
X008847Y002307D01*
X008871Y002341D01*
X008898Y002372D01*
X008927Y002400D01*
X008960Y002426D01*
X008994Y002448D01*
X009031Y002467D01*
X009069Y002482D01*
X009109Y002494D01*
X009149Y002502D01*
X009190Y002506D01*
X009232Y002506D01*
X009273Y002502D01*
X009313Y002494D01*
X009353Y002482D01*
X009391Y002467D01*
X009427Y002448D01*
X009462Y002426D01*
X009495Y002400D01*
X009524Y002372D01*
X009551Y002341D01*
X009575Y002307D01*
X009596Y002271D01*
X009613Y002234D01*
X009626Y002195D01*
X009636Y002155D01*
X009642Y002114D01*
X009644Y002073D01*
X009642Y002032D01*
X009636Y001991D01*
X009626Y001951D01*
X009613Y001912D01*
X009596Y001875D01*
X009575Y001839D01*
X009551Y001805D01*
X009524Y001774D01*
X009495Y001746D01*
X009462Y001720D01*
X009428Y001698D01*
X009391Y001679D01*
X009353Y001664D01*
X009313Y001652D01*
X009273Y001644D01*
X009232Y001640D01*
X009190Y001640D01*
X009149Y001644D01*
X009109Y001652D01*
X009069Y001664D01*
X009031Y001679D01*
X008995Y001698D01*
X008960Y001720D01*
X008927Y001746D01*
X008898Y001774D01*
X008871Y001805D01*
X008847Y001839D01*
X008826Y001875D01*
X008809Y001912D01*
X008796Y001951D01*
X008786Y001991D01*
X008780Y002032D01*
X008778Y002073D01*
X014289Y002073D02*
X014291Y002114D01*
X014297Y002155D01*
X014307Y002195D01*
X014320Y002234D01*
X014337Y002271D01*
X014358Y002307D01*
X014382Y002341D01*
X014409Y002372D01*
X014438Y002400D01*
X014471Y002426D01*
X014505Y002448D01*
X014542Y002467D01*
X014580Y002482D01*
X014620Y002494D01*
X014660Y002502D01*
X014701Y002506D01*
X014743Y002506D01*
X014784Y002502D01*
X014824Y002494D01*
X014864Y002482D01*
X014902Y002467D01*
X014938Y002448D01*
X014973Y002426D01*
X015006Y002400D01*
X015035Y002372D01*
X015062Y002341D01*
X015086Y002307D01*
X015107Y002271D01*
X015124Y002234D01*
X015137Y002195D01*
X015147Y002155D01*
X015153Y002114D01*
X015155Y002073D01*
X015153Y002032D01*
X015147Y001991D01*
X015137Y001951D01*
X015124Y001912D01*
X015107Y001875D01*
X015086Y001839D01*
X015062Y001805D01*
X015035Y001774D01*
X015006Y001746D01*
X014973Y001720D01*
X014939Y001698D01*
X014902Y001679D01*
X014864Y001664D01*
X014824Y001652D01*
X014784Y001644D01*
X014743Y001640D01*
X014701Y001640D01*
X014660Y001644D01*
X014620Y001652D01*
X014580Y001664D01*
X014542Y001679D01*
X014506Y001698D01*
X014471Y001720D01*
X014438Y001746D01*
X014409Y001774D01*
X014382Y001805D01*
X014358Y001839D01*
X014337Y001875D01*
X014320Y001912D01*
X014307Y001951D01*
X014297Y001991D01*
X014291Y002032D01*
X014289Y002073D01*
X014289Y006010D02*
X014291Y006051D01*
X014297Y006092D01*
X014307Y006132D01*
X014320Y006171D01*
X014337Y006208D01*
X014358Y006244D01*
X014382Y006278D01*
X014409Y006309D01*
X014438Y006337D01*
X014471Y006363D01*
X014505Y006385D01*
X014542Y006404D01*
X014580Y006419D01*
X014620Y006431D01*
X014660Y006439D01*
X014701Y006443D01*
X014743Y006443D01*
X014784Y006439D01*
X014824Y006431D01*
X014864Y006419D01*
X014902Y006404D01*
X014938Y006385D01*
X014973Y006363D01*
X015006Y006337D01*
X015035Y006309D01*
X015062Y006278D01*
X015086Y006244D01*
X015107Y006208D01*
X015124Y006171D01*
X015137Y006132D01*
X015147Y006092D01*
X015153Y006051D01*
X015155Y006010D01*
X015153Y005969D01*
X015147Y005928D01*
X015137Y005888D01*
X015124Y005849D01*
X015107Y005812D01*
X015086Y005776D01*
X015062Y005742D01*
X015035Y005711D01*
X015006Y005683D01*
X014973Y005657D01*
X014939Y005635D01*
X014902Y005616D01*
X014864Y005601D01*
X014824Y005589D01*
X014784Y005581D01*
X014743Y005577D01*
X014701Y005577D01*
X014660Y005581D01*
X014620Y005589D01*
X014580Y005601D01*
X014542Y005616D01*
X014506Y005635D01*
X014471Y005657D01*
X014438Y005683D01*
X014409Y005711D01*
X014382Y005742D01*
X014358Y005776D01*
X014337Y005812D01*
X014320Y005849D01*
X014307Y005888D01*
X014297Y005928D01*
X014291Y005969D01*
X014289Y006010D01*
X019801Y006010D02*
X019803Y006051D01*
X019809Y006092D01*
X019819Y006132D01*
X019832Y006171D01*
X019849Y006208D01*
X019870Y006244D01*
X019894Y006278D01*
X019921Y006309D01*
X019950Y006337D01*
X019983Y006363D01*
X020017Y006385D01*
X020054Y006404D01*
X020092Y006419D01*
X020132Y006431D01*
X020172Y006439D01*
X020213Y006443D01*
X020255Y006443D01*
X020296Y006439D01*
X020336Y006431D01*
X020376Y006419D01*
X020414Y006404D01*
X020450Y006385D01*
X020485Y006363D01*
X020518Y006337D01*
X020547Y006309D01*
X020574Y006278D01*
X020598Y006244D01*
X020619Y006208D01*
X020636Y006171D01*
X020649Y006132D01*
X020659Y006092D01*
X020665Y006051D01*
X020667Y006010D01*
X020665Y005969D01*
X020659Y005928D01*
X020649Y005888D01*
X020636Y005849D01*
X020619Y005812D01*
X020598Y005776D01*
X020574Y005742D01*
X020547Y005711D01*
X020518Y005683D01*
X020485Y005657D01*
X020451Y005635D01*
X020414Y005616D01*
X020376Y005601D01*
X020336Y005589D01*
X020296Y005581D01*
X020255Y005577D01*
X020213Y005577D01*
X020172Y005581D01*
X020132Y005589D01*
X020092Y005601D01*
X020054Y005616D01*
X020018Y005635D01*
X019983Y005657D01*
X019950Y005683D01*
X019921Y005711D01*
X019894Y005742D01*
X019870Y005776D01*
X019849Y005812D01*
X019832Y005849D01*
X019819Y005888D01*
X019809Y005928D01*
X019803Y005969D01*
X019801Y006010D01*
X025313Y006010D02*
X025315Y006051D01*
X025321Y006092D01*
X025331Y006132D01*
X025344Y006171D01*
X025361Y006208D01*
X025382Y006244D01*
X025406Y006278D01*
X025433Y006309D01*
X025462Y006337D01*
X025495Y006363D01*
X025529Y006385D01*
X025566Y006404D01*
X025604Y006419D01*
X025644Y006431D01*
X025684Y006439D01*
X025725Y006443D01*
X025767Y006443D01*
X025808Y006439D01*
X025848Y006431D01*
X025888Y006419D01*
X025926Y006404D01*
X025962Y006385D01*
X025997Y006363D01*
X026030Y006337D01*
X026059Y006309D01*
X026086Y006278D01*
X026110Y006244D01*
X026131Y006208D01*
X026148Y006171D01*
X026161Y006132D01*
X026171Y006092D01*
X026177Y006051D01*
X026179Y006010D01*
X026177Y005969D01*
X026171Y005928D01*
X026161Y005888D01*
X026148Y005849D01*
X026131Y005812D01*
X026110Y005776D01*
X026086Y005742D01*
X026059Y005711D01*
X026030Y005683D01*
X025997Y005657D01*
X025963Y005635D01*
X025926Y005616D01*
X025888Y005601D01*
X025848Y005589D01*
X025808Y005581D01*
X025767Y005577D01*
X025725Y005577D01*
X025684Y005581D01*
X025644Y005589D01*
X025604Y005601D01*
X025566Y005616D01*
X025530Y005635D01*
X025495Y005657D01*
X025462Y005683D01*
X025433Y005711D01*
X025406Y005742D01*
X025382Y005776D01*
X025361Y005812D01*
X025344Y005849D01*
X025331Y005888D01*
X025321Y005928D01*
X025315Y005969D01*
X025313Y006010D01*
X030825Y006010D02*
X030827Y006051D01*
X030833Y006092D01*
X030843Y006132D01*
X030856Y006171D01*
X030873Y006208D01*
X030894Y006244D01*
X030918Y006278D01*
X030945Y006309D01*
X030974Y006337D01*
X031007Y006363D01*
X031041Y006385D01*
X031078Y006404D01*
X031116Y006419D01*
X031156Y006431D01*
X031196Y006439D01*
X031237Y006443D01*
X031279Y006443D01*
X031320Y006439D01*
X031360Y006431D01*
X031400Y006419D01*
X031438Y006404D01*
X031474Y006385D01*
X031509Y006363D01*
X031542Y006337D01*
X031571Y006309D01*
X031598Y006278D01*
X031622Y006244D01*
X031643Y006208D01*
X031660Y006171D01*
X031673Y006132D01*
X031683Y006092D01*
X031689Y006051D01*
X031691Y006010D01*
X031689Y005969D01*
X031683Y005928D01*
X031673Y005888D01*
X031660Y005849D01*
X031643Y005812D01*
X031622Y005776D01*
X031598Y005742D01*
X031571Y005711D01*
X031542Y005683D01*
X031509Y005657D01*
X031475Y005635D01*
X031438Y005616D01*
X031400Y005601D01*
X031360Y005589D01*
X031320Y005581D01*
X031279Y005577D01*
X031237Y005577D01*
X031196Y005581D01*
X031156Y005589D01*
X031116Y005601D01*
X031078Y005616D01*
X031042Y005635D01*
X031007Y005657D01*
X030974Y005683D01*
X030945Y005711D01*
X030918Y005742D01*
X030894Y005776D01*
X030873Y005812D01*
X030856Y005849D01*
X030843Y005888D01*
X030833Y005928D01*
X030827Y005969D01*
X030825Y006010D01*
X036337Y006010D02*
X036339Y006051D01*
X036345Y006092D01*
X036355Y006132D01*
X036368Y006171D01*
X036385Y006208D01*
X036406Y006244D01*
X036430Y006278D01*
X036457Y006309D01*
X036486Y006337D01*
X036519Y006363D01*
X036553Y006385D01*
X036590Y006404D01*
X036628Y006419D01*
X036668Y006431D01*
X036708Y006439D01*
X036749Y006443D01*
X036791Y006443D01*
X036832Y006439D01*
X036872Y006431D01*
X036912Y006419D01*
X036950Y006404D01*
X036986Y006385D01*
X037021Y006363D01*
X037054Y006337D01*
X037083Y006309D01*
X037110Y006278D01*
X037134Y006244D01*
X037155Y006208D01*
X037172Y006171D01*
X037185Y006132D01*
X037195Y006092D01*
X037201Y006051D01*
X037203Y006010D01*
X037201Y005969D01*
X037195Y005928D01*
X037185Y005888D01*
X037172Y005849D01*
X037155Y005812D01*
X037134Y005776D01*
X037110Y005742D01*
X037083Y005711D01*
X037054Y005683D01*
X037021Y005657D01*
X036987Y005635D01*
X036950Y005616D01*
X036912Y005601D01*
X036872Y005589D01*
X036832Y005581D01*
X036791Y005577D01*
X036749Y005577D01*
X036708Y005581D01*
X036668Y005589D01*
X036628Y005601D01*
X036590Y005616D01*
X036554Y005635D01*
X036519Y005657D01*
X036486Y005683D01*
X036457Y005711D01*
X036430Y005742D01*
X036406Y005776D01*
X036385Y005812D01*
X036368Y005849D01*
X036355Y005888D01*
X036345Y005928D01*
X036339Y005969D01*
X036337Y006010D01*
M02*
