G75*
%MOIN*%
%OFA0B0*%
%FSLAX24Y24*%
%IPPOS*%
%LPD*%
%AMOC8*
5,1,8,0,0,1.08239X$1,22.5*
%
%ADD10C,0.0674*%
%ADD11OC8,0.0596*%
%ADD12OC8,0.0780*%
%ADD13C,0.0946*%
%ADD14C,0.0820*%
%ADD15R,0.0720X0.0720*%
%ADD16OC8,0.0720*%
D10*
X019250Y001089D03*
X020234Y001089D03*
X021219Y001089D03*
X024762Y001089D03*
X025746Y001089D03*
X026730Y001089D03*
X030267Y001089D03*
X031252Y001089D03*
X032236Y001089D03*
X035785Y001089D03*
X036770Y001089D03*
X037754Y001089D03*
X037754Y003058D03*
X036770Y003058D03*
X035785Y003058D03*
X032236Y003058D03*
X031252Y003058D03*
X030267Y003058D03*
X026730Y003058D03*
X025746Y003058D03*
X024762Y003058D03*
X021219Y003058D03*
X020234Y003058D03*
X019250Y003058D03*
D11*
X018266Y002073D03*
X022203Y002073D03*
X023778Y002073D03*
X027715Y002073D03*
X029283Y002073D03*
X033220Y002073D03*
X034801Y002073D03*
X038738Y002073D03*
D12*
X001949Y002073D03*
X004949Y002073D03*
X005949Y002073D03*
X007461Y002073D03*
X010461Y002073D03*
X011461Y002073D03*
X012972Y002073D03*
X015972Y002073D03*
X016972Y002073D03*
X016972Y006010D03*
X015972Y006010D03*
X018484Y006010D03*
X021484Y006010D03*
X022484Y006010D03*
X023996Y006010D03*
X026996Y006010D03*
X027996Y006010D03*
X029508Y006010D03*
X032508Y006010D03*
X033508Y006010D03*
X035020Y006010D03*
X038020Y006010D03*
X039020Y006010D03*
X012972Y006010D03*
D13*
X014722Y006010D03*
X020234Y006010D03*
X025746Y006010D03*
X031258Y006010D03*
X036770Y006010D03*
X014722Y002073D03*
X009211Y002073D03*
X003699Y002073D03*
D14*
X018234Y004042D03*
X022234Y004042D03*
X023746Y004042D03*
X027746Y004042D03*
X029258Y004042D03*
X033258Y004042D03*
X034770Y004042D03*
X038770Y004042D03*
D15*
X002639Y006399D03*
D16*
X003639Y006399D03*
X004639Y006399D03*
X005639Y006399D03*
X006639Y006399D03*
X007639Y006399D03*
X008639Y006399D03*
X009639Y006399D03*
X009639Y005399D03*
X008639Y005399D03*
X007639Y005399D03*
X006639Y005399D03*
X005639Y005399D03*
X004639Y005399D03*
X003639Y005399D03*
X002639Y005399D03*
M02*
