G75*
%MOIN*%
%OFA0B0*%
%FSLAX24Y24*%
%IPPOS*%
%LPD*%
%AMOC8*
5,1,8,0,0,1.08239X$1,22.5*
%
%ADD10C,0.0000*%
D10*
X000150Y000150D02*
X024150Y000150D01*
X024150Y017150D01*
X000150Y017150D01*
X000150Y000150D01*
X001520Y001330D02*
X001522Y001380D01*
X001528Y001430D01*
X001538Y001479D01*
X001552Y001527D01*
X001569Y001574D01*
X001590Y001619D01*
X001615Y001663D01*
X001643Y001704D01*
X001675Y001743D01*
X001709Y001780D01*
X001746Y001814D01*
X001786Y001844D01*
X001828Y001871D01*
X001872Y001895D01*
X001918Y001916D01*
X001965Y001932D01*
X002013Y001945D01*
X002063Y001954D01*
X002112Y001959D01*
X002163Y001960D01*
X002213Y001957D01*
X002262Y001950D01*
X002311Y001939D01*
X002359Y001924D01*
X002405Y001906D01*
X002450Y001884D01*
X002493Y001858D01*
X002534Y001829D01*
X002573Y001797D01*
X002609Y001762D01*
X002641Y001724D01*
X002671Y001684D01*
X002698Y001641D01*
X002721Y001597D01*
X002740Y001551D01*
X002756Y001503D01*
X002768Y001454D01*
X002776Y001405D01*
X002780Y001355D01*
X002780Y001305D01*
X002776Y001255D01*
X002768Y001206D01*
X002756Y001157D01*
X002740Y001109D01*
X002721Y001063D01*
X002698Y001019D01*
X002671Y000976D01*
X002641Y000936D01*
X002609Y000898D01*
X002573Y000863D01*
X002534Y000831D01*
X002493Y000802D01*
X002450Y000776D01*
X002405Y000754D01*
X002359Y000736D01*
X002311Y000721D01*
X002262Y000710D01*
X002213Y000703D01*
X002163Y000700D01*
X002112Y000701D01*
X002063Y000706D01*
X002013Y000715D01*
X001965Y000728D01*
X001918Y000744D01*
X001872Y000765D01*
X001828Y000789D01*
X001786Y000816D01*
X001746Y000846D01*
X001709Y000880D01*
X001675Y000917D01*
X001643Y000956D01*
X001615Y000997D01*
X001590Y001041D01*
X001569Y001086D01*
X001552Y001133D01*
X001538Y001181D01*
X001528Y001230D01*
X001522Y001280D01*
X001520Y001330D01*
X001520Y015970D02*
X001522Y016020D01*
X001528Y016070D01*
X001538Y016119D01*
X001552Y016167D01*
X001569Y016214D01*
X001590Y016259D01*
X001615Y016303D01*
X001643Y016344D01*
X001675Y016383D01*
X001709Y016420D01*
X001746Y016454D01*
X001786Y016484D01*
X001828Y016511D01*
X001872Y016535D01*
X001918Y016556D01*
X001965Y016572D01*
X002013Y016585D01*
X002063Y016594D01*
X002112Y016599D01*
X002163Y016600D01*
X002213Y016597D01*
X002262Y016590D01*
X002311Y016579D01*
X002359Y016564D01*
X002405Y016546D01*
X002450Y016524D01*
X002493Y016498D01*
X002534Y016469D01*
X002573Y016437D01*
X002609Y016402D01*
X002641Y016364D01*
X002671Y016324D01*
X002698Y016281D01*
X002721Y016237D01*
X002740Y016191D01*
X002756Y016143D01*
X002768Y016094D01*
X002776Y016045D01*
X002780Y015995D01*
X002780Y015945D01*
X002776Y015895D01*
X002768Y015846D01*
X002756Y015797D01*
X002740Y015749D01*
X002721Y015703D01*
X002698Y015659D01*
X002671Y015616D01*
X002641Y015576D01*
X002609Y015538D01*
X002573Y015503D01*
X002534Y015471D01*
X002493Y015442D01*
X002450Y015416D01*
X002405Y015394D01*
X002359Y015376D01*
X002311Y015361D01*
X002262Y015350D01*
X002213Y015343D01*
X002163Y015340D01*
X002112Y015341D01*
X002063Y015346D01*
X002013Y015355D01*
X001965Y015368D01*
X001918Y015384D01*
X001872Y015405D01*
X001828Y015429D01*
X001786Y015456D01*
X001746Y015486D01*
X001709Y015520D01*
X001675Y015557D01*
X001643Y015596D01*
X001615Y015637D01*
X001590Y015681D01*
X001569Y015726D01*
X001552Y015773D01*
X001538Y015821D01*
X001528Y015870D01*
X001522Y015920D01*
X001520Y015970D01*
X021520Y015970D02*
X021522Y016020D01*
X021528Y016070D01*
X021538Y016119D01*
X021552Y016167D01*
X021569Y016214D01*
X021590Y016259D01*
X021615Y016303D01*
X021643Y016344D01*
X021675Y016383D01*
X021709Y016420D01*
X021746Y016454D01*
X021786Y016484D01*
X021828Y016511D01*
X021872Y016535D01*
X021918Y016556D01*
X021965Y016572D01*
X022013Y016585D01*
X022063Y016594D01*
X022112Y016599D01*
X022163Y016600D01*
X022213Y016597D01*
X022262Y016590D01*
X022311Y016579D01*
X022359Y016564D01*
X022405Y016546D01*
X022450Y016524D01*
X022493Y016498D01*
X022534Y016469D01*
X022573Y016437D01*
X022609Y016402D01*
X022641Y016364D01*
X022671Y016324D01*
X022698Y016281D01*
X022721Y016237D01*
X022740Y016191D01*
X022756Y016143D01*
X022768Y016094D01*
X022776Y016045D01*
X022780Y015995D01*
X022780Y015945D01*
X022776Y015895D01*
X022768Y015846D01*
X022756Y015797D01*
X022740Y015749D01*
X022721Y015703D01*
X022698Y015659D01*
X022671Y015616D01*
X022641Y015576D01*
X022609Y015538D01*
X022573Y015503D01*
X022534Y015471D01*
X022493Y015442D01*
X022450Y015416D01*
X022405Y015394D01*
X022359Y015376D01*
X022311Y015361D01*
X022262Y015350D01*
X022213Y015343D01*
X022163Y015340D01*
X022112Y015341D01*
X022063Y015346D01*
X022013Y015355D01*
X021965Y015368D01*
X021918Y015384D01*
X021872Y015405D01*
X021828Y015429D01*
X021786Y015456D01*
X021746Y015486D01*
X021709Y015520D01*
X021675Y015557D01*
X021643Y015596D01*
X021615Y015637D01*
X021590Y015681D01*
X021569Y015726D01*
X021552Y015773D01*
X021538Y015821D01*
X021528Y015870D01*
X021522Y015920D01*
X021520Y015970D01*
X021520Y001330D02*
X021522Y001380D01*
X021528Y001430D01*
X021538Y001479D01*
X021552Y001527D01*
X021569Y001574D01*
X021590Y001619D01*
X021615Y001663D01*
X021643Y001704D01*
X021675Y001743D01*
X021709Y001780D01*
X021746Y001814D01*
X021786Y001844D01*
X021828Y001871D01*
X021872Y001895D01*
X021918Y001916D01*
X021965Y001932D01*
X022013Y001945D01*
X022063Y001954D01*
X022112Y001959D01*
X022163Y001960D01*
X022213Y001957D01*
X022262Y001950D01*
X022311Y001939D01*
X022359Y001924D01*
X022405Y001906D01*
X022450Y001884D01*
X022493Y001858D01*
X022534Y001829D01*
X022573Y001797D01*
X022609Y001762D01*
X022641Y001724D01*
X022671Y001684D01*
X022698Y001641D01*
X022721Y001597D01*
X022740Y001551D01*
X022756Y001503D01*
X022768Y001454D01*
X022776Y001405D01*
X022780Y001355D01*
X022780Y001305D01*
X022776Y001255D01*
X022768Y001206D01*
X022756Y001157D01*
X022740Y001109D01*
X022721Y001063D01*
X022698Y001019D01*
X022671Y000976D01*
X022641Y000936D01*
X022609Y000898D01*
X022573Y000863D01*
X022534Y000831D01*
X022493Y000802D01*
X022450Y000776D01*
X022405Y000754D01*
X022359Y000736D01*
X022311Y000721D01*
X022262Y000710D01*
X022213Y000703D01*
X022163Y000700D01*
X022112Y000701D01*
X022063Y000706D01*
X022013Y000715D01*
X021965Y000728D01*
X021918Y000744D01*
X021872Y000765D01*
X021828Y000789D01*
X021786Y000816D01*
X021746Y000846D01*
X021709Y000880D01*
X021675Y000917D01*
X021643Y000956D01*
X021615Y000997D01*
X021590Y001041D01*
X021569Y001086D01*
X021552Y001133D01*
X021538Y001181D01*
X021528Y001230D01*
X021522Y001280D01*
X021520Y001330D01*
M02*
