G75*
%MOIN*%
%OFA0B0*%
%FSLAX24Y24*%
%IPPOS*%
%LPD*%
%AMOC8*
5,1,8,0,0,1.08239X$1,22.5*
%
%ADD10C,0.0100*%
D10*
X000300Y000300D02*
X000300Y017000D01*
X024000Y017000D01*
X024000Y000300D01*
X000300Y000300D01*
X000350Y000300D02*
X000350Y017000D01*
X000300Y016950D02*
X024000Y016950D01*
X023950Y017000D02*
X023950Y000300D01*
X024000Y000350D02*
X000300Y000350D01*
X000300Y000550D02*
X024000Y000550D01*
X024000Y000750D02*
X022673Y000750D01*
X022750Y000827D02*
X022750Y000300D01*
X022550Y000300D02*
X022550Y000652D01*
X022592Y000669D02*
X022811Y000888D01*
X022930Y001175D01*
X022930Y001485D01*
X022811Y001772D01*
X022592Y001991D01*
X022305Y002110D01*
X021995Y002110D01*
X021708Y001991D01*
X021489Y001772D01*
X021370Y001485D01*
X021370Y001175D01*
X021489Y000888D01*
X021708Y000669D01*
X021995Y000550D01*
X022305Y000550D01*
X022592Y000669D01*
X022350Y000569D02*
X022350Y000300D01*
X022150Y000300D02*
X022150Y000550D01*
X021950Y000569D02*
X021950Y000300D01*
X021750Y000300D02*
X021750Y000652D01*
X021627Y000750D02*
X002673Y000750D01*
X002750Y000827D02*
X002750Y000300D01*
X002550Y000300D02*
X002550Y000652D01*
X002592Y000669D02*
X002811Y000888D01*
X002930Y001175D01*
X002930Y001485D01*
X002811Y001772D01*
X002592Y001991D01*
X002305Y002110D01*
X001995Y002110D01*
X001708Y001991D01*
X001489Y001772D01*
X001370Y001485D01*
X001370Y001175D01*
X001489Y000888D01*
X001708Y000669D01*
X001995Y000550D01*
X002305Y000550D01*
X002592Y000669D01*
X002350Y000569D02*
X002350Y000300D01*
X002150Y000300D02*
X002150Y000550D01*
X001950Y000569D02*
X001950Y000300D01*
X001750Y000300D02*
X001750Y000652D01*
X001627Y000750D02*
X000300Y000750D01*
X000300Y000950D02*
X001463Y000950D01*
X001550Y000827D02*
X001550Y000300D01*
X001350Y000300D02*
X001350Y017000D01*
X001150Y017000D02*
X001150Y000300D01*
X000950Y000300D02*
X000950Y017000D01*
X000750Y017000D02*
X000750Y000300D01*
X000550Y000300D02*
X000550Y017000D01*
X000300Y016750D02*
X024000Y016750D01*
X024000Y016550D02*
X022673Y016550D01*
X022750Y016473D02*
X022750Y017000D01*
X022550Y017000D02*
X022550Y016648D01*
X022592Y016631D02*
X022305Y016750D01*
X021995Y016750D01*
X021708Y016631D01*
X021489Y016412D01*
X021370Y016125D01*
X021370Y015815D01*
X021489Y015528D01*
X021708Y015309D01*
X021995Y015190D01*
X022305Y015190D01*
X022592Y015309D01*
X022811Y015528D01*
X022930Y015815D01*
X022930Y016125D01*
X022811Y016412D01*
X022592Y016631D01*
X022350Y016731D02*
X022350Y017000D01*
X022150Y017000D02*
X022150Y016750D01*
X021950Y016731D02*
X021950Y017000D01*
X021750Y017000D02*
X021750Y016648D01*
X021627Y016550D02*
X002673Y016550D01*
X002750Y016473D02*
X002750Y017000D01*
X002550Y017000D02*
X002550Y016648D01*
X002592Y016631D02*
X002305Y016750D01*
X001995Y016750D01*
X001708Y016631D01*
X001489Y016412D01*
X001370Y016125D01*
X001370Y015815D01*
X001489Y015528D01*
X001708Y015309D01*
X001995Y015190D01*
X002305Y015190D01*
X002592Y015309D01*
X002811Y015528D01*
X002930Y015815D01*
X002930Y016125D01*
X002811Y016412D01*
X002592Y016631D01*
X002350Y016731D02*
X002350Y017000D01*
X002150Y017000D02*
X002150Y016750D01*
X001950Y016731D02*
X001950Y017000D01*
X001750Y017000D02*
X001750Y016648D01*
X001627Y016550D02*
X000300Y016550D01*
X000300Y016350D02*
X001463Y016350D01*
X001550Y016473D02*
X001550Y017000D01*
X001380Y016150D02*
X000300Y016150D01*
X000300Y015950D02*
X001370Y015950D01*
X001397Y015750D02*
X000300Y015750D01*
X000300Y015550D02*
X001480Y015550D01*
X001550Y015467D02*
X001550Y001833D01*
X001480Y001750D02*
X000300Y001750D01*
X000300Y001950D02*
X001667Y001950D01*
X001750Y002008D02*
X001750Y015292D01*
X001667Y015350D02*
X000300Y015350D01*
X000300Y015150D02*
X024000Y015150D01*
X024000Y014950D02*
X000300Y014950D01*
X000300Y014750D02*
X024000Y014750D01*
X024000Y014550D02*
X000300Y014550D01*
X000300Y014350D02*
X024000Y014350D01*
X024000Y014150D02*
X000300Y014150D01*
X000300Y013950D02*
X024000Y013950D01*
X024000Y013750D02*
X000300Y013750D01*
X000300Y013550D02*
X024000Y013550D01*
X024000Y013350D02*
X000300Y013350D01*
X000300Y013150D02*
X024000Y013150D01*
X024000Y012950D02*
X000300Y012950D01*
X000300Y012750D02*
X024000Y012750D01*
X024000Y012550D02*
X000300Y012550D01*
X000300Y012350D02*
X024000Y012350D01*
X024000Y012150D02*
X000300Y012150D01*
X000300Y011950D02*
X024000Y011950D01*
X024000Y011750D02*
X000300Y011750D01*
X000300Y011550D02*
X024000Y011550D01*
X024000Y011350D02*
X000300Y011350D01*
X000300Y011150D02*
X024000Y011150D01*
X024000Y010950D02*
X000300Y010950D01*
X000300Y010750D02*
X024000Y010750D01*
X024000Y010550D02*
X000300Y010550D01*
X000300Y010350D02*
X024000Y010350D01*
X024000Y010150D02*
X000300Y010150D01*
X000300Y009950D02*
X024000Y009950D01*
X024000Y009750D02*
X000300Y009750D01*
X000300Y009550D02*
X024000Y009550D01*
X024000Y009350D02*
X000300Y009350D01*
X000300Y009150D02*
X024000Y009150D01*
X024000Y008950D02*
X000300Y008950D01*
X000300Y008750D02*
X024000Y008750D01*
X024000Y008550D02*
X000300Y008550D01*
X000300Y008350D02*
X024000Y008350D01*
X024000Y008150D02*
X000300Y008150D01*
X000300Y007950D02*
X024000Y007950D01*
X024000Y007750D02*
X000300Y007750D01*
X000300Y007550D02*
X024000Y007550D01*
X024000Y007350D02*
X000300Y007350D01*
X000300Y007150D02*
X024000Y007150D01*
X024000Y006950D02*
X000300Y006950D01*
X000300Y006750D02*
X024000Y006750D01*
X024000Y006550D02*
X000300Y006550D01*
X000300Y006350D02*
X024000Y006350D01*
X024000Y006150D02*
X000300Y006150D01*
X000300Y005950D02*
X024000Y005950D01*
X024000Y005750D02*
X000300Y005750D01*
X000300Y005550D02*
X024000Y005550D01*
X024000Y005350D02*
X000300Y005350D01*
X000300Y005150D02*
X024000Y005150D01*
X024000Y004950D02*
X000300Y004950D01*
X000300Y004750D02*
X024000Y004750D01*
X024000Y004550D02*
X000300Y004550D01*
X000300Y004350D02*
X024000Y004350D01*
X024000Y004150D02*
X000300Y004150D01*
X000300Y003950D02*
X024000Y003950D01*
X024000Y003750D02*
X000300Y003750D01*
X000300Y003550D02*
X024000Y003550D01*
X024000Y003350D02*
X000300Y003350D01*
X000300Y003150D02*
X024000Y003150D01*
X024000Y002950D02*
X000300Y002950D01*
X000300Y002750D02*
X024000Y002750D01*
X024000Y002550D02*
X000300Y002550D01*
X000300Y002350D02*
X024000Y002350D01*
X024000Y002150D02*
X000300Y002150D01*
X000300Y001550D02*
X001397Y001550D01*
X001370Y001350D02*
X000300Y001350D01*
X000300Y001150D02*
X001380Y001150D01*
X002550Y002008D02*
X002550Y015292D01*
X002633Y015350D02*
X021667Y015350D01*
X021750Y015292D02*
X021750Y002008D01*
X021667Y001950D02*
X002633Y001950D01*
X002750Y001833D02*
X002750Y015467D01*
X002820Y015550D02*
X021480Y015550D01*
X021550Y015467D02*
X021550Y001833D01*
X021480Y001750D02*
X002820Y001750D01*
X002903Y001550D02*
X021397Y001550D01*
X021370Y001350D02*
X002930Y001350D01*
X002920Y001150D02*
X021380Y001150D01*
X021463Y000950D02*
X002837Y000950D01*
X002950Y000300D02*
X002950Y017000D01*
X003150Y017000D02*
X003150Y000300D01*
X003350Y000300D02*
X003350Y017000D01*
X003550Y017000D02*
X003550Y000300D01*
X003750Y000300D02*
X003750Y017000D01*
X003950Y017000D02*
X003950Y000300D01*
X004150Y000300D02*
X004150Y017000D01*
X004350Y017000D02*
X004350Y000300D01*
X004550Y000300D02*
X004550Y017000D01*
X004750Y017000D02*
X004750Y000300D01*
X004950Y000300D02*
X004950Y017000D01*
X005150Y017000D02*
X005150Y000300D01*
X005350Y000300D02*
X005350Y017000D01*
X005550Y017000D02*
X005550Y000300D01*
X005750Y000300D02*
X005750Y017000D01*
X005950Y017000D02*
X005950Y000300D01*
X006150Y000300D02*
X006150Y017000D01*
X006350Y017000D02*
X006350Y000300D01*
X006550Y000300D02*
X006550Y017000D01*
X006750Y017000D02*
X006750Y000300D01*
X006950Y000300D02*
X006950Y017000D01*
X007150Y017000D02*
X007150Y000300D01*
X007350Y000300D02*
X007350Y017000D01*
X007550Y017000D02*
X007550Y000300D01*
X007750Y000300D02*
X007750Y017000D01*
X007950Y017000D02*
X007950Y000300D01*
X008150Y000300D02*
X008150Y017000D01*
X008350Y017000D02*
X008350Y000300D01*
X008550Y000300D02*
X008550Y017000D01*
X008750Y017000D02*
X008750Y000300D01*
X008950Y000300D02*
X008950Y017000D01*
X009150Y017000D02*
X009150Y000300D01*
X009350Y000300D02*
X009350Y017000D01*
X009550Y017000D02*
X009550Y000300D01*
X009750Y000300D02*
X009750Y017000D01*
X009950Y017000D02*
X009950Y000300D01*
X010150Y000300D02*
X010150Y017000D01*
X010350Y017000D02*
X010350Y000300D01*
X010550Y000300D02*
X010550Y017000D01*
X010750Y017000D02*
X010750Y000300D01*
X010950Y000300D02*
X010950Y017000D01*
X011150Y017000D02*
X011150Y000300D01*
X011350Y000300D02*
X011350Y017000D01*
X011550Y017000D02*
X011550Y000300D01*
X011750Y000300D02*
X011750Y017000D01*
X011950Y017000D02*
X011950Y000300D01*
X012150Y000300D02*
X012150Y017000D01*
X012350Y017000D02*
X012350Y000300D01*
X012550Y000300D02*
X012550Y017000D01*
X012750Y017000D02*
X012750Y000300D01*
X012950Y000300D02*
X012950Y017000D01*
X013150Y017000D02*
X013150Y000300D01*
X013350Y000300D02*
X013350Y017000D01*
X013550Y017000D02*
X013550Y000300D01*
X013750Y000300D02*
X013750Y017000D01*
X013950Y017000D02*
X013950Y000300D01*
X014150Y000300D02*
X014150Y017000D01*
X014350Y017000D02*
X014350Y000300D01*
X014550Y000300D02*
X014550Y017000D01*
X014750Y017000D02*
X014750Y000300D01*
X014950Y000300D02*
X014950Y017000D01*
X015150Y017000D02*
X015150Y000300D01*
X015350Y000300D02*
X015350Y017000D01*
X015550Y017000D02*
X015550Y000300D01*
X015750Y000300D02*
X015750Y017000D01*
X015950Y017000D02*
X015950Y000300D01*
X016150Y000300D02*
X016150Y017000D01*
X016350Y017000D02*
X016350Y000300D01*
X016550Y000300D02*
X016550Y017000D01*
X016750Y017000D02*
X016750Y000300D01*
X016950Y000300D02*
X016950Y017000D01*
X017150Y017000D02*
X017150Y000300D01*
X017350Y000300D02*
X017350Y017000D01*
X017550Y017000D02*
X017550Y000300D01*
X017750Y000300D02*
X017750Y017000D01*
X017950Y017000D02*
X017950Y000300D01*
X018150Y000300D02*
X018150Y017000D01*
X018350Y017000D02*
X018350Y000300D01*
X018550Y000300D02*
X018550Y017000D01*
X018750Y017000D02*
X018750Y000300D01*
X018950Y000300D02*
X018950Y017000D01*
X019150Y017000D02*
X019150Y000300D01*
X019350Y000300D02*
X019350Y017000D01*
X019550Y017000D02*
X019550Y000300D01*
X019750Y000300D02*
X019750Y017000D01*
X019950Y017000D02*
X019950Y000300D01*
X020150Y000300D02*
X020150Y017000D01*
X020350Y017000D02*
X020350Y000300D01*
X020550Y000300D02*
X020550Y017000D01*
X020750Y017000D02*
X020750Y000300D01*
X020950Y000300D02*
X020950Y017000D01*
X021150Y017000D02*
X021150Y000300D01*
X021350Y000300D02*
X021350Y017000D01*
X021550Y017000D02*
X021550Y016473D01*
X021463Y016350D02*
X002837Y016350D01*
X002920Y016150D02*
X021380Y016150D01*
X021370Y015950D02*
X002930Y015950D01*
X002903Y015750D02*
X021397Y015750D01*
X021950Y015209D02*
X021950Y002091D01*
X022150Y002110D02*
X022150Y015190D01*
X022350Y015209D02*
X022350Y002091D01*
X022550Y002008D02*
X022550Y015292D01*
X022633Y015350D02*
X024000Y015350D01*
X024000Y015550D02*
X022820Y015550D01*
X022750Y015467D02*
X022750Y001833D01*
X022820Y001750D02*
X024000Y001750D01*
X024000Y001950D02*
X022633Y001950D01*
X022903Y001550D02*
X024000Y001550D01*
X024000Y001350D02*
X022930Y001350D01*
X022920Y001150D02*
X024000Y001150D01*
X024000Y000950D02*
X022837Y000950D01*
X022950Y000300D02*
X022950Y017000D01*
X023150Y017000D02*
X023150Y000300D01*
X023350Y000300D02*
X023350Y017000D01*
X023550Y017000D02*
X023550Y000300D01*
X023750Y000300D02*
X023750Y017000D01*
X024000Y016350D02*
X022837Y016350D01*
X022920Y016150D02*
X024000Y016150D01*
X024000Y015950D02*
X022930Y015950D01*
X022903Y015750D02*
X024000Y015750D01*
X021550Y000827D02*
X021550Y000300D01*
X002350Y002091D02*
X002350Y015209D01*
X002150Y015190D02*
X002150Y002110D01*
X001950Y002091D02*
X001950Y015209D01*
M02*
