  0
SECTION
  2
HEADER
  9
$ACADVER
  1
AC1009
  9
$FILLMODE
 70
1
  9
$EXTMIN
 10
0.0000
 20
0.0000
 30
0.0000
  9
$EXTMAX
 10
128.5000
 20
20.0000
 30
0.0000
  0
ENDSEC
  0
SECTION
  2
TABLES
  0
TABLE
  2
LTYPE
 70
1
  0
LTYPE
  2
CONTINUOUS
 70
64
  3
Solid line
 72
65
 73
0
 40
0
  0
ENDTAB
  0
TABLE
  2
LAYER
 70
255
  0
LAYER
  2
1
 70
64
 62
22
  6
CONTINUOUS
  0
LAYER
  2
16
 70
64
 62
175
  6
CONTINUOUS
  0
LAYER
  2
17
 70
64
 62
82
  6
CONTINUOUS
  0
LAYER
  2
18
 70
64
 62
82
  6
CONTINUOUS
  0
LAYER
  2
19
 70
64
 62
53
  6
CONTINUOUS
  0
LAYER
  2
20
 70
64
 62
7
  6
CONTINUOUS
  0
LAYER
  2
21
 70
64
 62
253
  6
CONTINUOUS
  0
LAYER
  2
22
 70
64
 62
253
  6
CONTINUOUS
  0
LAYER
  2
23
 70
64
 62
7
  6
CONTINUOUS
  0
LAYER
  2
24
 70
64
 62
7
  6
CONTINUOUS
  0
LAYER
  2
25
 70
64
 62
253
  6
CONTINUOUS
  0
LAYER
  2
26
 70
64
 62
253
  6
CONTINUOUS
  0
LAYER
  2
27
 70
64
 62
253
  6
CONTINUOUS
  0
LAYER
  2
28
 70
64
 62
253
  6
CONTINUOUS
  0
LAYER
  2
29
 70
64
 62
253
  6
CONTINUOUS
  0
LAYER
  2
30
 70
64
 62
253
  6
CONTINUOUS
  0
LAYER
  2
31
 70
64
 62
253
  6
CONTINUOUS
  0
LAYER
  2
32
 70
64
 62
253
  6
CONTINUOUS
  0
LAYER
  2
33
 70
64
 62
53
  6
CONTINUOUS
  0
LAYER
  2
34
 70
64
 62
53
  6
CONTINUOUS
  0
LAYER
  2
35
 70
64
 62
253
  6
CONTINUOUS
  0
LAYER
  2
36
 70
64
 62
253
  6
CONTINUOUS
  0
LAYER
  2
37
 70
64
 62
253
  6
CONTINUOUS
  0
LAYER
  2
38
 70
64
 62
253
  6
CONTINUOUS
  0
LAYER
  2
39
 70
64
 62
22
  6
CONTINUOUS
  0
LAYER
  2
40
 70
64
 62
175
  6
CONTINUOUS
  0
LAYER
  2
41
 70
64
 62
22
  6
CONTINUOUS
  0
LAYER
  2
42
 70
64
 62
175
  6
CONTINUOUS
  0
LAYER
  2
43
 70
64
 62
82
  6
CONTINUOUS
  0
LAYER
  2
44
 70
64
 62
253
  6
CONTINUOUS
  0
LAYER
  2
45
 70
64
 62
253
  6
CONTINUOUS
  0
LAYER
  2
46
 70
64
 62
140
  6
CONTINUOUS
  0
LAYER
  2
47
 70
64
 62
253
  6
CONTINUOUS
  0
LAYER
  2
48
 70
64
 62
253
  6
CONTINUOUS
  0
LAYER
  2
49
 70
64
 62
253
  6
CONTINUOUS
  0
LAYER
  2
50
 70
64
 62
253
  6
CONTINUOUS
  0
LAYER
  2
51
 70
64
 62
253
  6
CONTINUOUS
  0
LAYER
  2
52
 70
64
 62
253
  6
CONTINUOUS
  0
LAYER
  2
56
 70
64
 62
253
  6
CONTINUOUS
  0
LAYER
  2
101
 70
64
 62
1
  6
CONTINUOUS
  0
LAYER
  2
102
 70
64
 62
253
  6
CONTINUOUS
  0
LAYER
  2
103
 70
64
 62
253
  6
CONTINUOUS
  0
LAYER
  2
104
 70
64
 62
253
  6
CONTINUOUS
  0
LAYER
  2
105
 70
64
 62
253
  6
CONTINUOUS
  0
LAYER
  2
106
 70
64
 62
253
  6
CONTINUOUS
  0
LAYER
  2
107
 70
64
 62
253
  6
CONTINUOUS
  0
LAYER
  2
116
 70
64
 62
5
  6
CONTINUOUS
  0
LAYER
  2
121
 70
64
 62
253
  6
CONTINUOUS
  0
LAYER
  2
122
 70
64
 62
253
  6
CONTINUOUS
  0
LAYER
  2
144
 70
64
 62
253
  6
CONTINUOUS
  0
LAYER
  2
151
 70
64
 62
253
  6
CONTINUOUS
  0
LAYER
  2
199
 70
64
 62
253
  6
CONTINUOUS
  0
LAYER
  2
200
 70
64
 62
175
  6
CONTINUOUS
  0
LAYER
  2
201
 70
64
 62
82
  6
CONTINUOUS
  0
LAYER
  2
202
 70
64
 62
140
  6
CONTINUOUS
  0
LAYER
  2
203
 70
64
 62
22
  6
CONTINUOUS
  0
LAYER
  2
204
 70
64
 62
213
  6
CONTINUOUS
  0
LAYER
  2
205
 70
64
 62
53
  6
CONTINUOUS
  0
LAYER
  2
206
 70
64
 62
253
  6
CONTINUOUS
  0
LAYER
  2
207
 70
64
 62
250
  6
CONTINUOUS
  0
LAYER
  2
208
 70
64
 62
5
  6
CONTINUOUS
  0
LAYER
  2
209
 70
64
 62
253
  6
CONTINUOUS
  0
LAYER
  2
210
 70
64
 62
253
  6
CONTINUOUS
  0
LAYER
  2
211
 70
64
 62
253
  6
CONTINUOUS
  0
LAYER
  2
212
 70
64
 62
253
  6
CONTINUOUS
  0
LAYER
  2
213
 70
64
 62
253
  6
CONTINUOUS
  0
LAYER
  2
214
 70
64
 62
253
  6
CONTINUOUS
  0
LAYER
  2
215
 70
64
 62
253
  6
CONTINUOUS
  0
LAYER
  2
216
 70
64
 62
253
  6
CONTINUOUS
  0
LAYER
  2
254
 70
64
 62
253
  6
CONTINUOUS
  0
ENDTAB
  0
ENDSEC
  0
SECTION
  2
BLOCKS
  0
BLOCK
  8
0
  2
RECT
 70
64
 10
0.0000
 20
0.0000
 30
0.0000
  3
RECT
  0
SOLID
  8
0
 10
-0.5000
 20
-0.5000
 30
0.0000
 11
0.5000
 21
-0.5000
 31
0.0000
 12
-0.5000
 22
0.5000
 32
0.0000
 13
0.5000
 23
0.5000
 33
0.0000
  0
ENDBLK
  8
0
  0
BLOCK
  8
0
  2
PIE
 70
64
 10
0.0000
 20
0.0000
 30
0.0000
  3
PIE
  0
POLYLINE
  8
0
 66
1
 10
0.0000
 20
0.0000
 30
0.0000
 40
0.5000
 41
0.5000
 70
0
  0
VERTEX
  8
0
 10
0.0000
 20
-0.2500
 30
0.0000
 42
1.0000
  0
VERTEX
  8
0
 10
0.0000
 20
0.2500
 30
0.0000
 42
1.0000
  0
VERTEX
  8
0
 10
0.0000
 20
-0.2500
 30
0.0000
  0
SEQEND
  8
0
  0
ENDBLK
  8
0
  0
BLOCK
  8
0
  2
OCTAGONP
 70
64
 10
0.0000
 20
0.0000
 30
0.0000
  3
OCTAGONP
  0
POLYLINE
  8
0
 66
1
 10
0.0000
 20
0.0000
 30
0.0000
 40
0.5000
 41
0.5000
 70
0
  0
VERTEX
  8
0
 10
-0.2500
 20
-0.1036
 30
0.0000
  0
VERTEX
  8
0
 10
-0.2500
 20
0.1036
 30
0.0000
  0
VERTEX
  8
0
 10
-0.1036
 20
0.2500
 30
0.0000
  0
VERTEX
  8
0
 10
0.1036
 20
0.2500
 30
0.0000
  0
VERTEX
  8
0
 10
0.2500
 20
0.1036
 30
0.0000
  0
VERTEX
  8
0
 10
0.2500
 20
-0.1036
 30
0.0000
  0
VERTEX
  8
0
 10
0.1036
 20
-0.2500
 30
0.0000
  0
VERTEX
  8
0
 10
-0.1036
 20
-0.2500
 30
0.0000
  0
VERTEX
  8
0
 10
-0.2500
 20
-0.1036
 30
0.0000
  0
VERTEX
  8
0
 10
-0.2500
 20
0.1036
 30
0.0000
  0
SEQEND
  8
0
  0
ENDBLK
  8
0
  0
BLOCK
  8
0
  2
SQUAREP
 70
64
 10
0.0000
 20
0.0000
 30
0.0000
  3
SQUAREP
  0
SOLID
  8
0
 10
-0.5000
 20
-0.5000
 30
0.0000
 11
0.5000
 21
-0.5000
 31
0.0000
 12
-0.5000
 22
0.5000
 32
0.0000
 13
0.5000
 23
0.5000
 33
0.0000
  0
ENDBLK
  8
0
  0
BLOCK
  8
0
  2
ROUNDP
 70
64
 10
0.0000
 20
0.0000
 30
0.0000
  3
ROUNDP
  0
POLYLINE
  8
0
 66
1
 10
0.0000
 20
0.0000
 30
0.0000
 40
0.5000
 41
0.5000
 70
0
  0
VERTEX
  8
0
 10
0.0000
 20
-0.2500
 30
0.0000
 42
1.0000
  0
VERTEX
  8
0
 10
0.0000
 20
0.2500
 30
0.0000
 42
1.0000
  0
VERTEX
  8
0
 10
0.0000
 20
-0.2500
 30
0.0000
  0
SEQEND
  8
0
  0
ENDBLK
  8
0
  0
BLOCK
  8
0
  2
ANNULUSP
 70
64
 10
0.0000
 20
0.0000
 30
0.0000
  3
ANNULUSP
  0
POLYLINE
  8
0
 66
1
 10
0.0000
 20
0.0000
 30
0.0000
 40
0.5000
 41
0.5000
 70
0
  0
VERTEX
  8
0
 10
0.0000
 20
-0.2500
 30
0.0000
 42
1.0000
  0
VERTEX
  8
0
 10
0.0000
 20
0.2500
 30
0.0000
 42
1.0000
  0
VERTEX
  8
0
 10
0.0000
 20
-0.2500
 30
0.0000
  0
SEQEND
  8
0
  0
ENDBLK
  8
0
  0
BLOCK
  8
0
  2
THERMALP
 70
64
 10
0.0000
 20
0.0000
 30
0.0000
  3
THERMALP
  0
POLYLINE
  8
0
 66
1
 10
0.0000
 20
0.0000
 30
0.0000
 40
0.1000
 41
0.1000
 70
0
  0
VERTEX
  8
0
 10
-0.2379
 20
0.4500
 30
0.0000
  0
VERTEX
  8
0
 10
0.2379
 20
0.4500
 30
0.0000
  0
SEQEND
  8
0
  0
POLYLINE
  8
0
 66
1
 10
0.0000
 20
0.0000
 30
0.0000
 40
0.0500
 41
0.0500
 70
0
  0
VERTEX
  8
0
 10
0.2379
 20
0.4250
 30
0.0000
 42
1.0000
  0
VERTEX
  8
0
 10
0.2379
 20
0.4750
 30
0.0000
  0
SEQEND
  8
0
  0
POLYLINE
  8
0
 66
1
 10
0.0000
 20
0.0000
 30
0.0000
 40
0.0500
 41
0.0500
 70
0
  0
VERTEX
  8
0
 10
-0.2379
 20
0.4750
 30
0.0000
 42
1.0000
  0
VERTEX
  8
0
 10
-0.2379
 20
0.4250
 30
0.0000
  0
SEQEND
  8
0
  0
POLYLINE
  8
0
 66
1
 10
0.0000
 20
0.0000
 30
0.0000
 40
0.1000
 41
0.1000
 70
0
  0
VERTEX
  8
0
 10
0.4500
 20
0.2379
 30
0.0000
  0
VERTEX
  8
0
 10
0.4500
 20
-0.2379
 30
0.0000
  0
SEQEND
  8
0
  0
POLYLINE
  8
0
 66
1
 10
0.0000
 20
0.0000
 30
0.0000
 40
0.0500
 41
0.0500
 70
0
  0
VERTEX
  8
0
 10
0.4250
 20
-0.2379
 30
0.0000
 42
1.0000
  0
VERTEX
  8
0
 10
0.4750
 20
-0.2379
 30
0.0000
  0
SEQEND
  8
0
  0
POLYLINE
  8
0
 66
1
 10
0.0000
 20
0.0000
 30
0.0000
 40
0.0500
 41
0.0500
 70
0
  0
VERTEX
  8
0
 10
0.4750
 20
0.2379
 30
0.0000
 42
1.0000
  0
VERTEX
  8
0
 10
0.4250
 20
0.2379
 30
0.0000
  0
SEQEND
  8
0
  0
POLYLINE
  8
0
 66
1
 10
0.0000
 20
0.0000
 30
0.0000
 40
0.1000
 41
0.1000
 70
0
  0
VERTEX
  8
0
 10
0.2379
 20
-0.4500
 30
0.0000
  0
VERTEX
  8
0
 10
-0.2379
 20
-0.4500
 30
0.0000
  0
SEQEND
  8
0
  0
POLYLINE
  8
0
 66
1
 10
0.0000
 20
0.0000
 30
0.0000
 40
0.0500
 41
0.0500
 70
0
  0
VERTEX
  8
0
 10
-0.2379
 20
-0.4250
 30
0.0000
 42
1.0000
  0
VERTEX
  8
0
 10
-0.2379
 20
-0.4750
 30
0.0000
  0
SEQEND
  8
0
  0
POLYLINE
  8
0
 66
1
 10
0.0000
 20
0.0000
 30
0.0000
 40
0.0500
 41
0.0500
 70
0
  0
VERTEX
  8
0
 10
0.2379
 20
-0.4750
 30
0.0000
 42
1.0000
  0
VERTEX
  8
0
 10
0.2379
 20
-0.4250
 30
0.0000
  0
SEQEND
  8
0
  0
POLYLINE
  8
0
 66
1
 10
0.0000
 20
0.0000
 30
0.0000
 40
0.1000
 41
0.1000
 70
0
  0
VERTEX
  8
0
 10
-0.4500
 20
-0.2379
 30
0.0000
  0
VERTEX
  8
0
 10
-0.4500
 20
0.2379
 30
0.0000
  0
SEQEND
  8
0
  0
POLYLINE
  8
0
 66
1
 10
0.0000
 20
0.0000
 30
0.0000
 40
0.0500
 41
0.0500
 70
0
  0
VERTEX
  8
0
 10
-0.4250
 20
0.2379
 30
0.0000
 42
1.0000
  0
VERTEX
  8
0
 10
-0.4750
 20
0.2379
 30
0.0000
  0
SEQEND
  8
0
  0
POLYLINE
  8
0
 66
1
 10
0.0000
 20
0.0000
 30
0.0000
 40
0.0500
 41
0.0500
 70
0
  0
VERTEX
  8
0
 10
-0.4750
 20
-0.2379
 30
0.0000
 42
1.0000
  0
VERTEX
  8
0
 10
-0.4250
 20
-0.2379
 30
0.0000
  0
SEQEND
  8
0
  0
ENDBLK
  8
0
  0
BLOCK
  8
0
  2
OCTAGONV
 70
64
 10
0.0000
 20
0.0000
 30
0.0000
  3
OCTAGONV
  0
POLYLINE
  8
0
 66
1
 10
0.0000
 20
0.0000
 30
0.0000
 40
0.5000
 41
0.5000
 70
0
  0
VERTEX
  8
0
 10
-0.2500
 20
-0.1036
 30
0.0000
  0
VERTEX
  8
0
 10
-0.2500
 20
0.1036
 30
0.0000
  0
VERTEX
  8
0
 10
-0.1036
 20
0.2500
 30
0.0000
  0
VERTEX
  8
0
 10
0.1036
 20
0.2500
 30
0.0000
  0
VERTEX
  8
0
 10
0.2500
 20
0.1036
 30
0.0000
  0
VERTEX
  8
0
 10
0.2500
 20
-0.1036
 30
0.0000
  0
VERTEX
  8
0
 10
0.1036
 20
-0.2500
 30
0.0000
  0
VERTEX
  8
0
 10
-0.1036
 20
-0.2500
 30
0.0000
  0
VERTEX
  8
0
 10
-0.2500
 20
-0.1036
 30
0.0000
  0
VERTEX
  8
0
 10
-0.2500
 20
0.1036
 30
0.0000
  0
SEQEND
  8
0
  0
ENDBLK
  8
0
  0
BLOCK
  8
0
  2
SQUAREV
 70
64
 10
0.0000
 20
0.0000
 30
0.0000
  3
SQUAREV
  0
SOLID
  8
0
 10
-0.5000
 20
-0.5000
 30
0.0000
 11
0.5000
 21
-0.5000
 31
0.0000
 12
-0.5000
 22
0.5000
 32
0.0000
 13
0.5000
 23
0.5000
 33
0.0000
  0
ENDBLK
  8
0
  0
BLOCK
  8
0
  2
ROUNDV
 70
64
 10
0.0000
 20
0.0000
 30
0.0000
  3
ROUNDV
  0
POLYLINE
  8
0
 66
1
 10
0.0000
 20
0.0000
 30
0.0000
 40
0.5000
 41
0.5000
 70
0
  0
VERTEX
  8
0
 10
0.0000
 20
-0.2500
 30
0.0000
 42
1.0000
  0
VERTEX
  8
0
 10
0.0000
 20
0.2500
 30
0.0000
 42
1.0000
  0
VERTEX
  8
0
 10
0.0000
 20
-0.2500
 30
0.0000
  0
SEQEND
  8
0
  0
ENDBLK
  8
0
  0
BLOCK
  8
0
  2
ANNULUSV
 70
64
 10
0.0000
 20
0.0000
 30
0.0000
  3
ANNULUSV
  0
POLYLINE
  8
0
 66
1
 10
0.0000
 20
0.0000
 30
0.0000
 40
0.5000
 41
0.5000
 70
0
  0
VERTEX
  8
0
 10
0.0000
 20
-0.2500
 30
0.0000
 42
1.0000
  0
VERTEX
  8
0
 10
0.0000
 20
0.2500
 30
0.0000
 42
1.0000
  0
VERTEX
  8
0
 10
0.0000
 20
-0.2500
 30
0.0000
  0
SEQEND
  8
0
  0
ENDBLK
  8
0
  0
BLOCK
  8
0
  2
THERMALV
 70
64
 10
0.0000
 20
0.0000
 30
0.0000
  3
THERMALV
  0
POLYLINE
  8
0
 66
1
 10
0.0000
 20
0.0000
 30
0.0000
 40
0.1000
 41
0.1000
 70
0
  0
VERTEX
  8
0
 10
-0.2379
 20
0.4500
 30
0.0000
  0
VERTEX
  8
0
 10
0.2379
 20
0.4500
 30
0.0000
  0
SEQEND
  8
0
  0
POLYLINE
  8
0
 66
1
 10
0.0000
 20
0.0000
 30
0.0000
 40
0.0500
 41
0.0500
 70
0
  0
VERTEX
  8
0
 10
0.2379
 20
0.4250
 30
0.0000
 42
1.0000
  0
VERTEX
  8
0
 10
0.2379
 20
0.4750
 30
0.0000
  0
SEQEND
  8
0
  0
POLYLINE
  8
0
 66
1
 10
0.0000
 20
0.0000
 30
0.0000
 40
0.0500
 41
0.0500
 70
0
  0
VERTEX
  8
0
 10
-0.2379
 20
0.4750
 30
0.0000
 42
1.0000
  0
VERTEX
  8
0
 10
-0.2379
 20
0.4250
 30
0.0000
  0
SEQEND
  8
0
  0
POLYLINE
  8
0
 66
1
 10
0.0000
 20
0.0000
 30
0.0000
 40
0.1000
 41
0.1000
 70
0
  0
VERTEX
  8
0
 10
0.4500
 20
0.2379
 30
0.0000
  0
VERTEX
  8
0
 10
0.4500
 20
-0.2379
 30
0.0000
  0
SEQEND
  8
0
  0
POLYLINE
  8
0
 66
1
 10
0.0000
 20
0.0000
 30
0.0000
 40
0.0500
 41
0.0500
 70
0
  0
VERTEX
  8
0
 10
0.4250
 20
-0.2379
 30
0.0000
 42
1.0000
  0
VERTEX
  8
0
 10
0.4750
 20
-0.2379
 30
0.0000
  0
SEQEND
  8
0
  0
POLYLINE
  8
0
 66
1
 10
0.0000
 20
0.0000
 30
0.0000
 40
0.0500
 41
0.0500
 70
0
  0
VERTEX
  8
0
 10
0.4750
 20
0.2379
 30
0.0000
 42
1.0000
  0
VERTEX
  8
0
 10
0.4250
 20
0.2379
 30
0.0000
  0
SEQEND
  8
0
  0
POLYLINE
  8
0
 66
1
 10
0.0000
 20
0.0000
 30
0.0000
 40
0.1000
 41
0.1000
 70
0
  0
VERTEX
  8
0
 10
0.2379
 20
-0.4500
 30
0.0000
  0
VERTEX
  8
0
 10
-0.2379
 20
-0.4500
 30
0.0000
  0
SEQEND
  8
0
  0
POLYLINE
  8
0
 66
1
 10
0.0000
 20
0.0000
 30
0.0000
 40
0.0500
 41
0.0500
 70
0
  0
VERTEX
  8
0
 10
-0.2379
 20
-0.4250
 30
0.0000
 42
1.0000
  0
VERTEX
  8
0
 10
-0.2379
 20
-0.4750
 30
0.0000
  0
SEQEND
  8
0
  0
POLYLINE
  8
0
 66
1
 10
0.0000
 20
0.0000
 30
0.0000
 40
0.0500
 41
0.0500
 70
0
  0
VERTEX
  8
0
 10
0.2379
 20
-0.4750
 30
0.0000
 42
1.0000
  0
VERTEX
  8
0
 10
0.2379
 20
-0.4250
 30
0.0000
  0
SEQEND
  8
0
  0
POLYLINE
  8
0
 66
1
 10
0.0000
 20
0.0000
 30
0.0000
 40
0.1000
 41
0.1000
 70
0
  0
VERTEX
  8
0
 10
-0.4500
 20
-0.2379
 30
0.0000
  0
VERTEX
  8
0
 10
-0.4500
 20
0.2379
 30
0.0000
  0
SEQEND
  8
0
  0
POLYLINE
  8
0
 66
1
 10
0.0000
 20
0.0000
 30
0.0000
 40
0.0500
 41
0.0500
 70
0
  0
VERTEX
  8
0
 10
-0.4250
 20
0.2379
 30
0.0000
 42
1.0000
  0
VERTEX
  8
0
 10
-0.4750
 20
0.2379
 30
0.0000
  0
SEQEND
  8
0
  0
POLYLINE
  8
0
 66
1
 10
0.0000
 20
0.0000
 30
0.0000
 40
0.0500
 41
0.0500
 70
0
  0
VERTEX
  8
0
 10
-0.4750
 20
-0.2379
 30
0.0000
 42
1.0000
  0
VERTEX
  8
0
 10
-0.4250
 20
-0.2379
 30
0.0000
  0
SEQEND
  8
0
  0
ENDBLK
  8
0
  0
ENDSEC
  0
SECTION
  2
ENTITIES
  0
LINE
  8
20
 10
0.0000
 20
20.0000
 30
0.0000
 11
0.0000
 21
0.0000
 31
0.0000
  0
LINE
  8
20
 10
0.0000
 20
0.0000
 30
0.0000
 11
128.5000
 21
0.0000
 31
0.0000
  0
LINE
  8
20
 10
128.5000
 20
0.0000
 30
0.0000
 11
128.5000
 21
20.0000
 31
0.0000
  0
LINE
  8
20
 10
128.5000
 20
20.0000
 30
0.0000
 11
0.0000
 21
20.0000
 31
0.0000
  0
CIRCLE
  8
20
 10
31.6380
 20
10.0330
 30
0.0000
 40
7.4930
  0
POLYLINE
  8
29
 66
1
 10
0.0000
 20
0.0000
 30
0.0000
 40
7.5692
 41
7.5692
 70
0
  0
VERTEX
  8
29
 10
31.6380
 20
6.2484
 30
0.0000
 42
1.0000
  0
VERTEX
  8
29
 10
31.6380
 20
13.8176
 30
0.0000
 42
1.0000
  0
VERTEX
  8
29
 10
31.6380
 20
6.2484
 30
0.0000
  0
SEQEND
  8
0
  0
POLYLINE
  8
30
 66
1
 10
0.0000
 20
0.0000
 30
0.0000
 40
7.5692
 41
7.5692
 70
0
  0
VERTEX
  8
30
 10
31.6380
 20
6.2484
 30
0.0000
 42
1.0000
  0
VERTEX
  8
30
 10
31.6380
 20
13.8176
 30
0.0000
 42
1.0000
  0
VERTEX
  8
30
 10
31.6380
 20
6.2484
 30
0.0000
  0
SEQEND
  8
0
  0
CIRCLE
  8
20
 10
59.3860
 20
10.0330
 30
0.0000
 40
7.4930
  0
POLYLINE
  8
29
 66
1
 10
0.0000
 20
0.0000
 30
0.0000
 40
7.5692
 41
7.5692
 70
0
  0
VERTEX
  8
29
 10
59.3860
 20
6.2484
 30
0.0000
 42
1.0000
  0
VERTEX
  8
29
 10
59.3860
 20
13.8176
 30
0.0000
 42
1.0000
  0
VERTEX
  8
29
 10
59.3860
 20
6.2484
 30
0.0000
  0
SEQEND
  8
0
  0
POLYLINE
  8
30
 66
1
 10
0.0000
 20
0.0000
 30
0.0000
 40
7.5692
 41
7.5692
 70
0
  0
VERTEX
  8
30
 10
59.3860
 20
6.2484
 30
0.0000
 42
1.0000
  0
VERTEX
  8
30
 10
59.3860
 20
13.8176
 30
0.0000
 42
1.0000
  0
VERTEX
  8
30
 10
59.3860
 20
6.2484
 30
0.0000
  0
SEQEND
  8
0
  0
CIRCLE
  8
20
 10
87.3300
 20
9.8330
 30
0.0000
 40
7.4930
  0
POLYLINE
  8
29
 66
1
 10
0.0000
 20
0.0000
 30
0.0000
 40
7.5692
 41
7.5692
 70
0
  0
VERTEX
  8
29
 10
87.3300
 20
6.0484
 30
0.0000
 42
1.0000
  0
VERTEX
  8
29
 10
87.3300
 20
13.6176
 30
0.0000
 42
1.0000
  0
VERTEX
  8
29
 10
87.3300
 20
6.0484
 30
0.0000
  0
SEQEND
  8
0
  0
POLYLINE
  8
30
 66
1
 10
0.0000
 20
0.0000
 30
0.0000
 40
7.5692
 41
7.5692
 70
0
  0
VERTEX
  8
30
 10
87.3300
 20
6.0484
 30
0.0000
 42
1.0000
  0
VERTEX
  8
30
 10
87.3300
 20
13.6176
 30
0.0000
 42
1.0000
  0
VERTEX
  8
30
 10
87.3300
 20
6.0484
 30
0.0000
  0
SEQEND
  8
0
  0
CIRCLE
  8
20
 10
102.8000
 20
12.0000
 30
0.0000
 40
1.6000
  0
POLYLINE
  8
29
 66
1
 10
0.0000
 20
0.0000
 30
0.0000
 40
1.6762
 41
1.6762
 70
0
  0
VERTEX
  8
29
 10
102.8000
 20
11.1619
 30
0.0000
 42
1.0000
  0
VERTEX
  8
29
 10
102.8000
 20
12.8381
 30
0.0000
 42
1.0000
  0
VERTEX
  8
29
 10
102.8000
 20
11.1619
 30
0.0000
  0
SEQEND
  8
0
  0
POLYLINE
  8
30
 66
1
 10
0.0000
 20
0.0000
 30
0.0000
 40
1.6762
 41
1.6762
 70
0
  0
VERTEX
  8
30
 10
102.8000
 20
11.1619
 30
0.0000
 42
1.0000
  0
VERTEX
  8
30
 10
102.8000
 20
12.8381
 30
0.0000
 42
1.0000
  0
VERTEX
  8
30
 10
102.8000
 20
11.1619
 30
0.0000
  0
SEQEND
  8
0
  0
CIRCLE
  8
20
 10
73.3000
 20
12.1000
 30
0.0000
 40
1.6000
  0
POLYLINE
  8
29
 66
1
 10
0.0000
 20
0.0000
 30
0.0000
 40
1.6762
 41
1.6762
 70
0
  0
VERTEX
  8
29
 10
73.3000
 20
11.2619
 30
0.0000
 42
1.0000
  0
VERTEX
  8
29
 10
73.3000
 20
12.9381
 30
0.0000
 42
1.0000
  0
VERTEX
  8
29
 10
73.3000
 20
11.2619
 30
0.0000
  0
SEQEND
  8
0
  0
POLYLINE
  8
30
 66
1
 10
0.0000
 20
0.0000
 30
0.0000
 40
1.6762
 41
1.6762
 70
0
  0
VERTEX
  8
30
 10
73.3000
 20
11.2619
 30
0.0000
 42
1.0000
  0
VERTEX
  8
30
 10
73.3000
 20
12.9381
 30
0.0000
 42
1.0000
  0
VERTEX
  8
30
 10
73.3000
 20
11.2619
 30
0.0000
  0
SEQEND
  8
0
  0
CIRCLE
  8
20
 10
73.2000
 20
12.1000
 30
0.0000
 40
1.6000
  0
POLYLINE
  8
29
 66
1
 10
0.0000
 20
0.0000
 30
0.0000
 40
1.6762
 41
1.6762
 70
0
  0
VERTEX
  8
29
 10
73.2000
 20
11.2619
 30
0.0000
 42
1.0000
  0
VERTEX
  8
29
 10
73.2000
 20
12.9381
 30
0.0000
 42
1.0000
  0
VERTEX
  8
29
 10
73.2000
 20
11.2619
 30
0.0000
  0
SEQEND
  8
0
  0
POLYLINE
  8
30
 66
1
 10
0.0000
 20
0.0000
 30
0.0000
 40
1.6762
 41
1.6762
 70
0
  0
VERTEX
  8
30
 10
73.2000
 20
11.2619
 30
0.0000
 42
1.0000
  0
VERTEX
  8
30
 10
73.2000
 20
12.9381
 30
0.0000
 42
1.0000
  0
VERTEX
  8
30
 10
73.2000
 20
11.2619
 30
0.0000
  0
SEQEND
  8
0
  0
CIRCLE
  8
20
 10
45.5000
 20
11.9000
 30
0.0000
 40
1.6000
  0
POLYLINE
  8
29
 66
1
 10
0.0000
 20
0.0000
 30
0.0000
 40
1.6762
 41
1.6762
 70
0
  0
VERTEX
  8
29
 10
45.5000
 20
11.0619
 30
0.0000
 42
1.0000
  0
VERTEX
  8
29
 10
45.5000
 20
12.7381
 30
0.0000
 42
1.0000
  0
VERTEX
  8
29
 10
45.5000
 20
11.0619
 30
0.0000
  0
SEQEND
  8
0
  0
POLYLINE
  8
30
 66
1
 10
0.0000
 20
0.0000
 30
0.0000
 40
1.6762
 41
1.6762
 70
0
  0
VERTEX
  8
30
 10
45.5000
 20
11.0619
 30
0.0000
 42
1.0000
  0
VERTEX
  8
30
 10
45.5000
 20
12.7381
 30
0.0000
 42
1.0000
  0
VERTEX
  8
30
 10
45.5000
 20
11.0619
 30
0.0000
  0
SEQEND
  8
0
  0
CIRCLE
  8
20
 10
17.2000
 20
12.1000
 30
0.0000
 40
1.6000
  0
POLYLINE
  8
29
 66
1
 10
0.0000
 20
0.0000
 30
0.0000
 40
1.6762
 41
1.6762
 70
0
  0
VERTEX
  8
29
 10
17.2000
 20
11.2619
 30
0.0000
 42
1.0000
  0
VERTEX
  8
29
 10
17.2000
 20
12.9381
 30
0.0000
 42
1.0000
  0
VERTEX
  8
29
 10
17.2000
 20
11.2619
 30
0.0000
  0
SEQEND
  8
0
  0
POLYLINE
  8
30
 66
1
 10
0.0000
 20
0.0000
 30
0.0000
 40
1.6762
 41
1.6762
 70
0
  0
VERTEX
  8
30
 10
17.2000
 20
11.2619
 30
0.0000
 42
1.0000
  0
VERTEX
  8
30
 10
17.2000
 20
12.9381
 30
0.0000
 42
1.0000
  0
VERTEX
  8
30
 10
17.2000
 20
11.2619
 30
0.0000
  0
SEQEND
  8
0
  0
CIRCLE
  8
20
 10
110.5000
 20
12.1000
 30
0.0000
 40
1.6000
  0
POLYLINE
  8
29
 66
1
 10
0.0000
 20
0.0000
 30
0.0000
 40
1.6762
 41
1.6762
 70
0
  0
VERTEX
  8
29
 10
110.5000
 20
11.2619
 30
0.0000
 42
1.0000
  0
VERTEX
  8
29
 10
110.5000
 20
12.9381
 30
0.0000
 42
1.0000
  0
VERTEX
  8
29
 10
110.5000
 20
11.2619
 30
0.0000
  0
SEQEND
  8
0
  0
POLYLINE
  8
30
 66
1
 10
0.0000
 20
0.0000
 30
0.0000
 40
1.6762
 41
1.6762
 70
0
  0
VERTEX
  8
30
 10
110.5000
 20
11.2619
 30
0.0000
 42
1.0000
  0
VERTEX
  8
30
 10
110.5000
 20
12.9381
 30
0.0000
 42
1.0000
  0
VERTEX
  8
30
 10
110.5000
 20
11.2619
 30
0.0000
  0
SEQEND
  8
0
  0
CIRCLE
  8
20
 10
3.0000
 20
12.5000
 30
0.0000
 40
1.9000
  0
POLYLINE
  8
29
 66
1
 10
0.0000
 20
0.0000
 30
0.0000
 40
1.9762
 41
1.9762
 70
0
  0
VERTEX
  8
29
 10
3.0000
 20
11.5119
 30
0.0000
 42
1.0000
  0
VERTEX
  8
29
 10
3.0000
 20
13.4881
 30
0.0000
 42
1.0000
  0
VERTEX
  8
29
 10
3.0000
 20
11.5119
 30
0.0000
  0
SEQEND
  8
0
  0
POLYLINE
  8
30
 66
1
 10
0.0000
 20
0.0000
 30
0.0000
 40
1.9762
 41
1.9762
 70
0
  0
VERTEX
  8
30
 10
3.0000
 20
11.5119
 30
0.0000
 42
1.0000
  0
VERTEX
  8
30
 10
3.0000
 20
13.4881
 30
0.0000
 42
1.0000
  0
VERTEX
  8
30
 10
3.0000
 20
11.5119
 30
0.0000
  0
SEQEND
  8
0
  0
CIRCLE
  8
20
 10
125.5000
 20
12.5000
 30
0.0000
 40
1.9000
  0
POLYLINE
  8
29
 66
1
 10
0.0000
 20
0.0000
 30
0.0000
 40
1.9762
 41
1.9762
 70
0
  0
VERTEX
  8
29
 10
125.5000
 20
11.5119
 30
0.0000
 42
1.0000
  0
VERTEX
  8
29
 10
125.5000
 20
13.4881
 30
0.0000
 42
1.0000
  0
VERTEX
  8
29
 10
125.5000
 20
11.5119
 30
0.0000
  0
SEQEND
  8
0
  0
POLYLINE
  8
30
 66
1
 10
0.0000
 20
0.0000
 30
0.0000
 40
1.9762
 41
1.9762
 70
0
  0
VERTEX
  8
30
 10
125.5000
 20
11.5119
 30
0.0000
 42
1.0000
  0
VERTEX
  8
30
 10
125.5000
 20
13.4881
 30
0.0000
 42
1.0000
  0
VERTEX
  8
30
 10
125.5000
 20
11.5119
 30
0.0000
  0
SEQEND
  8
0
  0
ENDSEC
  0
EOF
