  0
SECTION
  2
HEADER
  9
$ACADVER
  1
AC1009
  9
$FILLMODE
 70
1
  9
$EXTMIN
 10
0.0000
 20
-0.0480
 30
0.0000
  9
$EXTMAX
 10
90.9000
 20
128.4520
 30
0.0000
  0
ENDSEC
  0
SECTION
  2
TABLES
  0
TABLE
  2
LTYPE
 70
1
  0
LTYPE
  2
CONTINUOUS
 70
64
  3
Solid line
 72
65
 73
0
 40
0
  0
ENDTAB
  0
TABLE
  2
LAYER
 70
255
  0
LAYER
  2
1
 70
64
 62
22
  6
CONTINUOUS
  0
LAYER
  2
16
 70
64
 62
175
  6
CONTINUOUS
  0
LAYER
  2
17
 70
64
 62
82
  6
CONTINUOUS
  0
LAYER
  2
18
 70
64
 62
82
  6
CONTINUOUS
  0
LAYER
  2
19
 70
64
 62
53
  6
CONTINUOUS
  0
LAYER
  2
20
 70
64
 62
7
  6
CONTINUOUS
  0
LAYER
  2
21
 70
64
 62
253
  6
CONTINUOUS
  0
LAYER
  2
22
 70
64
 62
253
  6
CONTINUOUS
  0
LAYER
  2
23
 70
64
 62
7
  6
CONTINUOUS
  0
LAYER
  2
24
 70
64
 62
7
  6
CONTINUOUS
  0
LAYER
  2
25
 70
64
 62
253
  6
CONTINUOUS
  0
LAYER
  2
26
 70
64
 62
253
  6
CONTINUOUS
  0
LAYER
  2
27
 70
64
 62
253
  6
CONTINUOUS
  0
LAYER
  2
28
 70
64
 62
253
  6
CONTINUOUS
  0
LAYER
  2
29
 70
64
 62
253
  6
CONTINUOUS
  0
LAYER
  2
30
 70
64
 62
253
  6
CONTINUOUS
  0
LAYER
  2
31
 70
64
 62
253
  6
CONTINUOUS
  0
LAYER
  2
32
 70
64
 62
253
  6
CONTINUOUS
  0
LAYER
  2
33
 70
64
 62
53
  6
CONTINUOUS
  0
LAYER
  2
34
 70
64
 62
53
  6
CONTINUOUS
  0
LAYER
  2
35
 70
64
 62
253
  6
CONTINUOUS
  0
LAYER
  2
36
 70
64
 62
253
  6
CONTINUOUS
  0
LAYER
  2
37
 70
64
 62
253
  6
CONTINUOUS
  0
LAYER
  2
38
 70
64
 62
253
  6
CONTINUOUS
  0
LAYER
  2
39
 70
64
 62
22
  6
CONTINUOUS
  0
LAYER
  2
40
 70
64
 62
175
  6
CONTINUOUS
  0
LAYER
  2
41
 70
64
 62
22
  6
CONTINUOUS
  0
LAYER
  2
42
 70
64
 62
175
  6
CONTINUOUS
  0
LAYER
  2
43
 70
64
 62
82
  6
CONTINUOUS
  0
LAYER
  2
44
 70
64
 62
253
  6
CONTINUOUS
  0
LAYER
  2
45
 70
64
 62
253
  6
CONTINUOUS
  0
LAYER
  2
46
 70
64
 62
140
  6
CONTINUOUS
  0
LAYER
  2
47
 70
64
 62
253
  6
CONTINUOUS
  0
LAYER
  2
48
 70
64
 62
253
  6
CONTINUOUS
  0
LAYER
  2
49
 70
64
 62
253
  6
CONTINUOUS
  0
LAYER
  2
51
 70
64
 62
253
  6
CONTINUOUS
  0
LAYER
  2
52
 70
64
 62
253
  6
CONTINUOUS
  0
LAYER
  2
90
 70
64
 62
213
  6
CONTINUOUS
  0
LAYER
  2
100
 70
64
 62
253
  6
CONTINUOUS
  0
LAYER
  2
101
 70
64
 62
253
  6
CONTINUOUS
  0
LAYER
  2
102
 70
64
 62
253
  6
CONTINUOUS
  0
LAYER
  2
103
 70
64
 62
253
  6
CONTINUOUS
  0
LAYER
  2
104
 70
64
 62
253
  6
CONTINUOUS
  0
LAYER
  2
105
 70
64
 62
253
  6
CONTINUOUS
  0
LAYER
  2
106
 70
64
 62
253
  6
CONTINUOUS
  0
LAYER
  2
107
 70
64
 62
253
  6
CONTINUOUS
  0
LAYER
  2
108
 70
64
 62
253
  6
CONTINUOUS
  0
LAYER
  2
109
 70
64
 62
253
  6
CONTINUOUS
  0
LAYER
  2
110
 70
64
 62
253
  6
CONTINUOUS
  0
LAYER
  2
111
 70
64
 62
253
  6
CONTINUOUS
  0
LAYER
  2
112
 70
64
 62
253
  6
CONTINUOUS
  0
LAYER
  2
113
 70
64
 62
22
  6
CONTINUOUS
  0
LAYER
  2
114
 70
64
 62
253
  6
CONTINUOUS
  0
LAYER
  2
115
 70
64
 62
253
  6
CONTINUOUS
  0
LAYER
  2
116
 70
64
 62
253
  6
CONTINUOUS
  0
LAYER
  2
118
 70
64
 62
253
  6
CONTINUOUS
  0
LAYER
  2
121
 70
64
 62
253
  6
CONTINUOUS
  0
LAYER
  2
122
 70
64
 62
253
  6
CONTINUOUS
  0
LAYER
  2
123
 70
64
 62
253
  6
CONTINUOUS
  0
LAYER
  2
124
 70
64
 62
253
  6
CONTINUOUS
  0
LAYER
  2
125
 70
64
 62
253
  6
CONTINUOUS
  0
LAYER
  2
126
 70
64
 62
253
  6
CONTINUOUS
  0
LAYER
  2
127
 70
64
 62
253
  6
CONTINUOUS
  0
LAYER
  2
128
 70
64
 62
253
  6
CONTINUOUS
  0
LAYER
  2
129
 70
64
 62
253
  6
CONTINUOUS
  0
LAYER
  2
131
 70
64
 62
253
  6
CONTINUOUS
  0
LAYER
  2
132
 70
64
 62
253
  6
CONTINUOUS
  0
LAYER
  2
136
 70
64
 62
253
  6
CONTINUOUS
  0
LAYER
  2
137
 70
64
 62
253
  6
CONTINUOUS
  0
LAYER
  2
144
 70
64
 62
253
  6
CONTINUOUS
  0
LAYER
  2
145
 70
64
 62
253
  6
CONTINUOUS
  0
LAYER
  2
146
 70
64
 62
253
  6
CONTINUOUS
  0
LAYER
  2
147
 70
64
 62
253
  6
CONTINUOUS
  0
LAYER
  2
148
 70
64
 62
253
  6
CONTINUOUS
  0
LAYER
  2
149
 70
64
 62
253
  6
CONTINUOUS
  0
LAYER
  2
150
 70
64
 62
253
  6
CONTINUOUS
  0
LAYER
  2
151
 70
64
 62
253
  6
CONTINUOUS
  0
LAYER
  2
152
 70
64
 62
253
  6
CONTINUOUS
  0
LAYER
  2
153
 70
64
 62
253
  6
CONTINUOUS
  0
LAYER
  2
154
 70
64
 62
253
  6
CONTINUOUS
  0
LAYER
  2
155
 70
64
 62
253
  6
CONTINUOUS
  0
LAYER
  2
199
 70
64
 62
253
  6
CONTINUOUS
  0
LAYER
  2
200
 70
64
 62
3
  6
CONTINUOUS
  0
LAYER
  2
201
 70
64
 62
7
  6
CONTINUOUS
  0
LAYER
  2
202
 70
64
 62
253
  6
CONTINUOUS
  0
LAYER
  2
203
 70
64
 62
22
  6
CONTINUOUS
  0
LAYER
  2
204
 70
64
 62
213
  6
CONTINUOUS
  0
LAYER
  2
205
 70
64
 62
53
  6
CONTINUOUS
  0
LAYER
  2
206
 70
64
 62
253
  6
CONTINUOUS
  0
LAYER
  2
207
 70
64
 62
250
  6
CONTINUOUS
  0
LAYER
  2
208
 70
64
 62
5
  6
CONTINUOUS
  0
LAYER
  2
225
 70
64
 62
253
  6
CONTINUOUS
  0
LAYER
  2
226
 70
64
 62
253
  6
CONTINUOUS
  0
LAYER
  2
227
 70
64
 62
253
  6
CONTINUOUS
  0
LAYER
  2
228
 70
64
 62
253
  6
CONTINUOUS
  0
LAYER
  2
229
 70
64
 62
253
  6
CONTINUOUS
  0
LAYER
  2
230
 70
64
 62
253
  6
CONTINUOUS
  0
LAYER
  2
231
 70
64
 62
253
  6
CONTINUOUS
  0
LAYER
  2
248
 70
64
 62
253
  6
CONTINUOUS
  0
LAYER
  2
249
 70
64
 62
253
  6
CONTINUOUS
  0
LAYER
  2
250
 70
64
 62
253
  6
CONTINUOUS
  0
LAYER
  2
251
 70
64
 62
253
  6
CONTINUOUS
  0
LAYER
  2
254
 70
64
 62
253
  6
CONTINUOUS
  0
LAYER
  2
255
 70
64
 62
253
  6
CONTINUOUS
  0
ENDTAB
  0
ENDSEC
  0
SECTION
  2
BLOCKS
  0
BLOCK
  8
0
  2
RECT
 70
64
 10
0.0000
 20
0.0000
 30
0.0000
  3
RECT
  0
SOLID
  8
0
 10
-0.5000
 20
-0.5000
 30
0.0000
 11
0.5000
 21
-0.5000
 31
0.0000
 12
-0.5000
 22
0.5000
 32
0.0000
 13
0.5000
 23
0.5000
 33
0.0000
  0
ENDBLK
  8
0
  0
BLOCK
  8
0
  2
PIE
 70
64
 10
0.0000
 20
0.0000
 30
0.0000
  3
PIE
  0
POLYLINE
  8
0
 66
1
 10
0.0000
 20
0.0000
 30
0.0000
 40
0.5000
 41
0.5000
 70
0
  0
VERTEX
  8
0
 10
0.0000
 20
-0.2500
 30
0.0000
 42
1.0000
  0
VERTEX
  8
0
 10
0.0000
 20
0.2500
 30
0.0000
 42
1.0000
  0
VERTEX
  8
0
 10
0.0000
 20
-0.2500
 30
0.0000
  0
SEQEND
  8
0
  0
ENDBLK
  8
0
  0
BLOCK
  8
0
  2
OCTAGONP
 70
64
 10
0.0000
 20
0.0000
 30
0.0000
  3
OCTAGONP
  0
POLYLINE
  8
0
 66
1
 10
0.0000
 20
0.0000
 30
0.0000
 40
0.5000
 41
0.5000
 70
0
  0
VERTEX
  8
0
 10
-0.2500
 20
-0.1036
 30
0.0000
  0
VERTEX
  8
0
 10
-0.2500
 20
0.1036
 30
0.0000
  0
VERTEX
  8
0
 10
-0.1036
 20
0.2500
 30
0.0000
  0
VERTEX
  8
0
 10
0.1036
 20
0.2500
 30
0.0000
  0
VERTEX
  8
0
 10
0.2500
 20
0.1036
 30
0.0000
  0
VERTEX
  8
0
 10
0.2500
 20
-0.1036
 30
0.0000
  0
VERTEX
  8
0
 10
0.1036
 20
-0.2500
 30
0.0000
  0
VERTEX
  8
0
 10
-0.1036
 20
-0.2500
 30
0.0000
  0
VERTEX
  8
0
 10
-0.2500
 20
-0.1036
 30
0.0000
  0
VERTEX
  8
0
 10
-0.2500
 20
0.1036
 30
0.0000
  0
SEQEND
  8
0
  0
ENDBLK
  8
0
  0
BLOCK
  8
0
  2
SQUAREP
 70
64
 10
0.0000
 20
0.0000
 30
0.0000
  3
SQUAREP
  0
SOLID
  8
0
 10
-0.5000
 20
-0.5000
 30
0.0000
 11
0.5000
 21
-0.5000
 31
0.0000
 12
-0.5000
 22
0.5000
 32
0.0000
 13
0.5000
 23
0.5000
 33
0.0000
  0
ENDBLK
  8
0
  0
BLOCK
  8
0
  2
ROUNDP
 70
64
 10
0.0000
 20
0.0000
 30
0.0000
  3
ROUNDP
  0
POLYLINE
  8
0
 66
1
 10
0.0000
 20
0.0000
 30
0.0000
 40
0.5000
 41
0.5000
 70
0
  0
VERTEX
  8
0
 10
0.0000
 20
-0.2500
 30
0.0000
 42
1.0000
  0
VERTEX
  8
0
 10
0.0000
 20
0.2500
 30
0.0000
 42
1.0000
  0
VERTEX
  8
0
 10
0.0000
 20
-0.2500
 30
0.0000
  0
SEQEND
  8
0
  0
ENDBLK
  8
0
  0
BLOCK
  8
0
  2
ANNULUSP
 70
64
 10
0.0000
 20
0.0000
 30
0.0000
  3
ANNULUSP
  0
POLYLINE
  8
0
 66
1
 10
0.0000
 20
0.0000
 30
0.0000
 40
0.5000
 41
0.5000
 70
0
  0
VERTEX
  8
0
 10
0.0000
 20
-0.2500
 30
0.0000
 42
1.0000
  0
VERTEX
  8
0
 10
0.0000
 20
0.2500
 30
0.0000
 42
1.0000
  0
VERTEX
  8
0
 10
0.0000
 20
-0.2500
 30
0.0000
  0
SEQEND
  8
0
  0
ENDBLK
  8
0
  0
BLOCK
  8
0
  2
THERMALP
 70
64
 10
0.0000
 20
0.0000
 30
0.0000
  3
THERMALP
  0
POLYLINE
  8
0
 66
1
 10
0.0000
 20
0.0000
 30
0.0000
 40
0.1000
 41
0.1000
 70
0
  0
VERTEX
  8
0
 10
-0.2379
 20
0.4500
 30
0.0000
  0
VERTEX
  8
0
 10
0.2379
 20
0.4500
 30
0.0000
  0
SEQEND
  8
0
  0
POLYLINE
  8
0
 66
1
 10
0.0000
 20
0.0000
 30
0.0000
 40
0.0500
 41
0.0500
 70
0
  0
VERTEX
  8
0
 10
0.2379
 20
0.4250
 30
0.0000
 42
1.0000
  0
VERTEX
  8
0
 10
0.2379
 20
0.4750
 30
0.0000
  0
SEQEND
  8
0
  0
POLYLINE
  8
0
 66
1
 10
0.0000
 20
0.0000
 30
0.0000
 40
0.0500
 41
0.0500
 70
0
  0
VERTEX
  8
0
 10
-0.2379
 20
0.4750
 30
0.0000
 42
1.0000
  0
VERTEX
  8
0
 10
-0.2379
 20
0.4250
 30
0.0000
  0
SEQEND
  8
0
  0
POLYLINE
  8
0
 66
1
 10
0.0000
 20
0.0000
 30
0.0000
 40
0.1000
 41
0.1000
 70
0
  0
VERTEX
  8
0
 10
0.4500
 20
0.2379
 30
0.0000
  0
VERTEX
  8
0
 10
0.4500
 20
-0.2379
 30
0.0000
  0
SEQEND
  8
0
  0
POLYLINE
  8
0
 66
1
 10
0.0000
 20
0.0000
 30
0.0000
 40
0.0500
 41
0.0500
 70
0
  0
VERTEX
  8
0
 10
0.4250
 20
-0.2379
 30
0.0000
 42
1.0000
  0
VERTEX
  8
0
 10
0.4750
 20
-0.2379
 30
0.0000
  0
SEQEND
  8
0
  0
POLYLINE
  8
0
 66
1
 10
0.0000
 20
0.0000
 30
0.0000
 40
0.0500
 41
0.0500
 70
0
  0
VERTEX
  8
0
 10
0.4750
 20
0.2379
 30
0.0000
 42
1.0000
  0
VERTEX
  8
0
 10
0.4250
 20
0.2379
 30
0.0000
  0
SEQEND
  8
0
  0
POLYLINE
  8
0
 66
1
 10
0.0000
 20
0.0000
 30
0.0000
 40
0.1000
 41
0.1000
 70
0
  0
VERTEX
  8
0
 10
0.2379
 20
-0.4500
 30
0.0000
  0
VERTEX
  8
0
 10
-0.2379
 20
-0.4500
 30
0.0000
  0
SEQEND
  8
0
  0
POLYLINE
  8
0
 66
1
 10
0.0000
 20
0.0000
 30
0.0000
 40
0.0500
 41
0.0500
 70
0
  0
VERTEX
  8
0
 10
-0.2379
 20
-0.4250
 30
0.0000
 42
1.0000
  0
VERTEX
  8
0
 10
-0.2379
 20
-0.4750
 30
0.0000
  0
SEQEND
  8
0
  0
POLYLINE
  8
0
 66
1
 10
0.0000
 20
0.0000
 30
0.0000
 40
0.0500
 41
0.0500
 70
0
  0
VERTEX
  8
0
 10
0.2379
 20
-0.4750
 30
0.0000
 42
1.0000
  0
VERTEX
  8
0
 10
0.2379
 20
-0.4250
 30
0.0000
  0
SEQEND
  8
0
  0
POLYLINE
  8
0
 66
1
 10
0.0000
 20
0.0000
 30
0.0000
 40
0.1000
 41
0.1000
 70
0
  0
VERTEX
  8
0
 10
-0.4500
 20
-0.2379
 30
0.0000
  0
VERTEX
  8
0
 10
-0.4500
 20
0.2379
 30
0.0000
  0
SEQEND
  8
0
  0
POLYLINE
  8
0
 66
1
 10
0.0000
 20
0.0000
 30
0.0000
 40
0.0500
 41
0.0500
 70
0
  0
VERTEX
  8
0
 10
-0.4250
 20
0.2379
 30
0.0000
 42
1.0000
  0
VERTEX
  8
0
 10
-0.4750
 20
0.2379
 30
0.0000
  0
SEQEND
  8
0
  0
POLYLINE
  8
0
 66
1
 10
0.0000
 20
0.0000
 30
0.0000
 40
0.0500
 41
0.0500
 70
0
  0
VERTEX
  8
0
 10
-0.4750
 20
-0.2379
 30
0.0000
 42
1.0000
  0
VERTEX
  8
0
 10
-0.4250
 20
-0.2379
 30
0.0000
  0
SEQEND
  8
0
  0
ENDBLK
  8
0
  0
BLOCK
  8
0
  2
OCTAGONV
 70
64
 10
0.0000
 20
0.0000
 30
0.0000
  3
OCTAGONV
  0
POLYLINE
  8
0
 66
1
 10
0.0000
 20
0.0000
 30
0.0000
 40
0.5000
 41
0.5000
 70
0
  0
VERTEX
  8
0
 10
-0.2500
 20
-0.1036
 30
0.0000
  0
VERTEX
  8
0
 10
-0.2500
 20
0.1036
 30
0.0000
  0
VERTEX
  8
0
 10
-0.1036
 20
0.2500
 30
0.0000
  0
VERTEX
  8
0
 10
0.1036
 20
0.2500
 30
0.0000
  0
VERTEX
  8
0
 10
0.2500
 20
0.1036
 30
0.0000
  0
VERTEX
  8
0
 10
0.2500
 20
-0.1036
 30
0.0000
  0
VERTEX
  8
0
 10
0.1036
 20
-0.2500
 30
0.0000
  0
VERTEX
  8
0
 10
-0.1036
 20
-0.2500
 30
0.0000
  0
VERTEX
  8
0
 10
-0.2500
 20
-0.1036
 30
0.0000
  0
VERTEX
  8
0
 10
-0.2500
 20
0.1036
 30
0.0000
  0
SEQEND
  8
0
  0
ENDBLK
  8
0
  0
BLOCK
  8
0
  2
SQUAREV
 70
64
 10
0.0000
 20
0.0000
 30
0.0000
  3
SQUAREV
  0
SOLID
  8
0
 10
-0.5000
 20
-0.5000
 30
0.0000
 11
0.5000
 21
-0.5000
 31
0.0000
 12
-0.5000
 22
0.5000
 32
0.0000
 13
0.5000
 23
0.5000
 33
0.0000
  0
ENDBLK
  8
0
  0
BLOCK
  8
0
  2
ROUNDV
 70
64
 10
0.0000
 20
0.0000
 30
0.0000
  3
ROUNDV
  0
POLYLINE
  8
0
 66
1
 10
0.0000
 20
0.0000
 30
0.0000
 40
0.5000
 41
0.5000
 70
0
  0
VERTEX
  8
0
 10
0.0000
 20
-0.2500
 30
0.0000
 42
1.0000
  0
VERTEX
  8
0
 10
0.0000
 20
0.2500
 30
0.0000
 42
1.0000
  0
VERTEX
  8
0
 10
0.0000
 20
-0.2500
 30
0.0000
  0
SEQEND
  8
0
  0
ENDBLK
  8
0
  0
BLOCK
  8
0
  2
ANNULUSV
 70
64
 10
0.0000
 20
0.0000
 30
0.0000
  3
ANNULUSV
  0
POLYLINE
  8
0
 66
1
 10
0.0000
 20
0.0000
 30
0.0000
 40
0.5000
 41
0.5000
 70
0
  0
VERTEX
  8
0
 10
0.0000
 20
-0.2500
 30
0.0000
 42
1.0000
  0
VERTEX
  8
0
 10
0.0000
 20
0.2500
 30
0.0000
 42
1.0000
  0
VERTEX
  8
0
 10
0.0000
 20
-0.2500
 30
0.0000
  0
SEQEND
  8
0
  0
ENDBLK
  8
0
  0
BLOCK
  8
0
  2
THERMALV
 70
64
 10
0.0000
 20
0.0000
 30
0.0000
  3
THERMALV
  0
POLYLINE
  8
0
 66
1
 10
0.0000
 20
0.0000
 30
0.0000
 40
0.1000
 41
0.1000
 70
0
  0
VERTEX
  8
0
 10
-0.2379
 20
0.4500
 30
0.0000
  0
VERTEX
  8
0
 10
0.2379
 20
0.4500
 30
0.0000
  0
SEQEND
  8
0
  0
POLYLINE
  8
0
 66
1
 10
0.0000
 20
0.0000
 30
0.0000
 40
0.0500
 41
0.0500
 70
0
  0
VERTEX
  8
0
 10
0.2379
 20
0.4250
 30
0.0000
 42
1.0000
  0
VERTEX
  8
0
 10
0.2379
 20
0.4750
 30
0.0000
  0
SEQEND
  8
0
  0
POLYLINE
  8
0
 66
1
 10
0.0000
 20
0.0000
 30
0.0000
 40
0.0500
 41
0.0500
 70
0
  0
VERTEX
  8
0
 10
-0.2379
 20
0.4750
 30
0.0000
 42
1.0000
  0
VERTEX
  8
0
 10
-0.2379
 20
0.4250
 30
0.0000
  0
SEQEND
  8
0
  0
POLYLINE
  8
0
 66
1
 10
0.0000
 20
0.0000
 30
0.0000
 40
0.1000
 41
0.1000
 70
0
  0
VERTEX
  8
0
 10
0.4500
 20
0.2379
 30
0.0000
  0
VERTEX
  8
0
 10
0.4500
 20
-0.2379
 30
0.0000
  0
SEQEND
  8
0
  0
POLYLINE
  8
0
 66
1
 10
0.0000
 20
0.0000
 30
0.0000
 40
0.0500
 41
0.0500
 70
0
  0
VERTEX
  8
0
 10
0.4250
 20
-0.2379
 30
0.0000
 42
1.0000
  0
VERTEX
  8
0
 10
0.4750
 20
-0.2379
 30
0.0000
  0
SEQEND
  8
0
  0
POLYLINE
  8
0
 66
1
 10
0.0000
 20
0.0000
 30
0.0000
 40
0.0500
 41
0.0500
 70
0
  0
VERTEX
  8
0
 10
0.4750
 20
0.2379
 30
0.0000
 42
1.0000
  0
VERTEX
  8
0
 10
0.4250
 20
0.2379
 30
0.0000
  0
SEQEND
  8
0
  0
POLYLINE
  8
0
 66
1
 10
0.0000
 20
0.0000
 30
0.0000
 40
0.1000
 41
0.1000
 70
0
  0
VERTEX
  8
0
 10
0.2379
 20
-0.4500
 30
0.0000
  0
VERTEX
  8
0
 10
-0.2379
 20
-0.4500
 30
0.0000
  0
SEQEND
  8
0
  0
POLYLINE
  8
0
 66
1
 10
0.0000
 20
0.0000
 30
0.0000
 40
0.0500
 41
0.0500
 70
0
  0
VERTEX
  8
0
 10
-0.2379
 20
-0.4250
 30
0.0000
 42
1.0000
  0
VERTEX
  8
0
 10
-0.2379
 20
-0.4750
 30
0.0000
  0
SEQEND
  8
0
  0
POLYLINE
  8
0
 66
1
 10
0.0000
 20
0.0000
 30
0.0000
 40
0.0500
 41
0.0500
 70
0
  0
VERTEX
  8
0
 10
0.2379
 20
-0.4750
 30
0.0000
 42
1.0000
  0
VERTEX
  8
0
 10
0.2379
 20
-0.4250
 30
0.0000
  0
SEQEND
  8
0
  0
POLYLINE
  8
0
 66
1
 10
0.0000
 20
0.0000
 30
0.0000
 40
0.1000
 41
0.1000
 70
0
  0
VERTEX
  8
0
 10
-0.4500
 20
-0.2379
 30
0.0000
  0
VERTEX
  8
0
 10
-0.4500
 20
0.2379
 30
0.0000
  0
SEQEND
  8
0
  0
POLYLINE
  8
0
 66
1
 10
0.0000
 20
0.0000
 30
0.0000
 40
0.0500
 41
0.0500
 70
0
  0
VERTEX
  8
0
 10
-0.4250
 20
0.2379
 30
0.0000
 42
1.0000
  0
VERTEX
  8
0
 10
-0.4750
 20
0.2379
 30
0.0000
  0
SEQEND
  8
0
  0
POLYLINE
  8
0
 66
1
 10
0.0000
 20
0.0000
 30
0.0000
 40
0.0500
 41
0.0500
 70
0
  0
VERTEX
  8
0
 10
-0.4750
 20
-0.2379
 30
0.0000
 42
1.0000
  0
VERTEX
  8
0
 10
-0.4250
 20
-0.2379
 30
0.0000
  0
SEQEND
  8
0
  0
ENDBLK
  8
0
  0
ENDSEC
  0
SECTION
  2
ENTITIES
  0
LINE
  8
20
 10
0.0000
 20
-0.0480
 30
0.0000
 11
90.9000
 21
0.0000
 31
0.0000
  0
LINE
  8
20
 10
90.9000
 20
0.0000
 30
0.0000
 11
90.9000
 21
128.4520
 31
0.0000
  0
LINE
  8
20
 10
90.9000
 20
128.4520
 30
0.0000
 11
0.0000
 21
128.4520
 31
0.0000
  0
LINE
  8
20
 10
0.0000
 20
128.4520
 30
0.0000
 11
0.0000
 21
-0.0480
 31
0.0000
  0
POINT
  8
23
 10
84.0340
 20
20.7100
 30
0.0000
  0
POLYLINE
  8
51
 66
1
 10
0.0000
 20
0.0000
 30
0.0000
 40
2.2860
 41
2.2860
 70
0
  0
VERTEX
  8
51
 10
84.0340
 20
18.9320
 30
0.0000
 42
0.4142
  0
VERTEX
  8
51
 10
85.8120
 20
20.7100
 30
0.0000
  0
SEQEND
  8
0
  0
POLYLINE
  8
51
 66
1
 10
0.0000
 20
0.0000
 30
0.0000
 40
2.2860
 41
2.2860
 70
0
  0
VERTEX
  8
51
 10
84.0340
 20
22.4880
 30
0.0000
 42
0.4142
  0
VERTEX
  8
51
 10
82.2560
 20
20.7100
 30
0.0000
  0
SEQEND
  8
0
  0
POLYLINE
  8
51
 66
1
 10
0.0000
 20
0.0000
 30
0.0000
 40
0.4572
 41
0.4572
 70
0
  0
VERTEX
  8
51
 10
84.0340
 20
20.0750
 30
0.0000
 42
1.0000
  0
VERTEX
  8
51
 10
84.0340
 20
21.3450
 30
0.0000
 42
1.0000
  0
VERTEX
  8
51
 10
84.0340
 20
20.0750
 30
0.0000
  0
SEQEND
  8
0
  0
POLYLINE
  8
21
 66
1
 10
0.0000
 20
0.0000
 30
0.0000
 40
0.1524
 41
0.1524
 70
0
  0
VERTEX
  8
21
 10
84.0340
 20
17.9160
 30
0.0000
 42
1.0000
  0
VERTEX
  8
21
 10
84.0340
 20
23.5040
 30
0.0000
 42
1.0000
  0
VERTEX
  8
21
 10
84.0340
 20
17.9160
 30
0.0000
  0
SEQEND
  8
0
  0
POLYLINE
  8
40
 66
1
 10
0.0000
 20
0.0000
 30
0.0000
 40
2.0320
 41
2.0320
 70
0
  0
VERTEX
  8
40
 10
84.0340
 20
18.8050
 30
0.0000
 42
1.0000
  0
VERTEX
  8
40
 10
84.0340
 20
22.6150
 30
0.0000
 42
1.0000
  0
VERTEX
  8
40
 10
84.0340
 20
18.8050
 30
0.0000
  0
SEQEND
  8
0
  0
POLYLINE
  8
39
 66
1
 10
0.0000
 20
0.0000
 30
0.0000
 40
2.0320
 41
2.0320
 70
0
  0
VERTEX
  8
39
 10
84.0340
 20
18.8050
 30
0.0000
 42
1.0000
  0
VERTEX
  8
39
 10
84.0340
 20
22.6150
 30
0.0000
 42
1.0000
  0
VERTEX
  8
39
 10
84.0340
 20
18.8050
 30
0.0000
  0
SEQEND
  8
0
  0
POLYLINE
  8
41
 66
1
 10
0.0000
 20
0.0000
 30
0.0000
 40
2.0320
 41
2.0320
 70
0
  0
VERTEX
  8
41
 10
84.0340
 20
18.8050
 30
0.0000
 42
1.0000
  0
VERTEX
  8
41
 10
84.0340
 20
22.6150
 30
0.0000
 42
1.0000
  0
VERTEX
  8
41
 10
84.0340
 20
18.8050
 30
0.0000
  0
SEQEND
  8
0
  0
POLYLINE
  8
42
 66
1
 10
0.0000
 20
0.0000
 30
0.0000
 40
2.0320
 41
2.0320
 70
0
  0
VERTEX
  8
42
 10
84.0340
 20
18.8050
 30
0.0000
 42
1.0000
  0
VERTEX
  8
42
 10
84.0340
 20
22.6150
 30
0.0000
 42
1.0000
  0
VERTEX
  8
42
 10
84.0340
 20
18.8050
 30
0.0000
  0
SEQEND
  8
0
  0
POLYLINE
  8
43
 66
1
 10
0.0000
 20
0.0000
 30
0.0000
 40
1.5240
 41
1.5240
 70
0
  0
VERTEX
  8
43
 10
84.0340
 20
18.8050
 30
0.0000
 42
1.0000
  0
VERTEX
  8
43
 10
84.0340
 20
22.6150
 30
0.0000
 42
1.0000
  0
VERTEX
  8
43
 10
84.0340
 20
18.8050
 30
0.0000
  0
SEQEND
  8
0
  0
POLYLINE
  8
21
 66
1
 10
0.0000
 20
0.0000
 30
0.0000
 40
0.2032
 41
0.2032
 70
0
  0
VERTEX
  8
21
 10
84.0340
 20
19.2100
 30
0.0000
 42
1.0000
  0
VERTEX
  8
21
 10
84.0340
 20
22.2100
 30
0.0000
 42
1.0000
  0
VERTEX
  8
21
 10
84.0340
 20
19.2100
 30
0.0000
  0
SEQEND
  8
0
  0
CIRCLE
  8
20
 10
84.0340
 20
20.7100
 30
0.0000
 40
1.6000
  0
POLYLINE
  8
29
 66
1
 10
0.0000
 20
0.0000
 30
0.0000
 40
1.7016
 41
1.7016
 70
0
  0
VERTEX
  8
29
 10
84.0340
 20
19.8592
 30
0.0000
 42
1.0000
  0
VERTEX
  8
29
 10
84.0340
 20
21.5608
 30
0.0000
 42
1.0000
  0
VERTEX
  8
29
 10
84.0340
 20
19.8592
 30
0.0000
  0
SEQEND
  8
0
  0
POLYLINE
  8
30
 66
1
 10
0.0000
 20
0.0000
 30
0.0000
 40
1.7016
 41
1.7016
 70
0
  0
VERTEX
  8
30
 10
84.0340
 20
19.8592
 30
0.0000
 42
1.0000
  0
VERTEX
  8
30
 10
84.0340
 20
21.5608
 30
0.0000
 42
1.0000
  0
VERTEX
  8
30
 10
84.0340
 20
19.8592
 30
0.0000
  0
SEQEND
  8
0
  0
POINT
  8
23
 10
44.6640
 20
20.8370
 30
0.0000
  0
POLYLINE
  8
51
 66
1
 10
0.0000
 20
0.0000
 30
0.0000
 40
2.2860
 41
2.2860
 70
0
  0
VERTEX
  8
51
 10
44.6640
 20
19.0590
 30
0.0000
 42
0.4142
  0
VERTEX
  8
51
 10
46.4420
 20
20.8370
 30
0.0000
  0
SEQEND
  8
0
  0
POLYLINE
  8
51
 66
1
 10
0.0000
 20
0.0000
 30
0.0000
 40
2.2860
 41
2.2860
 70
0
  0
VERTEX
  8
51
 10
44.6640
 20
22.6150
 30
0.0000
 42
0.4142
  0
VERTEX
  8
51
 10
42.8860
 20
20.8370
 30
0.0000
  0
SEQEND
  8
0
  0
POLYLINE
  8
51
 66
1
 10
0.0000
 20
0.0000
 30
0.0000
 40
0.4572
 41
0.4572
 70
0
  0
VERTEX
  8
51
 10
44.6640
 20
20.2020
 30
0.0000
 42
1.0000
  0
VERTEX
  8
51
 10
44.6640
 20
21.4720
 30
0.0000
 42
1.0000
  0
VERTEX
  8
51
 10
44.6640
 20
20.2020
 30
0.0000
  0
SEQEND
  8
0
  0
POLYLINE
  8
21
 66
1
 10
0.0000
 20
0.0000
 30
0.0000
 40
0.1524
 41
0.1524
 70
0
  0
VERTEX
  8
21
 10
44.6640
 20
18.0430
 30
0.0000
 42
1.0000
  0
VERTEX
  8
21
 10
44.6640
 20
23.6310
 30
0.0000
 42
1.0000
  0
VERTEX
  8
21
 10
44.6640
 20
18.0430
 30
0.0000
  0
SEQEND
  8
0
  0
POLYLINE
  8
40
 66
1
 10
0.0000
 20
0.0000
 30
0.0000
 40
2.0320
 41
2.0320
 70
0
  0
VERTEX
  8
40
 10
44.6640
 20
18.9320
 30
0.0000
 42
1.0000
  0
VERTEX
  8
40
 10
44.6640
 20
22.7420
 30
0.0000
 42
1.0000
  0
VERTEX
  8
40
 10
44.6640
 20
18.9320
 30
0.0000
  0
SEQEND
  8
0
  0
POLYLINE
  8
39
 66
1
 10
0.0000
 20
0.0000
 30
0.0000
 40
2.0320
 41
2.0320
 70
0
  0
VERTEX
  8
39
 10
44.6640
 20
18.9320
 30
0.0000
 42
1.0000
  0
VERTEX
  8
39
 10
44.6640
 20
22.7420
 30
0.0000
 42
1.0000
  0
VERTEX
  8
39
 10
44.6640
 20
18.9320
 30
0.0000
  0
SEQEND
  8
0
  0
POLYLINE
  8
41
 66
1
 10
0.0000
 20
0.0000
 30
0.0000
 40
2.0320
 41
2.0320
 70
0
  0
VERTEX
  8
41
 10
44.6640
 20
18.9320
 30
0.0000
 42
1.0000
  0
VERTEX
  8
41
 10
44.6640
 20
22.7420
 30
0.0000
 42
1.0000
  0
VERTEX
  8
41
 10
44.6640
 20
18.9320
 30
0.0000
  0
SEQEND
  8
0
  0
POLYLINE
  8
42
 66
1
 10
0.0000
 20
0.0000
 30
0.0000
 40
2.0320
 41
2.0320
 70
0
  0
VERTEX
  8
42
 10
44.6640
 20
18.9320
 30
0.0000
 42
1.0000
  0
VERTEX
  8
42
 10
44.6640
 20
22.7420
 30
0.0000
 42
1.0000
  0
VERTEX
  8
42
 10
44.6640
 20
18.9320
 30
0.0000
  0
SEQEND
  8
0
  0
POLYLINE
  8
43
 66
1
 10
0.0000
 20
0.0000
 30
0.0000
 40
1.5240
 41
1.5240
 70
0
  0
VERTEX
  8
43
 10
44.6640
 20
18.9320
 30
0.0000
 42
1.0000
  0
VERTEX
  8
43
 10
44.6640
 20
22.7420
 30
0.0000
 42
1.0000
  0
VERTEX
  8
43
 10
44.6640
 20
18.9320
 30
0.0000
  0
SEQEND
  8
0
  0
POLYLINE
  8
21
 66
1
 10
0.0000
 20
0.0000
 30
0.0000
 40
0.2032
 41
0.2032
 70
0
  0
VERTEX
  8
21
 10
44.6640
 20
19.3370
 30
0.0000
 42
1.0000
  0
VERTEX
  8
21
 10
44.6640
 20
22.3370
 30
0.0000
 42
1.0000
  0
VERTEX
  8
21
 10
44.6640
 20
19.3370
 30
0.0000
  0
SEQEND
  8
0
  0
CIRCLE
  8
20
 10
44.6640
 20
20.8370
 30
0.0000
 40
1.6000
  0
POLYLINE
  8
29
 66
1
 10
0.0000
 20
0.0000
 30
0.0000
 40
1.7016
 41
1.7016
 70
0
  0
VERTEX
  8
29
 10
44.6640
 20
19.9862
 30
0.0000
 42
1.0000
  0
VERTEX
  8
29
 10
44.6640
 20
21.6878
 30
0.0000
 42
1.0000
  0
VERTEX
  8
29
 10
44.6640
 20
19.9862
 30
0.0000
  0
SEQEND
  8
0
  0
POLYLINE
  8
30
 66
1
 10
0.0000
 20
0.0000
 30
0.0000
 40
1.7016
 41
1.7016
 70
0
  0
VERTEX
  8
30
 10
44.6640
 20
19.9862
 30
0.0000
 42
1.0000
  0
VERTEX
  8
30
 10
44.6640
 20
21.6878
 30
0.0000
 42
1.0000
  0
VERTEX
  8
30
 10
44.6640
 20
19.9862
 30
0.0000
  0
SEQEND
  8
0
  0
POINT
  8
23
 10
84.2880
 20
109.6100
 30
0.0000
  0
POLYLINE
  8
51
 66
1
 10
0.0000
 20
0.0000
 30
0.0000
 40
2.2860
 41
2.2860
 70
0
  0
VERTEX
  8
51
 10
84.2880
 20
107.8320
 30
0.0000
 42
0.4142
  0
VERTEX
  8
51
 10
86.0660
 20
109.6100
 30
0.0000
  0
SEQEND
  8
0
  0
POLYLINE
  8
51
 66
1
 10
0.0000
 20
0.0000
 30
0.0000
 40
2.2860
 41
2.2860
 70
0
  0
VERTEX
  8
51
 10
84.2880
 20
111.3880
 30
0.0000
 42
0.4142
  0
VERTEX
  8
51
 10
82.5100
 20
109.6100
 30
0.0000
  0
SEQEND
  8
0
  0
POLYLINE
  8
51
 66
1
 10
0.0000
 20
0.0000
 30
0.0000
 40
0.4572
 41
0.4572
 70
0
  0
VERTEX
  8
51
 10
84.2880
 20
108.9750
 30
0.0000
 42
1.0000
  0
VERTEX
  8
51
 10
84.2880
 20
110.2450
 30
0.0000
 42
1.0000
  0
VERTEX
  8
51
 10
84.2880
 20
108.9750
 30
0.0000
  0
SEQEND
  8
0
  0
POLYLINE
  8
21
 66
1
 10
0.0000
 20
0.0000
 30
0.0000
 40
0.1524
 41
0.1524
 70
0
  0
VERTEX
  8
21
 10
84.2880
 20
106.8160
 30
0.0000
 42
1.0000
  0
VERTEX
  8
21
 10
84.2880
 20
112.4040
 30
0.0000
 42
1.0000
  0
VERTEX
  8
21
 10
84.2880
 20
106.8160
 30
0.0000
  0
SEQEND
  8
0
  0
POLYLINE
  8
40
 66
1
 10
0.0000
 20
0.0000
 30
0.0000
 40
2.0320
 41
2.0320
 70
0
  0
VERTEX
  8
40
 10
84.2880
 20
107.7050
 30
0.0000
 42
1.0000
  0
VERTEX
  8
40
 10
84.2880
 20
111.5150
 30
0.0000
 42
1.0000
  0
VERTEX
  8
40
 10
84.2880
 20
107.7050
 30
0.0000
  0
SEQEND
  8
0
  0
POLYLINE
  8
39
 66
1
 10
0.0000
 20
0.0000
 30
0.0000
 40
2.0320
 41
2.0320
 70
0
  0
VERTEX
  8
39
 10
84.2880
 20
107.7050
 30
0.0000
 42
1.0000
  0
VERTEX
  8
39
 10
84.2880
 20
111.5150
 30
0.0000
 42
1.0000
  0
VERTEX
  8
39
 10
84.2880
 20
107.7050
 30
0.0000
  0
SEQEND
  8
0
  0
POLYLINE
  8
41
 66
1
 10
0.0000
 20
0.0000
 30
0.0000
 40
2.0320
 41
2.0320
 70
0
  0
VERTEX
  8
41
 10
84.2880
 20
107.7050
 30
0.0000
 42
1.0000
  0
VERTEX
  8
41
 10
84.2880
 20
111.5150
 30
0.0000
 42
1.0000
  0
VERTEX
  8
41
 10
84.2880
 20
107.7050
 30
0.0000
  0
SEQEND
  8
0
  0
POLYLINE
  8
42
 66
1
 10
0.0000
 20
0.0000
 30
0.0000
 40
2.0320
 41
2.0320
 70
0
  0
VERTEX
  8
42
 10
84.2880
 20
107.7050
 30
0.0000
 42
1.0000
  0
VERTEX
  8
42
 10
84.2880
 20
111.5150
 30
0.0000
 42
1.0000
  0
VERTEX
  8
42
 10
84.2880
 20
107.7050
 30
0.0000
  0
SEQEND
  8
0
  0
POLYLINE
  8
43
 66
1
 10
0.0000
 20
0.0000
 30
0.0000
 40
1.5240
 41
1.5240
 70
0
  0
VERTEX
  8
43
 10
84.2880
 20
107.7050
 30
0.0000
 42
1.0000
  0
VERTEX
  8
43
 10
84.2880
 20
111.5150
 30
0.0000
 42
1.0000
  0
VERTEX
  8
43
 10
84.2880
 20
107.7050
 30
0.0000
  0
SEQEND
  8
0
  0
POLYLINE
  8
21
 66
1
 10
0.0000
 20
0.0000
 30
0.0000
 40
0.2032
 41
0.2032
 70
0
  0
VERTEX
  8
21
 10
84.2880
 20
108.1100
 30
0.0000
 42
1.0000
  0
VERTEX
  8
21
 10
84.2880
 20
111.1100
 30
0.0000
 42
1.0000
  0
VERTEX
  8
21
 10
84.2880
 20
108.1100
 30
0.0000
  0
SEQEND
  8
0
  0
CIRCLE
  8
20
 10
84.2880
 20
109.6100
 30
0.0000
 40
1.6000
  0
POLYLINE
  8
29
 66
1
 10
0.0000
 20
0.0000
 30
0.0000
 40
1.7016
 41
1.7016
 70
0
  0
VERTEX
  8
29
 10
84.2880
 20
108.7592
 30
0.0000
 42
1.0000
  0
VERTEX
  8
29
 10
84.2880
 20
110.4608
 30
0.0000
 42
1.0000
  0
VERTEX
  8
29
 10
84.2880
 20
108.7592
 30
0.0000
  0
SEQEND
  8
0
  0
POLYLINE
  8
30
 66
1
 10
0.0000
 20
0.0000
 30
0.0000
 40
1.7016
 41
1.7016
 70
0
  0
VERTEX
  8
30
 10
84.2880
 20
108.7592
 30
0.0000
 42
1.0000
  0
VERTEX
  8
30
 10
84.2880
 20
110.4608
 30
0.0000
 42
1.0000
  0
VERTEX
  8
30
 10
84.2880
 20
108.7592
 30
0.0000
  0
SEQEND
  8
0
  0
POINT
  8
23
 10
44.7910
 20
109.6100
 30
0.0000
  0
POLYLINE
  8
51
 66
1
 10
0.0000
 20
0.0000
 30
0.0000
 40
2.2860
 41
2.2860
 70
0
  0
VERTEX
  8
51
 10
44.7910
 20
107.8320
 30
0.0000
 42
0.4142
  0
VERTEX
  8
51
 10
46.5690
 20
109.6100
 30
0.0000
  0
SEQEND
  8
0
  0
POLYLINE
  8
51
 66
1
 10
0.0000
 20
0.0000
 30
0.0000
 40
2.2860
 41
2.2860
 70
0
  0
VERTEX
  8
51
 10
44.7910
 20
111.3880
 30
0.0000
 42
0.4142
  0
VERTEX
  8
51
 10
43.0130
 20
109.6100
 30
0.0000
  0
SEQEND
  8
0
  0
POLYLINE
  8
51
 66
1
 10
0.0000
 20
0.0000
 30
0.0000
 40
0.4572
 41
0.4572
 70
0
  0
VERTEX
  8
51
 10
44.7910
 20
108.9750
 30
0.0000
 42
1.0000
  0
VERTEX
  8
51
 10
44.7910
 20
110.2450
 30
0.0000
 42
1.0000
  0
VERTEX
  8
51
 10
44.7910
 20
108.9750
 30
0.0000
  0
SEQEND
  8
0
  0
POLYLINE
  8
21
 66
1
 10
0.0000
 20
0.0000
 30
0.0000
 40
0.1524
 41
0.1524
 70
0
  0
VERTEX
  8
21
 10
44.7910
 20
106.8160
 30
0.0000
 42
1.0000
  0
VERTEX
  8
21
 10
44.7910
 20
112.4040
 30
0.0000
 42
1.0000
  0
VERTEX
  8
21
 10
44.7910
 20
106.8160
 30
0.0000
  0
SEQEND
  8
0
  0
POLYLINE
  8
40
 66
1
 10
0.0000
 20
0.0000
 30
0.0000
 40
2.0320
 41
2.0320
 70
0
  0
VERTEX
  8
40
 10
44.7910
 20
107.7050
 30
0.0000
 42
1.0000
  0
VERTEX
  8
40
 10
44.7910
 20
111.5150
 30
0.0000
 42
1.0000
  0
VERTEX
  8
40
 10
44.7910
 20
107.7050
 30
0.0000
  0
SEQEND
  8
0
  0
POLYLINE
  8
39
 66
1
 10
0.0000
 20
0.0000
 30
0.0000
 40
2.0320
 41
2.0320
 70
0
  0
VERTEX
  8
39
 10
44.7910
 20
107.7050
 30
0.0000
 42
1.0000
  0
VERTEX
  8
39
 10
44.7910
 20
111.5150
 30
0.0000
 42
1.0000
  0
VERTEX
  8
39
 10
44.7910
 20
107.7050
 30
0.0000
  0
SEQEND
  8
0
  0
POLYLINE
  8
41
 66
1
 10
0.0000
 20
0.0000
 30
0.0000
 40
2.0320
 41
2.0320
 70
0
  0
VERTEX
  8
41
 10
44.7910
 20
107.7050
 30
0.0000
 42
1.0000
  0
VERTEX
  8
41
 10
44.7910
 20
111.5150
 30
0.0000
 42
1.0000
  0
VERTEX
  8
41
 10
44.7910
 20
107.7050
 30
0.0000
  0
SEQEND
  8
0
  0
POLYLINE
  8
42
 66
1
 10
0.0000
 20
0.0000
 30
0.0000
 40
2.0320
 41
2.0320
 70
0
  0
VERTEX
  8
42
 10
44.7910
 20
107.7050
 30
0.0000
 42
1.0000
  0
VERTEX
  8
42
 10
44.7910
 20
111.5150
 30
0.0000
 42
1.0000
  0
VERTEX
  8
42
 10
44.7910
 20
107.7050
 30
0.0000
  0
SEQEND
  8
0
  0
POLYLINE
  8
43
 66
1
 10
0.0000
 20
0.0000
 30
0.0000
 40
1.5240
 41
1.5240
 70
0
  0
VERTEX
  8
43
 10
44.7910
 20
107.7050
 30
0.0000
 42
1.0000
  0
VERTEX
  8
43
 10
44.7910
 20
111.5150
 30
0.0000
 42
1.0000
  0
VERTEX
  8
43
 10
44.7910
 20
107.7050
 30
0.0000
  0
SEQEND
  8
0
  0
POLYLINE
  8
21
 66
1
 10
0.0000
 20
0.0000
 30
0.0000
 40
0.2032
 41
0.2032
 70
0
  0
VERTEX
  8
21
 10
44.7910
 20
108.1100
 30
0.0000
 42
1.0000
  0
VERTEX
  8
21
 10
44.7910
 20
111.1100
 30
0.0000
 42
1.0000
  0
VERTEX
  8
21
 10
44.7910
 20
108.1100
 30
0.0000
  0
SEQEND
  8
0
  0
CIRCLE
  8
20
 10
44.7910
 20
109.6100
 30
0.0000
 40
1.6000
  0
POLYLINE
  8
29
 66
1
 10
0.0000
 20
0.0000
 30
0.0000
 40
1.7016
 41
1.7016
 70
0
  0
VERTEX
  8
29
 10
44.7910
 20
108.7592
 30
0.0000
 42
1.0000
  0
VERTEX
  8
29
 10
44.7910
 20
110.4608
 30
0.0000
 42
1.0000
  0
VERTEX
  8
29
 10
44.7910
 20
108.7592
 30
0.0000
  0
SEQEND
  8
0
  0
POLYLINE
  8
30
 66
1
 10
0.0000
 20
0.0000
 30
0.0000
 40
1.7016
 41
1.7016
 70
0
  0
VERTEX
  8
30
 10
44.7910
 20
108.7592
 30
0.0000
 42
1.0000
  0
VERTEX
  8
30
 10
44.7910
 20
110.4608
 30
0.0000
 42
1.0000
  0
VERTEX
  8
30
 10
44.7910
 20
108.7592
 30
0.0000
  0
SEQEND
  8
0
  0
POINT
  8
23
 10
84.0340
 20
40.9030
 30
0.0000
  0
POLYLINE
  8
51
 66
1
 10
0.0000
 20
0.0000
 30
0.0000
 40
2.2860
 41
2.2860
 70
0
  0
VERTEX
  8
51
 10
84.0340
 20
39.1250
 30
0.0000
 42
0.4142
  0
VERTEX
  8
51
 10
85.8120
 20
40.9030
 30
0.0000
  0
SEQEND
  8
0
  0
POLYLINE
  8
51
 66
1
 10
0.0000
 20
0.0000
 30
0.0000
 40
2.2860
 41
2.2860
 70
0
  0
VERTEX
  8
51
 10
84.0340
 20
42.6810
 30
0.0000
 42
0.4142
  0
VERTEX
  8
51
 10
82.2560
 20
40.9030
 30
0.0000
  0
SEQEND
  8
0
  0
POLYLINE
  8
51
 66
1
 10
0.0000
 20
0.0000
 30
0.0000
 40
0.4572
 41
0.4572
 70
0
  0
VERTEX
  8
51
 10
84.0340
 20
40.2680
 30
0.0000
 42
1.0000
  0
VERTEX
  8
51
 10
84.0340
 20
41.5380
 30
0.0000
 42
1.0000
  0
VERTEX
  8
51
 10
84.0340
 20
40.2680
 30
0.0000
  0
SEQEND
  8
0
  0
POLYLINE
  8
21
 66
1
 10
0.0000
 20
0.0000
 30
0.0000
 40
0.1524
 41
0.1524
 70
0
  0
VERTEX
  8
21
 10
84.0340
 20
38.1090
 30
0.0000
 42
1.0000
  0
VERTEX
  8
21
 10
84.0340
 20
43.6970
 30
0.0000
 42
1.0000
  0
VERTEX
  8
21
 10
84.0340
 20
38.1090
 30
0.0000
  0
SEQEND
  8
0
  0
POLYLINE
  8
40
 66
1
 10
0.0000
 20
0.0000
 30
0.0000
 40
2.0320
 41
2.0320
 70
0
  0
VERTEX
  8
40
 10
84.0340
 20
38.9980
 30
0.0000
 42
1.0000
  0
VERTEX
  8
40
 10
84.0340
 20
42.8080
 30
0.0000
 42
1.0000
  0
VERTEX
  8
40
 10
84.0340
 20
38.9980
 30
0.0000
  0
SEQEND
  8
0
  0
POLYLINE
  8
39
 66
1
 10
0.0000
 20
0.0000
 30
0.0000
 40
2.0320
 41
2.0320
 70
0
  0
VERTEX
  8
39
 10
84.0340
 20
38.9980
 30
0.0000
 42
1.0000
  0
VERTEX
  8
39
 10
84.0340
 20
42.8080
 30
0.0000
 42
1.0000
  0
VERTEX
  8
39
 10
84.0340
 20
38.9980
 30
0.0000
  0
SEQEND
  8
0
  0
POLYLINE
  8
41
 66
1
 10
0.0000
 20
0.0000
 30
0.0000
 40
2.0320
 41
2.0320
 70
0
  0
VERTEX
  8
41
 10
84.0340
 20
38.9980
 30
0.0000
 42
1.0000
  0
VERTEX
  8
41
 10
84.0340
 20
42.8080
 30
0.0000
 42
1.0000
  0
VERTEX
  8
41
 10
84.0340
 20
38.9980
 30
0.0000
  0
SEQEND
  8
0
  0
POLYLINE
  8
42
 66
1
 10
0.0000
 20
0.0000
 30
0.0000
 40
2.0320
 41
2.0320
 70
0
  0
VERTEX
  8
42
 10
84.0340
 20
38.9980
 30
0.0000
 42
1.0000
  0
VERTEX
  8
42
 10
84.0340
 20
42.8080
 30
0.0000
 42
1.0000
  0
VERTEX
  8
42
 10
84.0340
 20
38.9980
 30
0.0000
  0
SEQEND
  8
0
  0
POLYLINE
  8
43
 66
1
 10
0.0000
 20
0.0000
 30
0.0000
 40
1.5240
 41
1.5240
 70
0
  0
VERTEX
  8
43
 10
84.0340
 20
38.9980
 30
0.0000
 42
1.0000
  0
VERTEX
  8
43
 10
84.0340
 20
42.8080
 30
0.0000
 42
1.0000
  0
VERTEX
  8
43
 10
84.0340
 20
38.9980
 30
0.0000
  0
SEQEND
  8
0
  0
POLYLINE
  8
21
 66
1
 10
0.0000
 20
0.0000
 30
0.0000
 40
0.2032
 41
0.2032
 70
0
  0
VERTEX
  8
21
 10
84.0340
 20
39.4030
 30
0.0000
 42
1.0000
  0
VERTEX
  8
21
 10
84.0340
 20
42.4030
 30
0.0000
 42
1.0000
  0
VERTEX
  8
21
 10
84.0340
 20
39.4030
 30
0.0000
  0
SEQEND
  8
0
  0
CIRCLE
  8
20
 10
84.0340
 20
40.9030
 30
0.0000
 40
1.6000
  0
POLYLINE
  8
29
 66
1
 10
0.0000
 20
0.0000
 30
0.0000
 40
1.7016
 41
1.7016
 70
0
  0
VERTEX
  8
29
 10
84.0340
 20
40.0522
 30
0.0000
 42
1.0000
  0
VERTEX
  8
29
 10
84.0340
 20
41.7538
 30
0.0000
 42
1.0000
  0
VERTEX
  8
29
 10
84.0340
 20
40.0522
 30
0.0000
  0
SEQEND
  8
0
  0
POLYLINE
  8
30
 66
1
 10
0.0000
 20
0.0000
 30
0.0000
 40
1.7016
 41
1.7016
 70
0
  0
VERTEX
  8
30
 10
84.0340
 20
40.0522
 30
0.0000
 42
1.0000
  0
VERTEX
  8
30
 10
84.0340
 20
41.7538
 30
0.0000
 42
1.0000
  0
VERTEX
  8
30
 10
84.0340
 20
40.0522
 30
0.0000
  0
SEQEND
  8
0
  0
POINT
  8
23
 10
6.6910
 20
20.7100
 30
0.0000
  0
POLYLINE
  8
51
 66
1
 10
0.0000
 20
0.0000
 30
0.0000
 40
2.2860
 41
2.2860
 70
0
  0
VERTEX
  8
51
 10
6.6910
 20
18.9320
 30
0.0000
 42
0.4142
  0
VERTEX
  8
51
 10
8.4690
 20
20.7100
 30
0.0000
  0
SEQEND
  8
0
  0
POLYLINE
  8
51
 66
1
 10
0.0000
 20
0.0000
 30
0.0000
 40
2.2860
 41
2.2860
 70
0
  0
VERTEX
  8
51
 10
6.6910
 20
22.4880
 30
0.0000
 42
0.4142
  0
VERTEX
  8
51
 10
4.9130
 20
20.7100
 30
0.0000
  0
SEQEND
  8
0
  0
POLYLINE
  8
51
 66
1
 10
0.0000
 20
0.0000
 30
0.0000
 40
0.4572
 41
0.4572
 70
0
  0
VERTEX
  8
51
 10
6.6910
 20
20.0750
 30
0.0000
 42
1.0000
  0
VERTEX
  8
51
 10
6.6910
 20
21.3450
 30
0.0000
 42
1.0000
  0
VERTEX
  8
51
 10
6.6910
 20
20.0750
 30
0.0000
  0
SEQEND
  8
0
  0
POLYLINE
  8
21
 66
1
 10
0.0000
 20
0.0000
 30
0.0000
 40
0.1524
 41
0.1524
 70
0
  0
VERTEX
  8
21
 10
6.6910
 20
17.9160
 30
0.0000
 42
1.0000
  0
VERTEX
  8
21
 10
6.6910
 20
23.5040
 30
0.0000
 42
1.0000
  0
VERTEX
  8
21
 10
6.6910
 20
17.9160
 30
0.0000
  0
SEQEND
  8
0
  0
POLYLINE
  8
40
 66
1
 10
0.0000
 20
0.0000
 30
0.0000
 40
2.0320
 41
2.0320
 70
0
  0
VERTEX
  8
40
 10
6.6910
 20
18.8050
 30
0.0000
 42
1.0000
  0
VERTEX
  8
40
 10
6.6910
 20
22.6150
 30
0.0000
 42
1.0000
  0
VERTEX
  8
40
 10
6.6910
 20
18.8050
 30
0.0000
  0
SEQEND
  8
0
  0
POLYLINE
  8
39
 66
1
 10
0.0000
 20
0.0000
 30
0.0000
 40
2.0320
 41
2.0320
 70
0
  0
VERTEX
  8
39
 10
6.6910
 20
18.8050
 30
0.0000
 42
1.0000
  0
VERTEX
  8
39
 10
6.6910
 20
22.6150
 30
0.0000
 42
1.0000
  0
VERTEX
  8
39
 10
6.6910
 20
18.8050
 30
0.0000
  0
SEQEND
  8
0
  0
POLYLINE
  8
41
 66
1
 10
0.0000
 20
0.0000
 30
0.0000
 40
2.0320
 41
2.0320
 70
0
  0
VERTEX
  8
41
 10
6.6910
 20
18.8050
 30
0.0000
 42
1.0000
  0
VERTEX
  8
41
 10
6.6910
 20
22.6150
 30
0.0000
 42
1.0000
  0
VERTEX
  8
41
 10
6.6910
 20
18.8050
 30
0.0000
  0
SEQEND
  8
0
  0
POLYLINE
  8
42
 66
1
 10
0.0000
 20
0.0000
 30
0.0000
 40
2.0320
 41
2.0320
 70
0
  0
VERTEX
  8
42
 10
6.6910
 20
18.8050
 30
0.0000
 42
1.0000
  0
VERTEX
  8
42
 10
6.6910
 20
22.6150
 30
0.0000
 42
1.0000
  0
VERTEX
  8
42
 10
6.6910
 20
18.8050
 30
0.0000
  0
SEQEND
  8
0
  0
POLYLINE
  8
43
 66
1
 10
0.0000
 20
0.0000
 30
0.0000
 40
1.5240
 41
1.5240
 70
0
  0
VERTEX
  8
43
 10
6.6910
 20
18.8050
 30
0.0000
 42
1.0000
  0
VERTEX
  8
43
 10
6.6910
 20
22.6150
 30
0.0000
 42
1.0000
  0
VERTEX
  8
43
 10
6.6910
 20
18.8050
 30
0.0000
  0
SEQEND
  8
0
  0
POLYLINE
  8
21
 66
1
 10
0.0000
 20
0.0000
 30
0.0000
 40
0.2032
 41
0.2032
 70
0
  0
VERTEX
  8
21
 10
6.6910
 20
19.2100
 30
0.0000
 42
1.0000
  0
VERTEX
  8
21
 10
6.6910
 20
22.2100
 30
0.0000
 42
1.0000
  0
VERTEX
  8
21
 10
6.6910
 20
19.2100
 30
0.0000
  0
SEQEND
  8
0
  0
CIRCLE
  8
20
 10
6.6910
 20
20.7100
 30
0.0000
 40
1.6000
  0
POLYLINE
  8
29
 66
1
 10
0.0000
 20
0.0000
 30
0.0000
 40
1.7016
 41
1.7016
 70
0
  0
VERTEX
  8
29
 10
6.6910
 20
19.8592
 30
0.0000
 42
1.0000
  0
VERTEX
  8
29
 10
6.6910
 20
21.5608
 30
0.0000
 42
1.0000
  0
VERTEX
  8
29
 10
6.6910
 20
19.8592
 30
0.0000
  0
SEQEND
  8
0
  0
POLYLINE
  8
30
 66
1
 10
0.0000
 20
0.0000
 30
0.0000
 40
1.7016
 41
1.7016
 70
0
  0
VERTEX
  8
30
 10
6.6910
 20
19.8592
 30
0.0000
 42
1.0000
  0
VERTEX
  8
30
 10
6.6910
 20
21.5608
 30
0.0000
 42
1.0000
  0
VERTEX
  8
30
 10
6.6910
 20
19.8592
 30
0.0000
  0
SEQEND
  8
0
  0
POINT
  8
23
 10
84.1610
 20
89.2900
 30
0.0000
  0
POLYLINE
  8
51
 66
1
 10
0.0000
 20
0.0000
 30
0.0000
 40
2.2860
 41
2.2860
 70
0
  0
VERTEX
  8
51
 10
84.1610
 20
87.5120
 30
0.0000
 42
0.4142
  0
VERTEX
  8
51
 10
85.9390
 20
89.2900
 30
0.0000
  0
SEQEND
  8
0
  0
POLYLINE
  8
51
 66
1
 10
0.0000
 20
0.0000
 30
0.0000
 40
2.2860
 41
2.2860
 70
0
  0
VERTEX
  8
51
 10
84.1610
 20
91.0680
 30
0.0000
 42
0.4142
  0
VERTEX
  8
51
 10
82.3830
 20
89.2900
 30
0.0000
  0
SEQEND
  8
0
  0
POLYLINE
  8
51
 66
1
 10
0.0000
 20
0.0000
 30
0.0000
 40
0.4572
 41
0.4572
 70
0
  0
VERTEX
  8
51
 10
84.1610
 20
88.6550
 30
0.0000
 42
1.0000
  0
VERTEX
  8
51
 10
84.1610
 20
89.9250
 30
0.0000
 42
1.0000
  0
VERTEX
  8
51
 10
84.1610
 20
88.6550
 30
0.0000
  0
SEQEND
  8
0
  0
POLYLINE
  8
21
 66
1
 10
0.0000
 20
0.0000
 30
0.0000
 40
0.1524
 41
0.1524
 70
0
  0
VERTEX
  8
21
 10
84.1610
 20
86.4960
 30
0.0000
 42
1.0000
  0
VERTEX
  8
21
 10
84.1610
 20
92.0840
 30
0.0000
 42
1.0000
  0
VERTEX
  8
21
 10
84.1610
 20
86.4960
 30
0.0000
  0
SEQEND
  8
0
  0
POLYLINE
  8
40
 66
1
 10
0.0000
 20
0.0000
 30
0.0000
 40
2.0320
 41
2.0320
 70
0
  0
VERTEX
  8
40
 10
84.1610
 20
87.3850
 30
0.0000
 42
1.0000
  0
VERTEX
  8
40
 10
84.1610
 20
91.1950
 30
0.0000
 42
1.0000
  0
VERTEX
  8
40
 10
84.1610
 20
87.3850
 30
0.0000
  0
SEQEND
  8
0
  0
POLYLINE
  8
39
 66
1
 10
0.0000
 20
0.0000
 30
0.0000
 40
2.0320
 41
2.0320
 70
0
  0
VERTEX
  8
39
 10
84.1610
 20
87.3850
 30
0.0000
 42
1.0000
  0
VERTEX
  8
39
 10
84.1610
 20
91.1950
 30
0.0000
 42
1.0000
  0
VERTEX
  8
39
 10
84.1610
 20
87.3850
 30
0.0000
  0
SEQEND
  8
0
  0
POLYLINE
  8
41
 66
1
 10
0.0000
 20
0.0000
 30
0.0000
 40
2.0320
 41
2.0320
 70
0
  0
VERTEX
  8
41
 10
84.1610
 20
87.3850
 30
0.0000
 42
1.0000
  0
VERTEX
  8
41
 10
84.1610
 20
91.1950
 30
0.0000
 42
1.0000
  0
VERTEX
  8
41
 10
84.1610
 20
87.3850
 30
0.0000
  0
SEQEND
  8
0
  0
POLYLINE
  8
42
 66
1
 10
0.0000
 20
0.0000
 30
0.0000
 40
2.0320
 41
2.0320
 70
0
  0
VERTEX
  8
42
 10
84.1610
 20
87.3850
 30
0.0000
 42
1.0000
  0
VERTEX
  8
42
 10
84.1610
 20
91.1950
 30
0.0000
 42
1.0000
  0
VERTEX
  8
42
 10
84.1610
 20
87.3850
 30
0.0000
  0
SEQEND
  8
0
  0
POLYLINE
  8
43
 66
1
 10
0.0000
 20
0.0000
 30
0.0000
 40
1.5240
 41
1.5240
 70
0
  0
VERTEX
  8
43
 10
84.1610
 20
87.3850
 30
0.0000
 42
1.0000
  0
VERTEX
  8
43
 10
84.1610
 20
91.1950
 30
0.0000
 42
1.0000
  0
VERTEX
  8
43
 10
84.1610
 20
87.3850
 30
0.0000
  0
SEQEND
  8
0
  0
POLYLINE
  8
21
 66
1
 10
0.0000
 20
0.0000
 30
0.0000
 40
0.2032
 41
0.2032
 70
0
  0
VERTEX
  8
21
 10
84.1610
 20
87.7900
 30
0.0000
 42
1.0000
  0
VERTEX
  8
21
 10
84.1610
 20
90.7900
 30
0.0000
 42
1.0000
  0
VERTEX
  8
21
 10
84.1610
 20
87.7900
 30
0.0000
  0
SEQEND
  8
0
  0
CIRCLE
  8
20
 10
84.1610
 20
89.2900
 30
0.0000
 40
1.6000
  0
POLYLINE
  8
29
 66
1
 10
0.0000
 20
0.0000
 30
0.0000
 40
1.7016
 41
1.7016
 70
0
  0
VERTEX
  8
29
 10
84.1610
 20
88.4392
 30
0.0000
 42
1.0000
  0
VERTEX
  8
29
 10
84.1610
 20
90.1408
 30
0.0000
 42
1.0000
  0
VERTEX
  8
29
 10
84.1610
 20
88.4392
 30
0.0000
  0
SEQEND
  8
0
  0
POLYLINE
  8
30
 66
1
 10
0.0000
 20
0.0000
 30
0.0000
 40
1.7016
 41
1.7016
 70
0
  0
VERTEX
  8
30
 10
84.1610
 20
88.4392
 30
0.0000
 42
1.0000
  0
VERTEX
  8
30
 10
84.1610
 20
90.1408
 30
0.0000
 42
1.0000
  0
VERTEX
  8
30
 10
84.1610
 20
88.4392
 30
0.0000
  0
SEQEND
  8
0
  0
POINT
  8
23
 10
6.6910
 20
109.6100
 30
0.0000
  0
POLYLINE
  8
51
 66
1
 10
0.0000
 20
0.0000
 30
0.0000
 40
2.2860
 41
2.2860
 70
0
  0
VERTEX
  8
51
 10
6.6910
 20
107.8320
 30
0.0000
 42
0.4142
  0
VERTEX
  8
51
 10
8.4690
 20
109.6100
 30
0.0000
  0
SEQEND
  8
0
  0
POLYLINE
  8
51
 66
1
 10
0.0000
 20
0.0000
 30
0.0000
 40
2.2860
 41
2.2860
 70
0
  0
VERTEX
  8
51
 10
6.6910
 20
111.3880
 30
0.0000
 42
0.4142
  0
VERTEX
  8
51
 10
4.9130
 20
109.6100
 30
0.0000
  0
SEQEND
  8
0
  0
POLYLINE
  8
51
 66
1
 10
0.0000
 20
0.0000
 30
0.0000
 40
0.4572
 41
0.4572
 70
0
  0
VERTEX
  8
51
 10
6.6910
 20
108.9750
 30
0.0000
 42
1.0000
  0
VERTEX
  8
51
 10
6.6910
 20
110.2450
 30
0.0000
 42
1.0000
  0
VERTEX
  8
51
 10
6.6910
 20
108.9750
 30
0.0000
  0
SEQEND
  8
0
  0
POLYLINE
  8
21
 66
1
 10
0.0000
 20
0.0000
 30
0.0000
 40
0.1524
 41
0.1524
 70
0
  0
VERTEX
  8
21
 10
6.6910
 20
106.8160
 30
0.0000
 42
1.0000
  0
VERTEX
  8
21
 10
6.6910
 20
112.4040
 30
0.0000
 42
1.0000
  0
VERTEX
  8
21
 10
6.6910
 20
106.8160
 30
0.0000
  0
SEQEND
  8
0
  0
POLYLINE
  8
40
 66
1
 10
0.0000
 20
0.0000
 30
0.0000
 40
2.0320
 41
2.0320
 70
0
  0
VERTEX
  8
40
 10
6.6910
 20
107.7050
 30
0.0000
 42
1.0000
  0
VERTEX
  8
40
 10
6.6910
 20
111.5150
 30
0.0000
 42
1.0000
  0
VERTEX
  8
40
 10
6.6910
 20
107.7050
 30
0.0000
  0
SEQEND
  8
0
  0
POLYLINE
  8
39
 66
1
 10
0.0000
 20
0.0000
 30
0.0000
 40
2.0320
 41
2.0320
 70
0
  0
VERTEX
  8
39
 10
6.6910
 20
107.7050
 30
0.0000
 42
1.0000
  0
VERTEX
  8
39
 10
6.6910
 20
111.5150
 30
0.0000
 42
1.0000
  0
VERTEX
  8
39
 10
6.6910
 20
107.7050
 30
0.0000
  0
SEQEND
  8
0
  0
POLYLINE
  8
41
 66
1
 10
0.0000
 20
0.0000
 30
0.0000
 40
2.0320
 41
2.0320
 70
0
  0
VERTEX
  8
41
 10
6.6910
 20
107.7050
 30
0.0000
 42
1.0000
  0
VERTEX
  8
41
 10
6.6910
 20
111.5150
 30
0.0000
 42
1.0000
  0
VERTEX
  8
41
 10
6.6910
 20
107.7050
 30
0.0000
  0
SEQEND
  8
0
  0
POLYLINE
  8
42
 66
1
 10
0.0000
 20
0.0000
 30
0.0000
 40
2.0320
 41
2.0320
 70
0
  0
VERTEX
  8
42
 10
6.6910
 20
107.7050
 30
0.0000
 42
1.0000
  0
VERTEX
  8
42
 10
6.6910
 20
111.5150
 30
0.0000
 42
1.0000
  0
VERTEX
  8
42
 10
6.6910
 20
107.7050
 30
0.0000
  0
SEQEND
  8
0
  0
POLYLINE
  8
43
 66
1
 10
0.0000
 20
0.0000
 30
0.0000
 40
1.5240
 41
1.5240
 70
0
  0
VERTEX
  8
43
 10
6.6910
 20
107.7050
 30
0.0000
 42
1.0000
  0
VERTEX
  8
43
 10
6.6910
 20
111.5150
 30
0.0000
 42
1.0000
  0
VERTEX
  8
43
 10
6.6910
 20
107.7050
 30
0.0000
  0
SEQEND
  8
0
  0
POLYLINE
  8
21
 66
1
 10
0.0000
 20
0.0000
 30
0.0000
 40
0.2032
 41
0.2032
 70
0
  0
VERTEX
  8
21
 10
6.6910
 20
108.1100
 30
0.0000
 42
1.0000
  0
VERTEX
  8
21
 10
6.6910
 20
111.1100
 30
0.0000
 42
1.0000
  0
VERTEX
  8
21
 10
6.6910
 20
108.1100
 30
0.0000
  0
SEQEND
  8
0
  0
CIRCLE
  8
20
 10
6.6910
 20
109.6100
 30
0.0000
 40
1.6000
  0
POLYLINE
  8
29
 66
1
 10
0.0000
 20
0.0000
 30
0.0000
 40
1.7016
 41
1.7016
 70
0
  0
VERTEX
  8
29
 10
6.6910
 20
108.7592
 30
0.0000
 42
1.0000
  0
VERTEX
  8
29
 10
6.6910
 20
110.4608
 30
0.0000
 42
1.0000
  0
VERTEX
  8
29
 10
6.6910
 20
108.7592
 30
0.0000
  0
SEQEND
  8
0
  0
POLYLINE
  8
30
 66
1
 10
0.0000
 20
0.0000
 30
0.0000
 40
1.7016
 41
1.7016
 70
0
  0
VERTEX
  8
30
 10
6.6910
 20
108.7592
 30
0.0000
 42
1.0000
  0
VERTEX
  8
30
 10
6.6910
 20
110.4608
 30
0.0000
 42
1.0000
  0
VERTEX
  8
30
 10
6.6910
 20
108.7592
 30
0.0000
  0
SEQEND
  8
0
  0
POINT
  8
23
 10
6.6910
 20
41.2840
 30
0.0000
  0
POLYLINE
  8
51
 66
1
 10
0.0000
 20
0.0000
 30
0.0000
 40
2.2860
 41
2.2860
 70
0
  0
VERTEX
  8
51
 10
6.6910
 20
39.5060
 30
0.0000
 42
0.4142
  0
VERTEX
  8
51
 10
8.4690
 20
41.2840
 30
0.0000
  0
SEQEND
  8
0
  0
POLYLINE
  8
51
 66
1
 10
0.0000
 20
0.0000
 30
0.0000
 40
2.2860
 41
2.2860
 70
0
  0
VERTEX
  8
51
 10
6.6910
 20
43.0620
 30
0.0000
 42
0.4142
  0
VERTEX
  8
51
 10
4.9130
 20
41.2840
 30
0.0000
  0
SEQEND
  8
0
  0
POLYLINE
  8
51
 66
1
 10
0.0000
 20
0.0000
 30
0.0000
 40
0.4572
 41
0.4572
 70
0
  0
VERTEX
  8
51
 10
6.6910
 20
40.6490
 30
0.0000
 42
1.0000
  0
VERTEX
  8
51
 10
6.6910
 20
41.9190
 30
0.0000
 42
1.0000
  0
VERTEX
  8
51
 10
6.6910
 20
40.6490
 30
0.0000
  0
SEQEND
  8
0
  0
POLYLINE
  8
21
 66
1
 10
0.0000
 20
0.0000
 30
0.0000
 40
0.1524
 41
0.1524
 70
0
  0
VERTEX
  8
21
 10
6.6910
 20
38.4900
 30
0.0000
 42
1.0000
  0
VERTEX
  8
21
 10
6.6910
 20
44.0780
 30
0.0000
 42
1.0000
  0
VERTEX
  8
21
 10
6.6910
 20
38.4900
 30
0.0000
  0
SEQEND
  8
0
  0
POLYLINE
  8
40
 66
1
 10
0.0000
 20
0.0000
 30
0.0000
 40
2.0320
 41
2.0320
 70
0
  0
VERTEX
  8
40
 10
6.6910
 20
39.3790
 30
0.0000
 42
1.0000
  0
VERTEX
  8
40
 10
6.6910
 20
43.1890
 30
0.0000
 42
1.0000
  0
VERTEX
  8
40
 10
6.6910
 20
39.3790
 30
0.0000
  0
SEQEND
  8
0
  0
POLYLINE
  8
39
 66
1
 10
0.0000
 20
0.0000
 30
0.0000
 40
2.0320
 41
2.0320
 70
0
  0
VERTEX
  8
39
 10
6.6910
 20
39.3790
 30
0.0000
 42
1.0000
  0
VERTEX
  8
39
 10
6.6910
 20
43.1890
 30
0.0000
 42
1.0000
  0
VERTEX
  8
39
 10
6.6910
 20
39.3790
 30
0.0000
  0
SEQEND
  8
0
  0
POLYLINE
  8
41
 66
1
 10
0.0000
 20
0.0000
 30
0.0000
 40
2.0320
 41
2.0320
 70
0
  0
VERTEX
  8
41
 10
6.6910
 20
39.3790
 30
0.0000
 42
1.0000
  0
VERTEX
  8
41
 10
6.6910
 20
43.1890
 30
0.0000
 42
1.0000
  0
VERTEX
  8
41
 10
6.6910
 20
39.3790
 30
0.0000
  0
SEQEND
  8
0
  0
POLYLINE
  8
42
 66
1
 10
0.0000
 20
0.0000
 30
0.0000
 40
2.0320
 41
2.0320
 70
0
  0
VERTEX
  8
42
 10
6.6910
 20
39.3790
 30
0.0000
 42
1.0000
  0
VERTEX
  8
42
 10
6.6910
 20
43.1890
 30
0.0000
 42
1.0000
  0
VERTEX
  8
42
 10
6.6910
 20
39.3790
 30
0.0000
  0
SEQEND
  8
0
  0
POLYLINE
  8
43
 66
1
 10
0.0000
 20
0.0000
 30
0.0000
 40
1.5240
 41
1.5240
 70
0
  0
VERTEX
  8
43
 10
6.6910
 20
39.3790
 30
0.0000
 42
1.0000
  0
VERTEX
  8
43
 10
6.6910
 20
43.1890
 30
0.0000
 42
1.0000
  0
VERTEX
  8
43
 10
6.6910
 20
39.3790
 30
0.0000
  0
SEQEND
  8
0
  0
POLYLINE
  8
21
 66
1
 10
0.0000
 20
0.0000
 30
0.0000
 40
0.2032
 41
0.2032
 70
0
  0
VERTEX
  8
21
 10
6.6910
 20
39.7840
 30
0.0000
 42
1.0000
  0
VERTEX
  8
21
 10
6.6910
 20
42.7840
 30
0.0000
 42
1.0000
  0
VERTEX
  8
21
 10
6.6910
 20
39.7840
 30
0.0000
  0
SEQEND
  8
0
  0
CIRCLE
  8
20
 10
6.6910
 20
41.2840
 30
0.0000
 40
1.6000
  0
POLYLINE
  8
29
 66
1
 10
0.0000
 20
0.0000
 30
0.0000
 40
1.7016
 41
1.7016
 70
0
  0
VERTEX
  8
29
 10
6.6910
 20
40.4332
 30
0.0000
 42
1.0000
  0
VERTEX
  8
29
 10
6.6910
 20
42.1348
 30
0.0000
 42
1.0000
  0
VERTEX
  8
29
 10
6.6910
 20
40.4332
 30
0.0000
  0
SEQEND
  8
0
  0
POLYLINE
  8
30
 66
1
 10
0.0000
 20
0.0000
 30
0.0000
 40
1.7016
 41
1.7016
 70
0
  0
VERTEX
  8
30
 10
6.6910
 20
40.4332
 30
0.0000
 42
1.0000
  0
VERTEX
  8
30
 10
6.6910
 20
42.1348
 30
0.0000
 42
1.0000
  0
VERTEX
  8
30
 10
6.6910
 20
40.4332
 30
0.0000
  0
SEQEND
  8
0
  0
POINT
  8
23
 10
6.6910
 20
89.2900
 30
0.0000
  0
POLYLINE
  8
51
 66
1
 10
0.0000
 20
0.0000
 30
0.0000
 40
2.2860
 41
2.2860
 70
0
  0
VERTEX
  8
51
 10
6.6910
 20
87.5120
 30
0.0000
 42
0.4142
  0
VERTEX
  8
51
 10
8.4690
 20
89.2900
 30
0.0000
  0
SEQEND
  8
0
  0
POLYLINE
  8
51
 66
1
 10
0.0000
 20
0.0000
 30
0.0000
 40
2.2860
 41
2.2860
 70
0
  0
VERTEX
  8
51
 10
6.6910
 20
91.0680
 30
0.0000
 42
0.4142
  0
VERTEX
  8
51
 10
4.9130
 20
89.2900
 30
0.0000
  0
SEQEND
  8
0
  0
POLYLINE
  8
51
 66
1
 10
0.0000
 20
0.0000
 30
0.0000
 40
0.4572
 41
0.4572
 70
0
  0
VERTEX
  8
51
 10
6.6910
 20
88.6550
 30
0.0000
 42
1.0000
  0
VERTEX
  8
51
 10
6.6910
 20
89.9250
 30
0.0000
 42
1.0000
  0
VERTEX
  8
51
 10
6.6910
 20
88.6550
 30
0.0000
  0
SEQEND
  8
0
  0
POLYLINE
  8
21
 66
1
 10
0.0000
 20
0.0000
 30
0.0000
 40
0.1524
 41
0.1524
 70
0
  0
VERTEX
  8
21
 10
6.6910
 20
86.4960
 30
0.0000
 42
1.0000
  0
VERTEX
  8
21
 10
6.6910
 20
92.0840
 30
0.0000
 42
1.0000
  0
VERTEX
  8
21
 10
6.6910
 20
86.4960
 30
0.0000
  0
SEQEND
  8
0
  0
POLYLINE
  8
40
 66
1
 10
0.0000
 20
0.0000
 30
0.0000
 40
2.0320
 41
2.0320
 70
0
  0
VERTEX
  8
40
 10
6.6910
 20
87.3850
 30
0.0000
 42
1.0000
  0
VERTEX
  8
40
 10
6.6910
 20
91.1950
 30
0.0000
 42
1.0000
  0
VERTEX
  8
40
 10
6.6910
 20
87.3850
 30
0.0000
  0
SEQEND
  8
0
  0
POLYLINE
  8
39
 66
1
 10
0.0000
 20
0.0000
 30
0.0000
 40
2.0320
 41
2.0320
 70
0
  0
VERTEX
  8
39
 10
6.6910
 20
87.3850
 30
0.0000
 42
1.0000
  0
VERTEX
  8
39
 10
6.6910
 20
91.1950
 30
0.0000
 42
1.0000
  0
VERTEX
  8
39
 10
6.6910
 20
87.3850
 30
0.0000
  0
SEQEND
  8
0
  0
POLYLINE
  8
41
 66
1
 10
0.0000
 20
0.0000
 30
0.0000
 40
2.0320
 41
2.0320
 70
0
  0
VERTEX
  8
41
 10
6.6910
 20
87.3850
 30
0.0000
 42
1.0000
  0
VERTEX
  8
41
 10
6.6910
 20
91.1950
 30
0.0000
 42
1.0000
  0
VERTEX
  8
41
 10
6.6910
 20
87.3850
 30
0.0000
  0
SEQEND
  8
0
  0
POLYLINE
  8
42
 66
1
 10
0.0000
 20
0.0000
 30
0.0000
 40
2.0320
 41
2.0320
 70
0
  0
VERTEX
  8
42
 10
6.6910
 20
87.3850
 30
0.0000
 42
1.0000
  0
VERTEX
  8
42
 10
6.6910
 20
91.1950
 30
0.0000
 42
1.0000
  0
VERTEX
  8
42
 10
6.6910
 20
87.3850
 30
0.0000
  0
SEQEND
  8
0
  0
POLYLINE
  8
43
 66
1
 10
0.0000
 20
0.0000
 30
0.0000
 40
1.5240
 41
1.5240
 70
0
  0
VERTEX
  8
43
 10
6.6910
 20
87.3850
 30
0.0000
 42
1.0000
  0
VERTEX
  8
43
 10
6.6910
 20
91.1950
 30
0.0000
 42
1.0000
  0
VERTEX
  8
43
 10
6.6910
 20
87.3850
 30
0.0000
  0
SEQEND
  8
0
  0
POLYLINE
  8
21
 66
1
 10
0.0000
 20
0.0000
 30
0.0000
 40
0.2032
 41
0.2032
 70
0
  0
VERTEX
  8
21
 10
6.6910
 20
87.7900
 30
0.0000
 42
1.0000
  0
VERTEX
  8
21
 10
6.6910
 20
90.7900
 30
0.0000
 42
1.0000
  0
VERTEX
  8
21
 10
6.6910
 20
87.7900
 30
0.0000
  0
SEQEND
  8
0
  0
CIRCLE
  8
20
 10
6.6910
 20
89.2900
 30
0.0000
 40
1.6000
  0
POLYLINE
  8
29
 66
1
 10
0.0000
 20
0.0000
 30
0.0000
 40
1.7016
 41
1.7016
 70
0
  0
VERTEX
  8
29
 10
6.6910
 20
88.4392
 30
0.0000
 42
1.0000
  0
VERTEX
  8
29
 10
6.6910
 20
90.1408
 30
0.0000
 42
1.0000
  0
VERTEX
  8
29
 10
6.6910
 20
88.4392
 30
0.0000
  0
SEQEND
  8
0
  0
POLYLINE
  8
30
 66
1
 10
0.0000
 20
0.0000
 30
0.0000
 40
1.7016
 41
1.7016
 70
0
  0
VERTEX
  8
30
 10
6.6910
 20
88.4392
 30
0.0000
 42
1.0000
  0
VERTEX
  8
30
 10
6.6910
 20
90.1408
 30
0.0000
 42
1.0000
  0
VERTEX
  8
30
 10
6.6910
 20
88.4392
 30
0.0000
  0
SEQEND
  8
0
  0
LINE
  8
19
 10
7.5000
 20
2.9520
 30
0.0000
 11
7.5000
 21
125.4520
 31
0.0000
  0
INSERT
  8
18
  2
ROUNDV
 10
7.5000
 20
125.4520
 30
0.0000
 41
4.1910
 42
4.1910
 43
1.0000
 50
0.0000
  0
INSERT
  8
18
  2
ROUNDV
 10
7.5000
 20
125.4520
 30
0.0000
 41
4.1910
 42
4.1910
 43
1.0000
 50
0.0000
  0
INSERT
  8
29
  2
ROUNDV
 10
7.5000
 20
125.4520
 30
0.0000
 41
4.3942
 42
4.3942
 43
1.0000
 50
0.0000
  0
INSERT
  8
30
  2
ROUNDV
 10
7.5000
 20
125.4520
 30
0.0000
 41
4.3942
 42
4.3942
 43
1.0000
 50
0.0000
  0
CIRCLE
  8
44
 10
7.5000
 20
125.4520
 30
0.0000
 40
1.5000
  0
INSERT
  8
18
  2
ROUNDV
 10
7.5000
 20
2.9520
 30
0.0000
 41
4.1910
 42
4.1910
 43
1.0000
 50
0.0000
  0
INSERT
  8
18
  2
ROUNDV
 10
7.5000
 20
2.9520
 30
0.0000
 41
4.1910
 42
4.1910
 43
1.0000
 50
0.0000
  0
INSERT
  8
29
  2
ROUNDV
 10
7.5000
 20
2.9520
 30
0.0000
 41
4.3942
 42
4.3942
 43
1.0000
 50
0.0000
  0
INSERT
  8
30
  2
ROUNDV
 10
7.5000
 20
2.9520
 30
0.0000
 41
4.3942
 42
4.3942
 43
1.0000
 50
0.0000
  0
CIRCLE
  8
44
 10
7.5000
 20
2.9520
 30
0.0000
 40
1.5000
  0
INSERT
  8
18
  2
ROUNDV
 10
83.4000
 20
2.9520
 30
0.0000
 41
4.1910
 42
4.1910
 43
1.0000
 50
0.0000
  0
INSERT
  8
18
  2
ROUNDV
 10
83.4000
 20
2.9520
 30
0.0000
 41
4.1910
 42
4.1910
 43
1.0000
 50
0.0000
  0
INSERT
  8
29
  2
ROUNDV
 10
83.4000
 20
2.9520
 30
0.0000
 41
4.3942
 42
4.3942
 43
1.0000
 50
0.0000
  0
INSERT
  8
30
  2
ROUNDV
 10
83.4000
 20
2.9520
 30
0.0000
 41
4.3942
 42
4.3942
 43
1.0000
 50
0.0000
  0
CIRCLE
  8
44
 10
83.4000
 20
2.9520
 30
0.0000
 40
1.5000
  0
INSERT
  8
18
  2
ROUNDV
 10
83.4000
 20
125.4520
 30
0.0000
 41
4.1910
 42
4.1910
 43
1.0000
 50
0.0000
  0
INSERT
  8
18
  2
ROUNDV
 10
83.4000
 20
125.4520
 30
0.0000
 41
4.1910
 42
4.1910
 43
1.0000
 50
0.0000
  0
INSERT
  8
29
  2
ROUNDV
 10
83.4000
 20
125.4520
 30
0.0000
 41
4.3942
 42
4.3942
 43
1.0000
 50
0.0000
  0
INSERT
  8
30
  2
ROUNDV
 10
83.4000
 20
125.4520
 30
0.0000
 41
4.3942
 42
4.3942
 43
1.0000
 50
0.0000
  0
CIRCLE
  8
44
 10
83.4000
 20
125.4520
 30
0.0000
 40
1.5000
  0
ENDSEC
  0
EOF
